<svg width="90" height="90" viewBox="0 0 90 90" fill="none" xmlns="http://www.w3.org/2000/svg">
<path d="M45 87C21.804 87 3 68.196 3 45C3 21.804 21.804 3 45 3C68.196 3 87 21.804 87 45C87 68.196 68.196 87 45 87Z" fill="white"/>
<path d="M62.3008 32.9476C62.3008 27.0394 58.9043 21.851 53.8283 18.9828L56.6346 13.9179C56.7195 13.7704 56.774 13.6074 56.7948 13.4384C56.8156 13.2694 56.8024 13.098 56.7559 12.9342C56.7094 12.7704 56.6305 12.6177 56.5239 12.485C56.4174 12.3523 56.2853 12.2423 56.1356 12.1616C55.8409 11.9981 55.4935 11.9583 55.1696 12.0509C54.8456 12.1436 54.5717 12.3611 54.4078 12.6557L51.5318 17.8549C47.0136 16.079 41.9917 16.079 37.4736 17.8549L34.5922 12.6557C34.5116 12.5093 34.4028 12.3803 34.2722 12.2761C34.1416 12.172 33.9917 12.0947 33.8311 12.0488C33.6705 12.0028 33.5024 11.9892 33.3365 12.0085C33.1706 12.0279 33.0102 12.0799 32.8645 12.1616C32.7182 12.2423 32.5893 12.3512 32.4852 12.4819C32.3812 12.6127 32.304 12.7628 32.2581 12.9235C32.2122 13.0843 32.1985 13.2525 32.2179 13.4186C32.2372 13.5846 32.2892 13.7452 32.3708 13.8911L35.1771 18.9828C30.0957 21.851 26.7314 27.0394 26.7314 32.9476H62.3008ZM68.3104 32.9476C68.9267 32.9476 69.5369 33.0692 70.1062 33.3054C70.6756 33.5417 71.1928 33.8879 71.6283 34.3244C72.0639 34.7609 72.4092 35.279 72.6446 35.8492C72.8799 36.4193 73.0007 37.0303 73 37.6473V54.2975C73.0007 54.9145 72.8799 55.5255 72.6446 56.0956C72.4092 56.6658 72.0639 57.1839 71.6283 57.6204C71.1928 58.0569 70.6756 58.4031 70.1062 58.6394C69.5369 58.8756 68.9267 58.9972 68.3104 58.9972C67.0652 58.9972 65.871 58.5021 64.9905 57.6207C64.11 56.7394 63.6154 55.544 63.6154 54.2975V37.6473C63.6154 36.4008 64.11 35.2055 64.9905 34.3241C65.871 33.4427 67.0652 32.9476 68.3104 32.9476ZM20.695 32.9476C21.9402 32.9476 23.1344 33.4427 24.0149 34.3241C24.8954 35.2055 25.39 36.4008 25.39 37.6473V54.2975C25.39 55.544 24.8954 56.7394 24.0149 57.6207C23.1344 58.5021 21.9402 58.9972 20.695 58.9972C19.4517 58.9972 18.2591 58.5035 17.3789 57.6245C16.4988 56.7455 16.0029 55.5528 16 54.3083V37.658C15.9986 37.0399 16.119 36.4277 16.3543 35.8562C16.5896 35.2848 16.9352 34.7654 17.3713 34.3279C17.8075 33.8903 18.3255 33.5432 18.8958 33.3064C19.4662 33.0695 20.0776 32.9476 20.695 32.9476ZM42.5442 64.4918V73.3003C42.5442 74.5468 42.0496 75.7421 41.1691 76.6235C40.2886 77.5049 39.0944 78 37.8492 78C36.6064 77.9972 35.4155 77.5006 34.5382 76.6194C33.6609 75.7382 33.1689 74.5444 33.1703 73.3003V64.4918H31.024C29.8856 64.4918 28.7937 64.0391 27.9887 63.2333C27.1837 62.4275 26.7314 61.3346 26.7314 60.195V34.3602H62.3008V60.1842C62.3008 61.3238 61.8485 62.4167 61.0435 63.2225C60.2385 64.0284 59.1467 64.4811 58.0082 64.4811H55.8619V73.2896C55.8619 74.536 55.3673 75.7314 54.4868 76.6128C53.6063 77.4941 52.4121 77.9893 51.1669 77.9893C49.9217 77.9893 48.7275 77.4941 47.847 76.6128C46.9666 75.7314 46.4719 74.536 46.4719 73.2896V64.4918H42.5442Z" fill="#9DC900"/>
</svg>
