<svg width="90" height="90" viewBox="0 0 90 90" fill="none" xmlns="http://www.w3.org/2000/svg">
<path d="M84 42C84 65.196 65.196 84 42 84C20.5989 84 2.93655 67.9937 0.332555 47.2989C0.113203 45.5639 0 43.7948 0 42C0 38.712 0.37718 35.5115 1.092 32.4411C5.41882 13.8515 22.092 0 42 0C61.8583 0 78.4988 13.7829 82.8737 32.3041C83.4479 34.7263 83.8097 37.2292 83.9418 39.792C83.9811 40.5239 84 41.2594 84 42Z" fill="white"/>
<path d="M17.7303 16.9321H58.7463C60.291 16.9321 61.543 18.1841 61.543 19.7288V57.0163C61.543 58.5611 60.291 59.8131 58.7463 59.8131H17.7303C16.1856 59.8131 14.9336 58.5611 14.9336 57.0163V19.7288C14.9336 18.1841 16.1856 16.9321 17.7303 16.9321Z" fill="#4398D1"/>
<path d="M17.7305 19.7288H19.5947V21.5931H17.7305V19.7288Z" fill="#3E8CC7"/>
<path d="M21.4609 19.7288H23.3255V21.5931H21.4609V19.7288Z" fill="#3E8CC7"/>
<path d="M25.1875 19.7288H27.0517V21.5931H25.1875V19.7288Z" fill="#3E8CC7"/>
<path d="M25.1873 24.3898H66.2033C67.7481 24.3898 69 25.6417 69 27.1861V64.4736C69 66.0184 67.7481 67.2704 66.2033 67.2704H25.1873C23.6426 67.2704 22.3906 66.0184 22.3906 64.4736V27.1861C22.3906 25.6417 23.6426 24.3898 25.1873 24.3898Z" fill="#87CED9"/>
<path d="M66.2055 24.3898H64.341L22.8086 65.9225C23.3111 66.7576 24.2143 67.2693 25.1892 67.2704H66.2055C67.7503 67.2704 69.0023 66.0184 69.0023 64.4736V27.1861C69.0023 25.6417 67.7503 24.3898 66.2055 24.3898Z" fill="#71C4D1"/>
<path d="M25.1875 27.1861H27.0517V29.0507H25.1875V27.1861Z" fill="#5EB3D1"/>
<path d="M28.918 27.1861H30.7826V29.0507H28.918V27.1861Z" fill="#5EB3D1"/>
<path d="M32.6445 27.1861H34.5091V29.0507H32.6445V27.1861Z" fill="#5EB3D1"/>
<path d="M25.1875 30.9149H66.2035V32.7795H25.1875V30.9149Z" fill="#5EB3D1"/>
<path d="M25.1875 35.5759H32.6448V37.4405H25.1875V35.5759Z" fill="#5EB3D1"/>
<path d="M25.1875 39.3047H30.7806V41.1693H25.1875V39.3047Z" fill="#5EB3D1"/>
<path d="M59.6805 52.3554V46.7623H56.5174C56.2572 45.7515 55.8565 44.7839 55.3262 43.8855L57.5634 41.6483L53.608 37.693L51.3709 39.9301C50.4724 39.3998 49.5048 38.9991 48.494 38.7389V35.5759H42.901V38.7389C41.8905 38.9991 40.9229 39.3998 40.0245 39.9301L37.7869 37.693L33.8316 41.6483L36.0691 43.8855C35.5385 44.7832 35.1377 45.7515 34.8775 46.7623H31.7148V52.3554H34.8775C35.1377 53.3658 35.5385 54.3334 36.0691 55.2319L33.8316 57.4694L37.7869 61.4248L40.0245 59.1872C40.9229 59.7179 41.8905 60.1186 42.901 60.3788V63.5415H48.494V60.3788C49.5048 60.1186 50.4724 59.7179 51.3709 59.1872L53.608 61.4248L57.5634 57.4694L55.3262 55.2319C55.8565 54.3334 56.2572 53.3658 56.5174 52.3554H59.6805ZM45.6977 55.1517C42.6082 55.1517 40.1042 52.6482 40.1042 49.5587C40.1042 46.4696 42.6082 43.9656 45.6977 43.9656C48.7868 43.9656 51.2907 46.4696 51.2907 49.5587C51.2907 52.6482 48.7868 55.1517 45.6977 55.1517Z" fill="#E34B87"/>
<path d="M60.6094 62.6094H66.2024V64.4736H60.6094V62.6094Z" fill="#5EB3D1"/>
<path d="M55.3252 43.8855L57.5623 41.6484L55.7259 39.8108C54.1051 42.1589 52.3085 44.3814 50.3528 46.4593C52.0597 49.0339 51.3548 52.5044 48.7803 54.2112C46.7096 55.5836 43.9814 55.4259 42.0835 53.8237C39.7885 55.5386 37.3925 57.1159 34.9102 58.5461L37.7877 61.4237L40.0253 59.1865C40.923 59.7168 41.8906 60.1186 42.8999 60.3788V63.5415H48.493V60.3788C49.5038 60.1186 50.4714 59.7179 51.3698 59.1873L53.607 61.4248L57.5623 57.4694L55.3252 55.2319C55.8555 54.3335 56.2562 53.3658 56.5164 52.3554H59.6795V46.7624H56.5164C56.2562 45.7519 55.8555 44.7839 55.3252 43.8855Z" fill="#D94881"/>
<path d="M22.3905 27.1861V59.8127H19.5938V29.9828C19.5938 28.4381 20.8457 27.1861 22.3905 27.1861Z" fill="#3E8CC7"/>
<path d="M17.7288 60.7452H19.5931V58.8806H17.7288C16.6986 58.8806 15.8642 58.0462 15.8642 57.0163V19.7288C15.8642 18.6986 16.6986 17.8642 17.7288 17.8642H58.7448C59.775 17.8642 60.6094 18.6986 60.6094 19.7288V21.5931H62.474V19.7288C62.474 17.6695 60.8041 16 58.7452 16H17.7288C15.6695 16 14 17.6695 14 19.7288V57.0163C14 59.0756 15.6695 60.7452 17.7288 60.7452Z" fill="black"/>
<path d="M17.7305 19.7288H19.5947V21.5931H17.7305V19.7288Z" fill="black"/>
<path d="M21.4609 19.7288H23.3255V21.5931H21.4609V19.7288Z" fill="black"/>
<path d="M25.1875 19.7288H27.0517V21.5931H25.1875V19.7288Z" fill="black"/>
<path d="M21.4609 64.4736C21.4609 66.5329 23.1308 68.2025 25.1898 68.2025H66.2061C68.2654 68.2025 69.9349 66.5329 69.9349 64.4736V27.1861C69.9349 25.1272 68.2654 23.4577 66.2061 23.4577H25.1901C23.1308 23.4577 21.4613 25.1272 21.4613 27.1861V64.4736H21.4609ZM23.3255 27.1861C23.3255 26.1563 24.1599 25.3219 25.1901 25.3219H66.2061C67.2363 25.3219 68.0707 26.1563 68.0707 27.1861V64.4736C68.0707 65.5038 67.2363 66.3382 66.2061 66.3382H25.1901C24.1599 66.3382 23.3255 65.5038 23.3255 64.4736V27.1861Z" fill="black"/>
<path d="M25.1875 27.1861H27.0517V29.0507H25.1875V27.1861Z" fill="black"/>
<path d="M28.918 27.1861H30.7826V29.0507H28.918V27.1861Z" fill="black"/>
<path d="M32.6445 27.1861H34.5091V29.0507H32.6445V27.1861Z" fill="black"/>
<path d="M25.1875 30.9149H66.2035V32.7795H25.1875V30.9149Z" fill="black"/>
<path d="M25.1875 35.5759H32.6448V37.4405H25.1875V35.5759Z" fill="black"/>
<path d="M25.1875 39.3047H30.7806V41.1693H25.1875V39.3047Z" fill="black"/>
<path d="M45.6974 43.0335C42.0934 43.0335 39.1719 45.955 39.1719 49.5587C39.1719 53.1627 42.0934 56.0842 45.6974 56.0842C49.3011 56.0842 52.2226 53.1627 52.2226 49.5587C52.2189 45.9569 49.2992 43.0372 45.6974 43.0335ZM45.6974 54.2196C43.1236 54.2196 41.0365 52.1325 41.0365 49.5587C41.0365 46.9852 43.1236 44.8981 45.6974 44.8981C48.2712 44.8981 50.3584 46.9852 50.3584 49.5587C50.3554 52.1314 48.2702 54.2171 45.6974 54.2196Z" fill="black"/>
<path d="M60.6115 46.7624C60.6115 46.2474 60.1939 45.8299 59.6794 45.8299H57.2157C57.0188 45.2176 56.7718 44.6218 56.4783 44.0495L58.2206 42.3082C58.584 41.9444 58.584 41.3538 58.2206 40.99L54.2653 37.0346C53.9015 36.6712 53.3105 36.6712 52.9471 37.0346L51.2058 38.7763C50.6323 38.4835 50.0376 38.2372 49.425 38.0396V35.5759C49.425 35.0613 49.0074 34.6438 48.4929 34.6438H42.8998C42.3853 34.6438 41.9677 35.0613 41.9677 35.5759V38.0396C41.3555 38.2372 40.7604 38.4835 40.1873 38.7763L38.446 37.0346C38.0823 36.6712 37.4912 36.6712 37.1278 37.0346L33.1725 40.99C32.8087 41.3538 32.8087 41.9444 33.1725 42.3082L34.9137 44.0495C34.8354 44.2024 34.7608 44.3554 34.6901 44.5098C34.4932 44.9398 34.322 45.3808 34.1774 45.8299H31.7137C31.1992 45.8299 30.7812 46.2478 30.7812 46.7624V52.3554C30.7812 52.87 31.1992 53.2875 31.7137 53.2875H34.1774C34.3739 53.8998 34.621 54.4956 34.9148 55.068L33.1725 56.8092C32.8087 57.173 32.8087 57.764 33.1725 58.1274L37.1278 62.0828C37.4912 62.4466 38.0823 62.4466 38.446 62.0828L40.1873 60.3415C40.7604 60.6343 41.3551 60.8802 41.9677 61.0778V63.5415C41.9677 64.0561 42.3853 64.4736 42.8998 64.4736H48.4929C49.0074 64.4736 49.425 64.0561 49.425 63.5415V61.0778C50.0376 60.8802 50.6323 60.6339 51.2058 60.3415L52.9471 62.0828C53.3105 62.4462 53.9015 62.4462 54.2653 62.0828L58.2206 58.1274C58.584 57.7637 58.584 57.173 58.2206 56.8092L56.4783 55.068C56.7718 54.4956 57.0188 53.8998 57.2157 53.2875H59.6794C60.1939 53.2875 60.6115 52.87 60.6115 52.3554V46.7624ZM58.7469 51.4233H56.5156C56.0903 51.4233 55.7193 51.7113 55.6131 52.1223C55.3745 53.0482 55.0082 53.9353 54.5225 54.7583C54.3063 55.125 54.3659 55.5902 54.666 55.891L56.2422 57.4683L53.6062 60.1055L52.0289 58.5282C51.728 58.2273 51.2618 58.1684 50.8955 58.3847C50.0724 58.8703 49.1857 59.2378 48.2601 59.4753C47.8492 59.5818 47.5611 59.9525 47.5611 60.3777V62.6094H43.8323V60.3777C43.8323 59.9525 43.5443 59.5818 43.1333 59.4753C42.2074 59.2378 41.3211 58.8703 40.498 58.3847C40.1317 58.1684 39.6654 58.2273 39.3642 58.5282L37.7873 60.1055L35.1509 57.4683L36.7275 55.891C37.0276 55.5902 37.0872 55.125 36.8709 54.7583C36.3853 53.9353 36.019 53.0478 35.7803 52.1223C35.6738 51.7113 35.3031 51.4233 34.8779 51.4233H32.6462V47.6945H34.8779C35.3031 47.6945 35.6738 47.4065 35.7803 46.9955C35.9311 46.4088 36.1335 45.8365 36.386 45.2864C36.5313 44.9677 36.6938 44.6566 36.8709 44.3543C37.0861 43.988 37.0276 43.5228 36.7275 43.2227L35.1509 41.6454L37.7873 39.0083L39.3642 40.5856C39.6654 40.8868 40.1317 40.9453 40.498 40.729C41.3211 40.2434 42.2074 39.8763 43.1333 39.6385C43.5443 39.5323 43.8323 39.1612 43.8323 38.736V36.5084H47.5611V38.74C47.5611 39.1649 47.8492 39.536 48.2601 39.6421C49.186 39.88 50.0724 40.2471 50.8955 40.7331C51.2618 40.949 51.728 40.8904 52.0289 40.5892L53.6062 39.0119L56.2422 41.6491L54.666 43.2264C54.3659 43.5276 54.3063 43.9927 54.5225 44.3591C55.0082 45.1821 55.3745 46.0696 55.6131 46.9951C55.7196 47.4065 56.0903 47.6945 56.5156 47.6945H58.7473V51.4233H58.7469Z" fill="black"/>
<path d="M60.6094 62.6094H66.2024V64.4736H60.6094V62.6094Z" fill="black"/>
</svg>
