<svg width="90" height="90" viewBox="0 0 90 90" fill="none" xmlns="http://www.w3.org/2000/svg">
<path d="M84 42C84 65.196 65.196 84 42 84C20.5989 84 2.93655 67.9937 0.332555 47.2989C0.113203 45.5639 0 43.7948 0 42C0 38.712 0.37718 35.5115 1.092 32.4411C5.41882 13.8515 22.092 0 42 0C61.8583 0 78.4988 13.7829 82.8737 32.3041C83.4479 34.7263 83.8097 37.2292 83.9418 39.792C83.9811 40.5239 84 41.2594 84 42Z" fill="white"/>
<path d="M33.293 57.7059H42.9989V68.2941H33.293V57.7059Z" fill="#2C3947"/>
<path fill-rule="evenodd" clip-rule="evenodd" d="M28 70.0588H48.2941V68.839C48.2941 68.0531 47.471 67.4118 46.4657 67.4118H29.8316C28.823 67.4118 28 68.0531 28 68.839V70.0588Z" fill="#3F5163"/>
<path d="M33.293 57.7059H42.9989V63H33.293V57.7059Z" fill="#1C2630"/>
<path fill-rule="evenodd" clip-rule="evenodd" d="M62.0983 59.166C62.0972 59.7044 61.883 60.2205 61.5026 60.6015C61.1222 60.9825 60.6065 61.1975 60.0681 61.1995H15.8461C15.3078 61.1974 14.7922 60.9824 14.4119 60.6014C14.0316 60.2203 13.8175 59.7043 13.8164 59.166V30.7825C13.8178 30.2446 14.0321 29.7292 14.4124 29.3488C14.7928 28.9685 15.3082 28.7542 15.8461 28.7528H60.0681C60.6061 28.7541 61.1218 28.9684 61.5023 29.3489C61.8827 29.7294 62.097 30.245 62.0983 30.7831V59.166Z" fill="#3F5163"/>
<path fill-rule="evenodd" clip-rule="evenodd" d="M58.9489 55.079V31.9034H16.9688V55.079H58.9489Z" fill="#8DD1FE"/>
<path fill-rule="evenodd" clip-rule="evenodd" d="M42.8114 18.6904H69.2077C69.9223 18.692 70.6073 18.9763 71.1129 19.4812C71.6186 19.9861 71.9038 20.6706 71.9064 21.3852V44.5311C71.9046 45.2461 71.6197 45.9313 71.1141 46.4369C70.6085 46.9425 69.9233 47.2274 69.2083 47.2293H42.8114C42.0965 47.2269 41.4116 46.9418 40.9062 46.4363C40.4007 45.9308 40.1157 45.246 40.1133 44.5311V21.3852C40.1164 20.6709 40.4017 19.9868 40.9071 19.482C41.4126 18.9773 42.097 18.6928 42.8114 18.6907V18.6904Z" fill="#D5E3F2"/>
<path fill-rule="evenodd" clip-rule="evenodd" d="M42.8114 18.6904H69.2077C69.9223 18.692 70.6073 18.9763 71.1129 19.4812C71.6186 19.9861 71.9038 20.6706 71.9064 21.3852V24.7914H40.1133V21.3852C40.1164 20.6709 40.4017 19.9868 40.9071 19.482C41.4126 18.9773 42.097 18.6928 42.8114 18.6907V18.6904Z" fill="#FB4455"/>
<path fill-rule="evenodd" clip-rule="evenodd" d="M47.207 45.5429C47.0334 46.2928 46.7374 47.0089 46.3308 47.6624L46.7375 48.3403L47.2302 49.1702C46.7487 49.8055 46.1824 50.3718 45.5471 50.8533L44.7204 50.3573L44.0393 49.9506C43.3862 50.3587 42.67 50.6559 41.9198 50.8301L41.7281 51.5973L41.4933 52.5331C40.7034 52.6421 39.9024 52.6421 39.1126 52.5331L38.8779 51.5973L38.6827 50.8301C37.9327 50.6553 37.2167 50.3581 36.5632 49.9506L35.8854 50.3573L35.0554 50.8533C34.421 50.3709 33.8548 49.8047 33.3724 49.1702L33.8684 48.3403L34.2751 47.6624C33.8688 47.0083 33.5718 46.2925 33.3955 45.5429L32.6285 45.3512L31.6926 45.1131C31.5868 44.3241 31.5868 43.5246 31.6926 42.7357L32.6285 42.4976L33.3955 42.3058C33.5718 41.5563 33.8689 40.8404 34.2751 40.1863L33.8684 39.5052L33.3724 38.6785C33.8548 38.044 34.4209 37.4779 35.0554 36.9955L35.8854 37.4915L36.5632 37.8949C37.2168 37.4883 37.9329 37.1923 38.6827 37.0186L38.8779 36.2516L39.1126 35.3158C39.9023 35.2055 40.7035 35.2055 41.4933 35.3158L41.7281 36.2516L41.9198 37.0186C42.6697 37.1923 43.3858 37.4883 44.0393 37.8949L44.7204 37.4915L45.5471 36.9955C46.1824 37.477 46.7487 38.0433 47.2302 38.6785L46.7375 39.5052L46.3308 40.1863C46.737 40.8404 47.0341 41.5563 47.2104 42.3058L47.9741 42.4976L48.9099 42.7357C49.0201 43.5243 49.0201 44.3244 48.9099 45.1131L47.9741 45.3512L47.207 45.5429Z" fill="#FFAB02"/>
<path fill-rule="evenodd" clip-rule="evenodd" d="M40.3 48.1551C41.1367 48.1554 41.9548 47.9075 42.6506 47.4428C43.3465 46.9781 43.889 46.3175 44.2094 45.5446C44.5299 44.7716 44.6139 43.921 44.4509 43.1002C44.2879 42.2795 43.8853 41.5255 43.2938 40.9337C42.7023 40.3418 41.9486 39.9386 41.128 39.7751C40.3073 39.6115 39.4567 39.695 38.6835 40.015C37.9103 40.3349 37.2493 40.8769 36.7842 41.5725C36.3191 42.268 36.0706 43.0859 36.0703 43.9227C36.0723 45.044 36.5184 46.1189 37.311 46.9121C38.1036 47.7054 39.1782 48.1523 40.2995 48.1551H40.3Z" fill="#D5E3F2"/>
<path fill-rule="evenodd" clip-rule="evenodd" d="M57.2016 59.166C57.1999 59.7042 56.9856 60.2198 56.6054 60.6007C56.2253 60.9816 55.71 61.1968 55.1719 61.1995H60.0656C60.604 61.1975 61.1198 60.9826 61.5002 60.6015C61.8806 60.2205 62.0947 59.7044 62.0959 59.166V47.2293H58.9442V55.079H57.2016V59.166Z" fill="#2C3947"/>
<path fill-rule="evenodd" clip-rule="evenodd" d="M57.2031 55.079H58.9457V47.2293H57.2031V55.079Z" fill="#72BFF2"/>
<path fill-rule="evenodd" clip-rule="evenodd" d="M40.6706 37.0186C41.4204 37.1923 42.1365 37.4883 42.7901 37.8949L43.3886 37.5378C42.9203 37.31 42.4278 37.1358 41.9204 37.0186L41.7287 36.2516L41.4939 35.3158C41.0996 35.2615 40.7021 35.2339 40.304 35.2331C40.2412 35.2331 40.1784 35.2331 40.1155 35.2365C39.9701 35.2398 39.8245 35.2464 39.6758 35.2562C39.8245 35.2661 39.9701 35.2827 40.1155 35.2992C40.1585 35.3025 40.1982 35.3092 40.2412 35.3158L40.476 36.2516L40.6706 37.0186Z" fill="#ED9E00"/>
<path fill-rule="evenodd" clip-rule="evenodd" d="M45.9816 38.6785L45.4856 39.5052L45.0789 40.1863C45.4851 40.8404 45.7821 41.5563 45.9584 42.3058L46.7256 42.4976L47.6613 42.7357C47.7671 43.5246 47.7671 44.3241 47.6613 45.1131L46.7256 45.3512L45.9584 45.5429C45.8211 46.1298 45.6088 46.6966 45.3269 47.2293C45.2508 47.3748 45.1682 47.5202 45.0789 47.6624L45.4856 48.3403L45.9816 49.1702C45.637 49.6232 45.2494 50.0418 44.8242 50.4201L45.5484 50.8533C46.1836 50.3718 46.75 49.8055 47.2315 49.1702L46.7388 48.3403L46.332 47.6624C46.418 47.5202 46.5007 47.3748 46.58 47.2293C46.8623 46.6971 47.0736 46.1301 47.2083 45.5429L47.9753 45.3512L48.9111 45.1131C49.0214 44.3244 49.0214 43.5243 48.9111 42.7357L47.9753 42.4976L47.2117 42.3058C47.0354 41.5563 46.7383 40.8404 46.332 40.1863L46.7388 39.5052L47.2315 38.6785C46.75 38.0433 46.1837 37.477 45.5484 36.9955L44.8242 37.4287C45.2494 37.807 45.637 38.2256 45.9816 38.6785Z" fill="#ED9E00"/>
<path fill-rule="evenodd" clip-rule="evenodd" d="M42.7905 49.9506C42.1371 50.3582 41.421 50.6553 40.671 50.8301L40.476 51.5973L40.2412 52.5331C40.0528 52.5594 39.8644 52.5793 39.6758 52.5926C40.2824 52.6355 40.8918 52.6156 41.4943 52.5331L41.7291 51.5973L41.9209 50.8301C42.4283 50.713 42.9208 50.5388 43.389 50.311L42.7905 49.9506Z" fill="#ED9E00"/>
<path fill-rule="evenodd" clip-rule="evenodd" d="M70.3974 24.791V44.5311C70.3956 45.2461 70.1107 45.9314 69.6051 46.437C69.0995 46.9426 68.4143 47.2274 67.6992 47.2293H69.2071C69.9222 47.2276 70.6076 46.9428 71.1133 46.4371C71.619 45.9315 71.9039 45.2462 71.9058 44.5311V24.791H70.3974Z" fill="#B7CFE8"/>
<path fill-rule="evenodd" clip-rule="evenodd" d="M70.3974 24.791H71.9058V21.3849C71.9032 20.6704 71.618 19.9861 71.1124 19.4812C70.6069 18.9763 69.9222 18.692 69.2077 18.6903H67.6992C68.4137 18.692 69.0985 18.9763 69.604 19.4812C70.1096 19.986 70.3948 20.6704 70.3974 21.3849V24.791Z" fill="#E82E41"/>
<path d="M29.2922 43.618C29.2922 43.8336 29.2059 44.0405 29.0524 44.1929C28.8988 44.3454 28.6905 44.4311 28.4733 44.4311H20.7449C20.5294 44.4285 20.3236 44.3417 20.1721 44.1895C20.0206 44.0373 19.9357 43.8319 19.9357 43.6179C19.9357 43.404 20.0206 43.1986 20.1721 43.0464C20.3236 42.8942 20.5294 42.8074 20.7449 42.8048H28.4733C28.6905 42.8048 28.8988 42.8905 29.0524 43.043C29.206 43.1955 29.2922 43.4023 29.2922 43.618ZM28.4733 49.3659H20.7449C20.5294 49.3685 20.3236 49.4553 20.1721 49.6075C20.0206 49.7597 19.9357 49.9651 19.9357 50.1791C19.9357 50.393 20.0206 50.5984 20.1721 50.7506C20.3236 50.9028 20.5294 50.9896 20.7449 50.9922H28.4733C28.6888 50.9896 28.8946 50.9028 29.0461 50.7506C29.1976 50.5984 29.2825 50.393 29.2825 50.1791C29.2825 49.9651 29.1976 49.7597 29.0461 49.6075C28.8946 49.4553 28.6888 49.3685 28.4733 49.3659ZM28.4733 46.0838H20.7449C20.5294 46.0863 20.3236 46.1731 20.1721 46.3254C20.0206 46.4776 19.9357 46.6829 19.9357 46.8969C19.9357 47.1109 20.0206 47.3163 20.1721 47.4685C20.3236 47.6207 20.5294 47.7075 20.7449 47.7101H28.4733C28.6888 47.7075 28.8946 47.6207 29.0461 47.4685C29.1976 47.3163 29.2825 47.1109 29.2825 46.8969C29.2825 46.6829 29.1976 46.4776 29.0461 46.3254C28.8946 46.1731 28.6888 46.0863 28.4733 46.0838ZM28.4733 39.5264H20.7449C20.5294 39.529 20.3236 39.6158 20.1721 39.768C20.0206 39.9202 19.9357 40.1255 19.9357 40.3395C19.9357 40.5535 20.0206 40.7589 20.1721 40.9111C20.3236 41.0633 20.5294 41.1501 20.7449 41.1527H28.4733C28.6888 41.1501 28.8946 41.0633 29.0461 40.9111C29.1976 40.7589 29.2825 40.5535 29.2825 40.3395C29.2825 40.1255 29.1976 39.9202 29.0461 39.768C28.8946 39.6158 28.6888 39.529 28.4733 39.5264ZM28.4733 36.2476H20.7449C20.5294 36.2502 20.3236 36.337 20.1721 36.4892C20.0206 36.6414 19.9357 36.8468 19.9357 37.0608C19.9357 37.2748 20.0206 37.4801 20.1721 37.6324C20.3236 37.7846 20.5294 37.8714 20.7449 37.8739H28.4733C28.6888 37.8714 28.8946 37.7846 29.0461 37.6324C29.1976 37.4801 29.2825 37.2748 29.2825 37.0608C29.2825 36.8468 29.1976 36.6414 29.0461 36.4892C28.8946 36.337 28.6888 36.2502 28.4733 36.2476ZM45.4352 44.0493C45.4352 45.0429 45.1384 46.0141 44.5825 46.8402C44.0265 47.6663 43.2364 48.3102 42.3119 48.6904C41.3874 49.0706 40.3701 49.1701 39.3887 48.9763C38.4072 48.7825 37.5057 48.304 36.7981 47.6015C36.0906 46.8989 35.6087 46.0038 35.4135 45.0294C35.2182 44.0549 35.3184 43.0448 35.7014 42.1269C36.0843 41.209 36.7328 40.4244 37.5648 39.8724C38.3968 39.3205 39.375 39.0258 40.3757 39.0258C41.7171 39.0273 43.0031 39.5571 43.9516 40.4989C44.9001 41.4406 45.4336 42.7175 45.4352 44.0493ZM43.7972 44.0493C43.7972 43.3774 43.5965 42.7205 43.2205 42.1618C42.8445 41.603 42.3101 41.1676 41.6848 40.9104C41.0596 40.6532 40.3716 40.586 39.7078 40.7171C39.044 40.8482 38.4343 41.1717 37.9557 41.6469C37.4772 42.1221 37.1513 42.7274 37.0192 43.3865C36.8872 44.0456 36.955 44.7287 37.214 45.3495C37.4729 45.9703 37.9115 46.501 38.4743 46.8743C39.037 47.2476 39.6986 47.4469 40.3754 47.4469C41.2825 47.4459 42.1523 47.0876 42.7937 46.4506C43.4352 45.8137 43.7963 44.9501 43.7972 44.0493ZM60.0339 38.6796C60.1771 38.8417 60.3793 38.9408 60.5961 38.955C60.8128 38.9691 61.0264 38.8972 61.1897 38.7551L63.6858 36.5824C63.7735 36.5061 63.8438 36.412 63.8919 36.3066C63.94 36.2011 63.9649 36.0867 63.9649 35.9709C63.9649 35.8551 63.94 35.7407 63.8919 35.6352C63.8438 35.5298 63.7735 35.4357 63.6858 35.3594L61.1897 33.1868C61.1091 33.115 61.0149 33.0599 60.9126 33.0245C60.8103 32.9891 60.702 32.9742 60.5938 32.9807C60.4857 32.9871 60.3799 33.0148 60.2827 33.0621C60.1854 33.1095 60.0986 33.1755 60.0272 33.2564C59.9558 33.3372 59.9012 33.4314 59.8667 33.5333C59.8322 33.6353 59.8184 33.743 59.8261 33.8503C59.8338 33.9576 59.8629 34.0622 59.9117 34.1583C59.9604 34.2543 60.0278 34.3398 60.1101 34.4098L61.904 35.971L60.1101 37.5321C60.0292 37.6025 59.963 37.688 59.9154 37.7837C59.8678 37.8795 59.8397 37.9836 59.8326 38.0902C59.8255 38.1967 59.8397 38.3036 59.8742 38.4047C59.9087 38.5059 59.963 38.5993 60.0339 38.6796ZM54.8477 40.7131C54.9515 40.7409 55.0599 40.748 55.1665 40.7341C55.2732 40.7203 55.3761 40.6856 55.4692 40.6322C55.5624 40.5789 55.644 40.5077 55.7095 40.423C55.7749 40.3382 55.8229 40.2415 55.8507 40.1383L57.9858 32.2278C58.042 32.0195 58.0126 31.7976 57.904 31.6108C57.7954 31.4241 57.6166 31.2878 57.4068 31.2319C57.197 31.1761 56.9735 31.2053 56.7854 31.3131C56.5973 31.421 56.46 31.5986 56.4038 31.8069L54.2687 39.7172C54.2409 39.8204 54.2337 39.9279 54.2477 40.0338C54.2617 40.1397 54.2966 40.2418 54.3504 40.3342C54.4042 40.4267 54.4757 40.5078 54.5611 40.5728C54.6464 40.6378 54.7438 40.6855 54.8477 40.7131ZM68.9419 21.1508H55.8789C55.6634 21.1533 55.4576 21.2401 55.3061 21.3923C55.1546 21.5446 55.0697 21.7499 55.0697 21.9639C55.0697 22.1779 55.1546 22.3833 55.3061 22.5355C55.4576 22.6877 55.6634 22.7745 55.8789 22.7771H68.9419C69.1574 22.7745 69.3632 22.6877 69.5147 22.5355C69.6662 22.3833 69.7511 22.1779 69.7511 21.9639C69.7511 21.7499 69.6662 21.5446 69.5147 21.3923C69.3632 21.2401 69.1574 21.1533 68.9419 21.1508ZM73 21.6116V44.655C72.9989 45.6133 72.615 46.532 71.9325 47.2096C71.2501 47.8873 70.3247 48.2684 69.3596 48.2695H63.0508V59.2244C63.0499 59.9759 62.7489 60.6963 62.2137 61.2277C61.6785 61.759 60.9529 62.0579 60.1961 62.0588H43.8016V66.5431H46.5003C47.9811 66.5431 49.1859 67.5787 49.1859 68.8508V70.128C49.1859 70.3436 49.0996 70.5505 48.946 70.703C48.7924 70.8555 48.5842 70.9411 48.367 70.9412H27.6843C27.4671 70.9412 27.2588 70.8555 27.1052 70.703C26.9516 70.5505 26.8653 70.3437 26.8653 70.128V68.8504C26.8653 67.578 28.0701 66.5427 29.5509 66.5427H32.2496V62.0593H15.8546C15.0977 62.0584 14.372 61.7594 13.8369 61.2279C13.3017 60.6965 13.0007 59.9759 13 59.2244V30.9674C13.0008 30.2159 13.3018 29.4954 13.837 28.9641C14.3721 28.4327 15.0977 28.1337 15.8546 28.1328H39.2519V21.6116C39.2533 20.6537 39.6374 19.7355 40.3199 19.0584C41.0024 18.3813 41.9275 18.0006 42.8923 18H69.3596C70.3244 18.0006 71.2495 18.3813 71.932 19.0584C72.6145 19.7355 72.9986 20.6537 73 21.6116ZM45.7168 39.9127L46.3255 38.8996C46.0889 38.6306 45.8342 38.3779 45.563 38.1433L44.5396 38.7476C44.4108 38.8234 44.2636 38.8626 44.1139 38.861C43.9642 38.8595 43.8178 38.8173 43.6906 38.7389C43.1118 38.3811 42.4775 38.1206 41.8132 37.9681C41.6661 37.9344 41.5312 37.861 41.4234 37.756C41.3156 37.651 41.2391 37.5185 41.2025 37.373L40.9141 36.2304C40.7324 36.2177 40.5552 36.2115 40.378 36.2115C40.2686 36.2347 40.1558 36.2374 40.0454 36.2194C39.9761 36.2224 39.9068 36.2255 39.8366 36.2304L39.5444 37.3763C39.5073 37.521 39.4308 37.6527 39.3234 37.7572C39.2159 37.8616 39.0815 37.9346 38.935 37.9682C38.2707 38.1207 37.6364 38.3811 37.0577 38.739C36.9302 38.8175 36.7835 38.8598 36.6335 38.8611C36.4836 38.8625 36.3361 38.823 36.2072 38.7468L35.1863 38.1429C34.9156 38.3778 34.6611 38.6304 34.4246 38.8992L35.0348 39.9127C35.1118 40.0407 35.1518 40.1873 35.1505 40.3364C35.1492 40.4855 35.1067 40.6314 35.0275 40.7581C34.6669 41.3343 34.4033 41.965 34.247 42.6254C34.2126 42.7708 34.1386 42.904 34.0329 43.0104C33.9273 43.1167 33.7943 43.1922 33.6483 43.2284L32.4975 43.5157C32.4849 43.6957 32.4784 43.8741 32.4784 44.0493C32.4784 44.2246 32.4849 44.4053 32.4977 44.5862L33.6483 44.8735C33.7943 44.9097 33.9273 44.9851 34.033 45.0915C34.1386 45.1978 34.2126 45.331 34.247 45.4764C34.4032 46.1368 34.6669 46.7675 35.0275 47.3437C35.1069 47.4706 35.1494 47.6168 35.1505 47.7663C35.1517 47.9157 35.1113 48.0625 35.0338 48.1906L34.4237 49.2017C34.6606 49.4708 34.9154 49.7238 35.1865 49.9589L36.2048 49.3538C36.3342 49.2767 36.4826 49.2366 36.6336 49.238C36.7846 49.2394 36.9323 49.2822 37.0602 49.3617C37.6392 49.7202 38.2737 49.9815 38.9383 50.135C39.0842 50.169 39.2178 50.2421 39.3248 50.3464C39.4317 50.4506 39.5078 50.5819 39.5447 50.7261L39.837 51.8722C40.1957 51.8965 40.5557 51.8965 40.9144 51.8722L41.2023 50.7296C41.2389 50.5847 41.3148 50.4526 41.422 50.3477C41.5291 50.2428 41.6633 50.1693 41.8097 50.1351C42.4744 49.9816 43.1089 49.7203 43.688 49.3618C43.8158 49.2825 43.9631 49.2397 44.1138 49.2381C44.2645 49.2366 44.4127 49.2763 44.5421 49.353L45.5629 49.9592C45.8343 49.7243 46.0893 49.4714 46.3261 49.2021L45.7175 48.1913C45.6401 48.0632 45.5997 47.9163 45.6009 47.7669C45.602 47.6175 45.6446 47.4713 45.7239 47.3444C45.7483 47.3053 45.7708 47.2656 45.7942 47.2262C45.8222 47.0044 45.9301 46.8001 46.098 46.6512C46.2716 46.2755 46.4063 45.8832 46.4999 45.4804C46.5339 45.3343 46.6078 45.2004 46.7136 45.0934C46.8194 44.9864 46.953 44.9105 47.0995 44.8742L48.2502 44.5869C48.2631 44.4057 48.2695 44.2262 48.2695 44.05C48.2695 43.8739 48.2631 43.6967 48.2502 43.5164L47.0995 43.2291C46.9529 43.1928 46.8194 43.1169 46.7136 43.0099C46.6078 42.9029 46.5339 42.7689 46.4999 42.6228C46.3463 41.9633 46.084 41.3334 45.7236 40.7588C45.6443 40.632 45.6018 40.4859 45.6006 40.3367C45.5994 40.1875 45.6396 40.0408 45.7168 39.9127ZM32.7747 38.3361C33.3033 37.6461 33.9235 37.0303 34.6185 36.5055C34.7486 36.4073 34.9054 36.35 35.0686 36.341C35.2318 36.332 35.3939 36.3716 35.5342 36.4549L36.6326 37.1058C37.0926 36.8606 37.5761 36.6618 38.076 36.5123L38.388 35.282C38.4278 35.1244 38.5143 34.9823 38.6362 34.8739C38.7582 34.7656 38.9101 34.696 39.0722 34.6742C39.1323 34.6662 39.192 34.66 39.2519 34.653V32.8961H17.7974V54.3397H58.2527V48.2695H47.6729L48.0258 48.8584C48.1088 48.9972 48.1483 49.1574 48.1393 49.3185C48.1303 49.4797 48.0732 49.6346 47.9752 49.7634C47.4474 50.4553 46.8265 51.072 46.1298 51.5963C45.9995 51.6947 45.8425 51.7521 45.6791 51.761C45.5156 51.7699 45.3532 51.73 45.2129 51.6463L44.116 50.9937C43.6566 51.2387 43.1738 51.4375 42.6746 51.5871L42.3634 52.8195C42.3237 52.9768 42.2375 53.1187 42.1159 53.2269C41.9943 53.3352 41.8429 53.4049 41.6812 53.427C40.8147 53.546 39.936 53.546 39.0695 53.427C38.9079 53.4048 38.7566 53.335 38.6351 53.2268C38.5136 53.1186 38.4275 52.9767 38.3877 52.8195L38.0754 51.5878C37.5759 51.4381 37.0927 51.2394 36.633 50.9944L35.534 51.6472C35.3937 51.7305 35.2315 51.7701 35.0683 51.7611C34.9051 51.7521 34.7484 51.6947 34.6183 51.5964C33.9232 51.0717 33.303 50.4558 32.7745 49.7657C32.6755 49.6365 32.6178 49.4809 32.6087 49.3189C32.5996 49.1568 32.6396 48.9958 32.7235 48.8565L33.3815 47.7642C33.1354 47.3086 32.9352 46.83 32.7838 46.3353L31.5399 46.0225C31.3819 45.9825 31.2395 45.8967 31.131 45.776C31.0224 45.6552 30.9526 45.5051 30.9305 45.3447C30.8097 44.4864 30.8097 43.6155 30.9305 42.7572C30.9526 42.5969 31.0224 42.4467 31.131 42.326C31.2396 42.2053 31.3819 42.1195 31.5399 42.0796L32.7838 41.7667C32.9351 41.2717 33.1353 40.7927 33.3815 40.3368L32.7235 39.2468C32.6394 39.1073 32.5993 38.946 32.6084 38.7836C32.6175 38.6213 32.6755 38.4654 32.7747 38.3361ZM29.5509 68.1694C28.9335 68.1694 28.5032 68.5285 28.5032 68.8508V69.3149H47.5469V68.8504C47.5469 68.5281 47.1166 68.169 46.4992 68.169L29.5509 68.1694ZM42.1627 66.5431V62.0593H33.8875V66.5431H42.1627ZM61.4124 48.2695H59.8906V55.1528C59.8906 55.2596 59.8694 55.3653 59.8283 55.464C59.7871 55.5627 59.7268 55.6523 59.6508 55.7278C59.5747 55.8033 59.4845 55.8632 59.3851 55.9041C59.2857 55.945 59.1792 55.966 59.0717 55.966H16.9785C16.871 55.966 16.7645 55.945 16.6651 55.9041C16.5657 55.8632 16.4755 55.8033 16.3994 55.7278C16.3234 55.6523 16.2631 55.5627 16.2219 55.464C16.1808 55.3653 16.1596 55.2596 16.1596 55.1528V32.0833C16.1596 31.9765 16.1808 31.8708 16.2219 31.7721C16.2631 31.6735 16.3234 31.5838 16.3994 31.5083C16.4755 31.4328 16.5657 31.3729 16.6651 31.332C16.7645 31.2911 16.871 31.2701 16.9785 31.2701H39.2519V29.7591H15.8546C15.532 29.7595 15.2227 29.8869 14.9946 30.1134C14.7665 30.34 14.6382 30.6471 14.6379 30.9674V59.2244C14.6383 59.5447 14.7666 59.8518 14.9946 60.0782C15.2227 60.3047 15.532 60.4321 15.8546 60.4325H60.1956C60.5182 60.432 60.8274 60.3045 61.0554 60.0781C61.2835 59.8516 61.4119 59.5446 61.4124 59.2244V48.2695ZM71.1299 25.9307H41.1218V34.6162C41.3066 34.6308 41.4925 34.6495 41.6793 34.6744C41.8415 34.6962 41.9934 34.7658 42.1154 34.8741C42.2373 34.9825 42.3238 35.1246 42.3637 35.2822L42.6743 36.5133C43.1738 36.6626 43.657 36.8612 44.1167 37.1061L45.2129 36.4553C45.3532 36.3716 45.5156 36.3316 45.6791 36.3405C45.8425 36.3494 45.9996 36.4068 46.1298 36.5053C46.8264 37.0298 47.4473 37.6467 47.9751 38.3388C48.0732 38.4678 48.1304 38.6229 48.1394 38.7844C48.1483 38.9458 48.1085 39.1063 48.0251 39.2452L47.3689 40.3373C47.6151 40.7931 47.8148 41.2722 47.9651 41.7675L49.2073 42.08C49.3653 42.12 49.5077 42.2058 49.6162 42.3266C49.7248 42.4474 49.7946 42.5975 49.8167 42.7579C49.9373 43.6161 49.9373 44.4868 49.8167 45.3451C49.7946 45.5054 49.7248 45.6556 49.6162 45.7764C49.5077 45.8971 49.3653 45.983 49.2073 46.0229L47.9651 46.3353C47.9571 46.3616 47.9474 46.3872 47.9392 46.4134H69.3596C69.829 46.4129 70.279 46.2275 70.6109 45.898C70.9427 45.5684 71.1294 45.1216 71.1299 44.6555V25.9307ZM71.1299 21.6116C71.129 21.1461 70.942 20.6999 70.6101 20.371C70.2782 20.0421 69.8285 19.8573 69.3596 19.8573H42.8923C42.4234 19.8573 41.9736 20.0421 41.6417 20.371C41.3098 20.6999 41.1228 21.146 41.1218 21.6116V24.0737H71.1299V21.6116ZM48.8136 21.1508H48.7374C48.5219 21.1533 48.3161 21.2401 48.1646 21.3923C48.0131 21.5446 47.9282 21.7499 47.9282 21.9639C47.9282 22.1779 48.0131 22.3833 48.1646 22.5355C48.3161 22.6877 48.5219 22.7745 48.7374 22.7771H48.8136C48.9219 22.7783 49.0295 22.7583 49.13 22.718C49.2305 22.6777 49.3219 22.618 49.399 22.5424C49.4761 22.4667 49.5373 22.3766 49.5791 22.2774C49.6209 22.1781 49.6424 22.0715 49.6424 21.9639C49.6424 21.8563 49.6209 21.7498 49.5791 21.6505C49.5373 21.5512 49.4761 21.4611 49.399 21.3855C49.3219 21.3098 49.2305 21.2501 49.13 21.2098C49.0295 21.1696 48.9219 21.1495 48.8136 21.1508ZM48.5664 36.5827L51.0661 38.7554C51.1467 38.8283 51.241 38.8845 51.3437 38.9207C51.4463 38.9569 51.5552 38.9724 51.664 38.9663C51.7728 38.9602 51.8792 38.9326 51.9771 38.8851C52.075 38.8376 52.1624 38.7713 52.2341 38.6898C52.3059 38.6084 52.3605 38.5136 52.3949 38.411C52.4292 38.3083 52.4426 38.1999 52.4343 38.092C52.4259 37.9842 52.3959 37.8791 52.3461 37.7829C52.2963 37.6867 52.2277 37.6013 52.1443 37.5317L50.3487 35.971L52.1446 34.4102C52.2281 34.3406 52.2967 34.2552 52.3465 34.159C52.3963 34.0628 52.4262 33.9577 52.4346 33.8499C52.443 33.742 52.4296 33.6336 52.3952 33.5309C52.3609 33.4283 52.3062 33.3335 52.2345 33.2521C52.1628 33.1706 52.0754 33.1043 51.9775 33.0568C51.8796 33.0093 51.7731 32.9817 51.6644 32.9756C51.5556 32.9695 51.4467 32.985 51.344 33.0212C51.2414 33.0574 51.147 33.1136 51.0665 33.1865L48.5664 35.359C48.4785 35.4353 48.4081 35.5294 48.3599 35.6349C48.3117 35.7405 48.2867 35.855 48.2867 35.9709C48.2867 36.0868 48.3117 36.2013 48.3599 36.3069C48.4081 36.4124 48.4785 36.5064 48.5664 36.5827ZM46.1016 21.1508H46.022C45.8065 21.1533 45.6007 21.2401 45.4492 21.3923C45.2978 21.5446 45.2128 21.7499 45.2128 21.9639C45.2128 22.1779 45.2978 22.3833 45.4492 22.5355C45.6007 22.6877 45.8065 22.7745 46.022 22.7771H46.1016C46.3171 22.7745 46.5229 22.6877 46.6744 22.5355C46.8259 22.3833 46.9108 22.1779 46.9108 21.9639C46.9108 21.7499 46.8259 21.5446 46.6744 21.3923C46.5229 21.2401 46.3171 21.1533 46.1016 21.1508ZM43.3897 21.1508H43.3101C43.2017 21.1495 43.0942 21.1696 42.9937 21.2098C42.8932 21.2501 42.8017 21.3098 42.7246 21.3855C42.6475 21.4611 42.5863 21.5512 42.5445 21.6505C42.5028 21.7498 42.4813 21.8563 42.4813 21.9639C42.4813 22.0715 42.5028 22.1781 42.5445 22.2774C42.5863 22.3766 42.6475 22.4667 42.7246 22.5424C42.8017 22.618 42.8932 22.6777 42.9937 22.718C43.0942 22.7583 43.2017 22.7783 43.3101 22.7771H43.3897C43.6052 22.7745 43.811 22.6877 43.9624 22.5355C44.1139 22.3833 44.1989 22.1779 44.1989 21.9639C44.1989 21.7499 44.1139 21.5446 43.9624 21.3923C43.811 21.2401 43.6052 21.1533 43.3897 21.1508Z" fill="black"/>
</svg>
