<svg width="70" height="70" viewBox="0 0 70 70" fill="none" xmlns="http://www.w3.org/2000/svg">
<path d="M37.427 52.1938H48.1265C48.9859 51.3521 49.9284 50.4767 50.8855 49.587C52.8926 47.716 54.9875 45.7632 57.141 43.3198C59.6022 40.5254 59.8659 39.5587 60.6131 36.8219C60.7547 36.3072 60.911 35.7301 61.1161 35.0134L62.3956 30.5837L62.4101 30.5356C63.0938 28.5636 63.1476 27.2602 62.8644 26.5099C62.7765 26.279 62.6641 26.1251 62.5322 26.0433C62.4297 25.976 62.293 25.952 62.1514 25.9664C61.8192 26 61.4432 26.2068 61.1015 26.5772L57.3022 35.4896C57.268 35.5714 57.2192 35.6483 57.1655 35.7157C56.9408 36.1149 56.638 36.5045 56.2474 36.8748L49.5084 44.277C49.1421 44.681 48.5122 44.7147 48.1069 44.354C47.6967 43.9933 47.6625 43.3728 48.0288 42.9735L54.7727 35.5714C54.8019 35.5378 54.8312 35.504 54.8655 35.4752C55.5638 34.8211 55.7835 34.1141 55.6615 33.5995C55.6224 33.4406 55.554 33.306 55.4564 33.2146C55.3636 33.1329 55.2415 33.0751 55.09 33.0607C54.4895 32.9982 53.6056 33.4358 52.5264 34.6912C52.497 34.7249 52.4628 34.7586 52.4287 34.7922L49.816 37.0624L49.8014 37.0768C46.9739 39.7126 45.758 40.3379 43.541 41.4777C43.077 41.7182 42.5692 41.9779 41.9392 42.3146C41.6902 42.4493 41.446 42.6128 41.2067 42.7908C40.9528 42.9832 40.7087 43.1804 40.4791 43.3728C39.3071 44.3443 38.6918 45.1332 38.3402 46.0037C37.974 46.9079 37.8421 48.0094 37.6615 49.5196C37.5882 50.1304 37.5345 50.7317 37.4906 51.3329C37.4564 51.6263 37.4417 51.9148 37.427 52.1938ZM32.573 52.1938H21.8687C21.0092 51.3521 20.0668 50.4767 19.1097 49.587C17.1026 47.716 15.0077 45.7632 12.8541 43.3198C10.3929 40.5254 10.1292 39.5587 9.382 36.8219C9.24534 36.3072 9.089 35.7349 8.88389 35.0134L7.60445 30.5837L7.58989 30.5356C6.90618 28.5636 6.85246 27.2602 7.13569 26.5099C7.22356 26.279 7.33589 26.1251 7.46778 26.0433C7.57034 25.976 7.707 25.952 7.84867 25.9664C8.18078 26 8.55678 26.2068 8.89856 26.5772L12.6978 35.4896C12.732 35.5714 12.7808 35.6483 12.8346 35.7157C13.0592 36.1149 13.3619 36.5045 13.7526 36.8748L20.4916 44.277C20.8579 44.681 21.4878 44.7147 21.8931 44.354C22.3033 43.9933 22.3376 43.3728 21.9712 42.9735L15.2322 35.5666C15.203 35.5329 15.1737 35.4992 15.1395 35.4704C14.4411 34.8163 14.2215 34.1093 14.3435 33.5945C14.3826 33.4358 14.4509 33.3012 14.5486 33.2098C14.6413 33.1281 14.7635 33.0703 14.9149 33.0559C15.5155 32.9934 16.4042 33.431 17.4786 34.6864C17.5079 34.72 17.5421 34.7538 17.5762 34.7874L20.1889 37.0576L20.2035 37.072C23.031 39.7078 24.2469 40.333 26.4639 41.4729C26.9279 41.7134 27.4357 41.9731 28.0657 42.3098C28.3147 42.4445 28.5589 42.608 28.7981 42.786C29.0521 42.9783 29.2962 43.1756 29.5258 43.368C30.6978 44.3395 31.3131 45.1283 31.6647 45.9989C32.0309 46.9031 32.1628 48.0046 32.3435 49.5148C32.4167 50.1256 32.4705 50.7269 32.5144 51.3281C32.5437 51.6262 32.5583 51.9148 32.573 52.1938ZM19.3782 52.5353C19.2268 52.7084 19.134 52.9345 19.134 53.1798V59.0188C19.134 59.5623 19.5833 60 20.1302 60H33.5985C34.1504 60 34.5947 59.5575 34.5947 59.0188V53.1269C34.5947 52.5016 34.5557 51.8283 34.5117 51.203C34.4677 50.5633 34.4091 49.9284 34.3359 49.2984C34.1406 47.6487 33.994 46.4414 33.5252 45.2823C33.0418 44.0942 32.2653 43.0698 30.8248 41.8721C30.561 41.6509 30.2925 41.4297 30.0092 41.2228C29.7113 41.0016 29.389 40.79 29.0277 40.5927C28.4417 40.2801 27.8948 39.9964 27.3967 39.7366C25.3457 38.6784 24.2225 38.1013 21.5806 35.6387C21.5611 35.6195 21.5367 35.6002 21.5171 35.5858L18.968 33.3685C17.4102 31.5745 15.8867 30.9781 14.7196 31.1032H14.7147C14.1432 31.1608 13.6549 31.3822 13.2642 31.7188L10.6859 25.6826H10.681C10.6419 25.596 10.5931 25.5143 10.5296 25.4373C9.81667 24.5956 8.91323 24.105 8.04889 24.0184C7.458 23.9607 6.88665 24.0858 6.38855 24.4032C5.91486 24.7062 5.52419 25.1776 5.28002 25.8269C4.85029 26.9572 4.86006 28.7127 5.69999 31.1416L6.96966 35.5426C7.15522 36.1774 7.31634 36.7882 7.46778 37.327C8.29789 40.3811 8.59089 41.4633 11.3598 44.5992C13.5525 47.0859 15.6962 49.0868 17.7569 51.0058C18.2941 51.5157 18.8313 52.0159 19.3782 52.5353ZM21.2827 54.1609C21.4146 54.1899 21.5513 54.1899 21.688 54.1609H32.5975V58.0377H21.1265V54.1609H21.2827ZM50.6218 52.5353C50.7732 52.7084 50.866 52.9345 50.866 53.1798V59.0188C50.866 59.5623 50.4216 60 49.8698 60H36.4065C35.8546 60 35.4102 59.5575 35.4102 59.0188V53.1269C35.4102 53.0933 35.4102 53.0547 35.4151 53.0211C35.4298 52.391 35.4541 51.7801 35.4932 51.203C35.5371 50.5633 35.5958 49.9284 35.669 49.2984C35.8644 47.6487 36.0109 46.4414 36.4797 45.2823C36.9631 44.0942 37.7396 43.0698 39.1801 41.8721C39.4439 41.6509 39.7125 41.4297 39.9957 41.2228C40.2936 41.0016 40.6159 40.79 40.9772 40.5927C41.5632 40.2801 42.1101 39.9964 42.6082 39.7366C44.6592 38.6784 45.7825 38.1013 48.4244 35.6387C48.4438 35.6195 48.4682 35.6002 48.4878 35.5858L51.0369 33.3685C52.5947 31.5745 54.1182 30.9781 55.2854 31.1032H55.2902C55.8616 31.1608 56.3499 31.3822 56.7406 31.7188L59.3141 25.6778H59.319C59.3581 25.5912 59.4069 25.5095 59.4705 25.4325C60.1834 24.5908 61.0868 24.1002 61.9511 24.0136C62.542 23.9559 63.1134 24.081 63.6115 24.3984C64.0851 24.7014 64.4758 25.1728 64.72 25.8221C65.1497 26.9524 65.1399 28.7079 64.3 31.1368L63.0304 35.5378C62.8448 36.1726 62.6837 36.7834 62.5322 37.3221C61.7021 40.3763 61.4091 41.4585 58.6402 44.5944C56.4476 47.0811 54.3038 49.082 52.243 51.001C51.7059 51.5157 51.1687 52.0159 50.6218 52.5353ZM48.7174 54.1609C48.5855 54.1899 48.4487 54.1899 48.312 54.1609H37.4026V58.0377H48.8736V54.1609H48.7174Z" fill="#DAB068"/>
<path d="M28.6105 9.69301H40.3896C41.2007 9.69301 41.9396 10.0411 42.4762 10.6008L42.4775 10.5995C43.0134 11.1589 43.3464 11.931 43.3464 12.7789V23.2211C43.3464 24.0688 43.0128 24.8406 42.4771 25.3997C41.9413 25.9589 41.2018 26.307 40.3896 26.307H28.6105C27.7984 26.307 27.0581 25.9595 26.5221 25.4002C25.9868 24.8414 25.6536 24.0701 25.6536 23.2211V12.7789C25.6536 11.9328 25.9861 11.162 26.5218 10.6017L26.5259 10.5974C27.0626 10.0394 27.8004 9.69301 28.6105 9.69301ZM31.7735 20.9388H29.6733L31.2858 14.4463H34.3613L35.9737 20.9388H33.8736L33.7127 19.9104H31.9342L31.7735 20.9388ZM32.5985 16.4408L32.2926 18.2588H33.3444L33.0485 16.4408H32.5985ZM36.5012 20.9388V14.4463H38.4919V20.9388H36.5012ZM45.0098 18.9686V20.6618C45.0098 20.836 45.1462 20.9783 45.3131 20.9783H47.6967C47.8636 20.9783 48 20.836 48 20.6618V18.9686C48 18.7944 47.8636 18.6521 47.6967 18.6521H45.3131C45.1462 18.6521 45.0098 18.7944 45.0098 18.9686ZM45.0098 15.0808V16.7739C45.0098 16.948 45.1462 17.0905 45.3131 17.0905H47.6967C47.8636 17.0905 48 16.948 48 16.7739V15.0808C48 14.9065 47.8636 14.7642 47.6967 14.7642H45.3131C45.1462 14.7642 45.0098 14.9065 45.0098 15.0808ZM45.0098 22.8564V24.5496C45.0098 24.7238 45.1462 24.8662 45.3131 24.8662H47.6967C47.8636 24.8662 48 24.7238 48 24.5496V22.8564C48 22.6823 47.8636 22.5399 47.6967 22.5399H45.3131C45.1462 22.5399 45.0098 22.6823 45.0098 22.8564ZM45.0098 11.1928V12.886C45.0098 13.0601 45.1462 13.2025 45.3131 13.2025H47.6967C47.8636 13.2025 48 13.0601 48 12.886V11.1928C48 11.0187 47.8636 10.8763 47.6967 10.8763H45.3131C45.1462 10.8763 45.0098 11.0187 45.0098 11.1928ZM23.9902 18.9686V20.6618C23.9902 20.836 23.8538 20.9783 23.6869 20.9783H21.3033C21.1364 20.9783 21 20.836 21 20.6618V18.9686C21 18.7944 21.1364 18.6521 21.3033 18.6521H23.6869C23.8538 18.6521 23.9902 18.7944 23.9902 18.9686ZM23.9902 15.0808V16.7739C23.9902 16.948 23.8538 17.0905 23.6869 17.0905H21.3033C21.1364 17.0905 21 16.948 21 16.7739V15.0808C21 14.9065 21.1364 14.7642 21.3033 14.7642H23.6869C23.8538 14.7642 23.9902 14.9065 23.9902 15.0808ZM23.9902 22.8564V24.5496C23.9902 24.7238 23.8538 24.8662 23.6869 24.8662H21.3033C21.1364 24.8662 21 24.7238 21 24.5496V22.8564C21 22.6823 21.1364 22.5399 21.3033 22.5399H23.6869C23.8538 22.5399 23.9902 22.6823 23.9902 22.8564ZM23.9902 11.1928V12.886C23.9902 13.0601 23.8538 13.2025 23.6869 13.2025H21.3033C21.1364 13.2025 21 13.0601 21 12.886V11.1928C21 11.0187 21.1364 10.8763 21.3033 10.8763H23.6869C23.8538 10.8763 23.9902 11.0187 23.9902 11.1928ZM39.2766 27.8792H40.8989C41.0656 27.8792 41.2022 28.0216 41.2022 28.1958V30.6834C41.2022 30.8576 41.0656 31 40.8989 31H39.2766C39.1096 31 38.9733 30.8576 38.9733 30.6834V28.1958C38.9733 28.0216 39.1096 27.8792 39.2766 27.8792ZM35.5514 27.8792H37.1736C37.3405 27.8792 37.4769 28.0216 37.4769 28.1958V30.6834C37.4769 30.8576 37.3405 31 37.1736 31H35.5514C35.3845 31 35.248 30.8576 35.248 30.6834V28.1958C35.248 28.0216 35.3845 27.8792 35.5514 27.8792ZM31.8263 27.8792H33.4485C33.6154 27.8792 33.7518 28.0216 33.7518 28.1958V30.6834C33.7518 30.8576 33.6154 31 33.4485 31H31.8263C31.6594 31 31.5229 30.8576 31.5229 30.6834V28.1958C31.5229 28.0216 31.6594 27.8792 31.8263 27.8792ZM28.1011 27.8792H29.7234C29.8903 27.8792 30.0267 28.0216 30.0267 28.1958V30.6834C30.0267 30.8576 29.8903 31 29.7234 31H28.1011C27.9342 31 27.7978 30.8576 27.7978 30.6834V28.1958C27.7978 28.0216 27.9342 27.8792 28.1011 27.8792ZM39.2766 5H40.8989C41.0656 5 41.2022 5.14238 41.2022 5.31658V7.80423C41.2022 7.97842 41.0656 8.12081 40.8989 8.12081H39.2766C39.1096 8.12081 38.9733 7.97842 38.9733 7.80423V5.31658C38.9733 5.14238 39.1096 5 39.2766 5ZM35.5514 5H37.1736C37.3405 5 37.4769 5.14238 37.4769 5.31658V7.80423C37.4769 7.97842 37.3405 8.12081 37.1736 8.12081H35.5514C35.3845 8.12081 35.248 7.97842 35.248 7.80423V5.31658C35.248 5.14238 35.3845 5 35.5514 5ZM31.8263 5H33.4485C33.6154 5 33.7518 5.14238 33.7518 5.31658V7.80423C33.7518 7.97842 33.6154 8.12081 33.4485 8.12081H31.8263C31.6594 8.12081 31.5229 7.97842 31.5229 7.80423V5.31658C31.5229 5.14238 31.6594 5 31.8263 5ZM28.1011 5H29.7234C29.8903 5 30.0267 5.14238 30.0267 5.31658V7.80423C30.0267 7.97842 29.8903 8.12081 29.7234 8.12081H28.1011C27.9342 8.12081 27.7978 7.97842 27.7978 7.80423V5.31658C27.7978 5.14238 27.9342 5 28.1011 5ZM40.3896 11.1145H28.6105C28.4013 11.1143 28.1942 11.1572 28.001 11.2407C27.8078 11.3242 27.6323 11.4468 27.4846 11.6013L27.482 11.604C27.334 11.7581 27.2166 11.9413 27.1365 12.1429C27.0565 12.3445 27.0154 12.5607 27.0156 12.7789V23.2211C27.0156 23.6775 27.1957 24.0933 27.485 24.3952C27.7747 24.6976 28.1736 24.8855 28.6105 24.8855H40.3896C40.8259 24.8855 41.2246 24.6972 41.5143 24.3949C41.8039 24.0925 41.9844 23.6765 41.9844 23.2211V12.7789C41.9844 12.323 41.8043 11.9067 41.5146 11.6044V11.6017C41.227 11.3014 40.8288 11.1145 40.3896 11.1145Z" fill="#DAB068"/>
</svg>
