<svg width="90" height="90" viewBox="0 0 90 90" fill="none" xmlns="http://www.w3.org/2000/svg">
<path d="M87 46C87 69.196 68.196 88 45 88C23.5989 88 5.93655 71.9937 3.33255 51.2989C3.1132 49.5639 3 47.7948 3 46C3 42.712 3.37718 39.5115 4.092 36.4411C8.41882 17.8515 25.092 4 45 4C64.8583 4 81.4988 17.7829 85.8737 36.3041C86.4479 38.7263 86.8097 41.2292 86.9418 43.792C86.9811 44.5239 87 45.2594 87 46Z" fill="white"/>
<path fill-rule="evenodd" clip-rule="evenodd" d="M38.0443 28.8193C38.5697 22.3863 44.1751 17.5746 50.6134 18.0298C57.0518 18.4851 61.9243 24.0376 61.5392 30.4806C67.6873 30.4806 72.7173 35.5107 72.7173 41.6587C72.7173 47.8067 67.6872 52.837 61.5392 52.837H25.0393C20.5891 52.802 17 49.1845 17 44.7341C17 40.2837 20.589 36.6663 25.0393 36.6313C23.9568 32.3404 26.7647 27.8435 30.7731 26.897C33.1987 26.3242 36.013 26.9753 38.0443 28.8193Z" fill="#2A93FC"/>
<path fill-rule="evenodd" clip-rule="evenodd" d="M61.5419 30.4806C67.69 30.4806 72.72 35.5108 72.72 41.6588C72.72 47.8067 67.6899 52.837 61.5419 52.837H28.9221C24.472 52.802 20.8828 49.1846 20.8828 44.7342C20.8828 40.2838 24.472 36.6664 28.9221 36.6313C27.6602 28.5217 36.944 26.8512 39.9231 31.4629C41.5347 16.6757 60.6414 17.5101 61.5418 30.4805L61.5419 30.4806Z" fill="#5CAEFF"/>
<path fill-rule="evenodd" clip-rule="evenodd" d="M47.7155 22.1009C47.3287 22.1717 46.9577 21.9157 46.8868 21.5288C46.8159 21.142 47.072 20.7711 47.4588 20.7001C47.6466 20.6653 47.8306 20.6358 48.0109 20.6112C50.7802 20.2338 53.2625 20.9164 55.1663 22.2892C57.0765 23.6666 58.3983 25.7362 58.8407 28.1269C58.8688 28.279 58.8932 28.4298 58.9134 28.5791C58.9658 28.9689 58.6922 29.3275 58.3023 29.3799C57.9124 29.4323 57.554 29.1587 57.5016 28.7688C57.4836 28.6366 57.463 28.5082 57.4399 28.3834C57.0652 26.3588 55.9481 24.6078 54.3347 23.4443C52.7149 22.2763 50.5882 21.6975 48.2005 22.0229C48.0374 22.0452 47.8756 22.0711 47.7155 22.1007V22.1009Z" fill="#BDDFFF"/>
<path fill-rule="evenodd" clip-rule="evenodd" d="M44.8713 33.3399C49.3574 33.3399 53.0277 37.0102 53.0277 41.4963V46.6949H49.9205V41.4963C49.9205 38.7253 47.6423 36.447 44.8713 36.447C42.1003 36.447 39.8221 38.7253 39.8221 41.4963V46.6949H36.7148V41.4963C36.7148 37.0102 40.3852 33.3399 44.8713 33.3399Z" fill="#BDDFFF"/>
<path fill-rule="evenodd" clip-rule="evenodd" d="M45.3154 33.3524C49.5961 33.5862 53.0254 37.1601 53.0254 41.4964V46.6949H50.8111V41.4964C50.8111 38.7254 48.5329 36.447 45.7619 36.447C45.6115 36.447 45.4627 36.4541 45.3154 36.4672C45.1682 36.4541 45.0194 36.447 44.869 36.447C42.098 36.447 39.8198 38.7254 39.8198 41.4964V46.6949H37.6055V41.4964C37.6055 37.16 41.035 33.5862 45.3154 33.3524Z" fill="white"/>
<path d="M54.4839 44.0097H35.2579C34.1317 44.0097 33.2188 44.9227 33.2188 46.0489V59.643C33.2188 60.7692 34.1317 61.6822 35.2579 61.6822H54.4839C55.6101 61.6822 56.5231 60.7692 56.5231 59.643V46.0489C56.5231 44.9227 55.6101 44.0097 54.4839 44.0097Z" fill="#F9AC00"/>
<path d="M54.4827 44.0097H36.9532C35.827 44.0097 34.9141 44.9227 34.9141 46.0489V59.643C34.9141 60.7692 35.827 61.6822 36.9532 61.6822H54.4827C55.6089 61.6822 56.5219 60.7692 56.5219 59.643V46.0489C56.5219 44.9227 55.6089 44.0097 54.4827 44.0097Z" fill="#FDC72E"/>
<path d="M68.0599 63.928H24.6997C21.9186 63.928 19.6641 66.1826 19.6641 68.9637V68.9638C19.6641 71.7449 21.9186 73.9995 24.6997 73.9995H68.0599C70.841 73.9995 73.0956 71.7449 73.0956 68.9638V68.9637C73.0956 66.1826 70.841 63.928 68.0599 63.928Z" fill="#2A93FC"/>
<path fill-rule="evenodd" clip-rule="evenodd" d="M24.6984 63.928H68.0584C70.8281 63.928 73.0941 66.1941 73.0941 68.9637C73.0941 69.7411 72.9155 70.4788 72.5974 71.1378C71.6753 72.1415 70.3538 72.7731 68.8917 72.7731H25.5317C22.7621 72.7731 20.4961 70.5071 20.4961 67.7374C20.4961 66.96 20.6747 66.2223 20.9927 65.5632C21.9147 64.5596 23.2364 63.928 24.6984 63.928Z" fill="#5CAEFF"/>
<path fill-rule="evenodd" clip-rule="evenodd" d="M45.5869 47.9711C46.9055 47.9711 47.9745 49.0401 47.9745 50.3587C47.9745 51.283 47.4494 52.0844 46.6812 52.4812V56.6264C46.6812 57.2283 46.1888 57.7207 45.5869 57.7207C44.9849 57.7207 44.4925 57.2283 44.4925 56.6264V52.4814C43.7244 52.0844 43.1992 51.283 43.1992 50.3587C43.1992 49.0401 44.2682 47.9711 45.5869 47.9711Z" fill="#F9AC00"/>
<path fill-rule="evenodd" clip-rule="evenodd" d="M44.872 47.9711C46.1907 47.9711 47.2597 49.0401 47.2597 50.3587C47.2597 51.283 46.7345 52.0844 45.9664 52.4812V56.6264C45.9664 57.2283 45.474 57.7207 44.872 57.7207C44.2701 57.7207 43.7777 57.2283 43.7777 56.6264V52.4814C43.0095 52.0844 42.4844 51.283 42.4844 50.3587C42.4844 49.0401 43.5534 47.9711 44.872 47.9711Z" fill="white"/>
<path fill-rule="evenodd" clip-rule="evenodd" d="M69.1616 69.4155C69.5021 69.6128 69.6183 70.0487 69.4212 70.3893C69.2239 70.7298 68.7879 70.846 68.4473 70.6489L67.6682 70.1991V71.1007C67.6682 71.4952 67.3484 71.815 66.9539 71.815C66.5593 71.815 66.2395 71.4952 66.2395 71.1007V70.1991L65.4605 70.6489C65.12 70.8462 64.6839 70.73 64.4866 70.3893C64.2893 70.0488 64.4055 69.6128 64.7461 69.4155L65.5286 68.9637L64.7461 68.512C64.4056 68.3147 64.2894 67.8787 64.4866 67.5381C64.6839 67.1975 65.1198 67.0814 65.4605 67.2786L66.2395 67.7284V66.8268C66.2395 66.4322 66.5593 66.1124 66.9539 66.1124C67.3484 66.1124 67.6682 66.4322 67.6682 66.8268V67.7282L68.4473 67.2784C68.7878 67.0813 69.2239 67.1974 69.4212 67.538C69.6184 67.8785 69.5022 68.3146 69.1616 68.5119L68.3792 68.9635L69.1616 69.4154V69.4155ZM25.9817 66.8269C25.9817 66.4323 26.3015 66.1125 26.696 66.1125C27.0906 66.1125 27.4103 66.4323 27.4103 66.8269V67.7284L28.1894 67.2786C28.5301 67.0814 28.966 67.1975 29.1633 67.5381C29.3605 67.8786 29.2444 68.3147 28.9038 68.512L28.1213 68.9638L28.9038 69.4155C29.2443 69.6128 29.3605 70.0487 29.1633 70.3893C28.966 70.7298 28.5301 70.846 28.1894 70.6489L27.4105 70.1991V71.1007C27.4105 71.4952 27.0907 71.815 26.6961 71.815C26.3016 71.815 25.9818 71.4952 25.9818 71.1007V70.1991L25.2027 70.6489C24.8622 70.8462 24.4261 70.73 24.2288 70.3893C24.0317 70.0488 24.1478 69.6128 24.4884 69.4155L25.2708 68.9638L24.4884 68.512C24.1479 68.3147 24.0317 67.8787 24.2288 67.5381C24.4261 67.1975 24.8621 67.0814 25.2027 67.2786L25.9818 67.7285V66.8269H25.9817ZM34.0332 66.8269C34.0332 66.4323 34.353 66.1125 34.7476 66.1125C35.1421 66.1125 35.4619 66.4323 35.4619 66.8269V67.7284L36.241 67.2786C36.5815 67.0814 37.0176 67.1975 37.2149 67.5381C37.4121 67.8786 37.2959 68.3147 36.9553 68.512L36.1729 68.9638L36.9553 69.4155C37.2958 69.6128 37.412 70.0487 37.2149 70.3893C37.0176 70.7298 36.5816 70.846 36.241 70.6489L35.462 70.1991V71.1007C35.462 71.4952 35.1422 71.815 34.7477 71.815C34.3531 71.815 34.0334 71.4952 34.0334 71.1007V70.1991L33.2543 70.6489C32.9136 70.8462 32.4777 70.73 32.2804 70.3893C32.0831 70.0488 32.1993 69.6128 32.5399 69.4155L33.3224 68.9638L32.5399 68.512C32.1994 68.3147 32.0832 67.8787 32.2804 67.5381C32.4777 67.1975 32.9136 67.0814 33.2543 67.2786L34.0334 67.7285L34.0332 66.8269ZM42.0848 66.8269C42.0848 66.4323 42.4046 66.1125 42.7991 66.1125C43.1937 66.1125 43.5134 66.4323 43.5134 66.8269V67.7284L44.2925 67.2786C44.633 67.0814 45.0691 67.1975 45.2664 67.5381C45.4637 67.8786 45.3475 68.3147 45.0069 68.512L44.2244 68.9637L45.0069 69.4155C45.3474 69.6128 45.4636 70.0487 45.2664 70.3893C45.0691 70.7298 44.6332 70.846 44.2925 70.6489L43.5134 70.1991V71.1007C43.5134 71.4952 43.1937 71.815 42.7991 71.815C42.4046 71.815 42.0848 71.4952 42.0848 71.1007V70.1991L41.3057 70.6489C40.9652 70.8462 40.5291 70.73 40.3318 70.3893C40.1346 70.0488 40.2507 69.6128 40.5914 69.4155L41.3738 68.9637L40.5914 68.512C40.2509 68.3147 40.1347 67.8787 40.3318 67.5381C40.529 67.1975 40.9651 67.0814 41.3057 67.2786L42.0848 67.7284V66.8269ZM50.1363 66.8269C50.1363 66.4323 50.4561 66.1125 50.8507 66.1125C51.2452 66.1125 51.565 66.4323 51.565 66.8269V67.7284L52.3441 67.2786C52.6846 67.0814 53.1207 67.1975 53.3179 67.5381C53.5152 67.8786 53.399 68.3147 53.0584 68.512L52.276 68.9638L53.0584 69.4155C53.3989 69.6128 53.5151 70.0487 53.3179 70.3893C53.1207 70.7298 52.6847 70.846 52.3441 70.6489L51.565 70.1991V71.1007C51.565 71.4952 51.2452 71.815 50.8507 71.815C50.4561 71.815 50.1363 71.4952 50.1363 71.1007V70.1991L49.3572 70.6489C49.0167 70.8462 48.5806 70.73 48.3834 70.3893C48.1861 70.0488 48.3023 69.6128 48.6429 69.4155L49.4253 68.9638L48.6429 68.512C48.3024 68.3147 48.1862 67.8787 48.3834 67.5381C48.5806 67.1975 49.0166 67.0814 49.3572 67.2786L50.1363 67.7285V66.8269ZM58.1879 66.8269C58.1879 66.4323 58.5077 66.1125 58.9022 66.1125C59.2968 66.1125 59.6165 66.4323 59.6165 66.8269V67.7284L60.3956 67.2786C60.7361 67.0814 61.1722 67.1975 61.3695 67.5381C61.5668 67.8786 61.4506 68.3147 61.11 68.512L60.3275 68.9638L61.11 69.4155C61.4506 69.6128 61.5666 70.0487 61.3695 70.3893C61.1722 70.7298 60.7362 70.846 60.3956 70.6489L59.6167 70.1991V71.1007C59.6167 71.4952 59.2969 71.815 58.9023 71.815C58.5078 71.815 58.188 71.4952 58.188 71.1007V70.1991L57.4089 70.6489C57.0684 70.8462 56.6323 70.73 56.435 70.3893C56.2378 70.0488 56.354 69.6128 56.6946 69.4155L57.477 68.9638L56.6946 68.512C56.354 68.3147 56.2379 67.8787 56.435 67.5381C56.6323 67.1975 57.0683 67.0814 57.4089 67.2786L58.188 67.7285V66.8269H58.1879Z" fill="#2A93FC"/>
<path fill-rule="evenodd" clip-rule="evenodd" d="M68.7164 69.4155C69.057 69.6128 69.1731 70.0487 68.9759 70.3893C68.7786 70.7298 68.3427 70.846 68.002 70.6489L67.2229 70.1991V71.1007C67.2229 71.4952 66.9032 71.815 66.5086 71.815C66.1141 71.815 65.7943 71.4952 65.7943 71.1007V70.1991L65.0152 70.6489C64.6746 70.8462 64.2386 70.73 64.0413 70.3893C63.8442 70.0488 63.9602 69.6128 64.3009 69.4155L65.0833 68.9637L64.3009 68.512C63.9602 68.3147 63.8442 67.8787 64.0413 67.5381C64.2386 67.1975 64.6746 67.0814 65.0152 67.2786L65.7943 67.7284V66.8268C65.7943 66.4322 66.1141 66.1124 66.5086 66.1124C66.9032 66.1124 67.2229 66.4322 67.2229 66.8268V67.7282L68.002 67.2784C68.3425 67.0813 68.7786 67.1974 68.9759 67.538C69.1731 67.8785 69.057 68.3146 68.7164 68.5119L67.9339 68.9635L68.7164 69.4154V69.4155ZM25.5364 66.8269C25.5364 66.4323 25.8562 66.1125 26.2508 66.1125C26.6453 66.1125 26.9651 66.4323 26.9651 66.8269V67.7284L27.7442 67.2786C28.0847 67.0814 28.5208 67.1975 28.718 67.5381C28.9153 67.8786 28.7991 68.3147 28.4585 68.512L27.6761 68.9638L28.4585 69.4155C28.799 69.6128 28.9152 70.0487 28.718 70.3893C28.5208 70.7298 28.0848 70.846 27.7442 70.6489L26.9652 70.1991V71.1007C26.9652 71.4952 26.6454 71.815 26.2509 71.815C25.8563 71.815 25.5366 71.4952 25.5366 71.1007V70.1991L24.7575 70.6489C24.417 70.8462 23.9809 70.73 23.7836 70.3893C23.5863 70.0488 23.7025 69.6128 24.0431 69.4155L24.8256 68.9638L24.0431 68.512C23.7026 68.3147 23.5864 67.8787 23.7836 67.5381C23.9809 67.1975 24.4168 67.0814 24.7575 67.2786L25.5366 67.7285V66.8269H25.5364ZM33.588 66.8269C33.588 66.4323 33.9078 66.1125 34.3023 66.1125C34.6969 66.1125 35.0166 66.4323 35.0166 66.8269V67.7284L35.7957 67.2786C36.1362 67.0814 36.5723 67.1975 36.7696 67.5381C36.9669 67.8786 36.8507 68.3147 36.5101 68.512L35.7276 68.9638L36.5101 69.4155C36.8506 69.6128 36.9668 70.0487 36.7696 70.3893C36.5723 70.7298 36.1363 70.846 35.7957 70.6489L35.0168 70.1991V71.1007C35.0168 71.4952 34.697 71.815 34.3024 71.815C33.9079 71.815 33.5881 71.4952 33.5881 71.1007V70.1991L32.809 70.6489C32.4685 70.8462 32.0324 70.73 31.8351 70.3893C31.638 70.0488 31.7541 69.6128 32.0947 69.4155L32.8771 68.9638L32.0947 68.512C31.7542 68.3147 31.638 67.8787 31.8351 67.5381C32.0324 67.1975 32.4684 67.0814 32.809 67.2786L33.5881 67.7285L33.588 66.8269ZM41.6395 66.8269C41.6395 66.4323 41.9593 66.1125 42.3539 66.1125C42.7484 66.1125 43.0682 66.4323 43.0682 66.8269V67.7284L43.8473 67.2786C44.1879 67.0814 44.6239 67.1975 44.8211 67.5381C45.0184 67.8786 44.9022 68.3147 44.5616 68.512L43.7792 68.9637L44.5616 69.4155C44.9021 69.6128 45.0183 70.0487 44.8211 70.3893C44.6239 70.7298 44.1879 70.846 43.8473 70.6489L43.0682 70.1991V71.1007C43.0682 71.4952 42.7484 71.815 42.3539 71.815C41.9593 71.815 41.6395 71.4952 41.6395 71.1007V70.1991L40.8604 70.6489C40.5199 70.8462 40.0838 70.73 39.8866 70.3893C39.6893 70.0488 39.8055 69.6128 40.1461 69.4155L40.9285 68.9637L40.1461 68.512C39.8055 68.3147 39.6894 67.8787 39.8866 67.5381C40.0838 67.1975 40.5198 67.0814 40.8604 67.2786L41.6395 67.7284V66.8269ZM49.6911 66.8269C49.6911 66.4323 50.0109 66.1125 50.4054 66.1125C50.7999 66.1125 51.1197 66.4323 51.1197 66.8269V67.7284L51.8988 67.2786C52.2393 67.0814 52.6754 67.1975 52.8727 67.5381C53.07 67.8786 52.9538 68.3147 52.6132 68.512L51.8307 68.9638L52.6132 69.4155C52.9536 69.6128 53.0698 70.0487 52.8727 70.3893C52.6755 70.7298 52.2394 70.846 51.8988 70.6489L51.1198 70.1991V71.1007C51.1198 71.4952 50.8001 71.815 50.4055 71.815C50.011 71.815 49.6912 71.4952 49.6912 71.1007V70.1991L48.9121 70.6489C48.5716 70.8462 48.1355 70.73 47.9382 70.3893C47.741 70.0488 47.8572 69.6128 48.1978 69.4155L48.9802 68.9638L48.1977 68.512C47.8572 68.3147 47.741 67.8787 47.9381 67.5381C48.1354 67.1975 48.5714 67.0814 48.912 67.2786L49.6911 67.7285V66.8269ZM57.7426 66.8269C57.7426 66.4323 58.0624 66.1125 58.4569 66.1125C58.8515 66.1125 59.1713 66.4323 59.1713 66.8269V67.7284L59.9504 67.2786C60.291 67.0814 60.727 67.1975 60.9242 67.5381C61.1215 67.8786 61.0053 68.3147 60.6647 68.512L59.8823 68.9638L60.6647 69.4155C61.0052 69.6128 61.1214 70.0487 60.9242 70.3893C60.727 70.7298 60.291 70.846 59.9504 70.6489L59.1714 70.1991V71.1007C59.1714 71.4952 58.8516 71.815 58.4571 71.815C58.0625 71.815 57.7427 71.4952 57.7427 71.1007V70.1991L56.9636 70.6489C56.6231 70.8462 56.1871 70.73 55.9898 70.3893C55.7925 70.0488 55.9087 69.6128 56.2493 69.4155L57.0317 68.9638L56.2493 68.512C55.9088 68.3147 55.7926 67.8787 55.9898 67.5381C56.1869 67.1975 56.623 67.0814 56.9636 67.2786L57.7427 67.7285V66.8269H57.7426Z" fill="white"/>
</svg>
