<svg width="90" height="90" viewBox="0 0 90 90" fill="none" xmlns="http://www.w3.org/2000/svg">
<path d="M87 46C87 69.196 68.196 88 45 88C23.5989 88 5.93655 71.9937 3.33255 51.2989C3.1132 49.5639 3 47.7948 3 46C3 42.712 3.37718 39.5115 4.092 36.4411C8.41882 17.8515 25.092 4 45 4C64.8583 4 81.4988 17.7829 85.8737 36.3041C86.4479 38.7263 86.8097 41.2292 86.9418 43.792C86.9811 44.5239 87 45.2594 87 46Z" fill="white"/>
<path d="M25.1878 52.6453C22.6888 52.6423 20.2784 51.7192 18.4167 50.0522C16.5549 48.3851 15.3722 46.0909 15.0943 43.6074C14.8164 41.1239 15.4628 38.625 16.91 36.5877C18.3572 34.5504 20.504 33.1173 22.9405 32.562C23.0055 32.5484 23.0671 32.522 23.1218 32.4844C23.1765 32.4468 23.2232 32.3986 23.2591 32.3428C23.2951 32.287 23.3196 32.2246 23.3312 32.1593C23.3429 32.0939 23.3414 32.0269 23.3269 31.9621C23.1595 31.1428 23.115 30.3031 23.1947 29.4707C23.3175 28.2081 23.7343 26.9918 24.4117 25.9193C25.0891 24.8467 26.0083 23.9477 27.0956 23.2943C28.183 22.6409 29.4082 22.2513 30.6732 22.1566C31.9383 22.062 33.2079 22.2649 34.3804 22.7492C34.4971 22.7965 34.6273 22.7988 34.7457 22.7556C34.8641 22.7124 34.9622 22.6267 35.021 22.5153C36.4664 19.8325 38.7333 17.6834 41.4893 16.3831C44.2454 15.0828 47.3455 14.6996 50.3352 15.2898C53.3248 15.88 56.0468 17.4125 58.1019 19.6626C60.157 21.9127 61.4371 24.7621 61.7546 27.7929C61.7669 27.9153 61.8231 28.0291 61.9128 28.1133C62.0026 28.1974 62.1198 28.2462 62.2427 28.2505C65.2575 28.3681 68.1217 29.5984 70.2826 31.7039C72.4435 33.8093 73.7478 36.6407 73.9437 39.6513C74.1396 42.662 73.2133 45.6385 71.3434 48.0062C69.4736 50.374 66.793 51.9651 63.8189 52.4724L25.1878 52.6453Z" fill="#6DDCDD"/>
<path d="M63.8288 46.5441V40.4428C63.8288 39.6337 63.5073 38.8578 62.9352 38.2857C62.3631 37.7136 61.5872 37.3922 60.7781 37.3922H28.2381C27.429 37.3922 26.6531 37.7136 26.081 38.2857C25.5089 38.8578 25.1875 39.6337 25.1875 40.4428V46.5441C25.1875 47.3531 25.5089 48.1291 26.081 48.7012C26.6531 49.2733 27.429 49.5947 28.2381 49.5947C27.429 49.5947 26.6531 49.9161 26.081 50.4882C25.5089 51.0603 25.1875 51.8362 25.1875 52.6453V58.7466C25.1875 59.5556 25.5089 60.3316 26.081 60.9037C26.6531 61.4758 27.429 61.7972 28.2381 61.7972C27.429 61.7972 26.6531 62.1186 26.081 62.6907C25.5089 63.2628 25.1875 64.0387 25.1875 64.8478V70.9491C25.1875 71.7581 25.5089 72.5341 26.081 73.1062C26.6531 73.6783 27.429 73.9997 28.2381 73.9997H60.7781C61.5872 73.9997 62.3631 73.6783 62.9352 73.1062C63.5073 72.5341 63.8288 71.7581 63.8288 70.9491V64.8478C63.8288 64.0387 63.5073 63.2628 62.9352 62.6907C62.3631 62.1186 61.5872 61.7972 60.7781 61.7972C61.5872 61.7972 62.3631 61.4758 62.9352 60.9037C63.5073 60.3316 63.8288 59.5556 63.8288 58.7466V52.6453C63.8288 51.8362 63.5073 51.0603 62.9352 50.4882C62.3631 49.9161 61.5872 49.5947 60.7781 49.5947C61.5872 49.5947 62.3631 49.2733 62.9352 48.7012C63.5073 48.1291 63.8288 47.3531 63.8288 46.5441Z" fill="#609DC8"/>
<path d="M60.7781 49.5947H28.2381C26.5533 49.5947 25.1875 50.9605 25.1875 52.6453V58.7466C25.1875 60.4314 26.5533 61.7972 28.2381 61.7972H60.7781C62.4629 61.7972 63.8288 60.4314 63.8288 58.7466V52.6453C63.8288 50.9605 62.4629 49.5947 60.7781 49.5947Z" fill="#4B88A9"/>
<path d="M31.2877 57.7297C32.4109 57.7297 33.3214 56.8192 33.3214 55.696C33.3214 54.5727 32.4109 53.6622 31.2877 53.6622C30.1644 53.6622 29.2539 54.5727 29.2539 55.696C29.2539 56.8192 30.1644 57.7297 31.2877 57.7297Z" fill="#FDE36E"/>
<path d="M39.4244 57.7297C40.5476 57.7297 41.4581 56.8192 41.4581 55.696C41.4581 54.5727 40.5476 53.6622 39.4244 53.6622C38.3012 53.6622 37.3906 54.5727 37.3906 55.696C37.3906 56.8192 38.3012 57.7297 39.4244 57.7297Z" fill="#6DDCDD"/>
<path d="M31.2877 45.5272C32.4109 45.5272 33.3214 44.6166 33.3214 43.4934C33.3214 42.3702 32.4109 41.4597 31.2877 41.4597C30.1644 41.4597 29.2539 42.3702 29.2539 43.4934C29.2539 44.6166 30.1644 45.5272 31.2877 45.5272Z" fill="#FDE36E"/>
<path d="M39.4244 45.5272C40.5476 45.5272 41.4581 44.6166 41.4581 43.4934C41.4581 42.3702 40.5476 41.4597 39.4244 41.4597C38.3012 41.4597 37.3906 42.3702 37.3906 43.4934C37.3906 44.6166 38.3012 45.5272 39.4244 45.5272Z" fill="#6DDCDD"/>
<path d="M31.2877 69.9322C32.4109 69.9322 33.3214 69.0216 33.3214 67.8984C33.3214 66.7752 32.4109 65.8647 31.2877 65.8647C30.1644 65.8647 29.2539 66.7752 29.2539 67.8984C29.2539 69.0216 30.1644 69.9322 31.2877 69.9322Z" fill="#FDE36E"/>
<path d="M39.4244 69.9322C40.5476 69.9322 41.4581 69.0216 41.4581 67.8984C41.4581 66.7752 40.5476 65.8647 39.4244 65.8647C38.3012 65.8647 37.3906 66.7752 37.3906 67.8984C37.3906 69.0216 38.3012 69.9322 39.4244 69.9322Z" fill="#6DDCDD"/>
<path d="M31.285 52.6453C30.6816 52.6453 30.0918 52.8242 29.5902 53.1594C29.0885 53.4946 28.6975 53.9711 28.4666 54.5285C28.2357 55.0859 28.1753 55.6993 28.293 56.2911C28.4107 56.8828 28.7012 57.4264 29.1279 57.853C29.5545 58.2797 30.0981 58.5702 30.6899 58.6879C31.2816 58.8056 31.895 58.7452 32.4524 58.5143C33.0099 58.2834 33.4863 57.8924 33.8215 57.3908C34.1567 56.8891 34.3356 56.2993 34.3356 55.6959C34.3356 54.8868 34.0142 54.1109 33.4421 53.5388C32.87 52.9667 32.0941 52.6453 31.285 52.6453ZM31.285 56.7128C31.0839 56.7128 30.8873 56.6532 30.7201 56.5414C30.5528 56.4297 30.4225 56.2709 30.3455 56.0851C30.2686 55.8993 30.2484 55.6948 30.2877 55.4975C30.3269 55.3003 30.4237 55.1191 30.566 54.9769C30.7082 54.8347 30.8894 54.7378 31.0866 54.6986C31.2839 54.6593 31.4883 54.6795 31.6741 54.7565C31.86 54.8334 32.0188 54.9638 32.1305 55.131C32.2422 55.2982 32.3019 55.4948 32.3019 55.6959C32.3019 55.9656 32.1947 56.2243 32.004 56.415C31.8133 56.6057 31.5547 56.7128 31.285 56.7128Z" fill="#373737"/>
<path d="M39.4217 52.6453C38.8184 52.6453 38.2286 52.8242 37.7269 53.1594C37.2252 53.4946 36.8342 53.9711 36.6033 54.5285C36.3724 55.0859 36.312 55.6993 36.4297 56.2911C36.5474 56.8828 36.838 57.4264 37.2646 57.853C37.6912 58.2797 38.2348 58.5702 38.8266 58.6879C39.4183 58.8056 40.0317 58.7452 40.5891 58.5143C41.1466 58.2834 41.623 57.8924 41.9582 57.3908C42.2934 56.8891 42.4723 56.2993 42.4723 55.6959C42.4723 54.8868 42.1509 54.1109 41.5788 53.5388C41.0067 52.9667 40.2308 52.6453 39.4217 52.6453ZM39.4217 56.7128C39.2206 56.7128 39.024 56.6532 38.8568 56.5414C38.6896 56.4297 38.5592 56.2709 38.4823 56.0851C38.4053 55.8993 38.3851 55.6948 38.4244 55.4975C38.4636 55.3003 38.5605 55.1191 38.7027 54.9769C38.8449 54.8347 39.0261 54.7378 39.2233 54.6986C39.4206 54.6593 39.6251 54.6795 39.8109 54.7565C39.9967 54.8334 40.1555 54.9638 40.2672 55.131C40.379 55.2982 40.4386 55.4948 40.4386 55.6959C40.4386 55.9656 40.3315 56.2243 40.1408 56.415C39.9501 56.6057 39.6914 56.7128 39.4217 56.7128Z" fill="#373737"/>
<path d="M31.285 40.4428C30.6816 40.4428 30.0918 40.6217 29.5902 40.9569C29.0885 41.2921 28.6975 41.7686 28.4666 42.326C28.2357 42.8834 28.1753 43.4968 28.293 44.0886C28.4107 44.6803 28.7012 45.2239 29.1279 45.6506C29.5545 46.0772 30.0981 46.3677 30.6899 46.4854C31.2816 46.6032 31.895 46.5427 32.4524 46.3118C33.0099 46.081 33.4863 45.6899 33.8215 45.1883C34.1567 44.6866 34.3356 44.0968 34.3356 43.4934C34.3356 42.6844 34.0142 41.9084 33.4421 41.3363C32.87 40.7642 32.0941 40.4428 31.285 40.4428ZM31.285 44.5103C31.0839 44.5103 30.8873 44.4507 30.7201 44.3389C30.5528 44.2272 30.4225 44.0684 30.3455 43.8826C30.2686 43.6968 30.2484 43.4923 30.2877 43.2951C30.3269 43.0978 30.4237 42.9166 30.566 42.7744C30.7082 42.6322 30.8894 42.5353 31.0866 42.4961C31.2839 42.4569 31.4883 42.477 31.6741 42.554C31.86 42.6309 32.0188 42.7613 32.1305 42.9285C32.2422 43.0957 32.3019 43.2923 32.3019 43.4934C32.3019 43.7631 32.1947 44.0218 32.004 44.2125C31.8133 44.4032 31.5547 44.5103 31.285 44.5103Z" fill="#373737"/>
<path d="M39.4217 40.4428C38.8184 40.4428 38.2286 40.6217 37.7269 40.9569C37.2252 41.2921 36.8342 41.7686 36.6033 42.326C36.3724 42.8834 36.312 43.4968 36.4297 44.0886C36.5474 44.6803 36.838 45.2239 37.2646 45.6506C37.6912 46.0772 38.2348 46.3677 38.8266 46.4854C39.4183 46.6032 40.0317 46.5427 40.5891 46.3118C41.1466 46.081 41.623 45.6899 41.9582 45.1883C42.2934 44.6866 42.4723 44.0968 42.4723 43.4934C42.4723 42.6844 42.1509 41.9084 41.5788 41.3363C41.0067 40.7642 40.2308 40.4428 39.4217 40.4428ZM39.4217 44.5103C39.2206 44.5103 39.024 44.4507 38.8568 44.3389C38.6896 44.2272 38.5592 44.0684 38.4823 43.8826C38.4053 43.6968 38.3851 43.4923 38.4244 43.2951C38.4636 43.0978 38.5605 42.9166 38.7027 42.7744C38.8449 42.6322 39.0261 42.5353 39.2233 42.4961C39.4206 42.4569 39.6251 42.477 39.8109 42.554C39.9967 42.6309 40.1555 42.7613 40.2672 42.9285C40.379 43.0957 40.4386 43.2923 40.4386 43.4934C40.4386 43.7631 40.3315 44.0218 40.1408 44.2125C39.9501 44.4032 39.6914 44.5103 39.4217 44.5103Z" fill="#373737"/>
<path d="M31.285 70.9491C31.8884 70.9491 32.4782 70.7701 32.9798 70.4349C33.4815 70.0997 33.8725 69.6233 34.1034 69.0659C34.3343 68.5084 34.3947 67.8951 34.277 67.3033C34.1593 66.7115 33.8688 66.168 33.4421 65.7413C33.0155 65.3147 32.4719 65.0241 31.8801 64.9064C31.2884 64.7887 30.675 64.8491 30.1176 65.08C29.5601 65.3109 29.0837 65.7019 28.7485 66.2036C28.4133 66.7053 28.2344 67.2951 28.2344 67.8984C28.2344 68.7075 28.5558 69.4834 29.1279 70.0556C29.7 70.6277 30.4759 70.9491 31.285 70.9491ZM31.285 66.8816C31.4861 66.8816 31.6827 66.9412 31.8499 67.0529C32.0172 67.1647 32.1475 67.3235 32.2245 67.5093C32.3014 67.6951 32.3216 67.8996 32.2823 68.0968C32.2431 68.2941 32.1463 68.4753 32.004 68.6175C31.8618 68.7597 31.6806 68.8565 31.4834 68.8958C31.2861 68.935 31.0817 68.9149 30.8959 68.8379C30.7101 68.7609 30.5512 68.6306 30.4395 68.4634C30.3278 68.2962 30.2681 68.0996 30.2681 67.8984C30.2681 67.6287 30.3753 67.3701 30.566 67.1794C30.7567 66.9887 31.0153 66.8816 31.285 66.8816Z" fill="#373737"/>
<path d="M39.4217 70.9491C40.0251 70.9491 40.6149 70.7701 41.1166 70.4349C41.6182 70.0997 42.0092 69.6233 42.2401 69.0659C42.471 68.5084 42.5314 67.8951 42.4137 67.3033C42.296 66.7115 42.0055 66.168 41.5788 65.7413C41.1522 65.3147 40.6086 65.0241 40.0169 64.9064C39.4251 64.7887 38.8117 64.8491 38.2543 65.08C37.6969 65.3109 37.2204 65.7019 36.8852 66.2036C36.55 66.7053 36.3711 67.2951 36.3711 67.8984C36.3711 68.7075 36.6925 69.4834 37.2646 70.0556C37.8367 70.6277 38.6126 70.9491 39.4217 70.9491ZM39.4217 66.8816C39.6228 66.8816 39.8194 66.9412 39.9867 67.0529C40.1539 67.1647 40.2842 67.3235 40.3612 67.5093C40.4382 67.6951 40.4583 67.8996 40.4191 68.0968C40.3798 68.2941 40.283 68.4753 40.1408 68.6175C39.9985 68.7597 39.8174 68.8565 39.6201 68.8958C39.4228 68.935 39.2184 68.9149 39.0326 68.8379C38.8468 68.7609 38.688 68.6306 38.5762 68.4634C38.4645 68.2962 38.4048 68.0996 38.4048 67.8984C38.4048 67.6287 38.512 67.3701 38.7027 67.1794C38.8934 66.9887 39.152 66.8816 39.4217 66.8816Z" fill="#373737"/>
<path d="M62.7134 27.2559C62.2914 24.0937 60.89 21.1429 58.7058 18.8175C56.5216 16.4922 53.6642 14.9091 50.5345 14.2902C47.4049 13.6713 44.16 14.0478 41.2551 15.3668C38.3503 16.6858 35.9313 18.8811 34.3375 21.6448C32.9577 21.1597 31.4827 21.0081 30.0331 21.2024C27.9952 21.4822 26.1112 22.4412 24.6857 23.9242C23.2603 25.4072 22.3766 27.3277 22.1777 29.3751C22.1042 30.1452 22.1251 30.9214 22.2397 31.6864C20.6276 32.1278 19.1344 32.924 17.8696 34.0168C16.6048 35.1095 15.6002 36.4712 14.9294 38.0022C14.8711 38.1253 14.8381 38.2588 14.8324 38.3949C14.8267 38.5309 14.8483 38.6667 14.8961 38.7942C14.9438 38.9217 15.0167 39.0384 15.1104 39.1372C15.2041 39.236 15.3166 39.315 15.4414 39.3695C15.5662 39.424 15.7007 39.4529 15.8368 39.4544C15.973 39.456 16.1081 39.4302 16.2341 39.3785C16.3601 39.3269 16.4744 39.2504 16.5703 39.1538C16.6662 39.0571 16.7417 38.9421 16.7923 38.8157C17.3679 37.502 18.2436 36.3417 19.3492 35.4281C20.4548 34.5145 21.7594 33.8731 23.158 33.5554C23.3545 33.5126 23.5406 33.4311 23.7054 33.3157C23.8702 33.2003 24.0104 33.0533 24.1179 32.8833C24.2244 32.7184 24.2972 32.534 24.3321 32.3408C24.367 32.1476 24.3633 31.9494 24.3213 31.7576C24.1744 31.0355 24.1357 30.2956 24.2064 29.5622C24.3604 27.9737 25.0456 26.4835 26.1512 25.3326C27.2569 24.1817 28.7184 23.4374 30.2995 23.2199C31.5604 23.0521 32.8432 23.2175 34.0202 23.6999C34.3677 23.8323 34.7514 23.834 35.1 23.7048C35.4487 23.5756 35.7385 23.3241 35.9157 22.9972C37.2591 20.5053 39.3657 18.5095 41.9265 17.3027C44.4873 16.0958 47.3675 15.7414 50.1445 16.2915C52.9215 16.8415 55.4491 18.2671 57.3565 20.359C59.2639 22.4509 60.4507 25.099 60.7427 27.9148C60.7841 28.2779 60.9545 28.614 61.2229 28.8621C61.4913 29.1101 61.8398 29.2535 62.205 29.2663C64.8874 29.3688 67.4436 30.4326 69.4067 32.2635C71.3699 34.0944 72.6092 36.5703 72.8983 39.2391C73.1873 41.9079 72.507 44.5917 70.9814 46.8005C69.4559 49.0093 67.1868 50.5958 64.5885 51.2704C64.3534 50.6234 63.9576 50.0467 63.4384 49.5946C63.8777 49.2166 64.2306 48.7486 64.4731 48.2222C64.7155 47.6959 64.842 47.1235 64.8438 46.544V40.4427C64.8438 39.364 64.4152 38.3294 63.6524 37.5666C62.8896 36.8038 61.855 36.3752 60.7763 36.3752H28.2363C27.1575 36.3752 26.1229 36.8038 25.3601 37.5666C24.5973 38.3294 24.1688 39.364 24.1688 40.4427V46.544C24.1706 47.1235 24.297 47.6959 24.5395 48.2222C24.7819 48.7486 25.1348 49.2166 25.5741 49.5946C24.9706 50.12 24.5364 50.8125 24.3264 51.5846C22.0593 51.3688 19.9539 50.3162 18.4208 48.6323C16.8876 46.9484 16.0366 44.7538 16.0338 42.4765C16.0338 42.2068 15.9266 41.9481 15.7359 41.7574C15.5452 41.5667 15.2866 41.4596 15.0169 41.4596C14.7472 41.4596 14.4885 41.5667 14.2978 41.7574C14.1071 41.9481 14 42.2068 14 42.4765C14.0037 45.2654 15.0482 47.9526 16.929 50.0119C18.8098 52.0712 21.3916 53.3544 24.1688 53.6103V58.7465C24.1706 59.326 24.297 59.8984 24.5395 60.4247C24.7819 60.9511 25.1348 61.4191 25.5741 61.7971C25.1348 62.1751 24.7819 62.6431 24.5395 63.1695C24.297 63.6959 24.1706 64.2682 24.1688 64.8477V70.949C24.1688 72.0278 24.5973 73.0623 25.3601 73.8251C26.1229 74.588 27.1575 75.0165 28.2363 75.0165H60.7763C61.855 75.0165 62.8896 74.588 63.6524 73.8251C64.4152 73.0623 64.8438 72.0278 64.8438 70.949V64.8477C64.842 64.2682 64.7155 63.6959 64.4731 63.1695C64.2306 62.6431 63.8777 62.1751 63.4384 61.7971C63.8777 61.4191 64.2306 60.9511 64.4731 60.4247C64.7155 59.8984 64.842 59.326 64.8438 58.7465V53.293C67.916 52.5628 70.6251 50.7562 72.4802 48.2007C74.3352 45.6451 75.2135 42.5096 74.956 39.3623C74.6984 36.2149 73.322 33.264 71.0761 31.044C68.8303 28.8241 65.8635 27.482 62.7134 27.261V27.2559ZM26.2025 46.544V40.4427C26.2025 39.9034 26.4168 39.3861 26.7982 39.0047C27.1796 38.6233 27.6969 38.409 28.2363 38.409H60.7763C61.3156 38.409 61.8329 38.6233 62.2143 39.0047C62.5957 39.3861 62.81 39.9034 62.81 40.4427V46.544C62.81 47.0834 62.5957 47.6007 62.2143 47.9821C61.8329 48.3635 61.3156 48.5777 60.7763 48.5777H28.2363C27.6969 48.5777 27.1796 48.3635 26.7982 47.9821C26.4168 47.6007 26.2025 47.0834 26.2025 46.544ZM62.81 64.8477V70.949C62.81 71.4884 62.5957 72.0057 62.2143 72.3871C61.8329 72.7685 61.3156 72.9827 60.7763 72.9827H28.2363C27.6969 72.9827 27.1796 72.7685 26.7982 72.3871C26.4168 72.0057 26.2025 71.4884 26.2025 70.949V64.8477C26.2025 64.3084 26.4168 63.7911 26.7982 63.4097C27.1796 63.0283 27.6969 62.814 28.2363 62.814H60.7763C61.3156 62.814 61.8329 63.0283 62.2143 63.4097C62.5957 63.7911 62.81 64.3084 62.81 64.8477ZM28.2363 60.7802C27.6969 60.7802 27.1796 60.566 26.7982 60.1846C26.4168 59.8032 26.2025 59.2859 26.2025 58.7465V52.6452C26.2025 52.1059 26.4168 51.5886 26.7982 51.2072C27.1796 50.8258 27.6969 50.6115 28.2363 50.6115H60.7763C61.3156 50.6115 61.8329 50.8258 62.2143 51.2072C62.5957 51.5886 62.81 52.1059 62.81 52.6452V58.7465C62.81 59.2859 62.5957 59.8032 62.2143 60.1846C61.8329 60.566 61.3156 60.7802 60.7763 60.7802H28.2363Z" fill="#373737"/>
<path d="M40.1417 25.4876C39.951 25.297 39.6924 25.1899 39.4228 25.1899C39.1531 25.1899 38.8945 25.297 38.7038 25.4876L35.6532 28.5382C35.4626 28.7289 35.3555 28.9875 35.3555 29.2572C35.3555 29.5268 35.4626 29.7854 35.6532 29.9761L38.7038 33.0267C38.8956 33.212 39.1525 33.3144 39.4191 33.3121C39.6857 33.3098 39.9408 33.2029 40.1293 33.0143C40.3178 32.8258 40.4248 32.5708 40.4271 32.3041C40.4294 32.0375 40.3269 31.7806 40.1417 31.5889L37.81 29.2572L40.1417 26.9255C40.3323 26.7348 40.4394 26.4762 40.4394 26.2065C40.4394 25.9369 40.3323 25.6783 40.1417 25.4876Z" fill="#373737"/>
<path d="M48.8719 33.0267C49.0626 33.2174 49.3212 33.3245 49.5909 33.3245C49.8605 33.3245 50.1191 33.2174 50.3098 33.0267L53.3604 29.9761C53.5511 29.7854 53.6582 29.5268 53.6582 29.2572C53.6582 28.9875 53.5511 28.7289 53.3604 28.5383L50.3098 25.4876C50.118 25.3024 49.8612 25.1999 49.5945 25.2022C49.3279 25.2045 49.0729 25.3115 48.8843 25.5C48.6958 25.6886 48.5889 25.9436 48.5865 26.2102C48.5842 26.4768 48.6867 26.7337 48.8719 26.9255L51.2036 29.2572L48.8719 31.5889C48.6813 31.7796 48.5742 32.0382 48.5742 32.3078C48.5742 32.5774 48.6813 32.836 48.8719 33.0267Z" fill="#373737"/>
<path d="M43.4889 33.3247C43.7023 33.3245 43.9101 33.2573 44.0831 33.1324C44.2561 33.0076 44.3855 32.8315 44.4529 32.6291L46.4867 26.5279C46.5719 26.2717 46.5518 25.9921 46.4309 25.7507C46.31 25.5093 46.0982 25.3257 45.842 25.2405C45.5858 25.1553 45.3062 25.1753 45.0648 25.2962C44.8233 25.4172 44.6398 25.629 44.5546 25.8852L42.5209 31.9865C42.4699 32.1396 42.456 32.3026 42.4805 32.4622C42.505 32.6217 42.5671 32.7731 42.6617 32.9038C42.7563 33.0346 42.8807 33.1409 43.0245 33.2141C43.1683 33.2873 43.3275 33.3252 43.4889 33.3247Z" fill="#373737"/>
<path d="M49.5923 52.6453H48.5755C48.3058 52.6453 48.0471 52.7524 47.8564 52.9431C47.6657 53.1338 47.5586 53.3925 47.5586 53.6622C47.5586 53.9319 47.6657 54.1905 47.8564 54.3812C48.0471 54.5719 48.3058 54.679 48.5755 54.679H49.5923C49.862 54.679 50.1207 54.5719 50.3114 54.3812C50.5021 54.1905 50.6092 53.9319 50.6092 53.6622C50.6092 53.3925 50.5021 53.1338 50.3114 52.9431C50.1207 52.7524 49.862 52.6453 49.5923 52.6453Z" fill="#373737"/>
<path d="M49.5923 56.7128H48.5755C48.3058 56.7128 48.0471 56.8199 47.8564 57.0106C47.6657 57.2013 47.5586 57.46 47.5586 57.7297C47.5586 57.9994 47.6657 58.258 47.8564 58.4487C48.0471 58.6394 48.3058 58.7465 48.5755 58.7465H49.5923C49.862 58.7465 50.1207 58.6394 50.3114 58.4487C50.5021 58.258 50.6092 57.9994 50.6092 57.7297C50.6092 57.46 50.5021 57.2013 50.3114 57.0106C50.1207 56.8199 49.862 56.7128 49.5923 56.7128Z" fill="#373737"/>
<path d="M54.6744 52.6453H53.6575C53.3878 52.6453 53.1292 52.7524 52.9385 52.9431C52.7478 53.1338 52.6406 53.3925 52.6406 53.6622C52.6406 53.9319 52.7478 54.1905 52.9385 54.3812C53.1292 54.5719 53.3878 54.679 53.6575 54.679H54.6744C54.9441 54.679 55.2027 54.5719 55.3934 54.3812C55.5841 54.1905 55.6913 53.9319 55.6913 53.6622C55.6913 53.3925 55.5841 53.1338 55.3934 52.9431C55.2027 52.7524 54.9441 52.6453 54.6744 52.6453Z" fill="#373737"/>
<path d="M54.6744 56.7128H53.6575C53.3878 56.7128 53.1292 56.8199 52.9385 57.0106C52.7478 57.2013 52.6406 57.46 52.6406 57.7297C52.6406 57.9994 52.7478 58.258 52.9385 58.4487C53.1292 58.6394 53.3878 58.7465 53.6575 58.7465H54.6744C54.9441 58.7465 55.2027 58.6394 55.3934 58.4487C55.5841 58.258 55.6913 57.9994 55.6913 57.7297C55.6913 57.46 55.5841 57.2013 55.3934 57.0106C55.2027 56.8199 54.9441 56.7128 54.6744 56.7128Z" fill="#373737"/>
<path d="M59.7603 52.6453H58.7434C58.4737 52.6453 58.2151 52.7524 58.0244 52.9431C57.8337 53.1338 57.7266 53.3925 57.7266 53.6622C57.7266 53.9319 57.8337 54.1905 58.0244 54.3812C58.2151 54.5719 58.4737 54.679 58.7434 54.679H59.7603C60.03 54.679 60.2887 54.5719 60.4794 54.3812C60.6701 54.1905 60.7772 53.9319 60.7772 53.6622C60.7772 53.3925 60.6701 53.1338 60.4794 52.9431C60.2887 52.7524 60.03 52.6453 59.7603 52.6453Z" fill="#373737"/>
<path d="M59.7603 56.7128H58.7434C58.4737 56.7128 58.2151 56.8199 58.0244 57.0106C57.8337 57.2013 57.7266 57.46 57.7266 57.7297C57.7266 57.9994 57.8337 58.258 58.0244 58.4487C58.2151 58.6394 58.4737 58.7465 58.7434 58.7465H59.7603C60.03 58.7465 60.2887 58.6394 60.4794 58.4487C60.6701 58.258 60.7772 57.9994 60.7772 57.7297C60.7772 57.46 60.6701 57.2013 60.4794 57.0106C60.2887 56.8199 60.03 56.7128 59.7603 56.7128Z" fill="#373737"/>
<path d="M48.5755 66.8816H49.5923C49.862 66.8816 50.1207 66.7744 50.3114 66.5837C50.5021 66.393 50.6092 66.1344 50.6092 65.8647C50.6092 65.595 50.5021 65.3363 50.3114 65.1456C50.1207 64.9549 49.862 64.8478 49.5923 64.8478H48.5755C48.3058 64.8478 48.0471 64.9549 47.8564 65.1456C47.6657 65.3363 47.5586 65.595 47.5586 65.8647C47.5586 66.1344 47.6657 66.393 47.8564 66.5837C48.0471 66.7744 48.3058 66.8816 48.5755 66.8816Z" fill="#373737"/>
<path d="M48.5755 70.9491H49.5923C49.862 70.9491 50.1207 70.8419 50.3114 70.6512C50.5021 70.4605 50.6092 70.2019 50.6092 69.9322C50.6092 69.6625 50.5021 69.4038 50.3114 69.2131C50.1207 69.0224 49.862 68.9153 49.5923 68.9153H48.5755C48.3058 68.9153 48.0471 69.0224 47.8564 69.2131C47.6657 69.4038 47.5586 69.6625 47.5586 69.9322C47.5586 70.2019 47.6657 70.4605 47.8564 70.6512C48.0471 70.8419 48.3058 70.9491 48.5755 70.9491Z" fill="#373737"/>
<path d="M53.6575 66.8816H54.6744C54.9441 66.8816 55.2027 66.7744 55.3934 66.5837C55.5841 66.393 55.6913 66.1344 55.6913 65.8647C55.6913 65.595 55.5841 65.3363 55.3934 65.1456C55.2027 64.9549 54.9441 64.8478 54.6744 64.8478H53.6575C53.3878 64.8478 53.1292 64.9549 52.9385 65.1456C52.7478 65.3363 52.6406 65.595 52.6406 65.8647C52.6406 66.1344 52.7478 66.393 52.9385 66.5837C53.1292 66.7744 53.3878 66.8816 53.6575 66.8816Z" fill="#373737"/>
<path d="M53.6575 70.9491H54.6744C54.9441 70.9491 55.2027 70.8419 55.3934 70.6512C55.5841 70.4605 55.6913 70.2019 55.6913 69.9322C55.6913 69.6625 55.5841 69.4038 55.3934 69.2131C55.2027 69.0224 54.9441 68.9153 54.6744 68.9153H53.6575C53.3878 68.9153 53.1292 69.0224 52.9385 69.2131C52.7478 69.4038 52.6406 69.6625 52.6406 69.9322C52.6406 70.2019 52.7478 70.4605 52.9385 70.6512C53.1292 70.8419 53.3878 70.9491 53.6575 70.9491Z" fill="#373737"/>
<path d="M58.7434 66.8816H59.7603C60.03 66.8816 60.2887 66.7744 60.4794 66.5837C60.6701 66.393 60.7772 66.1344 60.7772 65.8647C60.7772 65.595 60.6701 65.3363 60.4794 65.1456C60.2887 64.9549 60.03 64.8478 59.7603 64.8478H58.7434C58.4737 64.8478 58.2151 64.9549 58.0244 65.1456C57.8337 65.3363 57.7266 65.595 57.7266 65.8647C57.7266 66.1344 57.8337 66.393 58.0244 66.5837C58.2151 66.7744 58.4737 66.8816 58.7434 66.8816Z" fill="#373737"/>
<path d="M58.7434 70.9491H59.7603C60.03 70.9491 60.2887 70.8419 60.4794 70.6512C60.6701 70.4605 60.7772 70.2019 60.7772 69.9322C60.7772 69.6625 60.6701 69.4038 60.4794 69.2131C60.2887 69.0224 60.03 68.9153 59.7603 68.9153H58.7434C58.4737 68.9153 58.2151 69.0224 58.0244 69.2131C57.8337 69.4038 57.7266 69.6625 57.7266 69.9322C57.7266 70.2019 57.8337 70.4605 58.0244 70.6512C58.2151 70.8419 58.4737 70.9491 58.7434 70.9491Z" fill="#373737"/>
<path d="M49.5923 40.4428H48.5755C48.3058 40.4428 48.0471 40.5499 47.8564 40.7406C47.6657 40.9313 47.5586 41.19 47.5586 41.4597C47.5586 41.7294 47.6657 41.988 47.8564 42.1787C48.0471 42.3694 48.3058 42.4766 48.5755 42.4766H49.5923C49.862 42.4766 50.1207 42.3694 50.3114 42.1787C50.5021 41.988 50.6092 41.7294 50.6092 41.4597C50.6092 41.19 50.5021 40.9313 50.3114 40.7406C50.1207 40.5499 49.862 40.4428 49.5923 40.4428Z" fill="#373737"/>
<path d="M49.5923 44.5103H48.5755C48.3058 44.5103 48.0471 44.6174 47.8564 44.8082C47.6657 44.9989 47.5586 45.2575 47.5586 45.5272C47.5586 45.7969 47.6657 46.0555 47.8564 46.2462C48.0471 46.4369 48.3058 46.5441 48.5755 46.5441H49.5923C49.862 46.5441 50.1207 46.4369 50.3114 46.2462C50.5021 46.0555 50.6092 45.7969 50.6092 45.5272C50.6092 45.2575 50.5021 44.9989 50.3114 44.8082C50.1207 44.6174 49.862 44.5103 49.5923 44.5103Z" fill="#373737"/>
<path d="M54.6744 40.4428H53.6575C53.3878 40.4428 53.1292 40.5499 52.9385 40.7406C52.7478 40.9313 52.6406 41.19 52.6406 41.4597C52.6406 41.7294 52.7478 41.988 52.9385 42.1787C53.1292 42.3694 53.3878 42.4766 53.6575 42.4766H54.6744C54.9441 42.4766 55.2027 42.3694 55.3934 42.1787C55.5841 41.988 55.6913 41.7294 55.6913 41.4597C55.6913 41.19 55.5841 40.9313 55.3934 40.7406C55.2027 40.5499 54.9441 40.4428 54.6744 40.4428Z" fill="#373737"/>
<path d="M54.6744 44.5103H53.6575C53.3878 44.5103 53.1292 44.6174 52.9385 44.8082C52.7478 44.9989 52.6406 45.2575 52.6406 45.5272C52.6406 45.7969 52.7478 46.0555 52.9385 46.2462C53.1292 46.4369 53.3878 46.5441 53.6575 46.5441H54.6744C54.9441 46.5441 55.2027 46.4369 55.3934 46.2462C55.5841 46.0555 55.6913 45.7969 55.6913 45.5272C55.6913 45.2575 55.5841 44.9989 55.3934 44.8082C55.2027 44.6174 54.9441 44.5103 54.6744 44.5103Z" fill="#373737"/>
<path d="M58.7434 42.4766H59.7603C60.03 42.4766 60.2887 42.3694 60.4794 42.1787C60.6701 41.988 60.7772 41.7294 60.7772 41.4597C60.7772 41.19 60.6701 40.9313 60.4794 40.7406C60.2887 40.5499 60.03 40.4428 59.7603 40.4428H58.7434C58.4737 40.4428 58.2151 40.5499 58.0244 40.7406C57.8337 40.9313 57.7266 41.19 57.7266 41.4597C57.7266 41.7294 57.8337 41.988 58.0244 42.1787C58.2151 42.3694 58.4737 42.4766 58.7434 42.4766Z" fill="#373737"/>
<path d="M59.7603 44.5103H58.7434C58.4737 44.5103 58.2151 44.6174 58.0244 44.8082C57.8337 44.9989 57.7266 45.2575 57.7266 45.5272C57.7266 45.7969 57.8337 46.0555 58.0244 46.2462C58.2151 46.4369 58.4737 46.5441 58.7434 46.5441H59.7603C60.03 46.5441 60.2887 46.4369 60.4794 46.2462C60.6701 46.0555 60.7772 45.7969 60.7772 45.5272C60.7772 45.2575 60.6701 44.9989 60.4794 44.8082C60.2887 44.6174 60.03 44.5103 59.7603 44.5103Z" fill="#373737"/>
</svg>
