<svg width="90" height="90" viewBox="0 0 90 90" fill="none" xmlns="http://www.w3.org/2000/svg">
<path d="M87 46C87 69.196 68.196 88 45 88C23.5989 88 5.93655 71.9937 3.33255 51.2989C3.1132 49.5639 3 47.7948 3 46C3 42.712 3.37718 39.5115 4.092 36.4411C8.41882 17.8515 25.092 4 45 4C64.8583 4 81.4988 17.7829 85.8737 36.3041C86.4479 38.7263 86.8097 41.2292 86.9418 43.792C86.9811 44.5239 87 45.2594 87 46Z" fill="white"/>
<path fill-rule="evenodd" clip-rule="evenodd" d="M64.6125 51.5163H63.436C63.0669 51.5163 62.7697 51.2182 62.7697 50.8505C62.7697 50.4828 63.0667 50.1845 63.4357 50.1845H64.6125C69.6072 50.1845 73.6694 46.1221 73.6694 41.1274C73.6695 37.4658 71.487 34.1861 68.11 32.7709C67.8298 32.653 67.6646 32.3588 67.709 32.0578C67.7757 31.6123 67.8089 31.1573 67.8089 30.7064C67.8091 25.7129 63.7465 21.6493 58.7517 21.6493C57.1023 21.6492 55.4871 22.0974 54.0817 22.9452C53.9085 23.0492 53.6973 23.07 53.5059 22.9993C53.3159 22.9284 53.1688 22.7759 53.105 22.5831C51.8662 18.8064 48.4876 16.3674 44.4987 16.3674C40.5101 16.3673 37.1329 18.8064 35.8925 22.5831C35.8288 22.7758 35.6816 22.9285 35.4915 22.9993C35.3015 23.07 35.0892 23.0492 34.9158 22.9452C33.5105 22.0973 31.8953 21.6493 30.2457 21.6493C25.2523 21.6492 21.1886 25.7131 21.1886 30.7064C21.1888 31.1572 21.2232 31.6124 21.2884 32.0578C21.3343 32.3588 21.1691 32.653 20.8874 32.7709C17.5105 34.186 15.328 37.4659 15.328 41.1274C15.3281 46.1221 19.3918 50.1845 24.3852 50.1845H25.5633C25.931 50.1845 26.229 50.4828 26.229 50.8505C26.2291 51.2181 25.9307 51.5165 25.5631 51.5165L24.3855 51.5163C18.6565 51.5163 13.9961 46.8561 13.9961 41.1274C13.9961 37.0983 16.3007 33.4702 19.9093 31.7497C19.8749 31.4029 19.8566 31.0546 19.8566 30.7064C19.8568 24.9776 24.517 20.3174 30.2457 20.3174C31.8704 20.3174 33.4645 20.6961 34.9033 21.419C36.5087 17.5147 40.1935 15.0354 44.4987 15.0354C48.8041 15.0354 52.4903 17.5148 54.0941 21.419C55.5346 20.696 57.1285 20.3174 58.7517 20.3174C64.4807 20.3174 69.1408 24.9777 69.1408 30.7064C69.1409 31.0546 69.1242 31.4029 69.0895 31.7497C72.6971 33.4701 75.0013 37.0983 75.0013 41.1274C75.0015 46.856 70.341 51.5165 64.6125 51.5163Z" fill="black"/>
<path fill-rule="evenodd" clip-rule="evenodd" d="M28.9389 62.0083C27.4458 62.0083 26.2303 63.2237 26.2303 64.718L26.2305 71.5371C26.2305 73.0314 27.4458 74.2455 28.9386 74.2455L60.0614 74.2454C61.5558 74.2454 62.7711 73.0315 62.7711 71.5371V64.7179C62.7711 63.2236 61.5557 62.0083 60.0614 62.0083H28.9389ZM60.0614 75.5773H28.9389C26.7106 75.5773 24.8984 73.7654 24.8984 71.5371V64.7179C24.8984 62.4896 26.7104 60.6764 28.9386 60.6764L60.0614 60.6762C62.2897 60.6762 64.103 62.4898 64.103 64.718L64.1031 71.5371C64.1031 73.7653 62.2897 75.5774 60.0614 75.5773Z" fill="black"/>
<path fill-rule="evenodd" clip-rule="evenodd" d="M28.9389 44.7318C27.4458 44.7318 26.2303 45.9473 26.2303 47.4401L26.2305 54.2606C26.2305 55.7536 27.4458 56.969 28.9386 56.969L60.0614 56.9689C61.5558 56.9689 62.7711 55.7536 62.7711 54.2608V47.44C62.7711 45.9472 61.5557 44.7319 60.0614 44.7319L28.9389 44.7318ZM60.0614 58.3009H28.9389C26.7106 58.3009 24.8984 56.489 24.8984 54.2608V47.44C24.8984 45.2119 26.7104 43.4 28.9386 43.4L60.0614 43.3999C62.2897 43.3999 64.103 45.212 64.103 47.4401L64.1031 54.2606C64.1031 56.4889 62.2897 58.3009 60.0614 58.3009Z" fill="black"/>
<path fill-rule="evenodd" clip-rule="evenodd" d="M32.079 66.5879C31.2299 66.5879 30.539 67.2775 30.539 68.1266C30.5391 68.9757 31.2299 69.6667 32.079 69.6667C32.9281 69.6665 33.6191 68.9757 33.6191 68.1266C33.6193 67.2775 32.9281 66.5879 32.079 66.5879ZM32.079 70.9986C30.496 70.9986 29.207 69.7111 29.207 68.1266C29.207 66.5436 30.4959 65.256 32.079 65.256C33.6621 65.256 34.951 66.5436 34.951 68.1266C34.951 69.711 33.6621 70.9986 32.079 70.9986Z" fill="black"/>
<path fill-rule="evenodd" clip-rule="evenodd" d="M39.7691 66.5879C38.92 66.5879 38.2304 67.2775 38.2304 68.1266C38.2304 68.9757 38.92 69.6667 39.769 69.6667C40.6182 69.6665 41.3091 68.9757 41.3091 68.1266C41.3094 67.2775 40.6181 66.5879 39.7691 66.5879ZM39.7691 70.9986C38.1861 70.9986 36.8984 69.7111 36.8984 68.1266C36.8987 66.5436 38.186 65.256 39.769 65.256C41.3537 65.256 42.641 66.5436 42.641 68.1266C42.6411 69.711 41.3535 70.9986 39.7691 70.9986Z" fill="black"/>
<path fill-rule="evenodd" clip-rule="evenodd" d="M58.2626 66.5549H46.1076C45.7399 66.5549 45.4414 66.2581 45.4414 65.8891C45.4414 65.5212 45.7397 65.223 46.1074 65.223L58.2626 65.2229C58.6304 65.2229 58.9286 65.5214 58.9286 65.8891C58.9288 66.258 58.6303 66.555 58.2626 66.5549Z" fill="black"/>
<path fill-rule="evenodd" clip-rule="evenodd" d="M58.2626 71.0308H46.1076C45.7399 71.0308 45.4414 70.7326 45.4414 70.3649C45.4414 69.9972 45.7397 69.699 46.1074 69.699L58.2626 69.6989C58.6304 69.6989 58.9286 69.9972 58.9286 70.3649C58.9288 70.7325 58.6303 71.0309 58.2626 71.0308Z" fill="black"/>
<path fill-rule="evenodd" clip-rule="evenodd" d="M32.5129 49.3105C31.6638 49.3105 30.9726 50.0014 30.9726 50.8505C30.9726 51.6995 31.6635 52.3905 32.5126 52.3905C33.362 52.3905 34.0512 51.6996 34.0512 50.8505C34.0512 50.0013 33.3617 49.3105 32.5129 49.3105ZM32.5129 53.7224C30.9283 53.7224 29.6406 52.4336 29.6406 50.8505C29.6409 49.2674 30.9282 47.9785 32.5126 47.9785C34.0959 47.9784 35.3832 49.2674 35.3832 50.8505C35.3833 52.4336 34.0956 53.7225 32.5129 53.7224Z" fill="black"/>
<path fill-rule="evenodd" clip-rule="evenodd" d="M40.1922 49.3105C39.3432 49.3105 38.6522 50.0014 38.6522 50.8505C38.6523 51.6995 39.3432 52.3905 40.1922 52.3905C41.0414 52.3905 41.7323 51.6996 41.7323 50.8505C41.7325 50.0013 41.0414 49.3105 40.1922 49.3105ZM40.1922 53.7224C38.6092 53.7224 37.3203 52.4336 37.3203 50.8505C37.3206 49.2674 38.6092 47.9785 40.1922 47.9785C41.7756 47.9784 43.0642 49.2674 43.0642 50.8505C43.0642 52.4336 41.7753 53.7225 40.1922 53.7224Z" fill="black"/>
<path fill-rule="evenodd" clip-rule="evenodd" d="M58.6949 49.2784H46.5412C46.1734 49.2784 45.875 48.9802 45.875 48.6126C45.8753 48.2448 46.1733 47.9466 46.541 47.9466L58.6949 47.9466C59.064 47.9466 59.3608 48.2449 59.3608 48.6126C59.3611 48.9801 59.064 49.2785 58.6949 49.2784Z" fill="black"/>
<path fill-rule="evenodd" clip-rule="evenodd" d="M58.6949 53.7543H46.5412C46.1734 53.7543 45.875 53.456 45.875 53.0883C45.8753 52.7206 46.1733 52.4224 46.541 52.4224L58.6949 52.4222C59.064 52.4222 59.3608 52.7206 59.3608 53.0883C59.3611 53.456 59.064 53.7543 58.6949 53.7543Z" fill="black"/>
<path fill-rule="evenodd" clip-rule="evenodd" d="M34.2167 62.0084C33.8493 62.0084 33.5508 61.7101 33.5508 61.3424L33.5509 57.6351C33.5509 57.2674 33.8491 56.9692 34.2167 56.9692C34.5845 56.9691 34.8827 57.2675 34.8827 57.6352L34.883 61.3423C34.883 61.71 34.5844 62.0084 34.2167 62.0084Z" fill="black"/>
<path fill-rule="evenodd" clip-rule="evenodd" d="M54.7793 62.0084C54.4103 62.0084 54.1133 61.7101 54.1133 61.3424L54.1134 57.6351C54.1134 57.2674 54.4102 56.9692 54.7792 56.9692C55.147 56.9691 55.4452 57.2675 55.4452 57.6352L55.4455 61.3423C55.4455 61.71 55.147 62.0084 54.7793 62.0084Z" fill="black"/>
<path fill-rule="evenodd" clip-rule="evenodd" d="M36.8195 44.7318C36.4521 44.7318 36.1535 44.4336 36.1535 44.0659L36.1536 38.8658H32.9904C32.6226 38.8658 32.3242 38.5676 32.3242 38.1999C32.3245 37.8308 32.6225 37.5339 32.9902 37.5339L36.8195 37.5339C37.1888 37.5339 37.4855 37.8308 37.4855 38.1999L37.4856 44.0659C37.4856 44.4335 37.1885 44.7319 36.8195 44.7318Z" fill="black"/>
<path fill-rule="evenodd" clip-rule="evenodd" d="M42.2822 44.7318C41.9129 44.7318 41.616 44.4336 41.616 44.0659L41.616 35.3805L40.2146 32.9541C40.0302 32.6362 40.1398 32.2284 40.4574 32.0453C40.7765 31.8607 41.1844 31.9704 41.3676 32.2881L42.8578 34.8686C42.9162 34.9699 42.9479 35.0852 42.9479 35.2016L42.948 44.0659C42.948 44.4335 42.6495 44.7319 42.2822 44.7318Z" fill="black"/>
<path fill-rule="evenodd" clip-rule="evenodd" d="M47.1896 44.7318C46.8206 44.7318 46.5234 44.4335 46.5234 44.0659L46.5237 36.1172C46.5237 35.941 46.5928 35.7719 46.7177 35.647L48.3315 34.0333C48.5922 33.7725 49.0139 33.7726 49.2733 34.0334C49.5331 34.2927 49.5328 34.7146 49.2733 34.9754L47.8555 36.3933V44.0659C47.8555 44.4334 47.5571 44.7319 47.1896 44.7318Z" fill="black"/>
<path fill-rule="evenodd" clip-rule="evenodd" d="M52.6428 44.7319C52.2751 44.7319 51.9766 44.4337 51.9766 44.066L51.9766 37.95C51.9766 37.5811 52.2749 37.2829 52.6425 37.2829L55.7227 37.2828C56.0904 37.2828 56.3886 37.5811 56.3886 37.9502C56.3889 38.3178 56.0903 38.6148 55.7226 38.6148L53.3087 38.6147V44.066C53.3087 44.4335 53.0102 44.732 52.6428 44.7319Z" fill="black"/>
<path fill-rule="evenodd" clip-rule="evenodd" d="M31.0403 36.9096C30.3286 36.9096 29.7499 37.4882 29.7499 38.1999C29.7502 38.9103 30.3285 39.4903 31.0402 39.4903C31.7521 39.4901 32.3306 38.9103 32.3306 38.1999C32.3308 37.488 31.752 36.9096 31.0403 36.9096ZM31.0403 40.822C29.5947 40.822 28.418 39.6456 28.418 38.1999C28.4181 36.7527 29.5945 35.5777 31.0402 35.5777C32.486 35.5775 33.6624 36.7528 33.6624 38.1999C33.6626 39.6456 32.4859 40.8222 31.0403 40.822Z" fill="black"/>
<path fill-rule="evenodd" clip-rule="evenodd" d="M39.8058 29.6366C39.0956 29.6366 38.5155 30.2153 38.5155 30.927C38.5156 31.6387 39.0954 32.2173 39.8058 32.2173C40.5175 32.2173 41.0975 31.6388 41.0975 30.927C41.0976 30.2152 40.5175 29.6367 39.8058 29.6366ZM39.8058 33.5492C38.3601 33.5492 37.1836 32.3727 37.1836 30.927C37.1839 29.4813 38.3601 28.3048 39.8058 28.3048C41.253 28.3047 42.4281 29.4813 42.4281 30.927C42.4281 32.3726 41.2529 33.5492 39.8058 33.5492Z" fill="black"/>
<path fill-rule="evenodd" clip-rule="evenodd" d="M50.1888 31.8302C49.4771 31.8302 48.8983 32.4102 48.8983 33.1205C48.8986 33.8321 49.4769 34.4108 50.1887 34.4108C50.899 34.4108 51.4789 33.8322 51.4789 33.1205C51.479 32.4101 50.899 31.8302 50.1888 31.8302ZM50.1888 35.7426C48.7415 35.7426 47.5664 34.5676 47.5664 33.1205C47.5666 31.6748 48.7415 30.4982 50.1887 30.4982C51.6344 30.4981 52.8109 31.6748 52.8109 33.1205C52.8111 34.5675 51.6343 35.7427 50.1888 35.7426Z" fill="black"/>
<path fill-rule="evenodd" clip-rule="evenodd" d="M57.677 36.6585C56.9653 36.6585 56.3866 37.2384 56.3866 37.9502C56.3869 38.6606 56.9651 39.2405 57.6769 39.2405C58.3888 39.2404 58.9672 38.6606 58.9672 37.9502C58.9673 37.2383 58.3886 36.6585 57.677 36.6585ZM57.677 40.5723C56.2314 40.5723 55.0547 39.3959 55.0547 37.9502C55.0549 36.503 56.2312 35.3266 57.6769 35.3266C59.1227 35.3266 60.2992 36.5031 60.2992 37.9502C60.2993 39.3959 59.1226 40.5725 57.677 40.5723Z" fill="black"/>
<path fill-rule="evenodd" clip-rule="evenodd" d="M47.5622 33.1205C47.5624 31.6748 48.7374 30.4983 50.1845 30.4983C51.6303 30.4981 52.8067 31.6748 52.8067 33.1205C52.8069 34.5675 51.6301 35.7427 50.1846 35.7426C49.7025 35.7426 49.2505 35.6122 48.8622 35.3848L47.8536 36.3934V43.3999H51.9742L51.9743 37.95C51.9743 37.581 52.2726 37.2828 52.6402 37.2828L55.1403 37.2828C55.4362 36.158 56.4612 35.3265 57.6766 35.3265C59.1224 35.3265 60.2989 36.5031 60.2989 37.9502C60.299 39.3958 59.1223 40.5724 57.6767 40.5722C56.4606 40.5722 55.4348 39.7397 55.1397 38.6147L53.3064 38.6146V43.3999H60.0602C62.2885 43.3999 64.1018 45.212 64.1018 47.4402L64.1018 50.1845H64.6126C69.6073 50.1845 73.6695 46.1221 73.6695 41.1274C73.6696 37.4658 71.487 34.1861 68.1101 32.7709C67.8298 32.6529 67.6647 32.3588 67.7091 32.0577C67.7758 31.6123 67.809 31.1573 67.809 30.7064C67.8092 25.7129 63.7466 21.6493 58.7519 21.6493C57.1023 21.6492 55.4872 22.0974 54.0817 22.9451C53.9085 23.0491 53.6974 23.07 53.506 22.9992C53.3161 22.9283 53.1688 22.7759 53.105 22.583C51.8663 18.8064 48.4877 16.3673 44.4988 16.3673C40.5101 16.3673 37.1329 18.8064 35.8925 22.583C35.8288 22.7758 35.6816 22.9285 35.4916 22.9992C35.3015 23.0699 35.0892 23.0492 34.9158 22.9451C33.5106 22.0973 31.8953 21.6493 30.2457 21.6493C25.2524 21.6492 21.1886 25.713 21.1886 30.7064C21.1889 31.1572 21.2233 31.6123 21.2884 32.0577C21.3344 32.3587 21.1692 32.6529 20.8875 32.7709C17.5105 34.186 15.3281 37.4659 15.3281 41.1274C15.3282 46.122 19.3919 50.1845 24.3852 50.1845H24.8972V47.44C24.8972 45.2119 26.7092 43.4 28.9374 43.4H36.1562L36.1563 38.8658H33.5731C33.2777 39.9901 32.2523 40.8221 31.0367 40.822C29.591 40.822 28.4142 39.6456 28.4142 38.1999C28.4144 36.7527 29.5909 35.5777 31.0365 35.5777C32.2525 35.5775 33.2779 36.4088 33.5732 37.5339L36.8221 37.5339C37.1914 37.5339 37.4881 37.8308 37.4881 38.1999L37.4882 43.3999H41.6102L41.6102 35.3805L40.499 33.4565C40.2784 33.5169 40.0462 33.5492 39.8065 33.5492C38.3609 33.5492 37.1843 32.3727 37.1843 30.927C37.1846 29.4813 38.3609 28.3048 39.8065 28.3048C41.2538 28.3047 42.4288 29.4813 42.4288 30.927C42.4288 31.6544 42.1312 32.3137 41.6512 32.7893L42.852 34.8686C42.9104 34.9699 42.9421 35.0852 42.9421 35.2017L42.9422 43.3999H46.5217L46.5219 36.1173C46.5219 35.941 46.591 35.7719 46.7159 35.6471L47.9202 34.4429C47.6927 34.0545 47.5622 33.6027 47.5622 33.1205Z" fill="#90CAF9"/>
<path fill-rule="evenodd" clip-rule="evenodd" d="M32.3306 38.1999C32.3309 37.488 31.752 36.9096 31.0404 36.9096C30.3286 36.9096 29.75 37.4882 29.75 38.1999C29.7502 38.9103 30.3285 39.4903 31.0403 39.4903C31.7522 39.4901 32.3306 38.9103 32.3306 38.1999Z" fill="#ECEFF1"/>
<path fill-rule="evenodd" clip-rule="evenodd" d="M38.5156 30.927C38.5157 31.6388 39.0955 32.2173 39.8059 32.2173C40.5176 32.2173 41.0976 31.6388 41.0976 30.927C41.0976 30.2152 40.5176 29.6367 39.8059 29.6366C39.0957 29.6366 38.5156 30.2153 38.5156 30.927Z" fill="#ECEFF1"/>
<path fill-rule="evenodd" clip-rule="evenodd" d="M50.185 31.8302C49.4732 31.8302 48.8945 32.4102 48.8945 33.1205C48.8948 33.8321 49.4731 34.4108 50.1849 34.4108C50.8952 34.4108 51.4752 33.8322 51.4752 33.1205C51.4752 32.4101 50.8952 31.8302 50.185 31.8302Z" fill="#ECEFF1"/>
<path fill-rule="evenodd" clip-rule="evenodd" d="M57.6811 36.6584C56.9694 36.6584 56.3906 37.2384 56.3906 37.9502C56.3909 38.6605 56.9692 39.2404 57.681 39.2404C58.3929 39.2404 58.9713 38.6605 58.9713 37.9502C58.9714 37.2383 58.3927 36.6585 57.6811 36.6584Z" fill="#ECEFF1"/>
<path fill-rule="evenodd" clip-rule="evenodd" d="M54.7824 62.0083H34.2194H28.939C27.4459 62.0083 26.2305 63.2237 26.2305 64.7179L26.2306 71.5372C26.2306 73.0314 27.4459 74.2455 28.9388 74.2455L60.0616 74.2454C61.5559 74.2454 62.7712 73.0315 62.7712 71.5372V64.7179C62.7712 63.2236 61.5558 62.0083 60.0616 62.0083H54.7824ZM45.4422 65.889C45.4422 65.5212 45.7405 65.223 46.1082 65.223L58.2634 65.2229C58.6312 65.2229 58.9294 65.5213 58.9294 65.889C58.9296 66.2579 58.6311 66.555 58.2634 66.5549H46.1084C45.7407 66.5549 45.4422 66.258 45.4422 65.889ZM46.1082 69.6989L58.2634 69.6988C58.6312 69.6988 58.9294 69.9971 58.9294 70.3648C58.9296 70.7324 58.6311 71.0308 58.2634 71.0307H46.1084C45.7407 71.0307 45.4422 70.7325 45.4422 70.3648C45.4422 69.9971 45.7405 69.6989 46.1082 69.6989ZM39.7634 65.2563C41.3481 65.2562 42.6354 66.5439 42.6354 68.1269C42.6355 69.7113 41.3479 70.9989 39.7635 70.9989C38.1805 70.9989 36.8929 69.7114 36.8929 68.1269C36.8931 66.5439 38.1804 65.2563 39.7634 65.2563ZM32.0813 65.2563C33.6644 65.2562 34.9532 66.5439 34.9532 68.1269C34.9532 69.7113 33.6644 70.9989 32.0813 70.9989C30.4982 70.9989 29.2093 69.7114 29.2093 68.1269C29.2093 66.5439 30.4982 65.2563 32.0813 65.2563Z" fill="#FFCC80"/>
<path fill-rule="evenodd" clip-rule="evenodd" d="M41.3053 68.1266C41.3055 67.2775 40.6143 66.5879 39.7652 66.5879C38.9162 66.5879 38.2266 67.2775 38.2266 68.1266C38.2266 68.9757 38.9161 69.6667 39.7652 69.6667C40.6144 69.6665 41.3053 68.9757 41.3053 68.1266Z" fill="#E6B873"/>
<path fill-rule="evenodd" clip-rule="evenodd" d="M33.623 68.1266C33.6233 67.2775 32.9321 66.5879 32.083 66.5879C31.2339 66.5879 30.543 67.2775 30.543 68.1266C30.5431 68.9757 31.2339 69.6667 32.083 69.6667C32.9321 69.6665 33.623 68.9757 33.623 68.1266Z" fill="#E6B873"/>
<path fill-rule="evenodd" clip-rule="evenodd" d="M30.9727 50.8505C30.9727 51.6995 31.6635 52.3905 32.5127 52.3905C33.362 52.3905 34.0513 51.6996 34.0513 50.8505C34.0513 50.0013 33.3617 49.3104 32.5129 49.3104C31.6638 49.3104 30.9727 50.0014 30.9727 50.8505Z" fill="#95C196"/>
<path fill-rule="evenodd" clip-rule="evenodd" d="M40.1963 49.3104C39.3473 49.3104 38.6562 50.0014 38.6562 50.8505C38.6564 51.6995 39.3473 52.3905 40.1963 52.3905C41.0454 52.3905 41.7364 51.6996 41.7364 50.8505C41.7366 50.0013 41.0454 49.3104 40.1963 49.3104Z" fill="#95C196"/>
<path fill-rule="evenodd" clip-rule="evenodd" d="M37.323 50.8505C37.3233 49.2673 38.6119 47.9785 40.1949 47.9785C41.7783 47.9784 43.0669 49.2674 43.0669 50.8505C43.0669 52.4336 41.778 53.7225 40.1949 53.7223C38.6119 53.7223 37.323 52.4336 37.323 50.8505ZM42.2778 44.7318H36.8235H28.939C27.4459 44.7318 26.2305 45.9473 26.2305 47.4401V50.8505L26.2306 54.2606C26.2306 55.7536 27.4459 56.969 28.9388 56.969H34.2193H54.7824L60.0616 56.9689C61.5559 56.9689 62.7712 55.7536 62.7712 54.2608V50.8505V47.44C62.7712 45.9472 61.5558 44.7319 60.0616 44.7319L52.6419 44.7318H47.1892H42.2778ZM32.5128 47.9785C34.0961 47.9784 35.3834 49.2674 35.3834 50.8505C35.3834 52.4336 34.0958 53.7225 32.5131 53.7223C30.9285 53.7223 29.6408 52.4336 29.6408 50.8505C29.6411 49.2673 30.9284 47.9785 32.5128 47.9785ZM46.5397 52.4224L58.6936 52.4222C59.0626 52.4222 59.3595 52.7207 59.3595 53.0884C59.3598 53.456 59.0626 53.7543 58.6936 53.7543H46.5399C46.1721 53.7543 45.8737 53.456 45.8737 53.0884C45.874 52.7207 46.172 52.4224 46.5397 52.4224ZM45.8737 48.6125C45.874 48.2448 46.172 47.9466 46.5397 47.9466L58.6936 47.9465C59.0626 47.9465 59.3595 48.2449 59.3595 48.6125C59.3598 48.9801 59.0626 49.2785 58.6936 49.2784H46.5399C46.1721 49.2784 45.8737 48.9802 45.8737 48.6125Z" fill="#A5D6A7"/>
</svg>
