<svg width="90" height="90" viewBox="0 0 90 90" fill="none" xmlns="http://www.w3.org/2000/svg">
<path d="M84 42C84 65.196 65.196 84 42 84C20.5989 84 2.93655 67.9937 0.332555 47.2989C0.113203 45.5639 0 43.7948 0 42C0 38.712 0.37718 35.5115 1.092 32.4411C5.41882 13.8515 22.092 0 42 0C61.8583 0 78.4988 13.7829 82.8737 32.3041C83.4479 34.7263 83.8097 37.2292 83.9418 39.792C83.9811 40.5239 84 41.2594 84 42Z" fill="white"/>
<path fill-rule="evenodd" clip-rule="evenodd" d="M27.8716 48.9023C21.3423 48.9023 16 43.585 16 37.0859C16 31.3127 20.2559 26.3444 25.9783 25.4214C25.9778 25.3708 25.9763 25.3202 25.9763 25.2694C25.9763 17.9409 31.945 12 39.3076 12C43.7314 12 47.6512 14.1453 50.0762 17.4471C51.2271 16.6643 52.6186 16.2063 54.1177 16.2063C58.0789 16.2063 61.2901 19.4026 61.2901 23.3454C61.2901 24.1345 61.1612 24.8937 60.9236 25.6034C66.1157 26.8629 70 31.5444 70 37.0859C70 43.585 64.6577 48.9024 58.1283 48.9024H27.8716V48.9023ZM30.4695 59.9668C30.7999 59.9668 31.1177 60.0196 31.4155 60.1169L34.9938 55.0343V50.6574H36.757V55.3049C36.757 55.5206 36.6787 55.7182 36.5489 55.8711L32.8532 61.1203C33.2583 61.6332 33.5001 62.2802 33.5001 62.9833C33.5001 64.6492 32.1432 65.9999 30.4695 65.9999C28.7957 65.9999 27.4389 64.6494 27.4389 62.9833C27.4389 61.3173 28.7957 59.9668 30.4695 59.9668ZM58.0369 50.6574V54.4043L64.8719 58.224C65.4164 57.7042 66.1553 57.3846 66.9694 57.3846C68.6432 57.3846 70 58.7352 70 60.4012C70 62.0672 68.6432 63.4177 66.9694 63.4177C65.2956 63.4177 63.9388 62.0672 63.9388 60.4012C63.9388 60.1783 63.9632 59.9611 64.0094 59.7519L56.767 55.7045C56.4749 55.5615 56.2736 55.2624 56.2736 54.9164V50.6573L58.0369 50.6574ZM29.7264 50.6574H27.9631V54.4043L21.1281 58.224C20.5837 57.7042 19.8447 57.3846 19.0306 57.3846C17.3568 57.3846 16 58.7352 16 60.4012C16 62.0672 17.3568 63.4177 19.0306 63.4177C20.7044 63.4177 22.0612 62.0672 22.0612 60.4012C22.0612 60.1783 22.0366 59.9611 21.9906 59.7519L29.233 55.7045C29.5251 55.5615 29.7264 55.2624 29.7264 54.9164V50.6574ZM42.1184 60.0966V50.6574H43.8816V60.0967C45.1254 60.4726 46.0306 61.6226 46.0306 62.9835C46.0306 64.6494 44.6738 66 43 66C41.3262 66 39.9694 64.6495 39.9694 62.9835C39.9694 61.6226 40.8747 60.4725 42.1184 60.0966ZM51.0062 50.6574H49.2429V55.3049C49.2429 55.5206 49.3213 55.7182 49.4511 55.8711L53.1468 61.1203C52.7416 61.6332 52.4999 62.2802 52.4999 62.9833C52.4999 64.6492 53.8568 65.9999 55.5305 65.9999C57.2043 65.9999 58.5611 64.6494 58.5611 62.9833C58.5611 61.3173 57.2043 59.9668 55.5305 59.9668C55.2001 59.9668 54.8822 60.0196 54.5845 60.1169L51.0062 55.0343V50.6574ZM47.0568 21.3664C48.0195 22.5953 48.6909 24.0992 49.1572 25.5794H52.716C51.308 23.6642 49.3422 22.181 47.0568 21.3664ZM49.6228 27.3344C49.9241 28.7092 50.1122 30.2028 50.1637 31.7675H55.0008C54.8856 30.1845 54.4609 28.6871 53.7872 27.3344H49.6228ZM50.1637 33.5226C50.1122 35.0872 49.9241 36.5808 49.6228 37.9557H53.7872C54.4607 36.6028 54.8855 35.1055 55.0007 33.5226H50.1637ZM49.1572 39.7108C48.691 41.1909 48.0194 42.6947 47.0568 43.9238C49.3422 43.1092 51.3081 41.6261 52.716 39.7108H49.1572ZM38.9432 43.9238C37.9805 42.6948 37.3091 41.1911 36.8428 39.7109H33.284C34.692 41.626 36.6578 43.1091 38.9432 43.9238ZM36.3773 37.9557C36.076 36.5809 35.8879 35.0872 35.8363 33.5226H30.9992C31.1144 35.1055 31.5392 36.6028 32.2127 37.9557H36.3773ZM35.8363 31.7675C35.8879 30.2028 36.076 28.7092 36.3773 27.3344H32.2129C31.5392 28.6871 31.1145 30.1846 30.9993 31.7675H35.8363ZM36.8428 25.5793C37.309 24.0991 37.9805 22.5953 38.9432 21.3663C36.6578 22.181 34.692 23.664 33.284 25.5793H36.8428ZM43.8816 20.9875V25.5793H47.3048C46.723 23.9291 45.5749 21.6405 43.8816 20.9875ZM42.1184 20.9875C40.4251 21.6405 39.277 23.9291 38.6951 25.5793H42.1184V20.9875ZM38.1813 27.3344C37.8584 28.6869 37.6555 30.1834 37.6004 31.7675H42.1184V27.3344H38.1813ZM37.6004 33.5226C37.6555 35.1066 37.8584 36.6033 38.1813 37.9557H42.1184V33.5226H37.6004ZM38.6951 39.7108C39.277 41.361 40.4251 43.6496 42.1184 44.3026V39.7108H38.6951ZM43.8816 44.3026C45.5749 43.6496 46.723 41.3611 47.3048 39.7108H43.8816V44.3026ZM47.8188 37.9557C48.1417 36.6032 48.3446 35.1066 48.3997 33.5226H43.8816V37.9557H47.8188ZM48.3997 31.7675C48.3446 30.1834 48.1417 28.6869 47.8188 27.3344H43.8816V31.7675H48.3997Z" fill="url(#paint0_linear_695_4106)"/>
<defs>
<linearGradient id="paint0_linear_695_4106" x1="58.7767" y1="69.7939" x2="23.9258" y2="19.7896" gradientUnits="userSpaceOnUse">
<stop offset="0.1006" stop-color="#57FFD9"/>
<stop offset="1" stop-color="#2A64FF"/>
</linearGradient>
</defs>
</svg>
