<svg width="70" height="70" viewBox="0 0 70 70" fill="none" xmlns="http://www.w3.org/2000/svg">
<path fill-rule="evenodd" clip-rule="evenodd" d="M48.6551 25.3476H60.6818C61.5975 25.3476 62.4329 25.716 63.0277 26.3082C63.6318 26.905 64 27.7257 64 28.6257V53.7219C64 54.6265 63.6271 55.4519 63.0277 56.0394C62.4235 56.6363 61.5928 57 60.6818 57H48.6551C47.7394 57 46.904 56.6316 46.3092 56.0394C45.7051 55.4426 45.3369 54.6219 45.3369 53.7219V28.621C45.3369 27.7164 45.7098 26.8911 46.3092 26.3035C46.9134 25.7067 47.7394 25.3476 48.6551 25.3476ZM7.43962 13H57.5288C58.3218 13 58.9684 13.6388 58.9684 14.4222V23.0208H55.9098V16.9356C55.9098 16.2454 55.3387 15.6766 54.6354 15.6766H10.3283C9.62972 15.6766 9.05387 16.2408 9.05387 16.9356V41.4303C9.05387 42.1204 9.625 42.6893 10.3283 42.6893H42.2028V48.6253H7.43962C6.64665 48.6253 6 47.9864 6 47.2031V14.4222C6 13.6388 6.64665 13 7.43962 13ZM25.9517 50.5884H39.012C39.0451 52.822 39.9749 54.8177 42.5002 56.3938H22.4683C24.4837 54.9483 25.9611 53.1903 25.9517 50.5884ZM32.4842 43.8317C33.5037 43.8317 34.3345 44.6477 34.3345 45.6596C34.3345 46.6668 33.5037 47.4875 32.4842 47.4875C31.4647 47.4875 30.634 46.6715 30.634 45.6596C30.634 44.6524 31.46 43.8317 32.4842 43.8317ZM54.6637 52.9712C55.4142 52.9712 56.0278 53.568 56.0278 54.3188C56.0278 55.0602 55.4237 55.6664 54.6637 55.6664C53.9132 55.6664 53.2996 55.0695 53.2996 54.3188C53.2996 53.5774 53.9038 52.9712 54.6637 52.9712ZM46.7341 51.9453H62.5981V30.4256H46.7341V51.9453Z" fill="#DAB068"/>
</svg>
