<svg width="70" height="70" viewBox="0 0 70 70" fill="none" xmlns="http://www.w3.org/2000/svg">
<path d="M32.6672 8.82227H37.8153C38.3747 8.82227 38.8283 8.36874 38.8283 7.80936C38.8283 7.24998 38.3747 6.79645 37.8153 6.79645H32.6672C32.1078 6.79645 31.6543 7.24998 31.6543 7.80936C31.6543 8.36874 32.1078 8.82227 32.6672 8.82227Z" fill="#DAB068"/>
<path d="M28.0755 63.3528H37.2584C37.8178 63.3528 38.2714 62.8993 38.2714 62.3399C38.2714 61.7805 37.8178 61.327 37.2584 61.327H28.0755C27.5161 61.327 27.0626 61.7805 27.0626 62.3399C27.0626 62.8993 27.5161 63.3528 28.0755 63.3528Z" fill="#DAB068"/>
<path d="M15.0189 32.0607C15.5783 32.0607 16.0318 31.6072 16.0318 31.0478V12.6227H49.3021V17.8331C49.3021 18.3925 49.7556 18.846 50.315 18.846C50.8744 18.846 51.3279 18.3925 51.3279 17.8331C51.3284 16.6145 51.3263 21.5715 51.3325 7.03137C51.3325 4.81379 49.5189 3 47.2936 3H47.291H18.0403H18.0381C15.9208 3 14.006 4.74155 14.006 7.03433V31.0478C14.006 31.6072 14.4595 32.0607 15.0189 32.0607ZM47.291 5.02582C48.3612 5.02582 49.3021 5.90195 49.3021 7.03433V10.5968H16.0325V7.03137C16.0325 5.92665 16.9373 5.02582 18.0403 5.02582H47.291Z" fill="#DAB068"/>
<path d="M31.6428 23.3903C31.8856 23.6247 32.2812 23.6261 32.5254 23.3861L35.1341 20.8248C35.3752 20.5883 35.3752 20.207 35.1341 19.9704L32.5254 17.4091C32.2828 17.1707 31.8878 17.1695 31.6428 17.4049C31.3977 17.6409 31.3959 18.0255 31.6385 18.2635L33.8119 20.3976L31.6385 22.5317C31.3959 22.7698 31.3977 23.1543 31.6428 23.3903Z" fill="#DAB068"/>
<path d="M24.1095 17.4056C23.8648 17.169 23.4691 17.1708 23.2268 17.4097L20.6182 19.9708C20.3771 20.2073 20.3771 20.5886 20.6182 20.8251L23.2268 23.3862C23.4692 23.6243 23.8643 23.6265 24.1095 23.3903C24.3546 23.1543 24.3564 22.7699 24.1138 22.5318L21.9405 20.398L24.1138 18.2641C24.3564 18.0261 24.3546 17.6416 24.1095 17.4056Z" fill="#DAB068"/>
<path d="M28.8645 15.6953L25.1658 24.9154C25.0372 25.2357 25.1953 25.5987 25.5187 25.7258C25.8403 25.853 26.2077 25.6981 26.3368 25.3762L30.0355 16.1562C30.1641 15.8358 30.006 15.4728 29.6826 15.3457C29.358 15.2168 28.9928 15.375 28.8645 15.6953Z" fill="#DAB068"/>
<path d="M50.3197 34.4407C47.3518 34.4407 44.9411 36.8515 44.9411 39.8193C44.9411 42.8151 47.3837 45.1979 50.3197 45.1979C53.2428 45.1979 55.6881 42.82 55.6881 39.8193C55.6881 36.8515 53.2773 34.4407 50.3197 34.4407ZM51.3326 43.01V39.1508C51.3326 38.5937 50.8768 38.1379 50.3197 38.1379C49.7524 38.1379 49.3067 38.5937 49.3067 39.1508V43.0201C47.9494 42.5947 46.9669 41.3184 46.9669 39.8193C46.9669 37.9758 48.466 36.4666 50.3197 36.4666C52.1632 36.4666 53.6623 37.9758 53.6623 39.8193C53.6623 41.3184 52.6798 42.5846 51.3326 43.01Z" fill="#DAB068"/>
<path d="M63.4368 36.6185L60.945 36.3349C60.7526 35.7474 60.5095 35.1701 60.2158 34.613L61.6743 32.5466C61.9681 32.1516 61.9175 31.5945 61.573 31.2501L58.666 28.3532C58.3013 27.9885 57.724 27.948 57.3188 28.2722L55.3639 29.8422C54.8068 29.5585 54.2294 29.3256 53.6319 29.1433L53.2165 26.6414C53.1355 26.1552 52.7101 25.8007 52.2138 25.8007H48.1115C47.5949 25.8007 47.1593 26.1856 47.0986 26.7022L46.8251 29.204C46.2274 29.3965 45.6602 29.6396 45.1132 29.9232L43.0368 28.4545C42.6316 28.1708 42.0846 28.2114 41.7402 28.5659L38.8433 31.4628C38.4787 31.8275 38.4483 32.4049 38.7724 32.81L40.3323 34.775C40.0487 35.3321 39.8157 35.9095 39.6334 36.5071L37.1416 36.9224C36.6555 37.0136 36.2908 37.4289 36.2908 37.9252V42.0275C36.2908 42.544 36.6858 42.9695 37.1923 43.0303L39.684 43.3139C39.8765 43.9115 40.1297 44.4889 40.4133 45.0358L38.9547 47.0921C38.6711 47.4972 38.7116 48.0441 39.0662 48.3987L41.9631 51.2956C42.3277 51.6603 42.9051 51.6907 43.3103 51.3665L45.2753 49.8067C45.8324 50.0801 46.3997 50.3131 46.9972 50.4954L47.4126 52.9973C47.4936 53.4936 47.919 53.8482 48.4153 53.8482H49.3067V56.0867H15.0196C14.4625 56.0867 14.0067 56.5425 14.0067 57.0996C14.0067 57.2565 14.0067 64.0496 14.0067 63.7949C14.0067 66.0132 15.8199 67.8263 18.0381 67.8263H47.291C49.5194 67.8263 51.3325 66.0132 51.3325 63.7949C51.3325 63.2997 51.3325 53.3581 51.3325 53.8482H52.5176C53.0342 53.8482 53.4697 53.4633 53.5305 52.9467L53.8142 50.4448C54.4016 50.2524 54.979 50.0092 55.526 49.7256L57.5923 51.1943C57.9975 51.4779 58.5444 51.4273 58.8989 51.0829L61.7858 48.1758C62.1504 47.8112 62.1808 47.2338 61.8567 46.8388L60.2968 44.8738C60.5804 44.3066 60.8134 43.7292 60.9957 43.1417L63.4874 42.7163C63.9736 42.6352 64.3383 42.2098 64.3383 41.7236V37.6213C64.3383 37.1047 63.9534 36.6692 63.4368 36.6185ZM49.3067 63.7949C49.3067 64.899 48.4052 65.8005 47.291 65.8005H18.0382C16.934 65.8005 16.0325 64.899 16.0325 63.7949C16.0325 63.5774 16.0325 58.0085 16.0325 58.1125H49.3067L49.3067 63.7949ZM62.3125 40.8626L60.0233 41.2475C59.6181 41.3185 59.3041 41.6122 59.2029 42.0174C59.0003 42.8682 58.666 43.6886 58.2203 44.4686C58.0076 44.8231 58.038 45.2789 58.3014 45.6031L59.7093 47.3858L58.0683 49.047L56.1641 47.6897C55.84 47.4567 55.3943 47.4466 55.0499 47.6593C54.3105 48.1151 53.5002 48.4595 52.6392 48.6722C52.2239 48.7735 51.92 49.128 51.8693 49.5433L51.6161 51.8224C50.7628 51.8224 50.12 51.8224 49.2661 51.8224L48.8813 49.523C48.8205 49.128 48.5166 48.8038 48.1216 48.7127C47.2707 48.5 46.4503 48.1658 45.6906 47.7201C45.326 47.5073 44.8702 47.5377 44.546 47.8011L42.7531 49.2192L41.1021 47.5681L42.4391 45.6942C42.6545 45.389 42.6929 44.9388 42.4797 44.5598C42.0239 43.8203 41.6693 42.9999 41.4465 42.1288C41.3452 41.7236 41.0008 41.4197 40.5856 41.3792L38.3166 41.1159V38.7862L40.6058 38.4013C41.011 38.3304 41.3351 38.0265 41.4262 37.6314C41.6288 36.7705 41.9631 35.9501 42.4189 35.2004C42.6316 34.8358 42.6114 34.38 42.348 34.0458L40.9198 32.2529L42.5708 30.6018L44.465 31.949C44.7891 32.182 45.2348 32.2023 45.5792 31.9895C46.3186 31.5337 47.1391 31.1894 48.0102 30.9665C48.4153 30.8652 48.7091 30.5208 48.7597 30.1055L49.0129 27.8265H51.3629L51.7478 30.1157C51.8187 30.5208 52.1125 30.8449 52.5075 30.9361C53.3685 31.1387 54.1889 31.4729 54.9486 31.9288C55.3133 32.1415 55.7691 32.1111 56.0932 31.8477L57.8759 30.4195L59.5269 32.0807L58.1899 33.9647C57.9774 34.2657 57.9338 34.7056 58.1494 35.089C58.6153 35.8487 58.9597 36.6692 59.1724 37.5099C59.2737 37.915 59.6181 38.219 60.0435 38.2696L62.3124 38.5228L62.3125 40.8626Z" fill="#DAB068"/>
<path d="M35.0942 34.278C34.9387 34.0908 34.7079 33.9826 34.4645 33.9828H13.0008L12.5838 31.1706C12.3997 29.9708 11.3706 29.0829 10.1568 29.0764H6.6618V30.7119H10.1568C10.5625 30.7116 10.907 31.0088 10.9663 31.4102L13.8235 50.6963C14.0076 51.8961 15.0367 52.7841 16.2505 52.7905H18.2605C18.7036 54.0623 20.0937 54.734 21.3654 54.291C22.0683 54.0461 22.621 53.4936 22.8659 52.7905H26.4377C26.8893 54.0679 28.291 54.7373 29.5683 54.2856C30.8456 53.8339 31.5151 52.4324 31.0634 51.1551C30.6118 49.8777 29.2101 49.2083 27.9328 49.6599C27.2342 49.9069 26.6847 50.4565 26.4377 51.1551H22.8659C22.4228 49.8833 21.0326 49.2115 19.761 49.6545C19.058 49.8994 18.5054 50.452 18.2605 51.1551H16.2505C15.8457 51.1529 15.5025 50.8569 15.4409 50.4567L15.1809 48.7019H32.0114C32.4044 48.7016 32.7417 48.4217 32.8144 48.0354L35.2675 34.9518C35.3129 34.7126 35.2494 34.4655 35.0942 34.278ZM28.7404 51.1551C29.192 51.1551 29.5582 51.5212 29.5582 51.9728C29.5582 52.4244 29.192 52.7905 28.7404 52.7905C28.2889 52.7905 27.9227 52.4244 27.9227 51.9728C27.9227 51.5212 28.2889 51.1551 28.7404 51.1551ZM20.5632 51.1551C21.0148 51.1551 21.3809 51.5212 21.3809 51.9728C21.3809 52.4244 21.0148 52.7905 20.5632 52.7905C20.1116 52.7905 19.7454 52.4244 19.7454 51.9728C19.7454 51.5212 20.1116 51.1551 20.5632 51.1551ZM31.3326 47.0664H14.9388L13.2437 35.6182H33.4833L31.3326 47.0664Z" fill="#DAB068"/>
<path d="M15.6567 38.0714H27.1049C27.5565 38.0714 27.9226 37.7053 27.9226 37.2537C27.9226 36.8021 27.5565 36.4359 27.1049 36.4359H15.6567C15.2051 36.4359 14.839 36.8021 14.839 37.2537C14.839 37.7053 15.2051 38.0714 15.6567 38.0714Z" fill="#DAB068"/>
<path d="M29.5582 38.0714H31.1937C31.6453 38.0714 32.0114 37.7053 32.0114 37.2537C32.0114 36.8021 31.6453 36.4359 31.1937 36.4359H29.5582C29.1066 36.4359 28.7405 36.8021 28.7405 37.2537C28.7405 37.7053 29.1066 38.0714 29.5582 38.0714Z" fill="#DAB068"/>
</svg>
