<svg id="Layer_1" viewBox="0 0 512 512" xmlns="http://www.w3.org/2000/svg" data-name="Layer 1"><g fill-rule="evenodd"><path d="m269.242 282.847 136.561-111.413c3.77-3.029 2.19-5.254-3.173-9.63l-133.388-108.823c-4.285-3.496-10.29-5.347-16.397-5.554-6.108.208-12.113 2.059-16.398 5.554l-133.388 108.824c-5.364 4.376-6.943 6.601-3.174 9.63l136.562 111.413c4.285 3.496 10.29 5.347 16.398 5.554 6.107-.207 12.113-2.059 16.397-5.554z" fill="#f0a800"/><path d="m269.241 282.848 119.687-97.646v-10.133c0-1.074-.039-1.532-.626-2.465-.809-1.288-2.385-2.735-4.614-4.554l-133.388-108.825c-4.076-3.326-9.421-5.129-14.873-5.413l-132.368 107.993c-5.364 4.376-6.943 6.601-3.174 9.63l136.562 111.413c4.285 3.495 10.29 5.346 16.398 5.554 6.107-.207 12.113-2.059 16.397-5.554z" fill="#ffb300"/><path d="m350.256 287.531v-239.23c0-7.043-5.762-12.805-12.805-12.805h-119.805c-5.931 0-7.899-.196-12.301 4.459-46.028 48.665 0 0-46.028 48.665-2.789 2.949-3.886 5.676-3.886 9.53v189.382c0 7.042 5.763 12.805 12.805 12.805h169.214c7.043 0 12.805-5.762 12.805-12.805z" fill="#e0c0c0"/><path d="m332.326 287.531v-239.23c0-7.043-5.763-12.805-12.805-12.805h-151.284c-7.043 0-12.805 5.763-12.805 12.805v239.23c0 .11.001.219.005.329.003.109.007.219.012.327.006.109.012.217.02.325.008.109.018.216.029.323s.023.215.037.321.029.212.045.318c.016.106.034.211.052.316s.039.209.06.313.044.207.068.31c.023.103.049.205.075.308.026.102.054.203.083.305.029.102.059.202.09.302.031.1.064.199.098.298.034.099.069.197.105.296.036.098.073.196.111.292.039.097.078.192.119.288.04.096.082.191.125.285.043.095.087.188.132.282.045.093.091.186.138.278.047.092.096.184.145.274.05.091.1.181.152.27.052.09.104.178.158.266.054.088.108.175.164.262.056.087.112.173.17.258s.116.17.176.253c.06.084.121.167.182.249s.124.163.188.244c.063.081.128.161.193.24.065.079.131.158.199.235.067.078.135.154.204.23s.139.151.21.225.142.148.215.22.146.144.22.215.149.141.225.21.152.137.23.204c.077.068.156.134.235.199s.159.129.239.193c.081.063.162.126.244.187.082.062.165.122.249.182.084.059.168.118.253.176s.171.114.258.17c.087.055.174.11.262.164.088.053.177.106.266.158.09.052.18.102.27.152s.182.098.274.145c.092.047.185.094.278.138.093.046.187.09.281.132.094.042.189.084.285.125.095.04.191.08.288.118s.194.075.292.111.196.071.295.105c.099.033.198.066.298.098.1.031.2.061.301.09.101.029.202.056.304.083.102.026.205.051.307.075.103.024.207.047.311.068s.208.041.313.06c.105.019.21.036.315.052.106.016.212.031.318.045s.213.026.321.037c.107.011.215.021.323.029.108.008.216.015.325.021.109.006.218.01.327.012.109.003.219.004.329.004h151.284c7.042 0 12.805-5.763 12.805-12.805z" fill="#ffe0e0"/><path d="m254.552 368.687h142.403c7.257 0 13.196-5.939 13.196-13.196v-180.967c0-2.083-.489-4.057-1.359-5.813-.492-.995-1.107-1.921-1.824-2.757 1.459 1.997 1.2 3.581-1.165 5.481l-136.562 111.413c-4.031 3.288-9.301 5.089-14.69 5.403v80.436z" fill="#ed9600"/><path d="m98.72 165.954c-1.982 2.31-3.182 5.307-3.182 8.57v180.967c0 7.257 5.939 13.196 13.196 13.196h145.818v-80.436c-6.525.38-13.224-1.421-18.105-5.403l-136.562-111.413c-2.365-1.9-2.624-3.484-1.164-5.481z" fill="#ffa000"/><path d="m254.552 368.687h121.18c7.257 0 13.196-5.939 13.196-13.196v-170.289l-119.687 97.646c-2.719 2.218-8.191 3.741-14.69 4.568v81.271z" fill="#ffa000"/><path d="m269.241 253.753 136.639 111.404c-2.358 2.187-5.509 3.529-8.958 3.529h-288.22c-3.45 0-6.601-1.342-8.958-3.529l136.295-111.123c9.226-7.522 24.167-7.648 33.203-.28z" fill="#fb8c00"/></g><g><g fill="#1bbd87"><circle cx="95.381" cy="283.567" r="40.403" transform="matrix(.447 -.894 .894 .447 -200.905 242.063)"/><path d="m95.538 323.974c-20.75 0-40.465 8.1-55.238 22.663-14.626 14.419-22.991 33.811-23.432 54.349l-.002.068-.004.068c-.127 1.977 1.072 3.658 3.139 3.658h150.617c1.961 0 3.629-1.113 3.602-3.204-.554-42.991-35.701-77.603-78.683-77.603z" fill-rule="evenodd"/></g><g fill="#32d69f" fill-rule="evenodd"><path d="m89.881 323.596c-19.712-2.683-34.903-19.581-34.903-40.029s15.191-37.346 34.903-40.029c19.712 2.684 34.903 19.581 34.903 40.029s-15.191 37.346-34.903 40.029z"/><path d="m90.016 324.168c-18.704 1.304-36.26 9.205-49.716 22.47-14.626 14.419-22.991 33.811-23.432 54.349l-.002.068-.004.068c-.127 1.977 1.072 3.658 3.139 3.658h139.617c1.961 0 3.629-1.113 3.602-3.204-.53-41.149-32.754-74.617-73.204-77.41z"/></g></g><g><g fill="#f7595c"><circle cx="252.689" cy="361.639" r="40.403" transform="matrix(.447 -.894 .894 .447 -183.777 425.921)"/><path d="m252.846 402.047c-20.75 0-40.465 8.1-55.238 22.663-14.626 14.419-22.991 33.811-23.432 54.349l-.002.068-.004.068c-.127 1.977 1.072 3.658 3.139 3.658h150.617c1.961 0 3.629-1.113 3.602-3.204-.554-42.991-35.701-77.603-78.683-77.603z" fill-rule="evenodd"/></g><g fill="#ff7577" fill-rule="evenodd"><path d="m247.189 401.668c-19.711-2.683-34.903-19.581-34.903-40.029s15.191-37.346 34.903-40.029c19.712 2.684 34.903 19.581 34.903 40.029s-15.191 37.346-34.903 40.029z"/><path d="m247.324 402.24c-18.704 1.304-36.26 9.205-49.716 22.47-14.626 14.419-22.991 33.811-23.432 54.349l-.002.068-.004.068c-.127 1.977 1.072 3.658 3.139 3.658h139.617c1.961 0 3.629-1.113 3.602-3.204-.53-41.149-32.754-74.617-73.204-77.41z"/></g></g><g><g fill="#24a8c9"><circle cx="409.995" cy="283.569" r="40.403" transform="matrix(.23 -.973 .973 .23 39.814 617.446)"/><path d="m410.152 323.976c-20.75 0-40.465 8.1-55.238 22.663-14.626 14.419-22.991 33.811-23.432 54.349l-.002.068-.004.068c-.127 1.977 1.072 3.657 3.139 3.657h150.617c1.961 0 3.629-1.113 3.602-3.204-.554-42.991-35.701-77.603-78.683-77.603z" fill-rule="evenodd"/></g><g fill="#49c3e0" fill-rule="evenodd"><path d="m404.495 323.598c-19.711-2.683-34.903-19.581-34.903-40.029s15.191-37.346 34.903-40.029c19.712 2.684 34.903 19.581 34.903 40.029s-15.191 37.346-34.903 40.029z"/><path d="m404.63 324.17c-18.704 1.304-36.26 9.205-49.716 22.47-14.626 14.419-22.991 33.811-23.432 54.349l-.002.068-.004.068c-.127 1.977 1.072 3.657 3.139 3.657h139.617c1.961 0 3.629-1.113 3.602-3.204-.53-41.149-32.754-74.617-73.204-77.41z"/></g></g><path d="m204.848 92.897c0-3.866 3.134-7 7-7h88.305c3.866 0 7 3.134 7 7s-3.134 7-7 7h-88.305c-3.866 0-7-3.134-7-7zm7 60.049h88.305c3.866 0 7-3.134 7-7s-3.134-7-7-7h-88.305c-3.866 0-7 3.134-7 7s3.134 7 7 7zm0 53.049h88.305c3.866 0 7-3.134 7-7s-3.134-7-7-7h-88.305c-3.866 0-7 3.134-7 7s3.134 7 7 7zm291.151 195.692c.026 1.873-.699 3.679-2.015 5.014-1.315 1.334-3.11 2.085-4.984 2.085h-165.387c-1.874 0-3.669-.751-4.984-2.085-1.315-1.335-2.041-3.141-2.015-5.014.144-10.164 1.981-20.053 5.353-29.353h-27.807c-3.039 9.508-8.997 17.724-16.824 23.578 12.892 4.279 24.734 11.471 34.67 21.277 16.876 16.655 26.353 38.876 26.687 62.568.026 1.873-.699 3.679-2.015 5.014-1.315 1.334-3.11 2.085-4.984 2.085h-165.387c-1.874 0-3.669-.751-4.984-2.085-1.315-1.335-2.041-3.141-2.015-5.014.334-23.692 9.812-45.913 26.688-62.568 9.937-9.807 21.778-16.998 34.67-21.277-7.826-5.854-13.785-14.07-16.824-23.578h-27.808c3.371 9.299 5.209 19.188 5.353 29.353.026 1.873-.699 3.679-2.015 5.014-1.315 1.334-3.11 2.085-4.984 2.085h-165.388c-1.874 0-3.669-.751-4.984-2.085-1.315-1.335-2.041-3.141-2.015-5.014.334-23.691 9.812-45.912 26.687-62.567 9.938-9.807 21.779-16.998 34.672-21.278-11.568-8.652-19.069-22.456-19.069-37.98 0-23.76 17.572-43.489 40.403-46.883v-61.808c0-4.584 1.591-9.029 4.464-12.609 1.6-2.24 3.803-4.041 5.633-5.534l49.798-40.627v-67.454c0-10.92 8.885-19.805 19.806-19.805h169.214c10.92 0 19.805 8.885 19.805 19.805v67.455l49.799 40.627c1.829 1.492 4.028 3.291 5.628 5.529 2.876 3.579 4.468 8.026 4.468 12.614v61.808c22.831 3.394 40.403 23.123 40.403 46.883 0 15.524-7.501 29.328-19.069 37.98 12.893 4.28 24.735 11.471 34.672 21.278 16.875 16.656 26.353 38.876 26.687 62.567zm-118.026-83.845c-11.568-8.652-19.069-22.456-19.069-37.98 0-23.76 17.572-43.489 40.403-46.883v-53.699l-48.433 39.514c-.007.006-.014.011-.021.017l-56.544 46.131 71.251 58.093c4.002-2.045 8.149-3.778 12.413-5.193zm28.334-71.384c-18.419 0-33.403 14.984-33.403 33.403s14.984 33.402 33.403 33.402 33.403-14.984 33.403-33.402-14.984-33.403-33.403-33.403zm-52.895-115.99v68.187l41.783-34.088c-.251-.211-.527-.44-.834-.69l-40.949-33.408zm-194.824-85.521v165.131l56.147 45.808 13.036-10.628c11.885-9.69 30.357-9.814 42.049-.28l13.412 10.935 56.18-45.834v-165.132c0-3.201-2.604-5.805-5.805-5.805h-169.213c-3.201 0-5.806 2.604-5.806 5.805zm-26.188 278.068 71.26-58.099-56.515-46.107c-.006-.004-.011-.008-.016-.013l-48.436-39.515v53.699c22.831 3.394 40.403 23.123 40.403 46.883 0 15.524-7.501 29.328-19.069 37.98 4.25 1.411 8.383 3.136 12.372 5.173zm-29.594-158.447 41.782 34.087v-68.187l-40.948 33.408c-.307.25-.584.48-.834.691zm-44.516 115.294c0 18.418 14.984 33.402 33.403 33.402s33.403-14.984 33.403-33.402-14.984-33.403-33.403-33.403-33.403 14.984-33.403 33.403zm108.662 114.924c-4.119-37.829-36.494-67.521-75.259-67.521s-71.139 29.691-75.259 67.521zm82.049 10.55c-38.764 0-71.14 29.691-75.26 67.521h150.519c-4.12-37.829-36.495-67.521-75.259-67.521zm0-14c18.419 0 33.403-14.984 33.403-33.403s-14.984-33.403-33.403-33.403-33.404 14.984-33.404 33.403 14.985 33.403 33.404 33.403zm79.486-33.001c4.004-6.958 8.951-13.428 14.813-19.215 3.052-3.012 6.288-5.771 9.674-8.284l-92-75.01c-6.507-5.305-17.661-5.177-24.357.28l-91.625 74.704c3.397 2.52 6.645 5.288 9.707 8.31 5.862 5.787 10.81 12.257 14.813 19.215h32.094c0-.135-.01-.267-.01-.402 0-26.139 21.266-47.403 47.404-47.403s47.403 21.265 47.403 47.403c0 .135-.009.268-.01.402h32.093zm153.078 36.451c-4.119-37.829-36.494-67.521-75.259-67.521s-71.139 29.691-75.259 67.521z"/></svg>