<svg width="70" height="70" viewBox="0 0 70 70" fill="none" xmlns="http://www.w3.org/2000/svg">
<path opacity="0.5" d="M52.3029 29.2975H56.6699V30.8182C56.6699 31.1728 56.7398 31.5239 56.8755 31.8515C57.0112 32.1791 57.21 32.4767 57.4608 32.7275C57.7115 32.9782 58.0092 33.1771 58.3368 33.3128C58.6644 33.4485 59.0155 33.5183 59.3701 33.5183V30.0969C59.3603 27.9524 57.6155 26.2173 55.471 26.2173H49.2227C49.2227 27.9231 50.5971 29.2975 52.3029 29.2975Z" fill="#DAB068"/>
<path d="M55.4724 59.3693H14.5319C12.3777 59.3693 10.6328 57.6245 10.6328 55.4702V53.5207H59.3715V55.4702C59.3715 57.6245 57.6267 59.3693 55.4724 59.3693Z" fill="#DAB068"/>
<path opacity="0.5" d="M39.872 56.445H59.3675V53.5207H36.1094C36.548 55.1973 38.0589 56.445 39.872 56.445Z" fill="#DAB068"/>
<path d="M60.3423 23.3027C61.9573 23.3027 63.2666 21.9935 63.2666 20.3784C63.2666 18.7633 61.9573 17.4541 60.3423 17.4541C58.7272 17.4541 57.418 18.7633 57.418 20.3784C57.418 21.9935 58.7272 23.3027 60.3423 23.3027Z" fill="#DAB068"/>
<path d="M53.522 15.5045C55.137 15.5045 56.4463 14.1952 56.4463 12.5802C56.4463 10.9651 55.137 9.65585 53.522 9.65585C51.9069 9.65585 50.5977 10.9651 50.5977 12.5802C50.5977 14.1952 51.9069 15.5045 53.522 15.5045Z" fill="#DAB068"/>
<path d="M9.65479 23.3027C11.2698 23.3027 12.5791 21.9935 12.5791 20.3784C12.5791 18.7633 11.2698 17.4541 9.65479 17.4541C8.03973 17.4541 6.73047 18.7633 6.73047 20.3784C6.73047 21.9935 8.03973 23.3027 9.65479 23.3027Z" fill="#DAB068"/>
<path d="M16.479 15.5045C18.0941 15.5045 19.4033 14.1952 19.4033 12.5802C19.4033 10.9651 18.0941 9.65585 16.479 9.65585C14.864 9.65585 13.5547 10.9651 13.5547 12.5802C13.5547 14.1952 14.864 15.5045 16.479 15.5045Z" fill="#DAB068"/>
<path d="M34.9985 10.6306C36.6136 10.6306 37.9229 9.32136 37.9229 7.7063C37.9229 6.09125 36.6136 4.78198 34.9985 4.78198C33.3835 4.78198 32.0742 6.09125 32.0742 7.7063C32.0742 9.32136 33.3835 10.6306 34.9985 10.6306Z" fill="#DAB068"/>
<path opacity="0.3" d="M60.3444 17.4541C59.7498 17.4541 59.1942 17.6295 58.7361 17.9415C58.6483 18.2241 58.5898 18.5068 58.5898 18.8188C58.5898 20.4369 59.896 21.7431 61.5142 21.7431C62.1088 21.7431 62.6644 21.5676 63.1225 21.2557C63.2103 20.973 63.2688 20.6806 63.2688 20.3784C63.2688 18.7603 61.9626 17.4541 60.3444 17.4541Z" fill="#DAB068"/>
<path opacity="0.3" d="M53.5202 9.65585C52.9256 9.65585 52.37 9.83131 51.9118 10.1432C51.8241 10.4259 51.7656 10.7086 51.7656 11.0205C51.7656 12.6387 53.0718 13.9449 54.6899 13.9449C55.2846 13.9449 55.8402 13.7694 56.2983 13.4575C56.3861 13.1748 56.4445 12.8824 56.4445 12.5802C56.4445 10.9621 55.1383 9.65585 53.5202 9.65585Z" fill="#DAB068"/>
<path opacity="0.3" d="M9.65694 17.4541C9.06232 17.4541 8.5067 17.6295 8.04856 17.9415C7.96083 18.2241 7.90234 18.5068 7.90234 18.8188C7.90234 20.4369 9.20854 21.7431 10.8267 21.7431C11.4213 21.7431 11.9769 21.5676 12.435 21.2557C12.5228 20.973 12.5813 20.6806 12.5813 20.3784C12.5813 18.7603 11.2751 17.4541 9.65694 17.4541Z" fill="#DAB068"/>
<path opacity="0.3" d="M16.4812 9.65585C15.8865 9.65585 15.3309 9.83131 14.8728 10.1432C14.785 10.4259 14.7266 10.7086 14.7266 11.0205C14.7266 12.6387 16.0328 13.9449 17.6509 13.9449C18.2455 13.9449 18.8011 13.7694 19.2593 13.4575C19.347 13.1748 19.4055 12.8824 19.4055 12.5802C19.4055 10.9621 18.0993 9.65585 16.4812 9.65585Z" fill="#DAB068"/>
<path opacity="0.3" d="M35.0007 4.78198C34.4061 4.78198 33.8505 4.95744 33.3923 5.26937C33.3046 5.55205 33.2461 5.83474 33.2461 6.14667C33.2461 7.76479 34.5523 9.07099 36.1704 9.07099C36.765 9.07099 37.3206 8.89553 37.7788 8.5836C37.8665 8.30092 37.925 8.00848 37.925 7.7063C37.925 6.08818 36.6188 4.78198 35.0007 4.78198Z" fill="#DAB068"/>
<path d="M36.8628 46.4536H33.1391C32.7687 46.4536 32.4568 46.1806 32.4178 45.8102L32.1936 44.0459C30.9069 43.734 29.6884 43.2076 28.5674 42.4862L27.115 43.617C26.8226 43.8412 26.4132 43.8217 26.15 43.5585L23.5181 40.9266C23.3924 40.8005 23.317 40.6329 23.3063 40.4552C23.2955 40.2774 23.35 40.1019 23.4596 39.9616L24.6781 38.3922C24.064 37.3102 23.6156 36.1502 23.3621 34.9317L21.2566 34.6686C21.0802 34.6466 20.9178 34.5614 20.7995 34.4287C20.6811 34.2961 20.615 34.125 20.6133 33.9472V30.2236C20.6133 29.8532 20.8862 29.5412 21.2566 29.5023L23.5766 29.2098C23.8885 28.1181 24.3467 27.0848 24.9608 26.1295L23.4596 24.1995C23.2354 23.9071 23.2549 23.4976 23.5181 23.2345L26.15 20.6026C26.4132 20.3394 26.8226 20.3199 27.115 20.5441L29.1718 22.1427C30.0978 21.6163 31.0824 21.2167 32.0864 20.9632L32.408 18.3508C32.4568 17.9804 32.7687 17.7075 33.1294 17.7075H36.853C37.2234 17.7075 37.5354 17.9804 37.5743 18.3508L37.896 20.9632C38.9098 21.2167 39.8846 21.6163 40.8106 22.1427L42.8674 20.5441C43.1598 20.3199 43.5692 20.3394 43.8324 20.6026L46.4643 23.2345C46.7275 23.4976 46.747 23.9071 46.5228 24.1995L45.0216 26.1295C45.626 27.0848 46.0939 28.1181 46.4058 29.2098L48.716 29.5023C49.0864 29.551 49.3594 29.8629 49.3594 30.2236V33.9472C49.3594 34.3176 49.0864 34.6296 48.716 34.6686L46.6105 34.9317C46.3591 36.148 45.9149 37.3162 45.2946 38.3922L46.513 39.9616C46.7372 40.254 46.7177 40.6634 46.4545 40.9266L43.8226 43.5585C43.5595 43.8217 43.1501 43.8412 42.8576 43.617L41.4052 42.4862C40.2842 43.2076 39.0658 43.734 37.779 44.0459L37.5549 45.8102C37.5451 46.1806 37.2332 46.4536 36.8628 46.4536ZM33.7825 44.9914H36.2097L36.4144 43.3538C36.4534 43.0419 36.6873 42.7884 36.9992 42.7299C38.4516 42.4473 39.8066 41.8624 41.0348 40.9948C41.298 40.8096 41.6489 40.8194 41.9121 41.0143L43.2768 42.0768L44.9924 40.3612L43.8616 38.8991C43.7702 38.7801 43.7175 38.6359 43.7105 38.486C43.7036 38.3362 43.7427 38.1877 43.8226 38.0608C44.5732 36.8715 45.0704 35.5556 45.2946 34.1617C45.3433 33.84 45.6065 33.5963 45.9282 33.5476L47.9264 33.2941V30.8669L45.7625 30.594C45.6145 30.5753 45.4757 30.5122 45.3643 30.413C45.253 30.3138 45.1743 30.1832 45.1386 30.0384C44.8267 28.7614 44.3003 27.5722 43.5497 26.5097C43.4599 26.382 43.4133 26.2288 43.4168 26.0727C43.4203 25.9166 43.4737 25.7657 43.5692 25.6421L45.0021 23.8096L43.2865 22.094L41.337 23.5951C41.0933 23.7803 40.7619 23.7998 40.4987 23.6341C39.4567 22.9838 38.3085 22.5218 37.1065 22.2694C36.9565 22.2405 36.8198 22.1644 36.7163 22.0521C36.6128 21.9398 36.548 21.7974 36.5313 21.6456L36.2194 19.1599H33.7922L33.4803 21.6456C33.4413 21.9575 33.2074 22.2109 32.9052 22.2694C31.716 22.5131 30.5755 22.9713 29.513 23.6341C29.2498 23.7998 28.9184 23.7803 28.6747 23.5951L26.7349 22.0842L25.0193 23.7998L26.4522 25.6324C26.6471 25.8858 26.6569 26.2368 26.4717 26.5C25.7211 27.5625 25.185 28.7517 24.8828 30.0286C24.8146 30.3211 24.5611 30.5453 24.2589 30.5843L22.0949 30.8572V33.2844L24.0932 33.5378C24.4149 33.5768 24.6683 33.8303 24.7268 34.1519C24.951 35.5459 25.4482 36.8618 26.1987 38.051C26.3644 38.3142 26.345 38.6456 26.1597 38.8893L25.029 40.3515L26.7446 42.0671L28.1093 41.0046C28.3627 40.8096 28.7234 40.7999 28.9866 40.9851C30.1919 41.846 31.5682 42.4378 33.0222 42.7202C33.3341 42.7787 33.568 43.0321 33.607 43.344L33.7825 44.9914Z" fill="#DAB068"/>
<path d="M34.9989 39.0063C31.402 39.0063 28.4776 36.082 28.4776 32.4851C28.4776 28.8882 31.402 25.9638 34.9989 25.9638C38.5958 25.9638 41.5201 28.8882 41.5201 32.4851C41.5201 36.082 38.5958 39.0063 34.9989 39.0063ZM34.9989 27.426C32.211 27.426 29.9398 29.6972 29.9398 32.4851C29.9398 35.2729 32.211 37.5442 34.9989 37.5442C37.7867 37.5442 40.0579 35.2729 40.0579 32.4851C40.0579 29.6972 37.7867 27.426 34.9989 27.426ZM55.4691 60.1004H14.5286C11.9747 60.1004 9.89844 58.0242 9.89844 55.4702V53.5207C9.89844 53.121 10.2299 52.7896 10.6295 52.7896H59.3682C59.7679 52.7896 60.0993 53.121 60.0993 53.5207V55.4702C60.0993 58.0242 58.023 60.1004 55.4691 60.1004ZM11.3606 54.2518V55.4702C11.3606 57.2151 12.7838 58.6383 14.5286 58.6383H55.4691C57.214 58.6383 58.6371 57.2151 58.6371 55.4702V54.2518H11.3606Z" fill="#DAB068"/>
<path d="M43.7731 65.949H26.2272C25.8275 65.949 25.4961 65.6176 25.4961 65.218V59.3693C25.4961 58.9697 25.8275 58.6382 26.2272 58.6382H43.7731C44.1728 58.6382 44.5042 58.9697 44.5042 59.3693V65.218C44.5042 65.6176 44.1728 65.949 43.7731 65.949ZM26.9583 64.4869H43.042V60.1004H26.9583V64.4869Z" fill="#DAB068"/>
<path d="M47.6729 65.949H22.3287C21.9291 65.949 21.5977 65.6176 21.5977 65.218C21.5977 64.8183 21.9291 64.4869 22.3287 64.4869H47.6729C48.0725 64.4869 48.4039 64.8183 48.4039 65.218C48.4039 65.6176 48.0725 65.949 47.6729 65.949ZM35.0008 16.2356C34.6011 16.2356 34.2697 15.9042 34.2697 15.5045V10.7184C34.2697 10.3187 34.6011 9.98727 35.0008 9.98727C35.4005 9.98727 35.7319 10.3187 35.7319 10.7184V15.5045C35.7319 15.9042 35.4005 16.2356 35.0008 16.2356ZM45.7526 20.1347C45.3529 20.1347 45.0215 19.8032 45.0215 19.4036V12.5802C45.0215 12.1805 45.3529 11.8491 45.7526 11.8491H50.5972C50.9968 11.8491 51.3283 12.1805 51.3283 12.5802C51.3283 12.9798 50.9968 13.3113 50.5972 13.3113H46.4836V19.4036C46.4836 19.8032 46.1522 20.1347 45.7526 20.1347ZM53.5215 32.8067H51.572C51.1723 32.8067 50.8409 32.4753 50.8409 32.0757C50.8409 31.676 51.1723 31.3446 51.572 31.3446H52.7904V20.3784C52.7904 19.9787 53.1218 19.6473 53.5215 19.6473H57.4206C57.8203 19.6473 58.1517 19.9787 58.1517 20.3784C58.1517 20.778 57.8203 21.1094 57.4206 21.1094H54.2526V32.0757C54.2526 32.4753 53.9212 32.8067 53.5215 32.8067Z" fill="#DAB068"/>
<path d="M60.3427 24.0338C58.3249 24.0338 56.6873 22.3962 56.6873 20.3784C56.6873 18.3606 58.3249 16.723 60.3427 16.723C62.3604 16.723 63.9981 18.3606 63.9981 20.3784C63.9981 22.3962 62.3604 24.0338 60.3427 24.0338ZM60.3427 18.1851C59.1339 18.1851 58.1494 19.1696 58.1494 20.3784C58.1494 21.5871 59.1339 22.5716 60.3427 22.5716C61.5514 22.5716 62.5359 21.5871 62.5359 20.3784C62.5359 19.1696 61.5514 18.1851 60.3427 18.1851ZM53.5192 16.2356C51.5015 16.2356 49.8638 14.598 49.8638 12.5802C49.8638 10.5624 51.5015 8.92477 53.5192 8.92477C55.537 8.92477 57.1746 10.5624 57.1746 12.5802C57.1746 14.598 55.537 16.2356 53.5192 16.2356ZM53.5192 10.3869C52.3105 10.3869 51.326 11.3715 51.326 12.5802C51.326 13.7889 52.3105 14.7734 53.5192 14.7734C54.728 14.7734 55.7125 13.7889 55.7125 12.5802C55.7125 11.3715 54.728 10.3869 53.5192 10.3869ZM24.2468 20.1347C23.8471 20.1347 23.5157 19.8033 23.5157 19.4036V13.3113H19.4022C19.0025 13.3113 18.6711 12.9798 18.6711 12.5802C18.6711 12.1805 19.0025 11.8491 19.4022 11.8491H24.2468C24.6464 11.8491 24.9779 12.1805 24.9779 12.5802V19.4036C24.9779 19.8033 24.6562 20.1347 24.2468 20.1347ZM18.4274 32.8067H16.4778C16.0782 32.8067 15.7468 32.4753 15.7468 32.0757V21.1094H12.5787C12.1791 21.1094 11.8477 20.778 11.8477 20.3784C11.8477 19.9787 12.1791 19.6473 12.5787 19.6473H16.4778C16.8775 19.6473 17.2089 19.9787 17.2089 20.3784V31.3446H18.4274C18.827 31.3446 19.1585 31.676 19.1585 32.0757C19.1585 32.4753 18.827 32.8067 18.4274 32.8067Z" fill="#DAB068"/>
<path d="M9.6554 24.0338C7.63762 24.0338 6 22.3961 6 20.3784C6 18.3606 7.63762 16.723 9.6554 16.723C11.6732 16.723 13.3108 18.3606 13.3108 20.3784C13.3108 22.3961 11.6732 24.0338 9.6554 24.0338ZM9.6554 18.1851C8.44668 18.1851 7.46216 19.1696 7.46216 20.3784C7.46216 21.5871 8.44668 22.5716 9.6554 22.5716C10.8641 22.5716 11.8486 21.5871 11.8486 20.3784C11.8486 19.1696 10.8641 18.1851 9.6554 18.1851ZM16.4788 16.2356C14.461 16.2356 12.8234 14.598 12.8234 12.5802C12.8234 10.5624 14.461 8.92477 16.4788 8.92477C18.4966 8.92477 20.1342 10.5624 20.1342 12.5802C20.1342 14.598 18.4966 16.2356 16.4788 16.2356ZM16.4788 10.3869C15.2701 10.3869 14.2856 11.3715 14.2856 12.5802C14.2856 13.7889 15.2701 14.7734 16.4788 14.7734C17.6875 14.7734 18.6721 13.7889 18.6721 12.5802C18.6721 11.3715 17.6875 10.3869 16.4788 10.3869ZM34.9995 11.3617C32.9817 11.3617 31.3441 9.72409 31.3441 7.70631C31.3441 5.68852 32.9817 4.0509 34.9995 4.0509C37.0173 4.0509 38.6549 5.68852 38.6549 7.70631C38.6549 9.72409 37.0173 11.3617 34.9995 11.3617ZM34.9995 5.51306C33.7908 5.51306 32.8063 6.49759 32.8063 7.70631C32.8063 8.91503 33.7908 9.89955 34.9995 9.89955C36.2082 9.89955 37.1928 8.91503 37.1928 7.70631C37.1928 6.49759 36.2082 5.51306 34.9995 5.51306ZM59.3689 54.2518H10.6302C10.2305 54.2518 9.8991 53.9203 9.8991 53.5207V30.1261C9.8991 27.5722 11.9754 25.4959 14.5293 25.4959H22.3372C22.7369 25.4959 23.0683 25.8274 23.0683 26.227C23.0683 26.6267 22.7369 26.9581 22.3372 26.9581H14.5293C12.7844 26.9581 11.3613 28.3813 11.3613 30.1261V52.7896H58.6378V30.1261C58.6378 28.3813 57.2146 26.9581 55.4698 26.9581H47.6618C47.2622 26.9581 46.9308 26.6267 46.9308 26.227C46.9308 25.8274 47.2622 25.4959 47.6618 25.4959H55.4698C58.0237 25.4959 60.1 27.5722 60.1 30.1261V53.5207C60.1 53.9203 59.7685 54.2518 59.3689 54.2518Z" fill="#DAB068"/>
</svg>
