<svg width="90" height="90" viewBox="0 0 90 90" fill="none" xmlns="http://www.w3.org/2000/svg">
<path d="M87 46C87 69.196 68.196 88 45 88C23.5989 88 5.93655 71.9937 3.33255 51.2989C3.1132 49.5639 3 47.7948 3 46C3 42.712 3.37718 39.5115 4.092 36.4411C8.41882 17.8515 25.092 4 45 4C64.8583 4 81.4988 17.7829 85.8737 36.3041C86.4479 38.7263 86.8097 41.2292 86.9418 43.792C86.9811 44.5239 87 45.2594 87 46Z" fill="white"/>
<path fill-rule="evenodd" clip-rule="evenodd" d="M61.6064 46.9397C61.5279 39.0909 68.0743 35.3244 68.3667 35.1379C64.6872 29.8108 58.9546 29.0786 56.912 28.9963C52.0337 28.5088 47.3947 31.8405 44.9162 31.8405C42.4446 31.8405 38.6253 29.0694 34.5805 29.1427C29.264 29.2205 24.3626 32.2032 21.6218 36.916C16.0984 46.4008 20.2091 60.4587 25.5926 68.1497C28.2225 71.9161 31.3587 76.1472 35.4775 75.9961C39.4425 75.8417 40.943 73.4538 45.7392 73.4538C50.5343 73.4538 51.881 75.9962 56.0785 75.9149C60.3463 75.8371 63.0502 72.0752 65.6627 68.2962C68.6857 63.9254 69.9248 59.699 70 59.4817C69.9052 59.4393 61.678 56.3204 61.5948 46.9431L61.6063 46.9397H61.6064ZM53.7226 23.9002C55.9074 21.2767 57.3836 17.6349 56.9802 14C53.8324 14.127 50.0153 16.0766 47.7554 18.6967C45.7266 21.0227 43.9544 24.7297 44.4284 28.2902C47.9438 28.5614 51.5331 26.5225 53.7191 23.9047L53.7226 23.9002Z" fill="black"/>
</svg>
