<svg width="70" height="70" viewBox="0 0 70 70" fill="none" xmlns="http://www.w3.org/2000/svg">
<g clip-path="url(#clip0_41_108)">
<path d="M66.3999 32.2766C64.7168 32.2766 63.3009 33.4454 62.9103 35.019H52.1231V27.6625H65.8191C66.2997 27.6625 66.6904 27.2695 66.6904 26.7858V18.2912C68.2544 17.8981 69.4162 16.4736 69.4162 14.7802C69.4162 12.7844 67.8028 11.1611 65.8191 11.1611C63.8353 11.1611 62.2219 12.7844 62.2219 14.7802C62.2219 16.4736 63.3837 17.8981 64.9477 18.2912V25.9092H52.1231V24.4233C52.1231 21.862 50.2048 19.7449 47.7374 19.4469V12.8063H51.8951C52.2858 14.3799 53.7017 15.5487 55.3848 15.5487C57.3686 15.5487 58.982 13.9255 58.982 11.9297C58.982 9.93383 57.3686 8.31058 55.3848 8.31058C53.7017 8.31058 52.2858 9.47944 51.8951 11.053H46.8661C46.3854 11.053 45.9948 11.446 45.9948 11.9297V19.4089H37.1449V7.13004C38.709 6.73701 39.8707 5.31246 39.8707 3.61908C39.8707 1.62325 38.2573 0 36.2736 0C34.2899 0 32.6764 1.62325 32.6764 3.61908C32.6764 5.31246 33.8382 6.73701 35.4023 7.13004V19.4089H28.1818V3.94636C28.1818 3.46274 27.7912 3.06971 27.3105 3.06971H18.4563C18.0656 1.49614 16.6497 0.32728 14.9666 0.32728C12.9829 0.32728 11.3694 1.95053 11.3694 3.94636C11.3694 5.94218 12.9829 7.56544 14.9666 7.56544C16.6497 7.56544 18.0656 6.39658 18.4563 4.823H26.4392V19.4089H23.9326C21.9286 19.4089 20.1975 20.6055 19.4075 22.3267H12.3206V17.9288C13.8847 17.5358 15.0465 16.1112 15.0465 14.4179C15.0465 12.422 13.4331 10.7988 11.4493 10.7988C9.46558 10.7988 7.85216 12.422 7.85216 14.4179C7.85216 16.1112 9.01394 17.5358 10.578 17.9288V23.2033C10.578 23.6869 10.9686 24.0799 11.4493 24.0799H18.9631C18.9559 24.1939 18.95 24.3079 18.95 24.4233V33.2701H7.08684C6.69619 31.6965 5.28028 30.5277 3.59715 30.5277C1.61342 30.5277 0 32.1509 0 34.1467C0 36.1426 1.61342 37.7658 3.59715 37.7658C5.28028 37.7658 6.69619 36.597 7.08684 35.0234H18.95V42.1768H3.70607C3.22538 42.1768 2.83474 42.5698 2.83474 43.0534V51.5481C1.27069 51.9411 0.108917 53.3657 0.108917 55.0591C0.108917 57.0549 1.72234 58.6781 3.70607 58.6781C5.68981 58.6781 7.30322 57.0549 7.30322 55.0591C7.30322 53.3657 6.14145 51.9411 4.5774 51.5481V43.9301H18.95V47.7712C18.95 50.1382 20.5896 52.1267 22.7868 52.6498V57.3515H18.6291C18.2385 55.7779 16.8225 54.6091 15.1394 54.6091C13.1557 54.6091 11.5423 56.2323 11.5423 58.2281C11.5423 60.224 13.1557 61.8472 15.1394 61.8472C16.8225 61.8472 18.2385 60.6784 18.6291 59.1048H23.6581C24.1388 59.1048 24.5295 58.7118 24.5295 58.2281V52.7856H33.5972V62.7589C32.0331 63.1519 30.8713 64.5765 30.8713 66.2699C30.8713 68.2657 32.4848 69.889 34.4685 69.889C36.4522 69.889 38.0656 68.2657 38.0656 66.2699C38.0656 64.5765 36.9039 63.1519 35.3398 62.7589V52.7856H42.3686V66.3809C42.3686 66.8645 42.7592 67.2576 43.2399 67.2576H52.0941C52.4848 68.8311 53.9007 70 55.5838 70C57.5675 70 59.1809 68.3767 59.1809 66.3809C59.1809 64.3851 57.5675 62.7618 55.5838 62.7618C53.9007 62.7618 52.4848 63.9307 52.0941 65.5043H44.1112V52.7856H47.142C49.8911 52.7856 52.1261 50.5356 52.1261 47.7712V47.4878H57.2669V51.8856C55.7029 52.2786 54.5411 53.7032 54.5411 55.3966C54.5411 57.3924 56.1545 59.0157 58.1382 59.0157C60.122 59.0157 61.7354 57.3924 61.7354 55.3966C61.7354 53.7032 60.5736 52.2786 59.0096 51.8856V46.6111C59.0096 46.1275 58.6189 45.7345 58.1382 45.7345H52.1261V36.7723H62.9132C63.3038 38.3459 64.7197 39.5147 66.4028 39.5147C68.3866 39.5147 70 37.8915 70 35.8956C70 33.8998 68.3837 32.2766 66.3999 32.2766ZM63.9646 14.7802C63.9646 13.7516 64.7967 12.9144 65.8191 12.9144C66.8414 12.9144 67.6735 13.7516 67.6735 14.7802C67.6735 15.8088 66.8414 16.646 65.8191 16.646C64.7967 16.646 63.9646 15.8088 63.9646 14.7802ZM55.3863 10.0639C56.4087 10.0639 57.2408 10.9011 57.2408 11.9297C57.2408 12.9583 56.4087 13.7954 55.3863 13.7954C54.3639 13.7954 53.5318 12.9583 53.5318 11.9297C53.5318 10.9011 54.3639 10.0639 55.3863 10.0639ZM34.4206 3.61908C34.4206 2.59048 35.2527 1.75329 36.2751 1.75329C37.2974 1.75329 38.1295 2.59048 38.1295 3.61908C38.1295 4.64767 37.2974 5.48487 36.2751 5.48487C35.2527 5.48487 34.4206 4.64767 34.4206 3.61908ZM14.9695 5.81069C13.9471 5.81069 13.115 4.97349 13.115 3.9449C13.115 2.9163 13.9471 2.07911 14.9695 2.07911C15.9919 2.07911 16.824 2.9163 16.824 3.9449C16.824 4.97349 15.9919 5.81069 14.9695 5.81069ZM9.59483 14.4179C9.59483 13.3893 10.427 12.5521 11.4493 12.5521C12.4717 12.5521 13.3038 13.3893 13.3038 14.4179C13.3038 15.4465 12.4717 16.2837 11.4493 16.2837C10.427 16.2837 9.59483 15.4465 9.59483 14.4179ZM3.59715 36.0125C2.57479 36.0125 1.74267 35.1753 1.74267 34.1467C1.74267 33.1181 2.57479 32.2809 3.59715 32.2809C4.61952 32.2809 5.45164 33.1181 5.45164 34.1467C5.45164 35.1753 4.61952 36.0125 3.59715 36.0125ZM5.56056 55.0591C5.56056 56.0877 4.72843 56.9249 3.70607 56.9249C2.68371 56.9249 1.85158 56.0877 1.85158 55.0591C1.85158 54.0305 2.68371 53.1933 3.70607 53.1933C4.72843 53.1933 5.56056 54.0305 5.56056 55.0591ZM15.138 60.0939C14.1156 60.0939 13.2835 59.2567 13.2835 58.2281C13.2835 57.1995 14.1156 56.3623 15.138 56.3623C16.1603 56.3623 16.9924 57.1995 16.9924 58.2281C16.9924 59.2567 16.1603 60.0939 15.138 60.0939ZM36.3215 66.2699C36.3215 67.2985 35.4894 68.1357 34.467 68.1357C33.4447 68.1357 32.6125 67.2985 32.6125 66.2699C32.6125 65.2413 33.4447 64.4041 34.467 64.4041C35.4894 64.4041 36.3215 65.2413 36.3215 66.2699ZM55.5823 64.5151C56.6047 64.5151 57.4368 65.3523 57.4368 66.3809C57.4368 67.4095 56.6047 68.2467 55.5823 68.2467C54.56 68.2467 53.7279 67.4095 53.7279 66.3809C53.7279 65.3523 54.5585 64.5151 55.5823 64.5151ZM50.3805 47.7712C50.3805 49.5698 48.9268 51.0324 47.1391 51.0324H23.9341C22.1464 51.0324 20.6927 49.5698 20.6927 47.7712V24.4233C20.6927 22.6247 22.1464 21.1622 23.9341 21.1622H47.1391C48.9268 21.1622 50.3805 22.6247 50.3805 24.4233V47.7712ZM59.9898 55.3966C59.9898 56.4252 59.1577 57.2624 58.1353 57.2624C57.113 57.2624 56.2809 56.4252 56.2809 55.3966C56.2809 54.368 57.113 53.5308 58.1353 53.5308C59.1577 53.5308 59.9898 54.368 59.9898 55.3966ZM66.3999 37.7614C65.3776 37.7614 64.5455 36.9242 64.5455 35.8956C64.5455 34.867 65.3776 34.0298 66.3999 34.0298C67.4223 34.0298 68.2544 34.867 68.2544 35.8956C68.2544 36.9242 67.4223 37.7614 66.3999 37.7614ZM25.4967 29.6043V42.5903C25.4967 43.0739 25.106 43.4669 24.6253 43.4669C24.1446 43.4669 23.754 43.0739 23.754 42.5903V29.6043C23.754 29.1206 24.1446 28.7276 24.6253 28.7276C25.106 28.7276 25.4967 29.1206 25.4967 29.6043ZM33.4418 33.8633C30.8103 33.8633 28.6683 36.0169 28.6683 38.6644C28.6683 41.3118 30.8089 43.4669 33.4418 43.4669C36.0732 43.4669 38.2138 41.3133 38.2138 38.6644C38.2152 36.0169 36.0732 33.8633 33.4418 33.8633ZM33.4418 41.7136C31.7703 41.7136 30.411 40.3461 30.411 38.6644C30.411 36.9827 31.7703 35.6166 33.4418 35.6166C35.1118 35.6166 36.4711 36.9841 36.4711 38.6644C36.4711 40.3446 35.1133 41.7136 33.4418 41.7136ZM47.3192 29.6043C47.3192 30.0879 46.9285 30.4809 46.4479 30.4809H43.1295V42.5903C43.1295 43.0739 42.7389 43.4669 42.2582 43.4669C41.7775 43.4669 41.3869 43.0739 41.3869 42.5903V30.4809H38.0685C37.5879 30.4809 37.1972 30.0879 37.1972 29.6043C37.1972 29.1206 37.5879 28.7276 38.0685 28.7276H46.4493C46.93 28.7276 47.3192 29.1206 47.3192 29.6043Z" fill="#DAB068"/>
</g>
<defs>
<clipPath id="clip0_41_108">
<rect width="70" height="70" fill="white"/>
</clipPath>
</defs>
</svg>
