<svg id="Layer" height="60" viewBox="0 0 60 60" width="60" xmlns="http://www.w3.org/2000/svg"><path d="m36.80524 57.55805h-30.14962v-49.11138l30.14962-7.19807z" fill="#ffcd69"/><path d="m18.51156 19.09374h-5.62v-7.11833h5.62zm10.50169-7.11833h-5.62v7.11833h5.62zm-10.50169 12.32341h-5.62v7.11833h5.62zm10.50169 0h-5.62v7.11833h5.62zm1.03275 18.35831h-11.53444v14.90519h11.53444z" fill="#e2e9ee"/><path d="m6.65562 14.99691v42.56109h-5.65562v-41.214z" fill="#628296"/><path d="m58.89574 37.88226a13.00316 13.00316 0 0 1 -9.10442 14.10054 1.12274 1.12274 0 0 0 -.68466.56736l-3.09531 6.20124-3.0961-6.20283a1.11854 1.11854 0 0 0 -.68231-.5653 12.99227 12.99227 0 1 1 16.6628-14.101z" fill="#ff7d97"/><path d="m51.01185 39.54927a5.0005 5.0005 0 1 1 -5.0005-5.0005 5.0005 5.0005 0 0 1 5.0005 5.0005z" fill="#e2e9ee"/><path d="m36.81 27.97a.99654.99654 0 0 0 1-1v-25.72a1.00209 1.00209 0 0 0 -1.24-.97l-30.15 7.19a.99774.99774 0 0 0 -.76.98v5.75l-4.89 1.17a1.00372 1.00372 0 0 0 -.77.97v41.22a1.003 1.003 0 0 0 1 1h35.81a1.003 1.003 0 0 0 1-1v-5.14a1 1 0 0 0 -2 0v4.14h-4.76v-13.9a.99655.99655 0 0 0 -1-1h-11.54a.99655.99655 0 0 0 -1 1v13.9h-9.85v-47.32l28.15-6.72v24.45a.99029.99029 0 0 0 1 1zm-31.15 28.59h-3.66v-39.43l3.66-.87zm13.85-12.9h9.54v12.9h-9.54zm-.99829-23.56622h-5.62011a.99974.99974 0 0 1 -1-1v-7.11819a.99974.99974 0 0 1 1-1h5.62012a.99974.99974 0 0 1 1 1v7.11816a.99974.99974 0 0 1 -1 1zm-4.62012-2h3.62012v-5.11819h-3.62011zm15.12158 2h-5.6201a.99974.99974 0 0 1 -1-1v-7.11819a.99973.99973 0 0 1 1-1h5.62011a.99973.99973 0 0 1 1 1v7.11816a.99974.99974 0 0 1 -1 1zm-4.62011-2h3.62011v-5.11819h-3.6201zm-5.88134 14.32322h-5.62012a.99974.99974 0 0 1 -1-1v-7.11817a.99974.99974 0 0 1 1-1h5.62012a.99974.99974 0 0 1 1 1v7.11817a.99974.99974 0 0 1 -1 1zm-4.62012-2h3.62012v-5.11817h-3.62012zm15.12158 2h-5.62011a.99973.99973 0 0 1 -1-1v-7.11817a.99973.99973 0 0 1 1-1h5.62011a.99973.99973 0 0 1 1 1v7.11817a.99973.99973 0 0 1 -1 1zm-4.62011-2h3.62011v-5.11817h-3.62011zm21.61816 15.1328a6.05193 6.05193 0 0 1 -5.52441-8.333 1 1 0 1 1 1.83691.791c-1.61991 3.76582 3.10989 7.19123 6.22947 4.62565a4.02629 4.02629 0 0 0 -3.00095-7.05826 1.00017 1.00017 0 1 1 -.23633-1.98633 6.00067 6.00067 0 1 1 .69531 11.96093zm0 14.20118a.99843.99843 0 0 1 -.89453-.55371l-3.09619-6.20215a14.01928 14.01928 0 0 1 -5.33985-23.86621 13.86528 13.86528 0 0 1 10.91846-3.47852 13.99252 13.99252 0 0 1 2.4834 27.28906.13973.13973 0 0 0 -.08252.0586l-3.09424 6.19922a.99843.99843 0 0 1 -.89453.55373zm-.01514-32.18946a11.85019 11.85019 0 0 0 -7.98095 3.05762 11.99227 11.99227 0 0 0 4.50879 20.40723 2.13 2.13 0 0 1 1.28613 1.07617l2.20117 4.40918 2.20068-4.4082a2.14051 2.14051 0 0 1 1.28663-1.07715 12.00733 12.00733 0 0 0 8.40478-13.02051 12.02827 12.02827 0 0 0 -10.52393-10.36719 12.475 12.475 0 0 0 -1.3833-.07715z"/></svg>