<svg width="819" height="369" viewBox="0 0 819 369" fill="none" xmlns="http://www.w3.org/2000/svg">
<path d="M410.55 300H439.95V306.45H429.1V335H421.4V306.45H410.55V300Z" fill="#BDCEFF"/>
<path d="M472.02 306.45H454.32V314.2H467.57V320.35H454.32V328.55H472.02V335H446.57V300H472.02V306.45Z" fill="#BDCEFF"/>
<path d="M477.636 317.5C477.636 314.9 478.069 312.517 478.936 310.35C479.836 308.15 481.069 306.25 482.636 304.65C484.203 303.05 486.069 301.817 488.236 300.95C490.403 300.083 492.753 299.65 495.286 299.65C499.053 299.65 502.336 300.567 505.136 302.4C507.936 304.233 509.969 306.8 511.236 310.1L504.636 311.75C504.003 310.417 503.203 309.35 502.236 308.55C501.269 307.717 500.203 307.117 499.036 306.75C497.869 306.35 496.636 306.15 495.336 306.15C493.336 306.15 491.586 306.65 490.086 307.65C488.586 308.617 487.419 309.95 486.586 311.65C485.786 313.35 485.386 315.3 485.386 317.5C485.386 319.733 485.786 321.7 486.586 323.4C487.419 325.1 488.586 326.433 490.086 327.4C491.586 328.367 493.336 328.85 495.336 328.85C496.669 328.85 497.936 328.65 499.136 328.25C500.369 327.85 501.486 327.183 502.486 326.25C503.519 325.317 504.386 324.067 505.086 322.5L511.586 324C510.253 327.7 508.169 330.517 505.336 332.45C502.503 334.383 499.153 335.35 495.286 335.35C492.753 335.35 490.403 334.917 488.236 334.05C486.069 333.183 484.203 331.967 482.636 330.4C481.069 328.8 479.836 326.917 478.936 324.75C478.069 322.55 477.636 320.133 477.636 317.5Z" fill="#BDCEFF"/>
<path d="M518.636 300H526.386V314H540.736V300H548.486V335H540.736V320.5H526.386V335H518.636V300Z" fill="#BDCEFF"/>
<path d="M586.323 300V335H578.523L564.323 312.25V335H556.573V300H564.423L578.573 322.85V300H586.323Z" fill="#BDCEFF"/>
<path d="M610.863 335.35C608.363 335.35 606.03 334.917 603.863 334.05C601.697 333.183 599.797 331.967 598.163 330.4C596.53 328.8 595.247 326.917 594.313 324.75C593.38 322.55 592.913 320.133 592.913 317.5C592.913 314.867 593.38 312.467 594.313 310.3C595.247 308.1 596.53 306.217 598.163 304.65C599.797 303.05 601.697 301.817 603.863 300.95C606.03 300.083 608.363 299.65 610.863 299.65C613.33 299.65 615.647 300.083 617.813 300.95C620.013 301.817 621.913 303.05 623.513 304.65C625.147 306.217 626.43 308.1 627.363 310.3C628.297 312.467 628.763 314.867 628.763 317.5C628.763 320.133 628.297 322.55 627.363 324.75C626.43 326.917 625.147 328.8 623.513 330.4C621.88 331.967 619.98 333.183 617.813 334.05C615.647 334.917 613.33 335.35 610.863 335.35ZM610.863 328.75C612.83 328.75 614.563 328.283 616.063 327.35C617.597 326.383 618.78 325.05 619.613 323.35C620.48 321.65 620.913 319.7 620.913 317.5C620.913 315.267 620.48 313.317 619.613 311.65C618.78 309.95 617.597 308.633 616.063 307.7C614.563 306.733 612.83 306.25 610.863 306.25C608.83 306.25 607.063 306.733 605.563 307.7C604.063 308.633 602.88 309.95 602.013 311.65C601.18 313.317 600.763 315.267 600.763 317.5C600.763 319.7 601.18 321.65 602.013 323.35C602.88 325.05 604.063 326.383 605.563 327.35C607.063 328.283 608.83 328.75 610.863 328.75Z" fill="#BDCEFF"/>
<path d="M643.079 300V328.55H658.479V335H635.329V300H643.079Z" fill="#BDCEFF"/>
<path d="M681.025 335.35C678.525 335.35 676.192 334.917 674.025 334.05C671.859 333.183 669.959 331.967 668.325 330.4C666.692 328.8 665.409 326.917 664.475 324.75C663.542 322.55 663.075 320.133 663.075 317.5C663.075 314.867 663.542 312.467 664.475 310.3C665.409 308.1 666.692 306.217 668.325 304.65C669.959 303.05 671.859 301.817 674.025 300.95C676.192 300.083 678.525 299.65 681.025 299.65C683.492 299.65 685.809 300.083 687.975 300.95C690.175 301.817 692.075 303.05 693.675 304.65C695.309 306.217 696.592 308.1 697.525 310.3C698.459 312.467 698.925 314.867 698.925 317.5C698.925 320.133 698.459 322.55 697.525 324.75C696.592 326.917 695.309 328.8 693.675 330.4C692.042 331.967 690.142 333.183 687.975 334.05C685.809 334.917 683.492 335.35 681.025 335.35ZM681.025 328.75C682.992 328.75 684.725 328.283 686.225 327.35C687.759 326.383 688.942 325.05 689.775 323.35C690.642 321.65 691.075 319.7 691.075 317.5C691.075 315.267 690.642 313.317 689.775 311.65C688.942 309.95 687.759 308.633 686.225 307.7C684.725 306.733 682.992 306.25 681.025 306.25C678.992 306.25 677.225 306.733 675.725 307.7C674.225 308.633 673.042 309.95 672.175 311.65C671.342 313.317 670.925 315.267 670.925 317.5C670.925 319.7 671.342 321.65 672.175 323.35C673.042 325.05 674.225 326.383 675.725 327.35C677.225 328.283 678.992 328.75 681.025 328.75Z" fill="#BDCEFF"/>
<path d="M730.691 311.3C729.725 309.533 728.491 308.25 726.991 307.45C725.525 306.617 723.875 306.2 722.041 306.2C720.108 306.2 718.358 306.7 716.791 307.7C715.258 308.667 714.041 310 713.141 311.7C712.275 313.4 711.841 315.333 711.841 317.5C711.841 319.767 712.275 321.75 713.141 323.45C714.008 325.117 715.225 326.433 716.791 327.4C718.358 328.333 720.191 328.8 722.291 328.8C723.591 328.8 724.791 328.583 725.891 328.15C726.991 327.683 727.975 327.05 728.841 326.25C729.708 325.45 730.441 324.533 731.041 323.5V321.3H722.041V315.2H738.291V324.9C737.491 326.733 736.325 328.45 734.791 330.05C733.258 331.617 731.408 332.9 729.241 333.9C727.075 334.867 724.608 335.35 721.841 335.35C719.241 335.35 716.858 334.917 714.691 334.05C712.525 333.183 710.641 331.95 709.041 330.35C707.441 328.75 706.191 326.867 705.291 324.7C704.425 322.5 703.991 320.1 703.991 317.5C703.991 314.9 704.425 312.517 705.291 310.35C706.191 308.15 707.425 306.25 708.991 304.65C710.591 303.05 712.475 301.817 714.641 300.95C716.808 300.083 719.191 299.65 721.791 299.65C724.225 299.65 726.508 300.033 728.641 300.8C730.808 301.567 732.691 302.683 734.291 304.15C735.891 305.583 737.075 307.333 737.841 309.4L730.691 311.3Z" fill="#BDCEFF"/>
<path d="M745.187 300H752.937V335H745.187V300Z" fill="#BDCEFF"/>
<path d="M786.553 306.45H768.853V314.2H782.103V320.35H768.853V328.55H786.553V335H761.103V300H786.553V306.45Z" fill="#BDCEFF"/>
<path d="M799.619 324.7C799.819 325.667 800.186 326.467 800.719 327.1C801.253 327.733 801.936 328.217 802.769 328.55C803.603 328.85 804.553 329 805.619 329C807.386 329 808.719 328.617 809.619 327.85C810.519 327.083 810.969 326.133 810.969 325C810.969 324.067 810.686 323.317 810.119 322.75C809.586 322.15 808.803 321.65 807.769 321.25C806.769 320.85 805.619 320.45 804.319 320.05C802.986 319.683 801.653 319.267 800.319 318.8C798.986 318.3 797.753 317.7 796.619 317C795.519 316.267 794.636 315.317 793.969 314.15C793.303 312.983 792.986 311.533 793.019 309.8C793.019 307.633 793.553 305.8 794.619 304.3C795.719 302.767 797.203 301.617 799.069 300.85C800.969 300.05 803.153 299.65 805.619 299.65C807.786 299.65 809.719 299.967 811.419 300.6C813.119 301.2 814.536 302.117 815.669 303.35C816.803 304.55 817.603 306.033 818.069 307.8L810.969 309.35C810.836 308.617 810.503 308 809.969 307.5C809.469 306.967 808.853 306.583 808.119 306.35C807.386 306.083 806.636 305.933 805.869 305.9C804.936 305.9 804.086 306.05 803.319 306.35C802.586 306.65 801.986 307.083 801.519 307.65C801.086 308.217 800.869 308.867 800.869 309.6C800.869 310.433 801.119 311.117 801.619 311.65C802.153 312.15 802.869 312.583 803.769 312.95C804.669 313.317 805.653 313.683 806.719 314.05C808.086 314.483 809.469 314.95 810.869 315.45C812.303 315.95 813.619 316.6 814.819 317.4C816.019 318.167 816.986 319.167 817.719 320.4C818.453 321.6 818.819 323.1 818.819 324.9C818.819 326.867 818.353 328.633 817.419 330.2C816.486 331.767 815.069 333.017 813.169 333.95C811.303 334.883 808.936 335.35 806.069 335.35C803.669 335.35 801.519 335 799.619 334.3C797.719 333.6 796.153 332.583 794.919 331.25C793.686 329.917 792.869 328.3 792.469 326.4L799.619 324.7Z" fill="#BDCEFF"/>
<mask id="mask0_109_1556" style="mask-type:luminance" maskUnits="userSpaceOnUse" x="169" y="0" width="27" height="16">
<path d="M169.786 0H195.708V15.4234H169.786V0Z" fill="white"/>
</mask>
<g mask="url(#mask0_109_1556)">
<path d="M177.169 10.4621C181.047 11.3953 186.211 12.6395 190.088 13.5805C191.537 12.1315 193.449 10.1692 194.754 8.59823C191.255 6.18758 187.688 4.29537 184.103 2.93964C181.037 2.57414 176.945 2.11011 173.867 1.79395C173.271 2.59486 172.367 3.58762 171.637 4.26422C173.462 5.8039 175.305 7.88288 177.169 10.4621Z" fill="#BDCEFF"/>
</g>
<mask id="mask1_109_1556" style="mask-type:luminance" maskUnits="userSpaceOnUse" x="296" y="0" width="45" height="42">
<path d="M296.803 0H340.87V41.3449H296.803V0Z" fill="white"/>
</mask>
<g mask="url(#mask1_109_1556)">
<path d="M302.2 31.6556C308.64 34.1258 317.235 37.4361 323.665 39.9271C328.71 36.0701 335.422 30.9064 340.445 27.0182C338.532 20.0815 336.504 13.4612 334.42 7.1907C328.355 5.03405 320.286 2.15936 314.221 0.0234375C309.08 3.86003 303.932 7.68782 298.779 11.5067C299.9 17.8937 301.033 24.6178 302.2 31.6556Z" fill="#BDCEFF"/>
</g>
<path d="M154.659 13.4381C157.606 14.4232 161.544 15.727 164.509 16.6601C166.94 14.9882 170.17 12.7513 172.56 11.0196C171.135 8.38594 169.735 6.25001 168.368 4.661C166.274 4.25406 163.47 3.71758 161.362 3.30273C159.662 4.22558 157.394 5.4491 155.683 6.36151C155.248 8.202 154.912 10.5737 154.659 13.4381Z" fill="#C8A56E"/>
<path d="M133.031 16.8827C134.874 17.9974 137.386 19.423 139.309 20.3951C142.549 18.5106 146.873 15.9885 150.123 14.1065C150.792 11.18 151.572 8.75114 152.462 6.84849C151.41 6.37149 150.013 5.74423 149.04 5.1377C146.417 6.21855 142.946 7.67803 140.344 8.81076C137.751 10.9986 135.307 13.7021 133.031 16.8827Z" fill="#C8A56E"/>
<path d="M113.672 20.5768C114.247 21.834 115.191 23.4437 116.051 24.5273C120.303 22.205 124.565 19.9032 128.838 17.6216C131.511 14.3711 134.357 11.5948 137.374 9.33712C137.284 8.67871 137.343 7.72992 137.667 7.15186C134.336 8.39624 129.922 10.0966 126.622 11.4239C122.014 14.0404 117.676 17.1061 113.672 20.5768Z" fill="#C8A56E"/>
<path d="M97.997 24.2834C97.3593 25.569 96.6101 27.3603 96.3561 28.7678C100.923 26.2547 105.51 23.7774 110.115 21.3361C114.475 17.7811 119.161 14.6454 124.11 11.9706C125.215 11.0479 126.783 9.92275 128.04 9.22559C123.844 10.7836 119.668 12.3942 115.512 14.0573C109.405 16.9837 103.547 20.4037 97.997 24.2834Z" fill="#C8A56E"/>
<path d="M203.231 26.9068C208.557 28.4542 215.665 30.5409 220.992 32.1299C223.16 29.9628 225.995 27.0183 227.991 24.6775C224.042 20.7874 219.795 17.2123 215.289 13.9848C210.14 12.7724 204.984 11.5947 199.819 10.4517C198.212 12.2989 196.54 14.0887 194.806 15.8175C197.662 19.0472 200.468 22.7541 203.231 26.9068Z" fill="#C8A56E"/>
<path d="M249.181 36.2519C255.165 38.3256 263.146 41.1018 269.129 43.1988C273.379 39.7654 277.6 36.2987 281.796 32.7991C279.037 27.4337 276.013 22.2092 272.735 17.1451C266.683 15.2772 260.628 13.4246 254.569 11.5874C250.97 14.5005 247.346 17.3797 243.694 20.2246C245.668 25.5166 247.497 30.861 249.181 36.2519Z" fill="#C8A56E"/>
<path d="M170.425 30.7745C175.114 32.3039 181.371 34.3283 186.068 35.8474C189.602 33.1333 193.11 30.3855 196.591 27.6042C194.402 23.7266 191.979 19.9869 189.333 16.4062C185.341 15.3718 180.034 14.0058 176.056 12.9741C173.282 15.017 170.491 17.0355 167.683 19.0294C168.55 22.4821 169.463 26.4119 170.425 30.7745Z" fill="#C8A56E"/>
<path d="M87.706 30.1392C85.9093 31.5872 83.5599 33.5918 81.9535 35.2467C86.3795 32.6043 90.8448 30.0273 95.3479 27.5164C101.113 23.6298 107.171 20.1916 113.469 17.2326C115.846 16.0532 118.261 14.9519 120.71 13.9307C116.463 15.5781 112.246 17.2979 108.058 19.0891C101.021 22.2922 94.2201 25.9847 87.706 30.1392Z" fill="#C8A56E"/>
<path d="M137.88 35.5124C142.087 37.256 146.31 38.9608 150.548 40.6267C154.498 37.9516 159.742 34.3796 163.682 31.6838C163.086 27.2693 162.558 23.2904 162.1 19.778C158.685 18.6278 155.279 17.4458 151.885 16.2319C148.554 18.2486 144.098 20.9316 140.757 22.9456C139.572 27.0796 138.612 31.2747 137.88 35.5124Z" fill="#C8A56E"/>
<path d="M107.655 40.7775C110.31 42.4494 113.902 44.6139 116.647 46.1354C121.072 43.2478 126.995 39.4217 131.441 36.5548C132.509 32.2277 133.843 27.9703 135.433 23.8066C133.416 22.7153 130.751 21.2248 128.818 19.9805C124.891 22.158 119.667 25.0845 115.756 27.3008C112.71 31.5767 110.001 36.0808 107.655 40.7775Z" fill="#C8A56E"/>
<path d="M86.4024 28.2805C90.202 25.8581 94.093 23.5822 98.067 21.458C92.4681 24.6878 85.0751 29.123 79.6783 32.6768L78.7451 33.3248C81.0365 31.8058 84.0746 29.7477 86.4024 28.2805Z" fill="#C8A56E"/>
<path d="M81.8065 46.2365C83.2767 48.2545 84.8722 50.1782 86.5838 51.9963C91.172 48.9376 97.3076 44.8885 101.945 41.8921C104.619 37.1082 107.659 32.5385 111.038 28.2236C110.126 27.0182 108.972 25.3462 108.366 23.9595C103.684 26.5427 99.0225 29.1618 94.381 31.8163C89.8329 36.3 85.6295 41.1204 81.8065 46.2365Z" fill="#C8A56E"/>
<path d="M62.4044 51.5531C62.2749 53.435 62.2749 55.9779 62.5858 57.8391C66.9511 54.6506 72.8041 50.4254 77.2498 47.3486C81.3301 42.1518 85.7941 37.2683 90.6045 32.7391C90.8689 31.2615 91.3951 29.2967 92.0432 27.9385C87.4385 30.6365 82.8674 33.3912 78.3306 36.2022C72.6701 40.9402 67.3484 46.0689 62.4044 51.5504" fill="#C8A56E"/>
<path d="M52.3378 55.9651C50.7385 58.0233 48.6932 60.8461 47.3763 63.1065C51.3499 59.5058 55.398 55.9884 59.518 52.5564C64.6219 47.0061 70.1101 41.822 75.9419 37.0423C77.7636 35.1046 79.6836 33.2619 81.694 31.521C77.7387 34.2195 73.8394 36.9989 69.9982 39.8574C63.7587 44.8276 57.8588 50.2071 52.3378 55.9651Z" fill="#C8A56E"/>
<path d="M156.46 61.8271C161.669 63.7431 168.623 66.2978 173.848 68.1892C178.26 65.0204 184.141 60.7806 188.534 57.5849C187.173 52.458 185.709 47.3582 184.141 42.2886C179.482 40.7729 173.271 38.739 168.613 37.1841C164.71 39.8616 159.506 43.4136 155.591 46.0617C155.796 50.945 156.09 56.2117 156.46 61.8271Z" fill="#C8A56E"/>
<path d="M410.604 255.305V41.8995H453.692V125.893H538.121V41.8995H581.211V255.305H538.121V161.994H453.692V255.305H410.604ZM725.179 176.842V140.887H818.052V225.899C809.027 234.634 795.926 242.349 778.748 249.045C761.669 255.644 744.346 258.943 726.78 258.943C704.46 258.943 685.002 254.285 668.407 244.968C651.812 235.555 639.341 222.163 630.995 204.791C622.649 187.324 618.477 168.351 618.477 147.875C618.477 125.651 623.135 105.902 632.452 88.6274C641.768 71.3532 655.403 58.1062 673.356 48.8868C687.04 41.8024 704.072 38.2603 724.45 38.2603C750.945 38.2603 771.616 43.8404 786.464 55.0008C801.409 66.0641 811.016 81.3974 815.287 101.001L772.489 109.007C769.481 98.5261 763.803 90.2772 755.457 84.2603C747.208 78.1463 736.873 75.0895 724.45 75.0895C705.624 75.0895 690.631 81.0578 679.471 92.9945C668.407 104.931 662.875 122.642 662.875 146.128C662.875 171.456 668.504 190.477 679.761 203.191C691.019 215.807 705.77 222.114 724.014 222.114C733.039 222.114 742.065 220.367 751.091 216.875C760.212 213.284 768.025 208.965 774.527 203.918V176.842H725.179Z" fill="#BDCEFF"/>
<path d="M115.31 67.8629C120.302 70.1462 125.315 72.3841 130.347 74.5765C135.34 71.0123 142.002 66.2634 147.004 62.7201C146.901 56.7657 146.914 51.159 147.036 45.9513C142.655 44.1827 138.29 42.3743 133.942 40.5259C129.406 43.5225 123.351 47.5117 118.825 50.5291C117.395 56.2515 116.222 62.0353 115.31 67.8629Z" fill="#BDCEFF"/>
<path d="M79.4169 74.719C82.7376 76.8549 87.2039 79.6388 90.6254 81.6245C95.6802 77.8788 102.443 72.9149 107.545 69.2416C108.709 63.3441 110.166 57.508 111.91 51.755C108.737 49.9478 105.611 48.06 102.534 46.0938C97.2908 49.5681 92.0718 53.0789 86.8773 56.6257C84.0252 62.4995 81.5339 68.5419 79.4169 74.719Z" fill="#C8A56E"/>
<path d="M50.3558 81.594C52.2377 83.8751 54.8506 86.8197 56.9658 88.8858C62.2103 84.5802 67.5003 80.3306 72.8351 76.1374C75.1805 69.8906 77.9128 63.7959 81.0159 57.8886C79.3958 56.1597 77.2779 53.78 75.9119 51.8359C70.9031 55.4181 65.9345 59.056 61.0069 62.749C57.0429 68.7882 53.4837 75.0835 50.3532 81.594" fill="#C8A56E"/>
<path d="M229.964 87.4781C237.341 90.3732 244.707 93.3023 252.057 96.2655C256.806 92.3156 261.501 88.3027 266.143 84.2275C263.398 77.576 260.34 71.058 256.979 64.6956C250.068 62.084 243.135 59.5323 236.18 57.041C231.9 60.6337 227.594 64.1937 223.261 67.7207C225.598 73.96 227.849 80.5622 229.964 87.4781Z" fill="#BDCEFF"/>
<path d="M31.2106 87.9004C31.2987 90.3112 31.6253 93.5332 32.2111 95.8714C36.1202 91.9312 41.4134 86.7391 45.4959 82.9726C48.7931 76.3952 52.5308 70.0481 56.6837 63.9748C56.3805 62.0125 56.1575 59.3373 56.3389 57.3647C52.5621 60.5945 47.5801 64.9676 43.9666 68.3607C39.2803 74.5814 35.0178 81.1102 31.2079 87.903" fill="#C8A56E"/>
<path d="M20.1112 101.582C22.623 97.7351 26.0731 92.6829 28.8467 89.0176C32.7504 82.1835 37.1008 75.6146 41.8698 69.3535C43.2178 67.0336 45.1514 64.0163 46.7716 61.8804L44.1691 64.8172L38.0827 72.3501C27.3615 87.5091 27.1593 87.7993 22.4908 96.3173V96.338C21.7701 97.9063 20.697 99.9514 20.1112 101.582Z" fill="#C8A56E"/>
<path d="M134.458 100.063C140.342 102.484 148.189 105.693 154.081 108.083C159.499 103.992 166.73 98.5437 172.156 94.474C171.195 87.4078 170.282 80.6527 169.41 74.2345C163.934 72.1685 156.645 69.3923 151.175 67.2979C145.535 71.3387 139.901 75.3884 134.274 79.4473C134.196 86.0081 134.248 92.8954 134.458 100.063Z" fill="#BDCEFF"/>
<path d="M90.2801 107.769C95.8075 110.47 101.357 113.126 106.927 115.738C112.94 110.991 118.978 106.275 125.041 101.592C125.017 94.6804 125.173 87.7691 125.508 80.8653C120.405 78.6061 115.325 76.2973 110.268 73.939C104.531 78.1324 98.8168 82.3578 93.1263 86.6147C91.8755 93.6223 90.9258 100.68 90.2801 107.769Z" fill="#BDCEFF"/>
<path d="M52.5011 115.748C56.2365 118.26 61.2704 121.539 65.1172 123.888C70.6774 118.998 76.2871 114.165 81.9454 109.39C82.7449 102.255 83.8806 95.1616 85.349 88.1339C81.9067 86.0601 77.3392 83.245 73.9953 81.0054C68.5912 85.3008 63.232 89.6524 57.9187 94.0594C55.6984 101.179 53.8895 108.421 52.5011 115.748Z" fill="#C8A56E"/>
<path d="M24.1587 123.504C26.3155 126.158 29.3145 129.601 31.7331 132.019C35.8961 127.566 41.5159 121.671 45.8397 117.368C47.361 109.991 49.3216 102.712 51.7108 95.5682C49.6163 93.4011 46.8816 90.4435 45.0386 88.0562C40.9067 91.9522 35.471 97.2194 31.5101 101.289C28.5843 108.528 26.1287 115.949 24.1587 123.504Z" fill="#C8A56E"/>
<path d="M214.703 130.633C221.539 133.562 230.643 137.498 237.447 140.496C242.802 136.263 249.942 130.594 255.275 126.33C253.588 118.58 251.65 110.888 249.465 103.264C242.062 100.234 234.643 97.2432 227.208 94.293C222.127 98.2408 215.352 103.495 210.258 107.425C211.853 115.138 213.336 122.875 214.703 130.633Z" fill="#BDCEFF"/>
<path d="M9.43582 129.956C9.57838 132.79 9.96462 136.565 10.5919 139.339C13.2644 134.945 16.9609 129.165 19.9366 124.963C21.9953 117.366 24.5462 109.911 27.5731 102.645C27.1066 100.206 26.6607 96.8953 26.6919 94.4146C23.9078 98.1991 20.2918 103.324 17.7904 107.292C14.5061 114.653 11.7134 122.224 9.43582 129.956Z" fill="#C8A56E"/>
<path d="M314.209 136.526C320.638 139.725 329.204 144.018 335.595 147.32C341.696 142.592 347.754 137.808 353.77 132.973C353.354 128.698 352.852 124.408 352.262 120.103C351.664 115.8 350.996 111.554 350.255 107.365C343.09 103.679 335.876 100.088 328.616 96.5923C323.24 100.895 316.07 106.624 310.683 110.919C311.365 115.113 312 119.363 312.588 123.667C313.185 127.97 313.711 132.256 314.209 136.526Z" fill="#BDCEFF"/>
<path d="M162.78 137.478C169.483 140.273 178.414 144.01 185.107 146.822C190.789 142.339 198.37 136.376 204.073 131.918C202.797 124.151 201.436 116.398 199.991 108.661C193.5 106.121 184.846 102.725 178.344 100.195C172.253 104.798 166.17 109.412 160.095 114.037C160.906 121.59 161.806 129.419 162.78 137.478Z" fill="#BDCEFF"/>
<path d="M68.2362 153.951C74.0974 156.988 79.9843 159.976 85.8966 162.912C91.618 157.597 97.3928 152.339 103.22 147.138C102.746 139.226 102.517 131.3 102.533 123.374C96.9033 120.708 91.2996 117.987 85.723 115.211C80.013 120.072 74.3496 124.987 68.7339 129.956C68.2077 137.743 68.0341 145.749 68.2362 153.951Z" fill="#C8A56E"/>
<path d="M32.0784 162.508C36.5175 165.631 41.0176 168.666 45.5758 171.611C50.3086 166.23 55.1324 160.931 60.0452 155.714C59.9157 147.502 60.1749 139.472 60.8151 131.657C56.9477 129.235 51.8333 125.935 48.0877 123.333C43.7328 127.739 37.9807 133.66 33.7997 138.227C32.7568 146.281 32.1822 154.387 32.0784 162.508Z" fill="#C8A56E"/>
<path d="M8.25307 170.356C10.4097 173.364 13.4374 177.262 15.918 179.984C18.8136 175.176 22.8132 168.827 26.0327 164.219C26.1795 156.075 26.8183 147.946 27.9458 139.879C25.5557 137.367 22.4582 133.934 20.3922 131.159C17.3852 135.474 13.4763 141.293 10.7752 145.812C9.39401 153.93 8.55145 162.128 8.25307 170.356Z" fill="#C8A56E"/>
<mask id="mask2_109_1556" style="mask-type:luminance" maskUnits="userSpaceOnUse" x="0" y="137" width="10" height="53">
<path d="M0 137.255H9.07257V189.098H0V137.255Z" fill="white"/>
</mask>
<g mask="url(#mask2_109_1556)">
<path d="M0.153576 176.329C0.324659 179.499 0.760143 183.722 1.41855 186.83C2.40098 182.253 3.89926 176.196 5.32754 171.744C5.64848 163.494 6.52402 155.277 7.9482 147.147C7.42199 144.292 6.89579 140.433 6.86468 137.537C5.63082 141.348 4.03923 146.449 3.17086 150.347L3.15011 150.428C2.33877 155.947 1.17489 163.308 0.63831 168.858L0.153576 176.329Z" fill="#C8A56E"/>
</g>
<path d="M142.74 186.821C150.178 190.003 157.621 193.175 165.068 196.339C170.719 191.631 178.281 185.373 183.974 180.705L182.2 167.866L180.449 155.097C173 151.925 165.547 148.762 158.091 145.609C151.769 150.777 145.478 155.983 139.217 161.222C139.725 165.438 140.275 169.697 140.868 174.001C141.461 178.306 142.085 182.58 142.74 186.821Z" fill="#BDCEFF"/>
<path d="M94.4328 195.244C101.355 198.343 108.293 201.403 115.248 204.428C120.938 199.072 126.671 193.759 132.444 188.492C131.777 184.248 131.146 179.974 130.552 175.671C129.961 171.367 129.42 167.108 128.929 162.891C122.035 159.848 115.151 156.784 108.275 153.7C102.433 158.953 96.6433 164.266 90.9075 169.637C91.3396 173.867 91.8528 178.136 92.4473 182.447C93.0331 186.743 93.695 191.009 94.4328 195.244Z" fill="#C8A56E"/>
<path d="M246.469 194.324C252.898 196.896 261.485 200.317 267.914 202.87C273.437 197.918 278.997 193.008 284.591 188.137C283.093 180.028 281.679 171.904 280.348 163.765C273.676 160.961 264.796 157.212 258.133 154.387C252.352 159.6 246.61 164.859 240.911 170.163C242.591 178.406 244.455 186.467 246.469 194.321" fill="#BDCEFF"/>
<path d="M53.1082 203.974C58.4663 206.746 65.644 210.401 71.0718 213.035C75.744 207.638 80.4863 202.303 85.2976 197.029C84.5558 192.773 83.8877 188.507 83.2939 184.229C82.7112 179.969 82.2083 175.699 81.7853 171.421C75.8631 168.433 69.9666 165.395 64.0964 162.306C59.6716 167.066 53.8392 173.453 49.5854 178.365C49.9483 182.609 50.4356 186.882 51.0241 191.196C51.6116 195.489 52.3064 199.746 53.1082 203.974Z" fill="#BDCEFF"/>
<path d="M22.1041 212.459C26.1454 215.302 31.6123 219.009 35.8063 221.622C38.7019 216.793 42.6704 210.414 45.82 205.745C45.0067 201.505 44.304 197.243 43.7125 192.966C43.1279 188.703 42.655 184.425 42.2946 180.136C38.2042 177.441 32.7865 173.779 28.8282 170.9C25.6295 175.6 21.4769 181.949 18.5892 186.85C18.902 191.101 19.3548 195.386 19.9475 199.699C20.536 203.992 21.2643 208.254 22.1041 212.459Z" fill="#C8A56E"/>
<path d="M6.00307 219.505C8.08976 222.574 11.037 226.564 13.4685 229.358C14.4794 224.721 16.0192 218.575 17.4863 214.06C16.628 209.831 15.9053 205.576 15.3192 201.301C14.7288 197.034 14.2767 192.748 13.9636 188.452C11.584 185.615 8.51488 181.738 6.4904 178.641C5.1036 183.166 3.41091 189.26 2.4907 193.9C2.77238 198.168 3.21131 202.458 3.80751 206.767C4.39207 211.038 5.12436 215.286 6.00307 219.505Z" fill="#C8A56E"/>
<path d="M175.629 227.078C182.778 230.086 189.917 233.116 197.047 236.172C202.583 231.809 209.987 226.017 215.554 221.703C214.8 213.489 213.967 205.283 213.053 197.088C206.339 194.101 197.388 190.13 190.656 187.186C184.331 192.316 178.026 197.474 171.742 202.655C172.986 210.805 174.282 218.945 175.629 227.078Z" fill="#BDCEFF"/>
<path d="M321.935 232.689C327.2 235.707 332.423 238.803 337.599 241.974C343.631 237.89 349.649 233.784 355.653 229.661C357.041 222.201 358.144 214.505 358.956 206.627C353.294 203.042 347.568 199.558 341.783 196.176L322.777 209.878C322.691 217.487 322.411 225.094 321.935 232.689Z" fill="#BDCEFF"/>
<path d="M84.2039 243.008C90.9092 245.767 97.6264 248.498 104.355 251.199C108.846 246.21 113.406 241.285 118.034 236.424C115.843 228.446 113.881 220.407 112.15 212.316C105.227 209.338 98.3184 206.324 91.4257 203.275C87.0916 207.983 81.3499 214.302 77.1584 219.131C79.1735 227.184 81.524 235.151 84.2039 243.008Z" fill="#BDCEFF"/>
<path d="M84.2039 243.008C90.9092 245.767 97.6264 248.498 104.355 251.199C108.846 246.21 113.406 241.285 118.034 236.424C115.843 228.446 113.881 220.407 112.15 212.316C105.227 209.338 98.3184 206.324 91.4257 203.275C87.0916 207.983 81.3499 214.302 77.1584 219.131C79.1735 227.184 81.524 235.151 84.2039 243.008Z" fill="#BDCEFF"/>
<path d="M49.2507 251.278C54.4559 253.75 61.421 256.989 66.6779 259.331C69.4619 254.884 73.2697 249.001 76.2871 244.71C73.4872 236.886 71.0438 228.94 68.9642 220.893C62.9702 217.994 57.0129 215.02 51.0937 211.972C47.965 216.63 43.8616 222.886 40.9895 227.698C43.3003 235.707 46.0584 243.579 49.2507 251.278Z" fill="#C8A56E"/>
<path d="M270.951 249.224C276.431 251.725 283.72 255.097 289.149 257.71C294.373 253.851 301.339 248.717 306.593 244.91C306.816 237.558 306.878 229.967 306.775 222.169C300.173 218.929 293.547 215.736 286.901 212.589C280.756 217.301 274.63 222.037 268.523 226.796C269.393 234.503 270.203 241.986 270.951 249.224Z" fill="#C8A56E"/>
<path d="M26.2155 258.874C29.9637 261.456 35.0469 264.807 38.9637 267.156C40.1094 262.832 41.8306 257.124 43.3989 252.94C40.1289 245.262 37.3031 237.402 34.9354 229.399C30.8139 226.796 25.3652 223.232 21.4277 220.356C19.958 224.852 18.1564 230.918 17.1532 235.545C19.6697 243.507 22.6967 251.301 26.2155 258.874Z" fill="#C8A56E"/>
<path d="M18.3783 264.646C20.3535 267.42 23.1376 271.023 25.4265 273.545C24.6047 269.577 23.7052 264.239 23.3786 260.211C19.8248 252.655 16.7683 244.876 14.2283 236.92C11.8954 234.116 8.90144 230.269 6.9262 227.189C7.36169 231.514 8.13156 237.266 9.05178 241.519C11.6266 249.433 14.7428 257.16 18.3783 264.646Z" fill="#C8A56E"/>
<path d="M160.726 271.755C166.627 274.082 174.487 277.19 180.368 279.571C185.494 275.185 190.656 270.841 195.851 266.539C194.858 259.341 193.816 251.888 192.751 244.202C185.7 241.231 178.642 238.274 171.579 235.333C166.03 240.112 160.517 244.936 155.044 249.801C156.809 257.151 158.703 264.47 160.726 271.755Z" fill="#C8A56E"/>
<path d="M119.563 278.933L139.461 286.213C143.561 281.807 147.726 277.463 151.955 273.181C149.692 265.942 147.586 258.657 145.638 251.328C139.269 248.84 130.793 245.497 124.424 242.986C120.302 247.29 114.856 253.07 110.875 257.498C113.515 264.745 116.413 271.893 119.563 278.933Z" fill="#C8A56E"/>
<path d="M84.367 286.364C90.6282 288.697 96.8996 291.003 103.181 293.28C105.669 289.363 109.083 284.208 111.787 280.442C108.422 273.462 105.335 266.352 102.533 259.128C95.8799 256.499 89.2404 253.837 82.6147 251.14C79.6675 255.381 75.8103 261.093 73.0963 265.487C76.4967 272.632 80.2585 279.601 84.367 286.364Z" fill="#C8A56E"/>
<path d="M227.32 298.698C231.298 300.944 236.574 303.972 240.463 306.363C245.242 303.122 251.611 298.819 256.411 295.62C257.993 289.192 259.367 282.437 260.533 275.42C255.451 272.33 250.323 269.316 245.151 266.378C239.375 270.526 233.613 274.694 227.867 278.883C227.816 285.491 227.632 292.097 227.32 298.698Z" fill="#BDCEFF"/>
<path d="M44.2304 299.601C47.6727 301.816 52.3102 304.681 55.8743 306.687C55.1149 303.205 54.2828 298.507 54.021 294.963C49.1137 288.49 44.6062 281.722 40.5237 274.7C36.7261 272.371 31.7128 269.174 28.0891 266.592C28.4624 270.55 29.1518 275.815 30.0228 279.692C34.3235 286.628 39.071 293.278 44.2304 299.601Z" fill="#C8A56E"/>
<path d="M190.099 303.61C194.837 305.655 201.146 308.409 205.843 310.546C210.432 306.866 215.053 303.223 219.706 299.621C219.665 293.374 219.533 286.79 219.309 279.915C213.363 277.12 207.396 274.369 201.408 271.665C196.259 275.868 191.142 280.11 186.058 284.392C187.416 291.113 188.762 297.534 190.099 303.61Z" fill="#C8A56E"/>
<path d="M50.568 311.436C48.1884 308.286 45.14 303.996 43.1026 300.621C37.9133 294.328 33.1422 287.702 28.8197 280.786C26.6294 278.274 23.8247 274.823 21.9635 272.068L23.4618 274.893L23.8765 275.632C33.96 291.944 33.96 291.944 39.9972 299.548L47.1774 308.045L50.568 311.436Z" fill="#C8A56E"/>
<path d="M154.313 309.31C159.539 311.184 166.498 313.692 171.7 315.608C175.27 311.924 178.9 308.299 182.586 304.732C180.843 298.394 179.192 292.032 177.636 285.646C171.192 283.094 164.742 280.563 158.283 278.051C154.087 282.235 149.952 286.482 145.879 290.789C148.484 297.054 151.298 303.231 154.313 309.31Z" fill="#C8A56E"/>
<path d="M96.387 321.563C102.097 323.384 107.814 325.178 113.539 326.949C114.257 323.831 115.372 319.711 116.435 316.692C111.767 311.052 107.398 305.171 103.344 299.074C97.1502 296.871 90.966 294.64 84.7923 292.381C83.4652 295.984 81.8061 300.833 80.8341 304.551C85.6819 310.521 90.8751 316.2 96.387 321.563Z" fill="#C8A56E"/>
<path d="M79.3051 327.184C83.6676 328.843 89.5 330.979 93.9145 332.487C93.1575 329.622 92.3359 325.735 92.0533 322.788C86.3574 317.491 80.9846 311.857 75.9637 305.917C70.6131 303.816 65.2925 301.639 60.0038 299.385C60.2992 302.85 60.8643 307.477 61.6447 310.869C67.1845 316.67 73.0829 322.12 79.3051 327.184Z" fill="#C8A56E"/>
<path d="M73.5006 331.466C77.0565 333.416 80.6663 335.266 84.3255 337.013C82.0703 334.473 79.1515 330.968 77.2074 328.173C70.8981 323.163 64.9155 317.755 59.2955 311.983C55.822 310.01 51.2261 307.297 47.8953 305.098C49.9172 308.36 52.7633 312.641 55.1247 315.67C60.9023 321.327 67.0413 326.603 73.5032 331.466" fill="#C8A56E"/>
<path d="M212.467 334.778C214.471 335.788 217.133 337.185 219.059 338.349C221.047 336.54 223.079 334.778 225.153 333.063C225.832 329.723 226.421 325.904 226.906 321.644C223.751 319.78 220.563 317.981 217.337 316.246C214.797 318.546 211.433 321.644 208.994 324.061C210.187 328.092 211.352 331.68 212.467 334.778Z" fill="#BDCEFF"/>
<path d="M137.333 344.273C142.025 345.458 148.272 347.028 152.948 348.192C153.101 345.925 153.474 342.896 154 340.681C149.445 336.349 145.152 331.75 141.144 326.909L123.634 321.452C122.7 324.346 121.567 328.267 120.989 331.25C126.154 335.936 131.613 340.286 137.333 344.273Z" fill="#C8A56E"/>
<path d="M121.295 348.668C125.883 349.742 132.019 351.149 136.625 352.17C135.541 350.156 134.245 347.373 133.566 345.195C127.589 341.285 121.867 337 116.434 332.364C110.827 330.703 105.228 329.016 99.6373 327.302C100.042 330.106 100.752 333.855 101.6 336.556C107.896 341.014 114.475 345.06 121.295 348.668Z" fill="#C8A56E"/>
<path d="M112.962 352.314C116.941 353.398 122.268 354.785 126.278 355.747C123.971 353.994 120.964 351.534 118.906 349.5C111.922 345.959 105.174 341.972 98.705 337.56C93.9197 335.968 89.1599 334.3 84.4274 332.557C86.4337 335.191 89.228 338.605 91.5273 340.973C98.4196 345.214 105.578 349.003 112.962 352.314Z" fill="#C8A56E"/>
<path d="M185.695 350.175C189.28 350.885 194.068 351.826 197.653 352.534C197.117 351.261 196.559 349.467 196.447 348.09C192.751 345.408 189.075 342.227 185.461 338.593C180.7 337.196 175.933 335.816 171.163 334.451C170.749 336.558 170.314 339.401 170.293 341.54C175.184 344.831 180.335 347.719 185.695 350.175Z" fill="#C8A56E"/>
<path d="M112.76 354.894C116.238 356.158 119.746 357.337 123.282 358.43C119.938 356.881 115.505 354.722 112.275 352.934C104.846 349.669 97.6376 345.925 90.6958 341.723C87.4556 340.235 83.1733 338.19 80.0342 336.507C83.1137 338.716 87.274 341.621 90.4935 343.625L95.2735 346.381C100.946 349.529 106.783 352.37 112.76 354.894Z" fill="#C8A56E"/>
<path d="M156.024 364.261C160.118 364.707 165.585 365.271 169.697 365.647C167.185 364.787 163.874 363.533 161.485 362.38C154.409 360.433 147.481 357.979 140.757 355.038C136.242 354.105 130.225 352.84 125.731 351.836C127.828 353.712 130.733 356.101 133.051 357.701C140.552 360.405 148.228 362.596 156.024 364.261Z" fill="#C8A56E"/>
<path d="M153.534 366.095C157.345 366.499 162.415 366.996 166.234 367.289C162.881 366.603 158.426 365.6 155.126 364.687C147.207 363.087 139.406 360.952 131.776 358.297C127.388 357.313 123.013 356.273 118.652 355.179C121.874 356.812 126.216 358.886 129.539 360.286C137.398 362.757 145.415 364.698 153.534 366.095Z" fill="#C8A56E"/>
<mask id="mask3_109_1556" style="mask-type:luminance" maskUnits="userSpaceOnUse" x="167" y="367" width="6" height="2">
<path d="M167.194 367.958H172.378V369H167.194V367.958Z" fill="white"/>
</mask>
<g mask="url(#mask3_109_1556)">
<path d="M170.233 369.031L168.024 368.839L169.564 368.961L170.233 369.031Z" fill="#BDCEFF"/>
</g>
</svg>
