<svg width="564" height="261" viewBox="0 0 564 261" fill="none" xmlns="http://www.w3.org/2000/svg">
<mask id="mask0_117_922" style="mask-type:luminance" maskUnits="userSpaceOnUse" x="113" y="12" width="19" height="12">
<path d="M113.902 12.7273H131.292V23.0742H113.902V12.7273Z" fill="white"/>
</mask>
<g mask="url(#mask0_117_922)">
<path d="M118.855 19.7458C121.457 20.3718 124.921 21.2065 127.522 21.8378C128.494 20.8657 129.777 19.5493 130.652 18.4954C128.305 16.8782 125.912 15.6088 123.507 14.6993C121.45 14.4541 118.705 14.1428 116.64 13.9307C116.24 14.468 115.634 15.134 115.144 15.5879C116.368 16.6208 117.605 18.0155 118.855 19.7458Z" fill="#2C385B"/>
</g>
<path d="M103.754 21.7425C105.731 22.4033 108.373 23.278 110.362 23.904C111.993 22.7824 114.16 21.2817 115.763 20.12C114.807 18.3532 113.868 16.9203 112.951 15.8543C111.546 15.5813 109.665 15.2214 108.251 14.9431C107.11 15.5622 105.589 16.383 104.441 16.9951C104.149 18.2298 103.924 19.8209 103.754 21.7425Z" fill="#C8A56E"/>
<path d="M89.2446 24.0533C90.481 24.8011 92.1661 25.7575 93.4564 26.4096C95.6301 25.1454 98.5307 23.4534 100.711 22.1909C101.16 20.2276 101.683 18.5982 102.28 17.3218C101.574 17.0018 100.637 16.581 99.9845 16.1741C98.2247 16.8992 95.8962 17.8783 94.1503 18.6382C92.4113 20.1059 90.7714 21.9196 89.2446 24.0533Z" fill="#C8A56E"/>
<path d="M76.2573 26.5313C76.6434 27.3747 77.2764 28.4546 77.8537 29.1815C80.7057 27.6236 83.5652 26.0794 86.432 24.5488C88.2249 22.3682 90.1343 20.5057 92.1584 18.9911C92.0976 18.5494 92.1376 17.9129 92.3549 17.5251C90.1204 18.3599 87.1589 19.5006 84.9452 20.391C81.8539 22.1463 78.9437 24.203 76.2573 26.5313Z" fill="#C8A56E"/>
<path d="M65.7419 29.0179C65.3141 29.8804 64.8115 31.0821 64.6411 32.0263C67.7049 30.3404 70.7818 28.6785 73.8716 27.0407C76.7965 24.6558 79.94 22.5522 83.2602 20.7578C84.001 20.1388 85.0531 19.384 85.8965 18.9163C83.0816 19.9615 80.2799 21.042 77.4921 22.1577C73.3952 24.1209 69.4654 26.4152 65.7419 29.0179Z" fill="#C8A56E"/>
<path d="M58.8381 32.9464C57.6328 33.9178 56.0567 35.2626 54.979 36.3728C57.9482 34.6001 60.9438 32.8713 63.9647 31.1869C67.832 28.5795 71.8963 26.273 76.1215 24.2879C77.7157 23.4967 79.3358 22.7579 80.979 22.0728C78.1302 23.178 75.3006 24.3317 72.4917 25.5334C67.7706 27.6822 63.2081 30.1593 58.8381 32.9464Z" fill="#C8A56E"/>
<path d="M57.9636 31.6995C60.5126 30.0744 63.1229 28.5476 65.7889 27.1226C62.0328 29.2893 57.0732 32.2647 53.4527 34.6488L52.8267 35.0835C54.3639 34.0645 56.402 32.6838 57.9636 31.6995Z" fill="#C8A56E"/>
<path d="M167.165 37.047C171.179 38.4382 176.533 40.3006 180.547 41.7074C183.398 39.4041 186.23 37.0784 189.045 34.7307C187.194 31.1313 185.165 27.6264 182.966 24.2291C178.906 22.976 174.844 21.7332 170.779 20.5007C168.365 22.455 165.934 24.3865 163.484 26.295C164.808 29.8452 166.035 33.4305 167.165 37.047Z" fill="#C8A56E"/>
<path d="M104.962 54.2045C108.457 55.4899 113.122 57.2037 116.627 58.4726C119.587 56.3468 123.532 53.5025 126.479 51.3586C125.566 47.9192 124.584 44.498 123.532 41.097C120.407 40.0802 116.24 38.7157 113.115 37.6726C110.497 39.4688 107.006 41.8517 104.379 43.6282C104.517 46.9042 104.714 50.4374 104.962 54.2045Z" fill="#C8A56E"/>
<path d="M77.3564 58.2535C80.7053 59.7853 84.0681 61.2866 87.4442 62.7574C90.7934 60.3663 95.2626 57.1805 98.6188 54.8034C98.5492 50.8089 98.5579 47.0476 98.6397 43.554C95.7008 42.3675 92.7728 41.1543 89.8561 39.9143C86.813 41.9246 82.7507 44.6008 79.7145 46.625C78.7548 50.4639 77.968 54.344 77.3564 58.2535Z" fill="#2C385B"/>
<path d="M53.2773 62.8531C55.505 64.286 58.5012 66.1536 60.7966 67.4857C64.1876 64.9729 68.7246 61.6428 72.1469 59.1786C72.9281 55.2222 73.9054 51.307 75.0753 47.4476C72.9468 46.2352 70.8495 44.9688 68.7855 43.6497C65.2681 45.9805 61.7669 48.3357 58.2821 50.7151C56.3688 54.6556 54.6975 58.7092 53.2773 62.8531Z" fill="#C8A56E"/>
<path d="M33.7815 67.4651C35.044 68.9954 36.7969 70.9708 38.2159 72.3568C41.7342 69.4684 45.283 66.6175 48.8619 63.8045C50.4353 59.6138 52.2683 55.5251 54.35 51.5622C53.2632 50.4023 51.8424 48.8059 50.926 47.5017C47.5658 49.9048 44.2326 52.3453 40.9269 54.8228C38.2676 58.8742 35.8799 63.0975 33.7798 67.4651" fill="#C8A56E"/>
<path d="M20.9378 71.6957C20.9969 73.313 21.216 75.4745 21.609 77.0431C24.2314 74.3998 27.7824 70.9167 30.5212 68.3899C32.7331 63.9774 35.2406 59.7194 38.0266 55.6451C37.8232 54.3287 37.6736 52.534 37.7953 51.2107C35.2616 53.3774 31.9194 56.3111 29.4952 58.5874C26.3514 62.7606 23.4919 67.1405 20.936 71.6975" fill="#C8A56E"/>
<path d="M13.4917 80.874C15.1768 78.2934 17.4913 74.9041 19.352 72.4452C21.9708 67.8605 24.8893 63.4537 28.0886 59.2534C28.9929 57.6971 30.2901 55.6729 31.377 54.24L29.6311 56.2102L25.548 61.2637C18.3556 71.4332 18.22 71.6279 15.0881 77.3422V77.3561C14.6046 78.4082 13.8847 79.7802 13.4917 80.874Z" fill="#C8A56E"/>
<path d="M144.035 100.363C148.621 102.328 154.728 104.969 159.293 106.98C162.885 104.14 167.675 100.337 171.253 97.4763C170.121 92.2778 168.821 87.1174 167.355 82.0029C162.389 79.9699 157.412 77.9636 152.424 75.9844C149.015 78.6328 144.47 82.1577 141.053 84.794C142.123 89.9687 143.118 95.1589 144.035 100.363Z" fill="#2C385B"/>
<path d="M109.202 104.955C113.699 106.83 119.69 109.337 124.18 111.224C127.992 108.216 133.078 104.216 136.904 101.225C136.048 96.0146 135.135 90.8136 134.165 85.6231C129.811 83.9189 124.005 81.6408 119.643 79.9436C115.557 83.0314 111.476 86.1267 107.401 89.2297C107.945 94.297 108.549 99.5487 109.202 104.955Z" fill="#2C385B"/>
<path d="M45.7767 116.006C49.7087 118.044 53.658 120.048 57.6243 122.018C61.4625 118.452 65.3366 114.925 69.2458 111.436C68.9275 106.128 68.7739 100.811 68.785 95.4936C65.0082 93.705 61.2489 91.8796 57.5078 90.0176C53.6772 93.2781 49.8779 96.5753 46.1106 99.9088C45.7576 105.133 45.6411 110.504 45.7767 116.006Z" fill="#C8A56E"/>
<path d="M21.52 121.747C24.498 123.842 27.5169 125.878 30.5748 127.854C33.7498 124.244 36.9859 120.689 40.2817 117.189C40.1948 111.68 40.3687 106.293 40.7982 101.05C38.2037 99.4254 34.7727 97.2117 32.2599 95.4658C29.3384 98.4221 25.4796 102.394 22.6747 105.458C21.9751 110.861 21.5896 116.299 21.52 121.747Z" fill="#C8A56E"/>
<path d="M5.53662 127.012C6.98344 129.03 9.01456 131.645 10.6787 133.471C12.6212 130.245 15.3044 125.986 17.4642 122.895C17.5627 117.431 17.9912 111.978 18.7476 106.566C17.1442 104.881 15.0662 102.578 13.6802 100.716C11.663 103.611 9.04064 107.515 7.22864 110.546C6.30203 115.992 5.73679 121.492 5.53662 127.012Z" fill="#C8A56E"/>
<mask id="mask1_117_922" style="mask-type:luminance" maskUnits="userSpaceOnUse" x="0" y="104" width="7" height="36">
<path d="M0 104.806H6.08639V139.585H0V104.806Z" fill="white"/>
</mask>
<g mask="url(#mask1_117_922)">
<path d="M0.103027 131.019C0.217799 133.146 0.509946 135.979 0.951644 138.064C1.61071 134.993 2.61584 130.93 3.57401 127.943C3.78932 122.409 4.37668 116.896 5.3321 111.442C4.97909 109.527 4.62608 106.938 4.60521 104.995C3.77747 107.552 2.70974 110.974 2.12719 113.589L2.11327 113.643C1.56898 117.346 0.788181 122.284 0.428214 126.007L0.103027 131.019Z" fill="#C8A56E"/>
</g>
<path d="M117.822 165.064C122.618 167.082 127.407 169.115 132.19 171.165C135.904 168.238 140.871 164.352 144.606 161.458C144.1 155.948 143.541 150.443 142.928 144.945C138.424 142.941 132.419 140.277 127.903 138.302C123.66 141.744 119.43 145.204 115.214 148.68C116.049 154.147 116.918 159.608 117.822 165.064Z" fill="#2C385B"/>
<path d="M165.345 143.091C169.658 144.816 175.419 147.111 179.732 148.824C183.437 145.502 187.167 142.208 190.92 138.94C189.915 133.5 188.966 128.05 188.073 122.59C183.597 120.709 177.64 118.194 173.17 116.299C169.292 119.796 165.44 123.324 161.617 126.882C162.744 132.412 163.994 137.82 165.345 143.089" fill="#2C385B"/>
<path d="M56.4887 175.751C60.987 177.602 65.4933 179.434 70.0075 181.246C73.0202 177.899 76.0793 174.595 79.184 171.334C77.7139 165.982 76.3975 160.589 75.2365 155.161C70.5919 153.163 65.9575 151.141 61.3335 149.096C58.4259 152.254 54.5741 156.493 51.7622 159.733C53.114 165.135 54.6909 170.48 56.4887 175.751Z" fill="#2C385B"/>
<path d="M56.4887 175.751C60.987 177.602 65.4933 179.434 70.0075 181.246C73.0202 177.899 76.0793 174.595 79.184 171.334C77.7139 165.982 76.3975 160.589 75.2365 155.161C70.5919 153.163 65.9575 151.141 61.3335 149.096C58.4259 152.254 54.5741 156.493 51.7622 159.733C53.114 165.135 54.6909 170.48 56.4887 175.751Z" fill="#2C385B"/>
<path d="M33.0401 181.299C36.532 182.957 41.2046 185.13 44.7312 186.701C46.5989 183.718 49.1534 179.771 51.1776 176.893C49.2993 171.644 47.6601 166.313 46.265 160.915C42.2439 158.97 38.2474 156.975 34.2765 154.93C32.1776 158.055 29.4248 162.252 27.498 165.48C29.0482 170.853 30.8985 176.134 33.0401 181.299Z" fill="#C8A56E"/>
<path d="M17.5868 186.395C20.1013 188.127 23.5114 190.375 26.139 191.951C26.9076 189.05 28.0623 185.221 29.1144 182.414C26.9207 177.263 25.025 171.99 23.4366 166.621C20.6717 164.875 17.0164 162.484 14.3749 160.555C13.3889 163.571 12.1803 167.64 11.5073 170.744C13.1955 176.086 15.2262 181.314 17.5868 186.395Z" fill="#C8A56E"/>
<path d="M12.3292 190.267C13.6543 192.128 15.522 194.545 17.0575 196.237C16.5062 193.575 15.9028 189.994 15.6837 187.292C13.2996 182.223 11.2491 177.004 9.54516 171.667C7.98009 169.786 5.97158 167.205 4.64648 165.139C4.93863 168.04 5.4551 171.899 6.07244 174.752C7.79978 180.061 9.89031 185.245 12.3292 190.267Z" fill="#C8A56E"/>
<path d="M152.499 213.111C155.168 214.618 158.707 216.649 161.316 218.253C164.522 216.079 168.795 213.192 172.015 211.046C173.076 206.734 173.998 202.202 174.78 197.495C171.371 195.422 167.931 193.4 164.461 191.429C160.586 194.212 156.721 197.008 152.866 199.818C152.832 204.251 152.708 208.683 152.499 213.111Z" fill="#2C385B"/>
<path d="M127.529 216.406C130.708 217.778 134.94 219.625 138.091 221.059C141.17 218.59 144.27 216.146 147.391 213.73C147.364 209.539 147.275 205.122 147.125 200.51C143.136 198.635 139.133 196.789 135.116 194.975C131.662 197.795 128.229 200.641 124.818 203.513C125.729 208.022 126.632 212.33 127.529 216.406Z" fill="#C8A56E"/>
<path d="M103.522 220.23C107.028 221.487 111.696 223.17 115.186 224.455C117.581 221.984 120.016 219.552 122.489 217.159C121.32 212.907 120.212 208.639 119.168 204.355C114.845 202.643 110.518 200.945 106.185 199.26C103.37 202.067 100.596 204.916 97.8638 207.805C99.6116 212.008 101.499 216.152 103.522 220.23Z" fill="#C8A56E"/>
<path d="M64.6618 228.45C68.4922 229.671 72.3279 230.875 76.1686 232.063C76.6503 229.971 77.398 227.207 78.111 225.182C74.9797 221.398 72.0484 217.453 69.3292 213.363C65.1738 211.885 61.0251 210.388 56.8834 208.873C55.9931 211.29 54.8801 214.543 54.228 217.037C57.4802 221.042 60.9641 224.852 64.6618 228.45Z" fill="#C8A56E"/>
<path d="M53.2023 232.22C56.1289 233.333 60.0416 234.766 63.0031 235.778C62.4953 233.856 61.9441 231.248 61.7545 229.271C57.9334 225.718 54.329 221.938 50.9607 217.953C47.3712 216.544 43.8019 215.083 40.2539 213.571C40.4521 215.896 40.8312 219 41.3547 221.275C45.0711 225.167 49.0281 228.823 53.2023 232.22Z" fill="#C8A56E"/>
<path d="M49.3084 235.093C51.6939 236.401 54.1155 237.642 56.5703 238.814C55.0574 237.11 53.0993 234.759 51.7951 232.884C47.5625 229.523 43.549 225.895 39.7788 222.023C37.4486 220.699 34.3654 218.879 32.1309 217.404C33.4873 219.592 35.3966 222.464 36.9808 224.496C40.8567 228.291 44.9751 231.831 49.3101 235.093" fill="#C8A56E"/>
<path d="M142.535 237.315C143.879 237.993 145.665 238.93 146.957 239.711C148.291 238.497 149.654 237.315 151.045 236.165C151.501 233.924 151.896 231.362 152.221 228.504C150.105 227.254 147.966 226.047 145.802 224.883C144.098 226.426 141.841 228.504 140.205 230.126C141.005 232.83 141.787 235.237 142.535 237.315Z" fill="#2C385B"/>
<path d="M124.575 247.645C126.98 248.121 130.192 248.752 132.597 249.227C132.237 248.373 131.863 247.17 131.788 246.246C129.308 244.447 126.842 242.313 124.418 239.875C121.224 238.938 118.026 238.012 114.826 237.096C114.548 238.51 114.256 240.417 114.242 241.852C117.523 244.06 120.979 245.998 124.575 247.646" fill="#C8A56E"/>
<path d="M104.67 257.094C107.416 257.393 111.084 257.772 113.842 258.024C112.157 257.447 109.936 256.606 108.333 255.832C103.586 254.526 98.9387 252.88 94.428 250.907C91.3987 250.281 87.3625 249.432 84.3472 248.759C85.754 250.017 87.7034 251.62 89.258 252.693C94.29 254.507 99.4394 255.977 104.67 257.094Z" fill="#C8A56E"/>
<path d="M102.999 258.324C105.556 258.595 108.957 258.929 111.519 259.125C109.27 258.665 106.281 257.992 104.067 257.38C98.7548 256.306 93.5213 254.874 88.4025 253.093C85.4591 252.433 82.5241 251.735 79.5981 251.001C81.7597 252.097 84.6725 253.488 86.9018 254.427C92.1744 256.085 97.5524 257.387 102.999 258.324Z" fill="#C8A56E"/>
<mask id="mask2_117_922" style="mask-type:luminance" maskUnits="userSpaceOnUse" x="112" y="259" width="4" height="2">
<path d="M112.163 259.574H115.641V260.273H112.163V259.574Z" fill="white"/>
</mask>
<g mask="url(#mask2_117_922)">
<path d="M114.202 260.294L112.72 260.165L113.753 260.247L114.202 260.294Z" fill="white"/>
</g>
<path d="M136.339 30.778C139.912 31.8161 144.68 33.216 148.254 34.282C149.708 32.8282 151.61 30.8528 152.949 29.2825C150.3 26.6728 147.451 24.2744 144.428 22.1092C140.974 21.2959 137.515 20.5058 134.05 19.739C132.972 20.9782 131.85 22.1789 130.687 23.3387C132.603 25.5054 134.485 27.9922 136.339 30.778Z" fill="#C8A56E"/>
<path d="M114.331 33.3724C117.476 34.3984 121.674 35.7565 124.825 36.7756C127.196 34.9548 129.549 33.1114 131.884 31.2456C130.416 28.6443 128.79 26.1355 127.015 23.7333C124.337 23.0394 120.777 22.123 118.108 21.4309C116.247 22.8014 114.375 24.1555 112.491 25.4931C113.073 27.8094 113.685 30.4457 114.331 33.3724Z" fill="#C8A56E"/>
<path d="M92.4976 36.5511C95.3198 37.7208 98.1527 38.8645 100.996 39.9821C103.646 38.1875 107.164 35.7912 109.807 33.9827C109.407 31.0212 109.053 28.3519 108.746 25.9956C106.455 25.224 104.17 24.431 101.893 23.6167C99.6586 24.9696 96.6693 26.7695 94.4278 28.1206C93.6328 30.8939 92.9885 33.7082 92.4976 36.5511Z" fill="#C8A56E"/>
<path d="M72.2212 40.0831C74.0019 41.2047 76.4121 42.6568 78.2537 43.6775C81.2221 41.7403 85.1956 39.1736 88.178 37.2503C88.8947 34.3474 89.7891 31.4913 90.856 28.6981C89.5031 27.966 87.7154 26.9661 86.4181 26.1313C83.7836 27.5921 80.2796 29.5554 77.6555 31.0422C75.612 33.9107 73.7951 36.9323 72.2212 40.0831Z" fill="#C8A56E"/>
<path d="M54.8804 43.7455C55.8667 45.0993 56.9371 46.3898 58.0853 47.6095C61.1633 45.5575 65.2794 42.8412 68.3904 40.831C70.1844 37.6217 72.2239 34.5561 74.4907 31.6614C73.8786 30.8528 73.1048 29.7311 72.6978 28.8008C69.5572 30.5338 66.4299 32.2908 63.3161 34.0716C60.265 37.0795 57.4451 40.3133 54.8804 43.7455Z" fill="#C8A56E"/>
<path d="M41.8644 47.312C41.7775 48.5745 41.7775 50.2804 41.9861 51.529C44.9146 49.39 48.8411 46.5555 51.8235 44.4914C54.5608 41.0051 57.5555 37.729 60.7826 34.6905C60.96 33.6993 61.313 32.3812 61.7478 31.47C58.6587 33.28 55.5921 35.128 52.5486 37.0138C48.7512 40.1923 45.1811 43.6329 41.8644 47.3102" fill="#C8A56E"/>
<path d="M35.1111 50.2718C34.0382 51.6525 32.6661 53.5462 31.7827 55.0626C34.4484 52.6471 37.1641 50.2874 39.928 47.985C43.352 44.2616 47.0338 40.7838 50.9461 37.5773C52.1682 36.2774 53.4562 35.0412 54.8049 33.8733C52.1515 35.6836 49.5356 37.5482 46.9587 39.4658C42.7729 42.8001 38.8149 46.409 35.1111 50.2718Z" fill="#C8A56E"/>
<path d="M154.273 71.4126C159.222 73.3548 164.163 75.3198 169.094 77.3077C172.28 74.6579 175.43 71.9658 178.544 69.2319C176.702 64.7697 174.651 60.3971 172.396 56.1288C167.76 54.3768 163.109 52.665 158.443 50.9937C155.572 53.4039 152.683 55.7921 149.776 58.1582C151.344 62.3439 152.854 66.773 154.273 71.4126Z" fill="#2C385B"/>
<mask id="mask3_117_922" style="mask-type:luminance" maskUnits="userSpaceOnUse" x="199" y="12" width="30" height="29">
<path d="M199.112 12.7273H228.675V40.4638H199.112V12.7273Z" fill="white"/>
</mask>
<g mask="url(#mask3_117_922)">
<path d="M202.733 33.9638C207.053 35.621 212.819 37.8417 217.133 39.5128C220.517 36.9253 225.02 33.4612 228.39 30.8528C227.106 26.1993 225.746 21.758 224.348 17.5514C220.279 16.1046 214.866 14.1761 210.797 12.7432C207.348 15.317 203.895 17.8849 200.438 20.4468C201.19 24.7316 201.95 29.2425 202.733 33.9638Z" fill="#2C385B"/>
</g>
<path d="M90.2021 79.8551C94.1496 81.4793 99.4134 83.6321 103.366 85.2354C107.001 82.4913 111.852 78.836 115.492 76.1058C114.847 71.3654 114.235 66.8337 113.65 62.528C109.976 61.142 105.086 59.2796 101.417 57.8745C97.633 60.5853 93.8536 63.3021 90.0786 66.025C90.0265 70.4264 90.0613 75.0468 90.2021 79.8551Z" fill="#2C385B"/>
<path d="M60.5649 85.0251C64.273 86.8371 67.9957 88.619 71.7326 90.3707C75.7665 87.1862 79.8172 84.0229 83.8845 80.8811C83.8684 76.2443 83.9728 71.6078 84.1975 66.9764C80.7747 65.4608 77.3667 63.9119 73.9741 62.3298C70.1251 65.143 66.2918 67.9776 62.4743 70.8334C61.6352 75.5345 60.9981 80.2694 60.5649 85.0251Z" fill="#2C385B"/>
<path d="M35.2207 90.3777C37.7266 92.0628 41.1036 94.2625 43.6843 95.8381C47.4144 92.5579 51.1777 89.3157 54.9736 86.112C55.5099 81.3255 56.2718 76.5671 57.2569 71.8525C54.9476 70.4613 51.8835 68.5728 49.6402 67.0703C46.0148 69.9519 42.4196 72.8712 38.8551 75.8277C37.3656 80.604 36.1521 85.462 35.2207 90.3777Z" fill="#C8A56E"/>
<path d="M16.207 95.5807C17.6539 97.3614 19.6658 99.6707 21.2883 101.293C24.0811 98.3056 27.8512 94.3512 30.7518 91.4646C31.7724 86.5156 33.0877 81.632 34.6905 76.8398C33.2854 75.386 31.4508 73.4019 30.2144 71.8003C27.4425 74.414 23.7959 77.9475 21.1387 80.6777C19.1759 85.5341 17.5286 90.5121 16.207 95.5807Z" fill="#C8A56E"/>
<path d="M6.33008 99.9089C6.42572 101.81 6.68483 104.343 7.10566 106.204C8.89853 103.256 11.3783 99.3785 13.3746 96.5597C14.7557 91.463 16.467 86.4616 18.4976 81.5871C18.1846 79.9508 17.8855 77.7301 17.9064 76.0659C16.0387 78.6048 13.6129 82.0428 11.9348 84.7051C9.73152 89.643 7.85798 94.7222 6.33008 99.9089Z" fill="#C8A56E"/>
<path d="M210.789 104.317C215.102 106.463 220.849 109.343 225.136 111.558C229.229 108.386 233.293 105.177 237.329 101.933C237.05 99.0651 236.713 96.1871 236.317 93.2993C235.916 90.4126 235.468 87.5642 234.971 84.754C230.164 82.2811 225.325 79.8719 220.454 77.5269C216.848 80.4135 212.038 84.2566 208.424 87.1381C208.881 89.9518 209.307 92.8025 209.702 95.6904C210.102 98.5771 210.455 101.452 210.789 104.317Z" fill="#2C385B"/>
<path d="M95.7578 138.057C100.748 140.192 105.741 142.32 110.737 144.442C114.528 141.284 119.601 137.086 123.42 133.954L122.23 125.341L121.055 116.775C116.058 114.647 111.058 112.525 106.056 110.41C101.815 113.877 97.595 117.369 93.3945 120.884C93.7354 123.712 94.1046 126.569 94.5023 129.457C94.8999 132.345 95.3184 135.212 95.7578 138.057Z" fill="#2C385B"/>
<path d="M63.3508 143.708C67.9944 145.787 72.6491 147.84 77.3147 149.869C81.1323 146.276 84.9779 142.712 88.8511 139.178C88.4036 136.331 87.9804 133.464 87.5816 130.577C87.1851 127.69 86.8223 124.833 86.493 122.004C81.8682 119.962 77.2494 117.907 72.6369 115.838C68.7176 119.362 64.8337 122.926 60.9858 126.529C61.2757 129.367 61.62 132.231 62.0188 135.123C62.4118 138.005 62.8558 140.867 63.3508 143.708Z" fill="#C8A56E"/>
<path d="M35.6279 149.564C39.2224 151.424 44.0376 153.876 47.6789 155.643C50.8133 152.022 53.9947 148.443 57.2224 144.905C56.7247 142.05 56.2765 139.188 55.8782 136.318C55.4873 133.46 55.1499 130.596 54.8661 127.726C50.8932 125.721 46.9375 123.683 42.9994 121.611C40.031 124.804 36.1183 129.089 33.2646 132.384C33.5081 135.231 33.835 138.098 34.2298 140.992C34.6239 143.872 35.09 146.728 35.6279 149.564Z" fill="#2C385B"/>
<path d="M14.8287 155.257C17.5398 157.164 21.2073 159.651 24.0209 161.404C25.9634 158.164 28.6257 153.885 30.7386 150.753C30.193 147.908 29.7216 145.049 29.3248 142.18C28.9326 139.32 28.6154 136.45 28.3736 133.573C25.6295 131.765 21.995 129.308 19.3396 127.377C17.1937 130.53 14.4079 134.789 12.4707 138.077C12.6805 140.929 12.9843 143.803 13.3819 146.697C13.7767 149.577 14.2653 152.436 14.8287 155.257Z" fill="#C8A56E"/>
<path d="M4.0272 159.983C5.42707 162.042 7.40427 164.719 9.03543 166.593C9.71362 163.482 10.7466 159.359 11.7308 156.33C11.155 153.493 10.6702 150.639 10.277 147.771C9.88094 144.908 9.57762 142.033 9.36757 139.151C7.7712 137.248 5.71226 134.647 4.35413 132.569C3.42378 135.605 2.28823 139.693 1.6709 142.806C1.85987 145.669 2.15433 148.547 2.55429 151.438C2.94645 154.303 3.43771 157.153 4.0272 159.983Z" fill="#C8A56E"/>
<path d="M215.972 168.828C219.504 170.853 223.008 172.93 226.48 175.057C230.527 172.317 234.564 169.563 238.592 166.797C239.523 161.792 240.263 156.629 240.808 151.344C237.009 148.939 233.168 146.602 229.287 144.333L216.537 153.525C216.479 158.63 216.291 163.733 215.972 168.828Z" fill="#2C385B"/>
<path d="M181.769 179.921C185.445 181.599 190.335 183.861 193.977 185.614C197.482 183.025 202.155 179.581 205.68 177.027C205.829 172.095 205.871 167.002 205.802 161.771C201.373 159.597 196.928 157.455 192.469 155.344C188.347 158.505 184.237 161.682 180.14 164.875C180.724 170.045 181.267 175.065 181.769 179.921Z" fill="#C8A56E"/>
<path d="M107.824 195.036C111.783 196.597 117.056 198.682 121.001 200.279C124.44 197.337 127.903 194.423 131.388 191.537C130.722 186.708 130.023 181.708 129.308 176.552C124.578 174.559 119.843 172.575 115.105 170.602C111.382 173.808 107.684 177.044 104.012 180.308C105.196 185.239 106.467 190.149 107.824 195.036Z" fill="#C8A56E"/>
<path d="M80.2099 199.851L93.5582 204.735C96.3086 201.779 99.1029 198.865 101.94 195.992C100.422 191.136 99.009 186.249 97.7022 181.332C93.4295 179.663 87.7431 177.42 83.4704 175.736C80.7055 178.623 77.0519 182.501 74.3809 185.471C76.1521 190.333 78.0963 195.128 80.2099 199.851Z" fill="#C8A56E"/>
<path d="M56.5981 204.836C60.7985 206.401 65.0057 207.948 69.2196 209.476C70.889 206.848 73.1792 203.39 74.9929 200.863C72.7353 196.181 70.6643 191.411 68.7848 186.565C64.3216 184.801 59.8675 183.015 55.4226 181.206C53.4454 184.051 50.8578 187.883 49.0371 190.831C51.3183 195.624 53.8419 200.299 56.5981 204.836Z" fill="#C8A56E"/>
<path d="M29.6723 213.716C31.9816 215.202 35.0927 217.124 37.4837 218.47C36.9742 216.134 36.416 212.982 36.2404 210.605C32.9483 206.262 29.9244 201.722 27.1856 197.011C24.638 195.449 21.2748 193.304 18.8438 191.572C19.0942 194.227 19.5567 197.759 20.141 200.36C23.0262 205.013 26.2111 209.474 29.6723 213.716Z" fill="#C8A56E"/>
<path d="M33.9239 221.656C32.3275 219.543 30.2825 216.665 28.9157 214.401C25.4344 210.179 22.2337 205.734 19.3339 201.094C17.8645 199.409 15.983 197.094 14.7344 195.246L15.7395 197.141L16.0177 197.637C22.7823 208.58 22.7823 208.58 26.8324 213.681L31.6493 219.381L33.9239 221.656Z" fill="#C8A56E"/>
<path d="M92.1307 243.685C95.2782 244.48 99.4691 245.533 102.606 246.314C102.709 244.793 102.959 242.761 103.312 241.275C100.256 238.369 97.3759 235.284 94.687 232.036L82.9403 228.375C82.3142 230.317 81.5543 232.947 81.1665 234.948C84.631 238.092 88.2932 241.01 92.1307 243.685Z" fill="#C8A56E"/>
<path d="M81.3714 246.634C84.4493 247.354 88.5655 248.298 91.6556 248.983C90.9287 247.632 90.0592 245.765 89.6036 244.304C85.5941 241.681 81.7554 238.806 78.1108 235.696C74.3491 234.582 70.5929 233.45 66.8423 232.3C67.1136 234.181 67.59 236.696 68.1587 238.508C72.383 241.499 76.7965 244.213 81.3714 246.634Z" fill="#C8A56E"/>
<path d="M75.7812 249.079C78.4505 249.806 82.0241 250.737 84.7143 251.382C83.1666 250.206 81.1494 248.556 79.7687 247.191C75.0833 244.816 70.5566 242.141 66.2169 239.181C63.0066 238.113 59.8135 236.994 56.6387 235.825C57.9846 237.592 59.8592 239.882 61.4017 241.471C66.0254 244.316 70.8276 246.858 75.7812 249.079Z" fill="#C8A56E"/>
<path d="M75.6459 250.81C77.9789 251.658 80.3324 252.449 82.7043 253.182C80.4611 252.143 77.4874 250.695 75.3207 249.495C70.3367 247.305 65.5008 244.793 60.8438 241.974C58.6701 240.976 55.7973 239.604 53.6914 238.475C55.7573 239.957 58.5483 241.906 60.7081 243.25L63.9148 245.099C67.7203 247.211 71.6362 249.117 75.6459 250.81Z" fill="#C8A56E"/>
<path d="M275.456 184V40.8359H304.362V97.1836H361.002V40.8359H389.909V184H361.002V121.402H304.362V184H275.456ZM486.491 131.363V107.242H548.795V164.273C542.741 170.133 533.952 175.309 522.428 179.801C510.97 184.228 499.349 186.441 487.565 186.441C472.591 186.441 459.538 183.316 448.405 177.066C437.272 170.751 428.906 161.767 423.307 150.113C417.708 138.395 414.909 125.667 414.909 111.93C414.909 97.0208 418.034 83.7721 424.284 72.1836C430.534 60.5951 439.681 51.7083 451.725 45.5234C460.905 40.7708 472.331 38.3945 486.002 38.3945C503.776 38.3945 517.643 42.138 527.604 49.625C537.63 57.0469 544.075 67.3333 546.94 80.4844L518.229 85.8555C516.211 78.8242 512.402 73.2904 506.803 69.2539C501.269 65.1523 494.336 63.1016 486.002 63.1016C473.372 63.1016 463.314 67.1055 455.827 75.1133C448.405 83.1211 444.694 95.0026 444.694 110.758C444.694 127.75 448.47 140.51 456.022 149.039C463.574 157.503 473.47 161.734 485.709 161.734C491.764 161.734 497.819 160.562 503.874 158.219C509.993 155.81 515.234 152.913 519.596 149.527V131.363H486.491Z" fill="#2C385B"/>
<path d="M282.767 239V215.806H274.483V211.083H296.668V215.806H288.404V239H282.767ZM300.325 239V211.083H321.024V215.806H305.961V221.995H319.977V226.698H305.961V234.296H321.558V239H300.325ZM344.2 228.736L349.665 230.469C348.827 233.516 347.431 235.782 345.476 237.267C343.533 238.74 341.064 239.476 338.068 239.476C334.361 239.476 331.314 238.213 328.927 235.687C326.541 233.147 325.347 229.682 325.347 225.289C325.347 220.643 326.547 217.037 328.946 214.473C331.346 211.896 334.5 210.607 338.411 210.607C341.826 210.607 344.6 211.616 346.732 213.635C348.002 214.828 348.954 216.542 349.589 218.776L344.009 220.109C343.679 218.662 342.987 217.52 341.934 216.682C340.893 215.844 339.623 215.425 338.125 215.425C336.056 215.425 334.374 216.167 333.079 217.653C331.796 219.138 331.155 221.544 331.155 224.87C331.155 228.399 331.79 230.913 333.06 232.411C334.329 233.909 335.979 234.658 338.011 234.658C339.509 234.658 340.797 234.182 341.876 233.23C342.956 232.278 343.73 230.78 344.2 228.736ZM354.54 239V211.083H360.177V222.071H371.222V211.083H376.858V239H371.222V226.793H360.177V239H354.54ZM382.762 239V211.083H388.246L399.672 229.726V211.083H404.909V239H399.253L387.999 220.795V239H382.762ZM409.746 225.213C409.746 222.369 410.171 219.982 411.021 218.053C411.656 216.631 412.52 215.355 413.611 214.225C414.716 213.095 415.922 212.257 417.229 211.711C418.969 210.975 420.975 210.607 423.247 210.607C427.36 210.607 430.648 211.883 433.111 214.435C435.587 216.986 436.825 220.535 436.825 225.08C436.825 229.586 435.6 233.116 433.149 235.667C430.699 238.207 427.424 239.476 423.323 239.476C419.172 239.476 415.871 238.213 413.421 235.687C410.971 233.147 409.746 229.656 409.746 225.213ZM415.554 225.022C415.554 228.184 416.284 230.583 417.744 232.221C419.204 233.846 421.057 234.658 423.304 234.658C425.551 234.658 427.392 233.852 428.827 232.24C430.274 230.615 430.998 228.184 430.998 224.946C430.998 221.747 430.293 219.36 428.884 217.786C427.487 216.212 425.627 215.425 423.304 215.425C420.981 215.425 419.108 216.225 417.687 217.824C416.265 219.411 415.554 221.811 415.554 225.022ZM441.395 239V211.312H447.032V234.296H461.047V239H441.395ZM463.942 225.213C463.942 222.369 464.367 219.982 465.218 218.053C465.853 216.631 466.716 215.355 467.808 214.225C468.912 213.095 470.118 212.257 471.426 211.711C473.165 210.975 475.171 210.607 477.443 210.607C481.557 210.607 484.845 211.883 487.308 214.435C489.783 216.986 491.021 220.535 491.021 225.08C491.021 229.586 489.796 233.116 487.346 235.667C484.896 238.207 481.62 239.476 477.52 239.476C473.368 239.476 470.067 238.213 467.617 235.687C465.167 233.147 463.942 229.656 463.942 225.213ZM469.75 225.022C469.75 228.184 470.48 230.583 471.94 232.221C473.4 233.846 475.253 234.658 477.5 234.658C479.748 234.658 481.588 233.852 483.023 232.24C484.47 230.615 485.194 228.184 485.194 224.946C485.194 221.747 484.489 219.36 483.08 217.786C481.684 216.212 479.824 215.425 477.5 215.425C475.177 215.425 473.305 216.225 471.883 217.824C470.461 219.411 469.75 221.811 469.75 225.022ZM508.426 228.736V224.032H520.576V235.153C519.395 236.296 517.681 237.305 515.434 238.181C513.2 239.044 510.934 239.476 508.636 239.476C505.716 239.476 503.17 238.867 501 237.648C498.829 236.417 497.197 234.665 496.105 232.392C495.014 230.107 494.468 227.625 494.468 224.946C494.468 222.039 495.077 219.456 496.296 217.196C497.515 214.936 499.298 213.203 501.647 211.997C503.437 211.07 505.665 210.607 508.331 210.607C511.797 210.607 514.501 211.337 516.443 212.797C518.398 214.244 519.655 216.25 520.214 218.814L514.615 219.862C514.222 218.491 513.479 217.412 512.387 216.625C511.308 215.825 509.956 215.425 508.331 215.425C505.868 215.425 503.907 216.206 502.447 217.767C501 219.329 500.276 221.646 500.276 224.718C500.276 228.031 501.012 230.52 502.485 232.183C503.958 233.833 505.887 234.658 508.274 234.658C509.455 234.658 510.635 234.43 511.816 233.973C513.009 233.503 514.031 232.938 514.882 232.278V228.736H508.426ZM533.125 239V227.25L522.899 211.083H529.507L536.077 222.128L542.513 211.083H549.007L538.743 227.289V239H533.125Z" fill="#2C385B"/>
</svg>
