<svg width="90" height="90" viewBox="0 0 90 90" fill="none" xmlns="http://www.w3.org/2000/svg">
<path d="M87 46C87 69.196 68.196 88 45 88C23.5989 88 5.93655 71.9937 3.33255 51.2989C3.1132 49.5639 3 47.7948 3 46C3 42.712 3.37718 39.5115 4.092 36.4411C8.41882 17.8515 25.092 4 45 4C64.8583 4 81.4988 17.7829 85.8737 36.3041C86.4479 38.7263 86.8097 41.2292 86.9418 43.792C86.9811 44.5239 87 45.2594 87 46Z" fill="white"/>
<path d="M57.9853 48.1179V40.7292C57.9853 39.6936 58.4466 38.7189 59.2559 38.0662L62.2845 35.6032C63.1287 34.9157 63.6161 33.8888 63.6161 32.8009V27.3878C63.6161 26.561 63.3376 25.769 62.8154 25.125L58.7599 20.0948C58.4118 19.6596 57.7155 19.912 57.7155 20.4603V28.0405C57.7155 29.3111 56.6886 30.338 55.418 30.338H52.0848C50.8142 30.338 49.7872 29.3111 49.7872 28.0405V20.4603C49.7872 19.9033 49.091 19.6596 48.7429 20.0948L44.6874 25.1337C44.1739 25.7777 43.8867 26.5697 43.8867 27.3965V32.8096C43.8867 33.8975 44.3741 34.9244 45.2183 35.6119L48.2468 38.0749C49.0475 38.7276 49.5175 39.7023 49.5175 40.7379V45.1764C49.5175 46.8038 50.8403 48.1266 52.4677 48.1266H57.9853V48.1179Z" fill="#9099BF"/>
<path d="M25.3359 66.5506V49.171C25.3359 47.9439 26.3281 46.9431 27.5639 46.9431H35.3094C36.5365 46.9431 37.5373 47.9352 37.5373 49.171V66.5506C37.5373 67.7777 36.5452 68.7785 35.3094 68.7785H27.5639C26.3281 68.7698 25.3359 67.7777 25.3359 66.5506Z" fill="#7DDFEF"/>
<path d="M66.7302 48.2659L52.3009 48.0222C50.9519 48.057 50.1948 47.2042 49.8467 45.6376L49.516 43.3836L37.5234 49.8759V66.5506L40.3432 68.0562C42.1272 69.0048 44.1202 69.5008 46.1393 69.5008H57.0091C59.1239 69.5008 60.8471 67.7864 60.8471 65.6629L60.8732 64.6185H61.8827C63.2839 64.5576 64.3891 63.4088 64.3891 62.0077L64.5719 59.2141C65.8599 58.805 66.7911 57.6302 66.8172 56.2203L66.8694 53.3745C67.8093 53.3223 68.5491 52.5477 68.5491 51.6078V50.0239C68.5491 49.0318 67.7223 48.2398 66.7302 48.2659Z" fill="#FFEBA8"/>
<path d="M25.3348 50.7636H23.1156C22.4281 50.7636 21.8711 51.3206 21.8711 52.0081V65.0885C21.8711 65.776 22.4281 66.333 23.1156 66.333H25.3261V50.7636H25.3348Z" fill="#9099BF"/>
<path d="M57.9883 42.4089H60.7123C61.8698 42.4089 62.6704 43.5664 62.2614 44.6455L61.8175 45.8291C61.2954 47.2303 59.7201 48.1702 58.2233 48.1528L57.9883 42.4089Z" fill="#FFEBA8"/>
<path d="M57.9893 48.9882C57.5107 48.9882 57.119 48.5966 57.119 48.118V40.7292C57.119 39.4238 57.7021 38.2141 58.7029 37.3874L61.7315 34.9245C62.3755 34.4023 62.7411 33.6277 62.7411 32.801V27.3878C62.7411 26.7612 62.5235 26.152 62.1319 25.6733L58.5811 21.261V28.0405C58.5811 29.7898 57.1625 31.2083 55.4133 31.2083H52.0888C50.3395 31.2083 48.9209 29.7898 48.9209 28.0405V21.2697L45.3702 25.6733C44.9786 26.1607 44.761 26.7699 44.761 27.3878V32.801C44.761 33.6277 45.1265 34.4023 45.7705 34.9245L48.7991 37.3874C49.8086 38.2054 50.383 39.4238 50.383 40.7292V43.3749C50.383 43.8536 49.9914 44.2452 49.5127 44.2452C49.0341 44.2452 48.6425 43.8536 48.6425 43.3749V40.7292C48.6425 39.9547 48.2943 39.2324 47.6938 38.7363L44.6653 36.2734C43.6122 35.4205 43.0117 34.1499 43.0117 32.801V27.3878C43.0117 26.3696 43.3598 25.3687 44.0038 24.5768L48.0594 19.5465C48.451 19.0592 49.0863 18.8764 49.6781 19.0853C50.2699 19.2941 50.6528 19.8337 50.6528 20.4603V28.0405C50.6528 28.8325 51.2968 29.4678 52.0801 29.4678H55.4046C56.1965 29.4678 56.8318 28.8238 56.8318 28.0405V20.4603C56.8318 19.8337 57.2148 19.2941 57.8066 19.0853C58.3983 18.8764 59.0337 19.0592 59.4253 19.5465L63.4808 24.5855C64.1161 25.3774 64.4729 26.3783 64.4729 27.3965V32.8097C64.4729 34.1673 63.8724 35.4292 62.8194 36.2821L59.7908 38.745C59.1903 39.2324 58.8422 39.9547 58.8422 40.738V48.1267C58.8596 48.5966 58.468 48.9882 57.9893 48.9882Z" fill="black"/>
<path d="M35.3008 69.6401H27.5552C25.8495 69.6401 24.457 68.2564 24.457 66.5419V49.171C24.457 47.4653 25.8495 46.0728 27.5552 46.0728H35.3008C37.0065 46.0728 38.399 47.4566 38.399 49.171V66.5506C38.3903 68.2564 37.0065 69.6401 35.3008 69.6401ZM27.5552 47.8134C26.8068 47.8134 26.1976 48.4226 26.1976 49.171V66.5506C26.1976 67.299 26.8068 67.9082 27.5552 67.9082H35.3008C36.0492 67.9082 36.6584 67.299 36.6584 66.5506V49.171C36.6584 48.4226 36.0492 47.8134 35.3008 47.8134H27.5552Z" fill="black"/>
<path d="M54.8192 54.2535C54.3406 54.2535 53.9489 53.8619 53.9489 53.3832C53.9489 52.9046 54.3406 52.5129 54.8192 52.5129H66.8726C67.3078 52.4868 67.682 52.0952 67.682 51.6165V50.0326C67.682 49.7889 67.5863 49.5627 67.4122 49.3886C67.2382 49.2146 67.0032 49.1101 66.7595 49.1362L52.2954 48.8926C51.1379 48.9361 49.5801 48.4226 49.0057 45.8204L48.8404 44.7326L37.9357 50.6331C37.5093 50.8594 36.9871 50.7027 36.7521 50.285C36.5258 49.8586 36.6825 49.3364 37.1002 49.1014L49.0927 42.6091C49.3451 42.4699 49.641 42.4699 49.8934 42.5917C50.1458 42.7222 50.3198 42.9659 50.3634 43.2444L50.6941 45.4984C51.0161 46.9692 51.6514 47.1607 52.2606 47.1433L66.7247 47.387C67.4035 47.3696 68.0823 47.6306 68.5958 48.1354C69.1093 48.6402 69.3965 49.3103 69.3965 50.0239V51.6078C69.3965 53.0177 68.2999 54.1752 66.8901 54.2448L54.8192 54.2535Z" fill="black"/>
<path d="M55.2531 60.2411C54.7744 60.2411 54.3828 59.8494 54.3828 59.3708C54.3828 58.8921 54.7744 58.5005 55.2531 58.5005H63.7645C64.9481 58.4396 65.9228 57.43 65.9402 56.2116L65.9924 53.3658C66.0011 52.8872 66.4014 52.5303 66.8801 52.5129C67.3588 52.5216 67.7417 52.922 67.733 53.4006L67.6808 56.2465C67.6372 58.3787 65.9402 60.1366 63.808 60.2498L55.2531 60.2411Z" fill="black"/>
<path d="M54.8156 65.4889C54.3369 65.4889 53.9453 65.0973 53.9453 64.6186C53.9453 64.14 54.3369 63.7483 54.8156 63.7483H61.891C62.7874 63.7135 63.5271 62.9477 63.5271 62.0078V59.336C63.5271 58.8573 63.9188 58.4657 64.3974 58.4657C64.8761 58.4657 65.2677 58.8573 65.2677 59.336V62.0078C65.2677 63.8789 63.8056 65.4106 61.9258 65.4889H54.8156Z" fill="black"/>
<path d="M57.0034 70.3712H46.1422C43.9839 70.3712 41.843 69.8316 39.9371 68.8221L37.1087 67.3165C36.6822 67.0902 36.5256 66.5593 36.7518 66.1416C36.9781 65.7152 37.5003 65.5585 37.9267 65.7848L40.7465 67.2904C42.4 68.1694 44.2624 68.6393 46.1335 68.6393H57.0034C58.6395 68.6393 59.971 67.3078 59.971 65.6716V64.6273C59.971 64.1486 60.3627 63.757 60.8413 63.757C61.32 63.757 61.7116 64.1486 61.7116 64.6273V65.6716C61.7116 68.2651 59.6055 70.3712 57.0034 70.3712Z" fill="black"/>
<path d="M25.334 67.1946H23.1148C21.9486 67.1946 21 66.246 21 65.0798V52.0081C21 50.8419 21.9486 49.8933 23.1148 49.8933H25.3253C25.804 49.8933 26.1956 50.2849 26.1956 50.7636C26.1956 51.2423 25.804 51.6339 25.3253 51.6339H23.1148C22.9059 51.6339 22.7406 51.7992 22.7406 52.0081V65.0885C22.7406 65.2973 22.9059 65.4627 23.1148 65.4627H25.3253C25.804 65.4627 26.1956 65.8543 26.1956 66.333C26.1956 66.8116 25.8127 67.1946 25.334 67.1946Z" fill="black"/>
<path d="M58.2834 49.023C58.266 49.023 58.2399 49.023 58.2224 49.023C57.7438 49.0143 57.3609 48.6227 57.3609 48.144C57.3696 47.6654 57.7786 47.3173 58.2399 47.2825H58.2747C59.4408 47.2825 60.6331 46.5166 60.9987 45.5245L61.4425 44.3409C61.5382 44.0972 61.5034 43.8274 61.3555 43.6186C61.2075 43.401 60.9725 43.2791 60.7115 43.2791H57.9875C57.5088 43.2791 57.1172 42.8875 57.1172 42.4089C57.1172 41.9302 57.5088 41.5386 57.9875 41.5386H60.7115C61.5382 41.5386 62.3128 41.9476 62.7914 42.6264C63.2701 43.3053 63.3745 44.1755 63.0786 44.9501L62.6348 46.1337C62.0082 47.8133 60.1893 49.023 58.2834 49.023Z" fill="black"/>
</svg>
