<svg width="90" height="90" viewBox="0 0 90 90" fill="none" xmlns="http://www.w3.org/2000/svg">
<path d="M87 46C87 69.196 68.196 88 45 88C23.5989 88 5.93655 71.9937 3.33255 51.2989C3.1132 49.5639 3 47.7948 3 46C3 42.712 3.37718 39.5115 4.092 36.4411C8.41882 17.8515 25.092 4 45 4C64.8583 4 81.4988 17.7829 85.8737 36.3041C86.4479 38.7263 86.8097 41.2292 86.9418 43.792C86.9811 44.5239 87 45.2594 87 46Z" fill="white"/>
<path d="M54.8087 53.0833L54.0854 50.5809C52.6519 50.2508 51.2839 49.6825 50.0385 48.8996L47.7316 50.1508C46.5187 49.2508 45.445 48.1771 44.545 46.9642L45.7962 44.6573C45.0133 43.4119 44.445 42.0439 44.1149 40.6104L41.6125 39.8871C41.3778 38.3843 41.3778 36.8543 41.6125 35.3515L44.1149 34.6282C44.445 33.1947 45.0133 31.8267 45.7962 30.5813L45.3661 29.7993H17.9766V63.0343H57.0765V53.2593C56.3171 53.2598 55.5589 53.201 54.8087 53.0833ZM35.5715 57.1693H23.8416V49.3493H35.5715V57.1693ZM35.5715 45.4393H23.8416V35.6643H35.5715V45.4393Z" fill="#F2F2F2"/>
<path d="M43.394 68.8993H31.6641L33.6191 63.0343H41.439L43.394 68.8993Z" fill="#43B3FF"/>
<path d="M72.5416 35.3516L70.0392 34.6282C69.709 33.1947 69.1407 31.8268 68.3579 30.5814L69.6091 28.2745C68.709 27.0616 67.6353 25.9879 66.4224 25.0878L64.1156 26.339C62.8702 25.5561 61.5022 24.9878 60.0687 24.6577L59.3454 22.1553C57.8426 21.9207 56.3126 21.9207 54.8099 22.1553L54.0864 24.6577C52.6529 24.9878 51.285 25.5561 50.0396 26.339L47.7327 25.0878C46.5198 25.9879 45.4461 27.0616 44.546 28.2745L45.3671 29.7994L45.7972 30.5814C45.0144 31.8268 44.4461 33.1947 44.1159 34.6282L41.6135 35.3516C41.3788 36.8543 41.3788 38.3844 41.6135 39.8871L44.1159 40.6105C44.4461 42.044 45.0144 43.4119 45.7972 44.6573L44.546 46.9642C45.4461 48.1771 46.5198 49.2509 47.7327 50.1509L50.0396 48.8997C51.2849 49.6825 52.6529 50.2508 54.0863 50.581L54.8098 53.0834C56.3125 53.3181 57.8425 53.3181 59.3452 53.0834L60.0687 50.581C61.5022 50.2509 62.8701 49.6825 64.1156 48.8997L66.4225 50.1509C67.6354 49.2508 68.7091 48.1771 69.6091 46.9642L68.3579 44.6573C69.1407 43.4119 69.709 42.044 70.0392 40.6105L72.5416 39.8871C72.7763 38.3844 72.7763 36.8543 72.5416 35.3516ZM62.6102 43.152C61.516 44.2462 60.1218 44.9914 58.604 45.2933C57.0862 45.5953 55.513 45.4403 54.0833 44.8481C52.6536 44.2559 51.4316 43.253 50.5718 41.9663C49.7121 40.6796 49.2532 39.1669 49.2532 37.6193C49.2532 36.0718 49.7121 34.5591 50.5718 33.2724C51.4316 31.9857 52.6536 30.9828 54.0833 30.3906C55.513 29.7984 57.0862 29.6434 58.604 29.9453C60.1218 30.2472 61.516 30.9924 62.6102 32.0867C64.075 33.5554 64.8976 35.545 64.8976 37.6193C64.8976 39.6936 64.075 41.6833 62.6102 43.152Z" fill="#FFC943"/>
<path d="M23.8438 35.6643H35.5737V45.4393H23.8438V35.6643Z" fill="#F45151"/>
<path d="M23.8438 49.3493H35.5737V57.1693H23.8438V49.3493Z" fill="#F45151"/>
<path d="M57.0774 56.1918C56.949 56.1918 56.8219 56.217 56.7033 56.2661C56.5846 56.3152 56.4769 56.3872 56.3861 56.478C56.2953 56.5688 56.2233 56.6765 56.1742 56.7952C56.1251 56.9138 56.0999 57.0409 56.0999 57.1693V62.0568H18.955V57.1693C18.955 56.9101 18.852 56.6615 18.6687 56.4781C18.4854 56.2948 18.2367 56.1918 17.9775 56.1918C17.7182 56.1918 17.4696 56.2948 17.2863 56.4781C17.103 56.6615 17 56.9101 17 57.1693V63.0343C16.9999 63.1627 17.0252 63.2899 17.0743 63.4085C17.1234 63.5271 17.1954 63.6349 17.2861 63.7257C17.3769 63.8165 17.4847 63.8885 17.6033 63.9376C17.722 63.9867 17.8491 64.0119 17.9775 64.0118H32.2616L30.9583 67.9218H29.7075C29.4482 67.9218 29.1996 68.0248 29.0163 68.2081C28.833 68.3914 28.73 68.6401 28.73 68.8993C28.73 69.1586 28.833 69.4072 29.0163 69.5905C29.1996 69.7738 29.4482 69.8768 29.7075 69.8768H45.3475C45.6067 69.8768 45.8553 69.7738 46.0387 69.5905C46.222 69.4072 46.325 69.1586 46.325 68.8993C46.325 68.6401 46.222 68.3914 46.0387 68.2081C45.8553 68.0248 45.6067 67.9218 45.3475 67.9218H44.0966L42.7933 64.0118H57.0774C57.2058 64.0119 57.333 63.9867 57.4516 63.9376C57.5702 63.8885 57.678 63.8165 57.7688 63.7257C57.8596 63.6349 57.9316 63.5271 57.9807 63.4085C58.0298 63.2899 58.055 63.1627 58.0549 63.0343V57.1693C58.055 57.0409 58.0298 56.9138 57.9807 56.7952C57.9316 56.6765 57.8596 56.5688 57.7688 56.478C57.678 56.3872 57.5702 56.3152 57.4516 56.2661C57.333 56.217 57.2058 56.1918 57.0774 56.1918ZM42.036 67.9218H33.019L34.322 64.0118H40.733L42.036 67.9218Z" fill="black"/>
<path d="M17.9775 50.3269C18.1059 50.3269 18.233 50.3017 18.3517 50.2526C18.4703 50.2035 18.5781 50.1315 18.6689 50.0407C18.7596 49.9499 18.8316 49.8422 18.8807 49.7235C18.9298 49.6049 18.9551 49.4778 18.955 49.3494V30.7769H39.4825C39.7417 30.7769 39.9903 30.6739 40.1737 30.4906C40.357 30.3073 40.46 30.0586 40.46 29.7994C40.46 29.5401 40.357 29.2915 40.1737 29.1082C39.9903 28.9249 39.7417 28.8219 39.4825 28.8219H17.9775C17.8491 28.8218 17.722 28.8471 17.6033 28.8962C17.4847 28.9453 17.3769 29.0173 17.2861 29.108C17.1954 29.1988 17.1234 29.3066 17.0743 29.4252C17.0252 29.5439 16.9999 29.671 17 29.7994V49.3494C16.9999 49.4778 17.0252 49.6049 17.0743 49.7235C17.1234 49.8422 17.1954 49.9499 17.2861 50.0407C17.3769 50.1315 17.4847 50.2035 17.6033 50.2526C17.722 50.3017 17.8491 50.3269 17.9775 50.3269Z" fill="black"/>
<path d="M73.5145 35.2119C73.4866 35.028 73.4067 34.8558 73.2843 34.7158C73.1619 34.5758 73.0019 34.4737 72.8234 34.4215L70.8445 33.8392C70.5303 32.6932 70.0719 31.5917 69.4804 30.5611L70.477 28.7474C70.567 28.5831 70.6079 28.3965 70.5949 28.2097C70.5818 28.0229 70.5154 27.8437 70.4035 27.6935C69.4418 26.4014 68.2966 25.2565 67.0042 24.2952C66.8538 24.1839 66.6746 24.1179 66.4879 24.105C66.3012 24.0922 66.1147 24.133 65.9504 24.2227L64.1376 25.2173C63.1066 24.6268 62.0052 24.1688 60.8595 23.8542L60.2772 21.8744C60.2249 21.6959 60.1227 21.5361 59.9827 21.4137C59.8427 21.2913 59.6707 21.2113 59.4869 21.1833C57.8912 20.9389 56.2676 20.9389 54.6719 21.1833C54.488 21.2113 54.316 21.2913 54.176 21.4137C54.036 21.5361 53.9338 21.6959 53.8815 21.8744L53.2992 23.8542C52.1535 24.1688 51.0521 24.6268 50.0211 25.2174L48.2084 24.2227C48.0443 24.1325 47.8576 24.0913 47.6708 24.1042C47.4839 24.1171 47.3047 24.1834 47.1545 24.2952C45.8621 25.2566 44.7169 26.4014 43.7552 27.6936C43.6433 27.8437 43.5769 28.0229 43.5639 28.2097C43.5508 28.3965 43.5917 28.5832 43.6817 28.7474L44.6783 30.5612C44.0868 31.5918 43.6284 32.6932 43.3142 33.8392L41.3353 34.4215C41.1568 34.4737 40.9969 34.5758 40.8744 34.7159C40.752 34.8559 40.6721 35.028 40.6442 35.2119C40.3998 36.8076 40.3998 38.4312 40.6442 40.0269C40.6721 40.2108 40.752 40.3829 40.8744 40.5229C40.9969 40.663 41.1568 40.7651 41.3353 40.8173L43.3142 41.3996C43.6284 42.5455 44.0868 43.647 44.6783 44.6776L43.6817 46.4913C43.5917 46.6556 43.5508 46.8422 43.5639 47.0291C43.5769 47.2159 43.6433 47.395 43.7552 47.5452C44.7173 48.8372 45.8621 49.9826 47.1536 50.9454C47.304 51.0572 47.4834 51.1235 47.6703 51.1363C47.8573 51.1492 48.044 51.1081 48.2084 51.018L50.0211 50.0214C51.0521 50.612 52.1535 51.07 53.2992 51.3846L53.8815 53.3644C53.9338 53.5428 54.036 53.7027 54.176 53.8251C54.316 53.9475 54.488 54.0274 54.6719 54.0555C56.2676 54.2999 57.8912 54.2999 59.4869 54.0555C59.6707 54.0274 59.8427 53.9475 59.9827 53.8251C60.1227 53.7027 60.2249 53.5428 60.2772 53.3644L60.8595 51.3846C62.0052 51.07 63.1066 50.612 64.1376 50.0214L65.9504 51.018C66.1147 51.1081 66.3014 51.1491 66.4884 51.1363C66.6754 51.1234 66.8547 51.0572 67.0052 50.9454C68.2967 49.9826 69.4414 48.8372 70.4035 47.5452C70.5154 47.395 70.5818 47.2159 70.5949 47.0291C70.6079 46.8422 70.567 46.6556 70.477 46.4913L69.4804 44.6776C70.0719 43.647 70.5303 42.5455 70.8445 41.3996L72.8234 40.8173C73.0019 40.7651 73.1619 40.663 73.2843 40.5229C73.4067 40.3829 73.4866 40.2108 73.5145 40.0269C73.7589 38.4312 73.7589 36.8076 73.5145 35.2119ZM71.6617 39.1219L69.7573 39.6813C69.5903 39.7299 69.4395 39.8222 69.3203 39.9488C69.2011 40.0753 69.118 40.2315 69.0795 40.401C68.775 41.7249 68.2496 42.988 67.5254 44.1373C67.4332 44.2847 67.3819 44.454 67.3769 44.6279C67.3719 44.8017 67.4132 44.9737 67.4968 45.1262L68.4533 46.8674C67.8199 47.6474 67.1079 48.3601 66.3285 48.9942L64.5882 48.0377C64.436 47.9539 64.2641 47.9124 64.0903 47.9174C63.9166 47.9225 63.7474 47.9739 63.6002 48.0664C62.4497 48.7884 61.1866 49.3131 59.863 49.6185C59.6934 49.657 59.5371 49.7401 59.4104 49.8593C59.2837 49.9784 59.1911 50.1293 59.1423 50.2963L58.582 52.2016C57.5833 52.3124 56.5755 52.3124 55.5769 52.2016L55.0166 50.2963C54.9678 50.1293 54.8752 49.9784 54.7485 49.8593C54.6218 49.7401 54.4655 49.657 54.2959 49.6185C52.9723 49.3131 51.7092 48.7884 50.5587 48.0664C50.4112 47.9748 50.2421 47.9239 50.0685 47.9189C49.895 47.9138 49.7232 47.9548 49.5707 48.0377L47.8304 48.9942C47.051 48.3602 46.3389 47.6475 45.7055 46.8674L46.662 45.1262C46.7456 44.9737 46.787 44.8017 46.7819 44.6279C46.7769 44.454 46.7256 44.2847 46.6334 44.1373C45.9092 42.988 45.3838 41.7249 45.0793 40.401C45.0408 40.2315 44.9577 40.0753 44.8385 39.9488C44.7194 39.8222 44.5685 39.7299 44.4016 39.6813L42.4972 39.1219C42.3893 38.1231 42.3893 37.1156 42.4972 36.1168L44.4016 35.5574C44.5685 35.5088 44.7194 35.4165 44.8385 35.2899C44.9577 35.1634 45.0408 35.0072 45.0793 34.8377C45.3838 33.5138 45.9091 32.2507 46.6333 31.1014C46.7255 30.954 46.7768 30.7846 46.7818 30.6108C46.7869 30.437 46.7455 30.265 46.662 30.1124L45.7055 28.3713C46.3378 27.5909 47.05 26.8788 47.8303 26.2464L49.5705 27.201C49.7231 27.2838 49.8948 27.3248 50.0684 27.3198C50.2419 27.3148 50.411 27.2639 50.5585 27.1723C51.709 26.4503 52.9722 25.9256 54.2957 25.6202C54.4654 25.5817 54.6216 25.4986 54.7484 25.3794C54.8751 25.2603 54.9676 25.1094 55.0164 24.9424L55.5768 23.0371C56.5754 22.9263 57.5832 22.9263 58.5818 23.0371L59.1422 24.9424C59.191 25.1094 59.2835 25.2603 59.4102 25.3794C59.537 25.4986 59.6932 25.5817 59.8629 25.6202C61.1864 25.9256 62.4496 26.4503 63.6001 27.1723C63.7476 27.2639 63.9167 27.3148 64.0902 27.3198C64.2638 27.3249 64.4355 27.2839 64.5881 27.201L66.3283 26.2464C67.1087 26.8788 67.8208 27.5909 68.4532 28.3713L67.4967 30.1125C67.4132 30.265 67.3718 30.437 67.3768 30.6108C67.3819 30.7847 67.4331 30.954 67.5253 31.1014C68.2496 32.2507 68.7749 33.5138 69.0794 34.8377C69.1179 35.0072 69.201 35.1634 69.3202 35.2899C69.4394 35.4165 69.5903 35.5088 69.7572 35.5574L71.6616 36.1168C71.7695 37.1156 71.7695 38.1231 71.6617 39.1219Z" fill="black"/>
<path d="M50.8577 31.3993C49.6274 32.6297 48.7896 34.1973 48.4502 35.9038C48.1108 37.6103 48.2851 39.3791 48.951 40.9866C49.6169 42.5941 50.7445 43.968 52.1912 44.9347C53.6379 45.9013 55.3388 46.4173 57.0787 46.4173C58.8187 46.4173 60.5196 45.9013 61.9663 44.9347C63.413 43.968 64.5406 42.5941 65.2065 40.9866C65.8724 39.3791 66.0466 37.6103 65.7072 35.9038C65.3679 34.1973 64.5301 32.6297 63.2998 31.3993C62.4871 30.5748 61.5186 29.9201 60.4506 29.4732C59.3826 29.0263 58.2365 28.7961 57.0787 28.7961C55.921 28.7961 54.7749 29.0263 53.7069 29.4732C52.6389 29.9201 51.6704 30.5748 50.8577 31.3993ZM61.9176 42.4573C60.7983 43.5767 59.3255 44.2734 57.7501 44.4287C56.1747 44.584 54.5942 44.1882 53.2779 43.3088C51.9616 42.4294 50.9909 41.1208 50.5313 39.606C50.0717 38.0911 50.1516 36.4638 50.7573 35.0012C51.3631 33.5387 52.4572 32.3314 53.8533 31.5851C55.2494 30.8388 56.861 30.5997 58.4136 30.9085C59.9663 31.2173 61.3638 32.0549 62.3681 33.2786C63.3723 34.5023 63.9212 36.0364 63.9212 37.6194C63.9205 39.4338 63.1999 41.1737 61.9176 42.4573Z" fill="black"/>
<path d="M36.5483 35.6644C36.5483 35.536 36.5231 35.4089 36.474 35.2902C36.4249 35.1716 36.3529 35.0638 36.2621 34.973C36.1713 34.8822 36.0636 34.8102 35.9449 34.7611C35.8263 34.712 35.6991 34.6868 35.5708 34.6869H23.8408C23.7124 34.6868 23.5852 34.712 23.4666 34.7611C23.348 34.8102 23.2402 34.8822 23.1494 34.973C23.0586 35.0638 22.9866 35.1716 22.9375 35.2902C22.8884 35.4089 22.8632 35.536 22.8633 35.6644V45.4394C22.8632 45.5678 22.8884 45.6949 22.9375 45.8135C22.9866 45.9322 23.0586 46.0399 23.1494 46.1307C23.2402 46.2215 23.348 46.2935 23.4666 46.3426C23.5852 46.3917 23.7124 46.4169 23.8408 46.4169H35.5708C35.6991 46.4169 35.8263 46.3917 35.9449 46.3426C36.0636 46.2935 36.1713 46.2215 36.2621 46.1307C36.3529 46.0399 36.4249 45.9322 36.474 45.8135C36.5231 45.6949 36.5483 45.5678 36.5483 45.4394V35.6644ZM34.5933 44.4619H24.8183V36.6419H34.5933V44.4619Z" fill="black"/>
<path d="M35.5708 48.3719H23.8408C23.7124 48.3718 23.5852 48.397 23.4666 48.4461C23.348 48.4952 23.2402 48.5672 23.1494 48.658C23.0586 48.7488 22.9866 48.8566 22.9375 48.9752C22.8884 49.0939 22.8632 49.221 22.8633 49.3494V57.1694C22.8632 57.2978 22.8884 57.4249 22.9375 57.5435C22.9866 57.6622 23.0586 57.77 23.1494 57.8607C23.2402 57.9515 23.348 58.0235 23.4666 58.0726C23.5852 58.1217 23.7124 58.1469 23.8408 58.1469H35.5708C35.6991 58.1469 35.8263 58.1217 35.9449 58.0726C36.0636 58.0235 36.1713 57.9515 36.2621 57.8607C36.3529 57.77 36.4249 57.6622 36.474 57.5435C36.5231 57.4249 36.5483 57.2978 36.5483 57.1694V49.3494C36.5483 49.221 36.5231 49.0939 36.474 48.9752C36.4249 48.8566 36.3529 48.7488 36.2621 48.658C36.1713 48.5672 36.0636 48.4952 35.9449 48.4461C35.8263 48.397 35.6991 48.3718 35.5708 48.3719ZM34.5933 56.1919H24.8183V50.3269H34.5933V56.1919Z" fill="black"/>
<path d="M38.5039 57.1693C38.5038 57.2977 38.5291 57.4249 38.5782 57.5435C38.6273 57.6621 38.6993 57.7699 38.79 57.8607C38.8808 57.9515 38.9886 58.0235 39.1072 58.0726C39.2259 58.1217 39.353 58.1469 39.4814 58.1468H51.2114C51.4706 58.1468 51.7193 58.0438 51.9026 57.8605C52.0859 57.6772 52.1889 57.4286 52.1889 57.1693C52.1889 56.9101 52.0859 56.6615 51.9026 56.4781C51.7193 56.2948 51.4706 56.1918 51.2114 56.1918H39.4814C39.353 56.1918 39.2259 56.217 39.1072 56.2661C38.9886 56.3152 38.8808 56.3872 38.79 56.478C38.6993 56.5688 38.6273 56.6765 38.5782 56.7952C38.5291 56.9138 38.5038 57.0409 38.5039 57.1693Z" fill="black"/>
<path d="M45.3464 52.2818H39.4814C39.2222 52.2818 38.9735 52.3848 38.7902 52.5681C38.6069 52.7514 38.5039 53 38.5039 53.2593C38.5039 53.5185 38.6069 53.7672 38.7902 53.9505C38.9735 54.1338 39.2222 54.2368 39.4814 54.2368H45.3464C45.6056 54.2368 45.8543 54.1338 46.0376 53.9505C46.2209 53.7672 46.3239 53.5185 46.3239 53.2593C46.3239 53 46.2209 52.7514 46.0376 52.5681C45.8543 52.3848 45.6056 52.2818 45.3464 52.2818Z" fill="black"/>
<path d="M17.9775 54.2368C18.5174 54.2368 18.955 53.7992 18.955 53.2593C18.955 52.7194 18.5174 52.2818 17.9775 52.2818C17.4376 52.2818 17 52.7194 17 53.2593C17 53.7992 17.4376 54.2368 17.9775 54.2368Z" fill="black"/>
</svg>
