<svg width="90" height="90" viewBox="0 0 90 90" fill="none" xmlns="http://www.w3.org/2000/svg">
<path d="M87 46C87 69.196 68.196 88 45 88C23.5989 88 5.93655 71.9937 3.33255 51.2989C3.1132 49.5639 3 47.7948 3 46C3 42.712 3.37718 39.5115 4.092 36.4411C8.41882 17.8515 25.092 4 45 4C64.8583 4 81.4988 17.7829 85.8737 36.3041C86.4479 38.7263 86.8097 41.2292 86.9418 43.792C86.9811 44.5239 87 45.2594 87 46Z" fill="white"/>
<path d="M66.3842 40.2837L44.9376 44.0135L23.4911 40.2837L22.5586 41.2162V64.5277L44.9376 70.1224L67.3167 64.5277V41.2162L66.3842 40.2837Z" fill="#6687B3"/>
<path d="M70.7245 60.0349C70.5432 60.0318 70.3676 59.9707 70.2235 59.8605C70.0794 59.7504 69.9743 59.597 69.9238 59.4228C69.7926 59.0102 69.6262 58.6097 69.4265 58.2256C69.3387 58.0665 69.3043 57.8834 69.3283 57.7033C69.3523 57.5232 69.4333 57.3555 69.5597 57.2248L70.4489 56.3356L68.2144 54.101L68.0513 53.9379L67.162 54.8272C67.0314 54.9535 66.8637 55.0346 66.6836 55.0586C66.5035 55.0826 66.3204 55.0481 66.1613 54.9604C65.7772 54.7607 65.3767 54.5943 64.9641 54.4631C64.7899 54.4125 64.6365 54.3075 64.5263 54.1634C64.4162 54.0193 64.3551 53.8437 64.352 53.6623V52.4056H60.9613V53.6623C60.9582 53.8437 60.8971 54.0193 60.7869 54.1634C60.6768 54.3075 60.5234 54.4125 60.3492 54.4631C59.9366 54.5943 59.5361 54.7607 59.152 54.9604C58.9929 55.0481 58.8098 55.0826 58.6297 55.0586C58.4496 55.0346 58.2819 54.9535 58.1512 54.8272L57.262 53.9379L54.8644 56.3356L55.7536 57.2248C55.8799 57.3555 55.961 57.5232 55.985 57.7033C56.009 57.8834 55.9745 58.0665 55.8868 58.2256C55.6871 58.6097 55.5207 59.0102 55.3895 59.4228C55.3389 59.597 55.2339 59.7504 55.0898 59.8605C54.9457 59.9707 54.7701 60.0318 54.5887 60.0349H53.332V63.4256H54.5887C54.7701 63.4287 54.9457 63.4898 55.0898 63.6C55.2339 63.7101 55.3389 63.8635 55.3895 64.0377C55.5207 64.4503 55.6871 64.8508 55.8868 65.2349C55.9745 65.394 56.009 65.5771 55.985 65.7572C55.961 65.9373 55.8799 66.105 55.7536 66.2356L54.8644 67.1249L57.262 69.5225L58.1512 68.6333C58.2819 68.5069 58.4496 68.4258 58.6297 68.4019C58.8098 68.3779 58.9929 68.4123 59.152 68.5001C59.5361 68.6998 59.9366 68.8661 60.3492 68.9973C60.5234 69.0479 60.6768 69.153 60.7869 69.2971C60.8971 69.4412 60.9582 69.6168 60.9613 69.7982V71.0548H64.352V69.7982C64.3551 69.6168 64.4162 69.4412 64.5263 69.2971C64.6365 69.153 64.7899 69.0479 64.9641 68.9973C65.3767 68.8661 65.7772 68.6998 66.1613 68.5001C66.3204 68.4123 66.5035 68.3779 66.6836 68.4019C66.8637 68.4258 67.0314 68.5069 67.162 68.6333L68.0513 69.5225L70.4489 67.1249L69.5597 66.2356C69.4334 66.105 69.3523 65.9373 69.3283 65.7572C69.3043 65.5771 69.3387 65.394 69.4265 65.2349C69.6262 64.8508 69.7926 64.4503 69.9238 64.0377C69.9743 63.8635 70.0794 63.7101 70.2235 63.6C70.3676 63.4898 70.5432 63.4287 70.7245 63.4256H71.9812V60.0349H70.7245ZM62.6566 65.9263C61.8267 65.9263 61.0155 65.6802 60.3254 65.2191C59.6354 64.7581 59.0976 64.1027 58.78 63.336C58.4624 62.5693 58.3793 61.7256 58.5412 60.9116C58.7031 60.0977 59.1027 59.35 59.6896 58.7632C60.2764 58.1763 61.0241 57.7767 61.838 57.6148C62.652 57.4529 63.4957 57.536 64.2624 57.8536C65.0291 58.1712 65.6845 58.709 66.1455 59.399C66.6066 60.0891 66.8527 60.9003 66.8527 61.7302C66.8527 62.8431 66.4106 63.9104 65.6237 64.6973C64.8368 65.4842 63.7695 65.9263 62.6566 65.9263Z" fill="#526273"/>
<path d="M62.6531 65.9263C64.9705 65.9263 66.8492 64.0477 66.8492 61.7303C66.8492 59.4128 64.9705 57.5342 62.6531 57.5342C60.3357 57.5342 58.457 59.4128 58.457 61.7303C58.457 64.0477 60.3357 65.9263 62.6531 65.9263Z" fill="#E6E6E6"/>
<path d="M44.9388 36.5538L23.4922 40.2837L44.9388 44.0135L66.3854 40.2837L44.9388 36.5538Z" fill="#CCDBF0"/>
<path d="M52.3951 27.4146C52.4453 25.4715 51.7346 23.5857 50.4144 22.1592C49.0942 20.7326 47.269 19.8782 45.3279 19.778C43.3867 19.6779 41.4833 20.34 40.0233 21.6231C38.5633 22.9063 37.6623 24.709 37.5124 26.6469C37.3868 27.8793 37.56 29.1239 38.0172 30.2752C38.4744 31.4265 39.2022 32.4508 40.139 33.2614C40.4744 33.5513 40.7432 33.9102 40.9273 34.3135C41.1113 34.7169 41.2062 35.1551 41.2055 35.5984V37.4863C41.2055 38.2282 41.5003 38.9398 42.0249 39.4644C42.5495 39.989 43.261 40.2837 44.0029 40.2837H45.8678C46.6098 40.2837 47.3213 39.989 47.8459 39.4644C48.3705 38.9398 48.6652 38.2282 48.6652 37.4863V35.5984C48.6622 35.1592 48.7541 34.7245 48.9347 34.3241C49.1153 33.9237 49.3803 33.567 49.7116 33.2786C50.5567 32.5537 51.2343 31.6539 51.6976 30.6414C52.1609 29.629 52.3989 28.528 52.3951 27.4146Z" fill="#FFE38F"/>
<path d="M41.0547 34.6889C41.1513 34.9826 41.203 35.2892 41.2082 35.5984V37.4863C41.2082 38.2282 41.503 38.9397 42.0276 39.4643C42.5522 39.9889 43.2637 40.2837 44.0056 40.2837H45.8705C46.6125 40.2837 47.324 39.9889 47.8486 39.4643C48.3732 38.9397 48.6679 38.2282 48.6679 37.4863V35.5983C48.673 35.2894 48.7239 34.9829 48.819 34.6889H41.0547Z" fill="#495766"/>
<path d="M23.4932 40.2837L44.9398 44.0135L39.345 50.5408L17.8984 45.8785L23.4932 40.2837Z" fill="#759ACC"/>
<path d="M66.3841 40.2837L44.9375 44.0135L50.5323 50.5408L71.9788 45.8785L66.3841 40.2837Z" fill="#759ACC"/>
<path d="M71.9801 64.3583C72.2274 64.3583 72.4646 64.26 72.6395 64.0852C72.8143 63.9103 72.9126 63.6731 72.9126 63.4258V60.0347C72.9126 59.7874 72.8143 59.5502 72.6395 59.3754C72.4646 59.2005 72.2274 59.1023 71.9801 59.1023H70.799C70.6577 58.6649 70.4811 58.2398 70.2709 57.8311L71.1073 56.9946C71.1939 56.9081 71.2626 56.8053 71.3095 56.6922C71.3564 56.5791 71.3805 56.4578 71.3805 56.3354C71.3805 56.2129 71.3564 56.0917 71.3095 55.9785C71.2626 55.8654 71.1939 55.7626 71.1073 55.6761L68.7106 53.2794C68.624 53.1925 68.5212 53.1236 68.408 53.0766C68.2948 53.0296 68.1734 53.0053 68.0508 53.0053C67.8036 53.0054 67.566 53.1036 67.3911 53.2785L66.5547 54.1149C66.1459 53.9048 65.7208 53.7282 65.2835 53.5868V52.4057C65.2835 52.1584 65.1853 51.9212 65.0104 51.7463C64.8355 51.5714 64.5984 51.4732 64.351 51.4732H60.96C60.7126 51.4732 60.4755 51.5714 60.3006 51.7463C60.1257 51.9212 60.0275 52.1584 60.0275 52.4057V53.5867C59.5902 53.7281 59.165 53.9047 58.7563 54.1149L57.9199 53.2785C57.8333 53.1918 57.7305 53.1231 57.6174 53.0763C57.5043 53.0294 57.383 53.0053 57.2606 53.0053C57.1381 53.0053 57.0169 53.0294 56.9038 53.0763C56.7906 53.1231 56.6879 53.1918 56.6013 53.2785L54.2037 55.6761C54.1171 55.7627 54.0484 55.8654 54.0015 55.9786C53.9546 56.0917 53.9305 56.2129 53.9305 56.3354C53.9305 56.4578 53.9546 56.5791 54.0015 56.6922C54.0484 56.8053 54.1171 56.9081 54.2037 56.9947L55.0401 57.8311C54.83 58.2399 54.6534 58.665 54.5119 59.1023H53.3309C53.0836 59.1023 52.8464 59.2005 52.6715 59.3754C52.4967 59.5503 52.3984 59.7874 52.3984 60.0348V63.4258C52.3984 63.6731 52.4967 63.9103 52.6715 64.0852C52.8464 64.2601 53.0836 64.3583 53.3309 64.3583H54.512C54.6533 64.7956 54.8299 65.2208 55.0401 65.6295L54.2037 66.4659C54.1171 66.5525 54.0484 66.6553 54.0015 66.7684C53.9546 66.8815 53.9305 67.0028 53.9305 67.1252C53.9305 67.2477 53.9546 67.3689 54.0015 67.482C54.0484 67.5952 54.1171 67.6979 54.2037 67.7845L56.6013 70.1821C56.6879 70.2687 56.7907 70.3374 56.9038 70.3843C57.0169 70.4311 57.1382 70.4553 57.2606 70.4553C57.3831 70.4553 57.5043 70.4311 57.6174 70.3843C57.7306 70.3374 57.8333 70.2687 57.9199 70.1821L58.7563 69.3457C59.1651 69.5558 59.5902 69.7324 60.0275 69.8738V71.0549C60.0275 71.3022 60.1258 71.5394 60.3006 71.7142C60.4755 71.8891 60.7127 71.9873 60.96 71.9873H64.3511C64.5984 71.9873 64.8356 71.8891 65.0104 71.7142C65.1853 71.5394 65.2835 71.3022 65.2835 71.0549V69.8738C65.7209 69.7325 66.146 69.5558 66.5547 69.3457L67.3912 70.1821C67.4777 70.2687 67.5805 70.3374 67.6936 70.3843C67.8067 70.4311 67.928 70.4553 68.0504 70.4553C68.1729 70.4553 68.2941 70.4311 68.4073 70.3843C68.5204 70.3374 68.6232 70.2687 68.7097 70.1821L71.1073 67.7844C71.1939 67.6979 71.2626 67.5951 71.3095 67.482C71.3564 67.3689 71.3805 67.2476 71.3805 67.1252C71.3805 67.0027 71.3564 66.8815 71.3095 66.7683C71.2626 66.6552 71.1939 66.5524 71.1073 66.4659L70.2709 65.6295C70.481 65.2207 70.6576 64.7956 70.7991 64.3582L71.9801 64.3583ZM69.0338 63.7555C68.9187 64.1169 68.7729 64.4678 68.5981 64.8045C68.4186 65.1394 68.351 65.523 68.4051 65.8991C68.4593 66.2752 68.6324 66.6241 68.8991 66.8948L69.1295 67.1252L68.0504 68.2042L67.82 67.9738C67.5494 67.7071 67.2006 67.534 66.8246 67.4798C66.4485 67.4257 66.065 67.4933 65.7302 67.6729C65.3933 67.8476 65.0422 67.9934 64.6807 68.1086C64.3177 68.219 63.9995 68.4424 63.7725 68.7464C63.5454 69.0503 63.4214 69.4189 63.4186 69.7982V70.1224H61.8924V69.7982C61.8896 69.4189 61.7656 69.0503 61.5385 68.7464C61.3115 68.4424 60.9933 68.219 60.6303 68.1086C60.2689 67.9935 59.9179 67.8477 59.5813 67.6729C59.2464 67.4933 58.8628 67.4256 58.4867 67.4797C58.1105 67.5339 57.7616 67.7071 57.491 67.9738L57.2606 68.2042L56.1815 67.1252L56.4119 66.8948C56.6786 66.6242 56.8517 66.2753 56.9058 65.8993C56.96 65.5233 56.8924 65.1398 56.7129 64.8049C56.5381 64.4681 56.3924 64.117 56.2772 63.7555C56.1668 63.3925 55.9433 63.0743 55.6394 62.8472C55.3355 62.6202 54.9669 62.4962 54.5875 62.4934H54.2634V60.9672H54.5875C54.9669 60.9643 55.3354 60.8403 55.6394 60.6133C55.9433 60.3863 56.1668 60.068 56.2772 59.7051C56.3923 59.3436 56.538 58.9927 56.7129 58.6561C56.8924 58.3211 56.96 57.9376 56.9059 57.5615C56.8517 57.1854 56.6786 56.8364 56.4119 56.5658L56.1815 56.3354L57.2606 55.2563L57.491 55.4867C57.7614 55.7536 58.1103 55.9269 58.4864 55.9811C58.8625 56.0352 59.2461 55.9674 59.5808 55.7877C59.9177 55.6129 60.2687 55.4671 60.6303 55.3519C60.9933 55.2416 61.3115 55.0181 61.5385 54.7142C61.7656 54.4102 61.8896 54.0417 61.8924 53.6623V53.3381H63.4186V53.6623C63.4214 54.0417 63.5454 54.4102 63.7725 54.7142C63.9995 55.0181 64.3177 55.2416 64.6807 55.3519C65.0421 55.467 65.3931 55.6128 65.7297 55.7876C66.0646 55.9672 66.4482 56.0349 66.8243 55.9807C67.2004 55.9266 67.5494 55.7535 67.82 55.4867L68.0504 55.2568L69.1294 56.3354L68.8991 56.5658C68.6324 56.8364 68.4593 57.1852 68.4052 57.5612C68.351 57.9373 68.4186 58.3208 68.5981 58.6556C68.7729 58.9924 68.9186 59.3435 69.0338 59.7051C69.1442 60.068 69.3677 60.3863 69.6716 60.6133C69.9755 60.8403 70.3441 60.9643 70.7234 60.9672H71.0476V62.4934H70.7235C70.3441 62.4962 69.9756 62.6202 69.6716 62.8472C69.3677 63.0743 69.1442 63.3925 69.0338 63.7555Z" fill="black"/>
<path d="M62.652 56.6017C61.6376 56.6017 60.6461 56.9025 59.8027 57.4661C58.9593 58.0296 58.302 58.8306 57.9138 59.7677C57.5257 60.7048 57.4241 61.736 57.622 62.7308C57.8199 63.7256 58.3083 64.6395 59.0256 65.3567C59.7428 66.0739 60.6566 66.5624 61.6514 66.7603C62.6463 66.9581 63.6775 66.8566 64.6146 66.4684C65.5517 66.0803 66.3527 65.4229 66.9162 64.5795C67.4797 63.7362 67.7805 62.7446 67.7805 61.7303C67.779 60.3706 67.2381 59.067 66.2767 58.1056C65.3152 57.1441 64.0117 56.6033 62.652 56.6017ZM62.652 64.9939C62.0065 64.9939 61.3755 64.8025 60.8388 64.4439C60.3021 64.0853 59.8838 63.5756 59.6368 62.9792C59.3898 62.3829 59.3251 61.7267 59.4511 61.0936C59.577 60.4605 59.8878 59.879 60.3442 59.4226C60.8007 58.9661 61.3822 58.6553 62.0153 58.5294C62.6484 58.4034 63.3046 58.4681 63.9009 58.7151C64.4972 58.9621 65.007 59.3804 65.3656 59.9171C65.7242 60.4538 65.9156 61.0848 65.9156 61.7303C65.9145 62.5955 65.5704 63.425 64.9585 64.0368C64.3467 64.6487 63.5172 64.9928 62.652 64.9939Z" fill="black"/>
<path d="M17.6992 46.7895L21.6271 47.6434V64.5277C21.6271 64.7356 21.6966 64.9375 21.8246 65.1015C21.9525 65.2654 22.1316 65.3818 22.3333 65.4323L44.7123 71.0271C44.8602 71.0674 45.0165 71.0641 45.1625 71.0176L45.1649 71.0271L52.6246 69.1622L52.172 67.3528L45.8711 68.928V46.5343L49.8254 51.1477C49.9129 51.2498 50.0215 51.3317 50.1438 51.3879C50.266 51.4441 50.3989 51.4732 50.5334 51.4732C50.6 51.4733 50.6664 51.4661 50.7314 51.4518L66.3852 48.0488V51.4732H68.2501V47.6434L72.178 46.7895C72.3416 46.754 72.4927 46.675 72.6152 46.5609C72.7378 46.4468 72.8274 46.3019 72.8746 46.1412C72.9217 45.9805 72.9248 45.8101 72.8834 45.6479C72.842 45.4857 72.7576 45.3376 72.6392 45.2192L67.0444 39.6244C66.9105 39.4935 66.7401 39.4061 66.5556 39.3737L66.5568 39.3672L51.6374 36.5698L51.2942 38.4029L61.141 40.2492L44.9386 43.0669L28.7362 40.2492L38.5831 38.4029L38.2398 36.5699L23.3204 39.3672L23.3216 39.3738C23.1371 39.406 22.9667 39.4934 22.8328 39.6244L17.238 45.2192C17.1196 45.3376 17.0352 45.4857 16.9938 45.6479C16.9524 45.8102 16.9554 45.9806 17.0026 46.1412C17.0498 46.3019 17.1394 46.4469 17.262 46.561C17.3846 46.675 17.5356 46.754 17.6992 46.7895ZM23.492 63.7996V48.0488L39.1458 51.4518C39.2108 51.4661 39.2772 51.4733 39.3438 51.4732C39.4783 51.4732 39.6113 51.4441 39.7335 51.3879C39.8557 51.3317 39.9643 51.2498 40.0518 51.1477L44.0061 46.5343V68.9282L23.492 63.7996ZM66.0683 41.2854L70.1128 45.3303L50.8789 49.5113L46.7134 44.6514L66.0683 41.2854ZM23.8089 41.2854L43.1638 44.6514L38.9983 49.5113L19.7644 45.3303L23.8089 41.2854Z" fill="black"/>
<path d="M36.585 26.5581C36.4487 27.9388 36.6451 29.332 37.1577 30.6212C37.6704 31.9104 38.4844 33.0581 39.5317 33.9681C39.7655 34.1704 39.9529 34.4208 40.0809 34.7022C40.209 34.9836 40.2748 35.2894 40.2738 35.5986V37.4863C40.2749 38.4751 40.6683 39.4232 41.3675 40.1224C42.0667 40.8217 43.0148 41.215 44.0036 41.2161H45.8686C46.8574 41.215 47.8055 40.8217 48.5047 40.1224C49.204 39.4232 49.5973 38.4751 49.5984 37.4863V35.5981C49.5948 35.2935 49.6572 34.9918 49.7815 34.7137C49.9058 34.4356 50.0889 34.1877 50.3183 33.9873C51.2512 33.1814 52.002 32.1862 52.5209 31.0679C53.0398 29.9497 53.3148 28.7338 53.3278 27.5011C53.3408 26.2683 53.0915 25.0469 52.5963 23.9179C52.1011 22.789 51.3714 21.7782 50.4557 20.9528C49.5863 20.1664 48.5585 19.5755 47.4414 19.2199C46.3243 18.8643 45.144 18.7522 43.98 18.8912C42.0579 19.1344 40.2766 20.0272 38.9316 21.4217C37.5866 22.8161 36.7586 24.6285 36.585 26.5581ZM42.1387 35.6213H47.7335V36.5538H42.1387V35.6213ZM45.8686 39.3512H44.0036C43.6778 39.3502 43.3579 39.2635 43.0761 39.0998C42.7943 38.9362 42.5605 38.7013 42.3981 38.4187H47.4741C47.3118 38.7013 47.0779 38.9362 46.7961 39.0998C46.5143 39.2635 46.1944 39.3502 45.8686 39.3512ZM44.1903 20.7443C44.4394 20.7159 44.6899 20.7016 44.9407 20.7015C46.5193 20.6999 48.0421 21.2852 49.2132 22.3438C49.9305 22.9919 50.502 23.785 50.8899 24.6706C51.2777 25.5561 51.473 26.514 51.4629 27.4807C51.4528 28.4474 51.2375 29.401 50.8312 30.2782C50.4249 31.1555 49.837 31.9364 49.1062 32.5694C48.7264 32.9016 48.4153 33.3048 48.1903 33.7564H45.8686V31.8915C45.8687 31.7468 45.835 31.604 45.7703 31.4745C45.7056 31.3451 45.6115 31.2325 45.4957 31.1457L42.2931 28.7435C42.2453 28.7075 42.2065 28.6608 42.1797 28.6073C42.1529 28.5538 42.1389 28.4947 42.1387 28.4349V27.6153C42.1447 27.5418 42.1709 27.4714 42.2143 27.4118C42.2578 27.3522 42.3168 27.3057 42.385 27.2775C42.4531 27.2492 42.5277 27.2403 42.6006 27.2517C42.6734 27.2631 42.7417 27.2944 42.798 27.3421L43.3443 27.8885C43.7731 28.2979 44.3432 28.5264 44.9361 28.5264C45.529 28.5264 46.099 28.2979 46.5278 27.8885L47.0742 27.3421C47.1304 27.2944 47.1988 27.2632 47.2716 27.2518C47.3445 27.2404 47.4191 27.2493 47.4872 27.2775C47.5553 27.3058 47.6143 27.3522 47.6578 27.4118C47.7012 27.4714 47.7274 27.5418 47.7334 27.6153V28.4349C47.7332 28.4949 47.7191 28.554 47.6923 28.6076C47.6654 28.6612 47.6265 28.7079 47.5786 28.744L46.2415 29.747L47.3606 31.2386L48.6974 30.236C48.9765 30.0258 49.2031 29.7538 49.3594 29.4413C49.5158 29.1288 49.5976 28.7843 49.5984 28.4349V27.6153C49.5984 27.1701 49.4664 26.7349 49.219 26.3647C48.9717 25.9946 48.6201 25.7061 48.2088 25.5357C47.7975 25.3653 47.3449 25.3207 46.9082 25.4076C46.4716 25.4944 46.0705 25.7088 45.7557 26.0236L45.2093 26.57C45.1367 26.6421 45.0385 26.6826 44.9361 26.6826C44.8338 26.6826 44.7356 26.6421 44.663 26.57L44.1166 26.0236C43.8018 25.7088 43.4007 25.4944 42.964 25.4075C42.5274 25.3207 42.0748 25.3652 41.6634 25.5356C41.2521 25.706 40.9005 25.9945 40.6532 26.3647C40.4058 26.7349 40.2738 27.1701 40.2738 27.6153V28.4349C40.2746 28.7842 40.3563 29.1286 40.5126 29.441C40.6689 29.7534 40.8954 30.0254 41.1744 30.2356L44.0036 32.3577V33.7564H41.6767C41.4473 33.3 41.1321 32.892 40.7482 32.5549C39.9271 31.8394 39.2892 30.9378 38.8879 29.9253C38.4866 28.9128 38.3336 27.8189 38.4417 26.7352C38.5879 25.2361 39.2345 23.8299 40.2773 22.7431C41.3202 21.6563 42.6985 20.9522 44.1903 20.7443Z" fill="black"/>
<path d="M54.2617 26.2968H57.0591V28.1617H54.2617V26.2968Z" fill="black"/>
<path d="M32.8164 26.2968H35.6138V28.1617H32.8164V26.2968Z" fill="black"/>
<path d="M35.6992 19.3187L37.0179 18L38.996 19.9781L37.6773 21.2968L35.6992 19.3187Z" fill="black"/>
<path d="M50.8672 19.9792L52.8452 18.0012L54.1639 19.3199L52.1859 21.2979L50.8672 19.9792Z" fill="black"/>
</svg>
