<svg width="20" height="17" viewBox="0 0 20 17" fill="none" xmlns="http://www.w3.org/2000/svg">
<g clip-path="url(#clip0_254_306)">
<path fill-rule="evenodd" clip-rule="evenodd" d="M19.0895 8.50233C19.0895 7.23778 17.5064 6.04003 15.0783 5.2959C15.6391 2.82116 15.389 0.852874 14.2922 0.222151C14.039 0.0745682 13.7439 0.00466051 13.4207 0.00466051V0.873069C13.5994 0.873069 13.7439 0.9088 13.865 0.974047C14.3948 1.27698 14.6231 2.43279 14.4445 3.91949C14.401 4.28457 14.3311 4.66983 14.2456 5.06287C13.4829 4.87645 12.6502 4.73197 11.7756 4.63876C11.2505 3.91949 10.7052 3.26547 10.1568 2.69378C11.4245 1.51311 12.6145 0.868409 13.4238 0.868409V0C12.3535 0 10.9538 0.762771 9.53696 2.08636C8.12017 0.770538 6.72046 0.015535 5.6501 0.015535V0.883944C6.45481 0.883944 7.64946 1.52554 8.91867 2.69688C8.37339 3.26857 7.82966 3.91794 7.31235 4.63876C6.43306 4.73197 5.60038 4.87645 4.83761 5.06598C4.74751 4.6776 4.68226 4.3001 4.63566 3.93813C4.45234 2.45143 4.67916 1.29562 5.20424 0.988029C5.32075 0.918121 5.473 0.887051 5.65165 0.887051V0.0201956C5.32541 0.0201956 5.02869 0.0901033 4.77237 0.237686C3.6787 0.868409 3.43324 2.83359 3.99872 5.30056C1.57525 6.04624 0 7.24088 0 8.50233C0 9.76688 1.58302 10.9646 4.01115 11.7088C3.45033 14.1835 3.70045 16.1518 4.79722 16.7825C5.05044 16.9301 5.34561 17 5.6734 17C6.74376 17 8.14347 16.2372 9.56027 14.9136C10.9771 16.2295 12.3768 16.9845 13.4471 16.9845C13.7734 16.9845 14.0701 16.9146 14.3264 16.767C15.4201 16.1363 15.6655 14.1711 15.1001 11.7041C17.5142 10.9615 19.0895 9.76222 19.0895 8.50233ZM11.3188 8.50233C11.3188 7.52052 10.5234 6.72357 9.54007 6.72357C8.55826 6.72357 7.76131 7.51896 7.76131 8.50233C7.76131 9.4857 8.5567 10.2811 9.54007 10.2811C10.5234 10.2795 11.3188 9.48414 11.3188 8.50233ZM14.0235 5.90642C13.879 6.40821 13.7004 6.92552 13.4984 7.44284C13.3384 7.13214 13.1722 6.81988 12.9889 6.50918C12.8102 6.19848 12.6191 5.894 12.428 5.59883C12.9811 5.68117 13.5139 5.78214 14.0235 5.90642ZM12.2416 10.0512C11.9387 10.5763 11.6264 11.0749 11.3033 11.5379C10.7238 11.5891 10.1366 11.6156 9.54473 11.6156C8.95751 11.6156 8.37028 11.5876 7.79393 11.541C7.4708 11.078 7.15544 10.584 6.85251 10.062C6.55734 9.5525 6.28859 9.03518 6.04313 8.5132C6.28393 7.99123 6.55734 7.4708 6.84785 6.96125C7.15078 6.43617 7.46304 5.93749 7.78616 5.47455C8.36562 5.42328 8.95285 5.39687 9.54473 5.39687C10.132 5.39687 10.7192 5.42484 11.2955 5.47144C11.6187 5.93439 11.934 6.4284 12.237 6.95038C12.5321 7.45993 12.8009 7.97725 13.0463 8.49922C12.8009 9.01965 12.5337 9.54007 12.2416 10.0512ZM13.4984 9.54473C13.7081 10.0667 13.8868 10.5871 14.0359 11.0936C13.5264 11.2179 12.9889 11.3235 12.4327 11.4043C12.6238 11.1045 12.8133 10.7969 12.9935 10.4815C13.1706 10.1708 13.3384 9.85543 13.4984 9.54473ZM9.5525 13.6957C9.19053 13.3229 8.82857 12.9065 8.47126 12.4513C8.8208 12.4669 9.17966 12.4793 9.54162 12.4793C9.9067 12.4793 10.2687 12.4715 10.6229 12.4513C10.2718 12.9065 9.90981 13.3229 9.5525 13.6957ZM6.65832 11.4043C6.10527 11.3219 5.57242 11.221 5.06287 11.0967C5.20735 10.5949 5.386 10.0776 5.58796 9.56027C5.74797 9.87097 5.91419 10.1832 6.09751 10.4939C6.28082 10.8062 6.46724 11.1091 6.65832 11.4043ZM9.5323 3.30741C9.89427 3.68025 10.2562 4.09659 10.6135 4.55177C10.264 4.53623 9.90514 4.52381 9.54318 4.52381C9.1781 4.52381 8.81614 4.53157 8.46194 4.55177C8.81303 4.09659 9.175 3.68025 9.5323 3.30741ZM6.65366 5.59883C6.46258 5.89866 6.27305 6.20625 6.09284 6.52161C5.91419 6.83231 5.74641 7.14457 5.5864 7.45527C5.37668 6.93329 5.19803 6.41287 5.04889 5.90642C5.55999 5.78525 6.09751 5.68117 6.65366 5.59883ZM3.13186 10.4706C1.75391 9.8834 0.863748 9.11286 0.863748 8.50233C0.863748 7.8918 1.75546 7.1166 3.13186 6.53404C3.46587 6.38956 3.8325 6.26218 4.21 6.141C4.43215 6.90377 4.72421 7.69761 5.08617 8.5101C4.72887 9.31947 4.43992 10.1087 4.22243 10.8683C3.83716 10.7471 3.47053 10.6151 3.13186 10.4706ZM5.22599 16.0306C4.69624 15.7277 4.46788 14.5719 4.64653 13.0852C4.69003 12.7201 4.75994 12.3348 4.84538 11.9418C5.60815 12.1282 6.44083 12.2727 7.31545 12.3659C7.84054 13.0852 8.38582 13.7392 8.9342 14.3109C7.66499 15.49 6.47501 16.1363 5.66563 16.1363C5.49008 16.1316 5.3425 16.0974 5.22599 16.0306ZM14.4554 13.0665C14.6387 14.5532 14.4119 15.709 13.8868 16.0166C13.7703 16.0865 13.618 16.1176 13.4394 16.1176C12.6347 16.1176 11.44 15.476 10.1708 14.3047C10.7161 13.733 11.2598 13.0836 11.7771 12.3628C12.6564 12.2696 13.4891 12.1251 14.2518 11.934C14.342 12.3271 14.4119 12.7046 14.4554 13.0665ZM15.9529 10.4706C15.6189 10.6151 15.2523 10.7425 14.8748 10.8637C14.6527 10.1009 14.3606 9.30705 13.9986 8.49456C14.3559 7.68519 14.6449 6.89601 14.8624 6.13634C15.2476 6.25752 15.6127 6.38956 15.956 6.53249C17.334 7.11971 18.2242 7.89025 18.2242 8.50078C18.2211 9.11286 17.3309 9.8865 15.9529 10.4706Z" fill="#00D8FF"/>
</g>
<defs>
<clipPath id="clip0_254_306">
<rect width="19.0895" height="17" fill="white"/>
</clipPath>
</defs>
</svg>
