<svg width="90" height="90" viewBox="0 0 90 90" fill="none" xmlns="http://www.w3.org/2000/svg">
<path d="M45 87C21.804 87 3 68.196 3 45C3 21.804 21.804 3 45 3C68.196 3 87 21.804 87 45C87 68.196 68.196 87 45 87Z" fill="white"/>
<path d="M65.8794 60.4589C65.715 59.3564 65.4976 58.221 65.2289 57.06C64.9914 56.0404 64.7155 55.0008 64.4024 53.9456C63.5787 51.1744 62.4935 48.2945 61.178 45.3832C60.6017 44.1105 59.9811 42.8322 59.319 41.5553C58.7357 40.43 58.1208 39.3031 57.473 38.1834C56.8266 37.0624 56.1603 35.967 55.4754 34.8989C54.7018 33.6878 53.9053 32.5124 53.0902 31.377C51.2284 28.7817 49.2767 26.4009 47.2876 24.3016C46.5312 23.5023 45.769 22.7444 45.004 22.0309C44.1332 21.2158 43.2581 20.4595 42.3843 19.7659C36.6803 15.2373 31.574 13.8774 28.0035 15.938C24.433 17.9999 23.0574 23.1019 24.127 30.3074C24.29 31.4098 24.5088 32.5453 24.7791 33.7063C25.0137 34.7258 25.2895 35.7655 25.6042 36.8207C26.4278 39.5919 27.5131 42.4732 28.8301 45.3831C29.405 46.6558 30.0255 47.9325 30.6875 49.2095C31.2709 50.3363 31.8873 51.4616 32.5336 52.5827C33.18 53.7037 33.8463 54.7991 34.5312 55.8672C35.3062 57.0798 36.1026 58.2552 36.9164 59.3905C38.7782 61.9858 40.7299 64.3652 42.719 66.4643C43.4755 67.2637 44.239 68.0229 45.004 68.7364C45.8748 69.5515 46.7499 70.3065 47.6222 71.0001C49.7199 72.6659 51.7361 73.9028 53.625 74.6965C59.5 76.5 64.5195 75 65.8437 68.8967C66.3469 66.5775 66.3655 63.7363 65.8794 60.4589ZM62.6677 68.3764C62.2516 70.1753 61.4866 71.4079 60.3928 72.0385C59.3003 72.6704 57.8504 72.7163 56.0844 72.1786C54.1711 71.5937 51.9376 70.3154 49.624 68.4779C48.8461 67.8602 48.0668 67.1881 47.2874 66.466C46.5238 65.7567 45.7602 64.9988 45.0025 64.1966C43.7012 62.8196 42.4143 61.3124 41.1588 59.6953C40.3209 58.6157 39.4958 57.4875 38.6907 56.3163C37.5225 54.619 36.3943 52.8316 35.3218 50.9726C34.2479 49.1137 33.2641 47.2434 32.379 45.3831C31.767 44.1004 31.2021 42.8221 30.6874 41.5566C29.9138 39.6606 29.2517 37.7916 28.7098 35.977C28.3952 34.9189 28.1193 33.8808 27.889 32.8641C27.6516 31.8289 27.4586 30.8165 27.3127 29.8342C26.8781 26.9128 26.8881 24.339 27.3384 22.39C27.7546 20.5911 28.521 19.3585 29.6134 18.7279C30.2039 18.3876 30.8975 18.216 31.6882 18.216C32.3631 18.216 33.1095 18.3404 33.9217 18.5892C35.835 19.1725 38.0685 20.4523 40.382 22.2885C41.1599 22.9062 41.9406 23.5782 42.7186 24.3033C43.4836 25.0111 44.2458 25.7689 45.0022 26.5698C46.3049 27.9467 47.5918 29.454 48.8487 31.0726C49.6867 32.1522 50.5117 33.2804 51.3168 34.4516C52.4836 36.1489 53.6119 37.9363 54.6843 39.7937C55.7581 41.6527 56.7419 43.523 57.6271 45.3833C58.239 46.6674 58.804 47.9458 59.3186 49.2113C60.0922 51.1073 60.7543 52.9749 61.2962 54.7894C61.6109 55.8475 61.8867 56.8856 62.1184 57.9023C62.3544 58.9375 62.5475 59.9499 62.6933 60.9322C63.1282 63.8535 63.1182 66.4274 62.6677 68.3764Z" fill="#5ADAFD"/>
<path d="M68.4947 34.8431C67.4579 34.4342 66.3655 34.0553 65.2244 33.7063C64.2235 33.4017 63.1854 33.12 62.1143 32.8641C59.303 32.1921 56.2659 31.6916 53.0872 31.377C51.6987 31.2382 50.2816 31.1368 48.8459 31.0724C47.579 31.0138 46.2949 30.9837 45.0009 30.9837C43.7069 30.9837 42.4227 31.0137 41.1544 31.0724C39.7173 31.1367 38.3002 31.2397 36.9118 31.377C33.733 31.6916 30.6973 32.1921 27.886 32.8641C26.8151 33.12 25.7769 33.4018 24.7759 33.7063C23.6348 34.0538 22.5424 34.4342 21.5056 34.8431C14.7321 37.517 11 41.2606 11 45.3831C11 49.5055 14.7321 53.2491 21.5057 55.9245C22.5425 56.3334 23.6335 56.7124 24.7745 57.0613C25.7754 57.3659 26.8136 57.6476 27.8847 57.9021C30.696 58.5756 33.733 59.0746 36.9133 59.3906C38.3017 59.5279 39.7188 59.6294 41.1559 59.6953C42.4228 59.7538 43.7069 59.7824 45.0009 59.7824C46.2949 59.7824 47.5776 59.7538 48.8446 59.6953C50.2816 59.6294 51.6973 59.5279 53.0872 59.3906C56.2659 59.076 59.3045 58.5756 62.1158 57.9021C63.1867 57.6462 64.2249 57.366 65.2259 57.06C66.3656 56.7125 67.4581 56.3336 68.4947 55.9245C75.2697 53.2491 79.0004 49.5056 79.0004 45.3831C79.0003 41.2606 75.2697 37.517 68.4947 34.8431ZM73.7453 49.1838C72.2839 50.5494 70.059 51.8434 67.3121 52.9288C66.387 53.2933 65.4145 53.6337 64.3992 53.9454C63.4026 54.2529 62.3659 54.5346 61.2934 54.7891C59.4502 55.2281 57.5012 55.5884 55.4722 55.8673C54.1194 56.0547 52.7309 56.2048 51.3139 56.315C49.2591 56.4794 47.1471 56.5624 45.0008 56.5624C42.8544 56.5624 40.7424 56.4794 38.6877 56.3165C37.2706 56.2049 35.8808 56.0548 34.528 55.8675C32.4989 55.5886 30.5499 55.2282 28.7067 54.7892C27.6342 54.5347 26.5976 54.2531 25.6009 53.9456C24.5857 53.6338 23.6134 53.2935 22.6881 52.9289C19.9413 51.8436 17.7163 50.5495 16.2549 49.1839C14.905 47.9241 14.2201 46.6458 14.2201 45.3832C14.2201 44.1206 14.905 42.8422 16.2549 41.5825C17.7163 40.2169 19.9412 38.9228 22.6881 37.8375C23.6132 37.4729 24.5857 37.1326 25.6009 36.8208C26.5976 36.5133 27.6342 36.2317 28.7067 35.9772C30.5499 35.5382 32.4989 35.1778 34.528 34.8989C35.8808 34.7116 37.2706 34.5615 38.6877 34.4499C40.7424 34.2869 42.8544 34.204 45.0008 34.204C47.1471 34.204 49.2591 34.2869 51.3139 34.4514C52.7309 34.5616 54.1194 34.7117 55.4722 34.8991C57.5012 35.178 59.4502 35.5383 61.2934 35.9773C62.3659 36.2318 63.4026 36.5135 64.3992 36.821C65.4145 37.1327 66.3868 37.4731 67.3121 37.8376C70.0589 38.923 72.2839 40.217 73.7453 41.5826C75.0952 42.8425 75.7801 44.1208 75.7801 45.3833C75.7801 46.6458 75.0952 47.9241 73.7453 49.1838Z" fill="#5ADAFD"/>
<path d="M62.0027 15.938C58.4322 13.8774 53.326 15.2373 47.622 19.7659C46.7497 20.4595 45.8745 21.2158 45.0038 22.0309C44.2388 22.7444 43.4752 23.5037 42.7188 24.303C40.7297 26.4021 38.778 28.7815 36.9148 31.3769C36.1012 32.5122 35.3046 33.6877 34.5311 34.8988C33.8462 35.9669 33.1799 37.0622 32.5336 38.1833C31.8872 39.3044 31.271 40.4297 30.6875 41.5565C30.0254 42.8334 29.4048 44.1117 28.83 45.3829C27.513 48.2942 26.4278 51.1741 25.6041 53.9453C25.2895 55.002 25.0136 56.0415 24.7775 57.0611C24.5087 58.2222 24.2899 59.3561 24.1269 60.4586C23.6407 63.7346 23.6593 66.5759 24.1627 68.8952C25.162 73.5 30.2893 77.256 36.3815 74.6965C38.2704 73.9029 40.2866 72.6659 42.3843 71.0001C43.258 70.3065 44.1331 69.5501 45.004 68.7364C45.769 68.0229 46.5313 67.265 47.2876 66.4657C49.2752 64.3666 51.2285 61.9857 53.0903 59.3904C53.9039 58.2549 54.7005 57.0795 55.4754 55.867C56.1604 54.7989 56.8267 53.7036 57.473 52.5825C58.1207 51.4628 58.7356 50.3375 59.3191 49.2107C59.9812 47.9338 60.6018 46.6555 61.1781 45.3828C62.4936 42.4728 63.5789 39.5916 64.4025 36.8204C64.7156 35.7652 64.9916 34.7255 65.2276 33.706C65.4978 32.5449 65.7152 31.4096 65.8797 30.3071C66.9488 23.1019 65.5734 17.9999 62.0027 15.938ZM61.2964 35.977C60.7545 37.7916 60.0925 39.6591 59.3188 41.5551C58.804 42.8206 58.2392 44.099 57.6273 45.3831C56.7421 47.2434 55.7583 49.1137 54.6845 50.9726C53.612 52.8301 52.4838 54.6175 51.317 56.3148C50.5106 57.4873 49.6855 58.6155 48.8476 59.6951C47.5921 61.3124 46.3052 62.8195 45.0025 64.1965C44.2462 64.9972 43.4839 65.7551 42.7189 66.4643C41.9411 67.1879 41.1604 67.8599 40.3824 68.4777C38.0688 70.3151 35.8352 71.5934 33.922 72.1783C32.1561 72.716 30.7061 72.6702 29.6136 72.0382C28.5212 71.4076 27.7547 70.175 27.3386 68.3761C26.8883 66.4271 26.8781 63.8533 27.3129 60.932C27.4588 59.9497 27.6518 58.9372 27.8877 57.902C28.1194 56.8853 28.3953 55.8472 28.7099 54.7891C29.2518 52.9745 29.9139 51.1055 30.6875 49.2095C31.2023 47.944 31.7671 46.6656 32.3791 45.3831C33.2642 43.5227 34.248 41.6524 35.3219 39.7935C36.3943 37.9345 37.5225 36.1471 38.6908 34.4498C39.4959 33.2786 40.3194 32.1505 41.1574 31.0724C42.4143 29.4537 43.7012 27.9466 45.0024 26.5695C45.7603 25.7673 46.5239 25.0094 47.2874 24.3016C48.0667 23.5781 48.8459 22.906 49.6239 22.2883C51.9375 20.4523 54.1711 19.1725 56.0843 18.589C56.8965 18.3402 57.6429 18.2158 58.3178 18.2158C59.1085 18.2158 59.8034 18.3874 60.3926 18.7278C61.4864 19.3584 62.2515 20.591 62.6675 22.3899C63.1179 24.3389 63.128 26.9127 62.6933 29.834C62.5474 30.8163 62.3544 31.8287 62.117 32.864C61.887 33.8806 61.6109 34.9188 61.2964 35.977Z" fill="#5ADAFD"/>
<path d="M44.9997 51.7733C48.5289 51.7733 51.39 48.9123 51.39 45.3831C51.39 41.8538 48.5289 38.9928 44.9997 38.9928C41.4704 38.9928 38.6094 41.8538 38.6094 45.3831C38.6094 48.9123 41.4704 51.7733 44.9997 51.7733Z" fill="#5ADAFD"/>
</svg>
