<svg width="70" height="70" viewBox="0 0 70 70" fill="none" xmlns="http://www.w3.org/2000/svg">
<path d="M14.5283 44.31H6.48828C5.93828 44.31 5.48828 43.86 5.48828 43.31V32.03C5.48828 30.15 7.01828 28.62 8.89828 28.62H15.3083C16.7883 28.62 18.1583 29.42 18.8783 30.72L20.8283 34.21C21.0483 34.61 21.4683 34.86 21.9283 34.86H26.6683C28.3783 34.86 29.7683 36.25 29.7683 37.96C29.7683 39.67 28.3783 41.06 26.6683 41.06H18.3883C17.1583 41.06 16.0383 40.44 15.3683 39.41L13.5183 36.52C13.2183 36.05 13.3583 35.44 13.8183 35.14C14.2883 34.84 14.8983 34.98 15.1983 35.44L17.0483 38.33C17.3383 38.79 17.8383 39.06 18.3783 39.06H26.6583C27.2583 39.06 27.7583 38.57 27.7583 37.96C27.7583 37.35 27.2683 36.86 26.6583 36.86H21.9183C20.7383 36.86 19.6483 36.22 19.0683 35.19L17.1183 31.7C16.7483 31.04 16.0483 30.63 15.2883 30.63H8.89828C8.11828 30.63 7.48828 31.26 7.48828 32.04V42.31H14.5283C15.0783 42.31 15.5283 42.76 15.5283 43.31C15.5283 43.86 15.0783 44.31 14.5283 44.31Z" fill="#DAB068"/>
<path d="M11.8308 27.07C8.78078 27.07 6.30078 24.59 6.30078 21.54C6.30078 18.49 8.78078 16 11.8308 16C14.8808 16 17.3608 18.48 17.3608 21.53C17.3608 24.58 14.8908 27.07 11.8308 27.07ZM11.8308 18C9.88078 18 8.30078 19.59 8.30078 21.53C8.30078 23.47 9.89078 25.06 11.8308 25.06C13.7708 25.06 15.3608 23.47 15.3608 21.53C15.3608 19.59 13.7808 18 11.8308 18Z" fill="#DAB068"/>
<path d="M35.3698 18C32.3198 18 29.8398 15.52 29.8398 12.47C29.8398 9.41999 32.3198 6.92999 35.3698 6.92999C38.4198 6.92999 40.8998 9.40999 40.8998 12.47C40.8998 15.52 38.4198 18 35.3698 18ZM35.3698 8.92999C33.4198 8.92999 31.8398 10.52 31.8398 12.47C31.8398 14.42 33.4198 16 35.3698 16C37.3198 16 38.8998 14.41 38.8998 12.47C38.8998 10.53 37.3198 8.92999 35.3698 8.92999Z" fill="#DAB068"/>
<path d="M63.5109 44.31H55.4709C54.9209 44.31 54.4709 43.86 54.4709 43.31C54.4709 42.76 54.9209 42.31 55.4709 42.31H62.5109V32.03C62.5109 31.25 61.8809 30.62 61.1009 30.62H54.6909C53.9309 30.62 53.2309 31.03 52.8609 31.69L50.9109 35.18C50.3409 36.21 49.2409 36.85 48.0609 36.85H43.3209C42.7109 36.85 42.2209 37.34 42.2209 37.95C42.2209 38.56 42.7109 39.05 43.3209 39.05H51.6009C52.1409 39.05 52.6409 38.78 52.9309 38.32L54.7809 35.43C55.0809 34.97 55.7009 34.83 56.1609 35.13C56.6309 35.43 56.7609 36.05 56.4609 36.51L54.6109 39.4C53.9509 40.43 52.8209 41.05 51.5909 41.05H43.3109C41.6009 41.05 40.2109 39.66 40.2109 37.95C40.2109 36.24 41.6009 34.85 43.3109 34.85H48.0509C48.5109 34.85 48.9309 34.6 49.1509 34.2L51.1009 30.71C51.8209 29.42 53.1909 28.61 54.6709 28.61H61.0809C62.9609 28.61 64.4909 30.14 64.4909 32.02V43.29C64.5109 43.86 64.0709 44.31 63.5109 44.31Z" fill="#DAB068"/>
<path d="M58.1589 27.07C55.1089 27.07 52.6289 24.59 52.6289 21.54C52.6289 18.49 55.1089 16 58.1589 16C61.2089 16 63.6989 18.48 63.6989 21.53C63.6989 24.58 61.2189 27.07 58.1589 27.07ZM58.1589 18C56.2089 18 54.6289 19.59 54.6289 21.53C54.6289 23.47 56.2089 25.06 58.1589 25.06C60.1089 25.06 61.6989 23.47 61.6989 21.53C61.6989 19.59 60.1089 18 58.1589 18Z" fill="#DAB068"/>
<path d="M50.3385 35.15C49.9885 35.15 49.6485 34.97 49.4685 34.64L44.9585 26.59H25.0385L20.5285 34.64C20.2585 35.12 19.6485 35.29 19.1685 35.02C18.6885 34.75 18.5185 34.14 18.7885 33.66L23.5885 25.1C23.7685 24.78 24.0985 24.59 24.4585 24.59H45.5485C45.9085 24.59 46.2485 24.79 46.4185 25.1L51.2185 33.66C51.4885 34.14 51.3185 34.75 50.8385 35.02C50.6785 35.11 50.5085 35.15 50.3385 35.15Z" fill="#DAB068"/>
<path d="M58.1683 49.11H11.8283C11.4783 49.11 11.1483 48.92 10.9683 48.62C10.7883 48.31 10.7883 47.93 10.9583 47.63L15.8283 38.95C16.0983 38.47 16.7083 38.3 17.1883 38.57C17.6683 38.84 17.8383 39.45 17.5683 39.93L13.5383 47.12H56.4583L52.4283 39.93C52.1583 39.45 52.3283 38.84 52.8083 38.57C53.2983 38.3 53.8983 38.47 54.1683 38.95L59.0383 47.63C59.2083 47.94 59.2083 48.32 59.0283 48.62C58.8483 48.92 58.5183 49.11 58.1683 49.11Z" fill="#DAB068"/>
<path d="M58.1581 54.02H11.8281C11.2781 54.02 10.8281 53.57 10.8281 53.02V48.1C10.8281 47.55 11.2781 47.1 11.8281 47.1C12.3781 47.1 12.8281 47.55 12.8281 48.1V52.01H57.1581V48.1C57.1581 47.55 57.6081 47.1 58.1581 47.1C58.7081 47.1 59.1581 47.55 59.1581 48.1V53.01C59.1581 53.57 58.7181 54.02 58.1581 54.02Z" fill="#DAB068"/>
<path d="M41.9717 26.59H28.7617C28.2117 26.59 27.7617 26.14 27.7617 25.59V23.38C27.7617 21.04 29.6617 19.14 32.0017 19.14H38.7317C41.0717 19.14 42.9717 21.04 42.9717 23.38V25.59C42.9717 26.14 42.5217 26.59 41.9717 26.59ZM29.7617 24.59H40.9717V23.38C40.9717 22.14 39.9617 21.14 38.7317 21.14H32.0017C30.7617 21.14 29.7617 22.15 29.7617 23.38V24.59Z" fill="#DAB068"/>
<path d="M50.3402 63.07H19.6602C19.1102 63.07 18.6602 62.62 18.6602 62.07V53.02C18.6602 52.47 19.1102 52.02 19.6602 52.02H50.3502C50.9002 52.02 51.3502 52.47 51.3502 53.02V62.07C51.3402 62.62 50.9002 63.07 50.3402 63.07ZM20.6602 61.07H49.3502V54.02H20.6602V61.07Z" fill="#DAB068"/>
<path d="M11.8282 52.31C10.0782 52.31 8.63822 51.72 7.55822 50.55C5.15822 47.95 5.46822 43.42 5.48822 43.23C5.52822 42.68 5.99822 42.27 6.55822 42.31C7.10822 42.35 7.51822 42.83 7.47822 43.38C7.47822 43.42 7.21822 47.24 9.02822 49.19C9.72822 49.94 10.6482 50.31 11.8282 50.31C12.3782 50.31 12.8282 50.76 12.8282 51.31C12.8282 51.86 12.3882 52.31 11.8282 52.31Z" fill="#DAB068"/>
<path d="M58.1602 52.31C57.6102 52.31 57.1602 51.86 57.1602 51.31C57.1602 50.76 57.6102 50.31 58.1602 50.31C59.3502 50.31 60.2602 49.94 60.9602 49.19C62.7702 47.24 62.5102 43.42 62.5102 43.38C62.4702 42.83 62.8802 42.35 63.4302 42.31C63.9702 42.27 64.4602 42.68 64.5002 43.23C64.5102 43.42 64.8302 47.95 62.4302 50.55C61.3602 51.72 59.9202 52.31 58.1602 52.31Z" fill="#DAB068"/>
</svg>
