<svg width="76" height="72" viewBox="0 0 76 72" fill="none" xmlns="http://www.w3.org/2000/svg">
<g clip-path="url(#clip0_774_189)">
<path d="M38.0007 1.25977C38.7451 1.25987 39.3961 1.60638 39.6823 2.18653L49.7888 22.667L49.9636 23.0205L50.3532 23.0772L72.9518 26.3584C73.659 26.4617 74.246 26.9567 74.4675 27.6358C74.6876 28.311 74.5047 29.0528 73.9929 29.5567L57.6423 45.4961L57.3601 45.7715L57.4265 46.1602L61.2878 68.6719C61.4076 69.3752 61.1183 70.0858 60.5407 70.5059L60.5397 70.5069C60.2157 70.7433 59.8285 70.8642 59.4392 70.8643C59.141 70.8643 58.8411 70.7925 58.5681 70.6485L38.3493 60.0196L38.0007 59.836L37.6511 60.0196L17.4362 70.6455L17.4343 70.6465C16.8057 70.9795 16.0401 70.9251 15.4636 70.5039L15.4626 70.503L15.3571 70.4209C14.8838 70.0225 14.6373 69.416 14.6979 68.8008L14.7155 68.669L18.5768 46.1573L18.6433 45.7686L18.361 45.4932L2.00755 29.5567C1.4967 29.0563 1.3129 28.31 1.53294 27.6368C1.75453 26.9588 2.34227 26.4607 3.04857 26.3575L25.6472 23.0772L26.0378 23.0205L26.2116 22.667L36.3181 2.18653C36.6044 1.6063 37.2561 1.25977 38.0007 1.25977Z" stroke="#DAB068" stroke-width="1.5"/>
<path d="M38 1.5C37.1068 0.57324 38.7444 1.5001 38 1.5C38 12.3135 37.6511 50.4986 38.0007 59.8346L37.6511 60.0182L17.4362 70.6441L17.4343 70.6451C16.8057 70.9781 16.0401 70.9237 15.4636 70.5025L15.4626 70.5016L15.3571 70.4195C14.8838 70.0211 14.6373 69.4146 14.6979 68.7994L14.7155 68.6676L18.5768 46.1559L18.6433 45.7672L18.361 45.4918L2.00755 29.5553C1.4967 29.0549 1.3129 28.3086 1.53294 27.6354C1.75453 26.9574 2.34227 26.4593 3.04857 26.3561L25.6472 23.0758L26.0378 23.0191L26.2116 22.6656L36.3181 2.18513C36.6044 1.6049 37.2554 1.5 38 1.5Z" fill="#DAB068"/>
</g>
<defs>
<clipPath id="clip0_774_189">
<rect width="76" height="72" fill="white"/>
</clipPath>
</defs>
</svg>
