<svg width="70" height="70" viewBox="0 0 70 70" fill="none" xmlns="http://www.w3.org/2000/svg">
<path d="M44.3165 35.5408C44.251 38.2692 39.8818 40.4726 34.5 40.4726C29.1182 40.4726 24.749 38.2692 24.6843 35.5408C16.4493 36.237 10 42.6439 10 50.4447C10 57.5265 15.3148 58.5258 22.4523 58.6671V57.6171C22.4523 56.3838 23.2377 55.3159 24.3937 54.8352C23.9375 53.7402 24.2049 52.467 25.1583 51.5939L26.8045 50.0795C27.4157 49.5131 28.2711 49.1893 29.1505 49.1893C29.5497 49.1893 29.942 49.2556 30.3104 49.3812C30.826 48.3112 31.989 47.5829 33.3347 47.5829H35.6638C37.0033 47.5829 38.1639 48.3105 38.6857 49.3783C39.0541 49.2513 39.4502 49.1843 39.8541 49.1843C40.7466 49.1843 41.5789 49.5046 42.194 50.0759L43.8441 51.5946C44.7897 52.467 45.0525 53.7352 44.6032 54.8294C45.7608 55.3052 46.5485 56.3766 46.5485 57.6178V58.6678C53.686 58.5265 59 57.5272 59 50.4454C59 42.6439 52.5523 36.237 44.3165 35.5408Z" fill="#DAB068"/>
<path d="M20.9034 25.1777C21.2564 25.2655 21.6286 25.3147 22.0148 25.3147H22.777C22.7801 25.3147 22.7824 25.314 22.787 25.314C24.3854 31.9913 29.022 36.8211 34.4948 36.8211C39.4073 36.8211 43.6377 32.92 45.6107 27.2913C46.5394 26.6821 47.307 25.9852 47.872 25.2184C47.919 25.2098 47.9652 25.2048 48.0091 25.1956C49.7517 24.7968 51.0396 23.423 51.0396 21.781V19.009C51.0396 17.3691 49.7517 15.9931 48.0091 15.5958V15.1657C48.0091 8.66671 41.9283 3.37964 34.4555 3.37964C26.9827 3.37964 20.9034 8.66671 20.9034 15.165V15.6115C19.2024 16.0324 17.9531 17.3927 17.9531 19.0083V21.7802C17.9531 23.3973 19.2024 24.7569 20.9034 25.1777ZM34.4555 5.83985C39.8959 5.83985 44.3922 9.38287 45.0797 13.9524C42.9117 10.4628 38.988 8.1253 34.4956 8.1253C29.9307 8.1253 25.9492 10.5377 23.8036 14.1221C24.4032 9.4699 28.9488 5.83985 34.4555 5.83985ZM25.5045 23.1719C25.5045 23.1705 24.2814 16.4539 26.8633 15.5109C26.8633 15.5109 30.4247 17.1116 34.4956 17.215C38.568 17.1116 42.1294 15.5109 42.1294 15.5109C44.7105 16.4539 43.4859 23.1705 43.4859 23.1719C44.1225 22.761 44.7036 22.5463 45.1807 22.4336V22.5948C45.1005 23.3403 44.9772 24.0664 44.8146 24.7704C43.1298 26.1821 40.2327 27.1986 36.9087 27.3869C36.6011 27.1451 36.2073 26.9945 35.7719 26.9945H33.4204C32.4424 26.9945 31.6501 27.7285 31.6501 28.633C31.6501 29.5375 32.4424 30.2708 33.4204 30.2708H35.7719C36.2482 30.2708 36.6805 30.0946 36.9981 29.81C39.4605 29.683 41.7071 29.1716 43.573 28.3755C41.65 32.4015 38.3052 35.07 34.4948 35.07C29.0205 35.07 24.4957 29.566 23.7858 22.4272C24.2675 22.5385 24.8594 22.7553 25.5045 23.1719Z" fill="#DAB068"/>
<path d="M43.3409 56.7925L41.8881 56.5686C41.7494 56.1548 41.5667 55.7525 41.3501 55.3702L42.1933 54.2803C42.4885 53.9478 42.4607 53.4685 42.1324 53.1668L40.4839 51.6488C40.3151 51.4905 40.0885 51.4063 39.8473 51.4063C39.6399 51.4063 39.438 51.4712 39.2947 51.5811L38.0947 52.37C37.68 52.1681 37.243 52.0005 36.7953 51.8728L36.5563 50.5525C36.5078 50.1274 36.1224 49.8049 35.6562 49.8049H33.3271C32.8631 49.8049 32.477 50.1274 32.4338 50.5332L32.1926 51.8728C31.7417 52.0012 31.3071 52.1681 30.8909 52.37L29.7094 51.5904C29.5498 51.4705 29.3464 51.4106 29.1437 51.4106C28.9086 51.4106 28.6743 51.4905 28.5032 51.6481L26.8555 53.1661C26.524 53.4692 26.4994 53.9486 26.7807 54.2646L27.6377 55.3695C27.4204 55.7518 27.2377 56.1541 27.0998 56.5678L25.667 56.7897C25.2046 56.8332 24.8555 57.1884 24.8555 57.6178V59.7656C24.8555 60.1965 25.2046 60.551 25.6454 60.5902L27.0998 60.8142C27.237 61.2251 27.4204 61.6281 27.6377 62.0126L26.7953 63.1018C26.4986 63.4335 26.5256 63.9121 26.8547 64.216L28.5017 65.7346C28.672 65.8908 28.8986 65.9793 29.1391 65.9793C29.3479 65.9793 29.5483 65.9108 29.6917 65.8024L30.8909 65.0135C31.3078 65.2153 31.7417 65.3822 32.1926 65.5106L32.4307 66.831C32.4785 67.2561 32.8647 67.5778 33.3278 67.5778H35.6569C36.1232 67.5778 36.5086 67.2561 36.5517 66.8495L36.7953 65.5099C37.2423 65.3808 37.6793 65.2146 38.0947 65.0127L39.2762 65.7895C39.4372 65.9108 39.6407 65.9714 39.8442 65.9714C40.0792 65.9714 40.3135 65.8908 40.4831 65.7332L42.1309 64.2153C42.46 63.9121 42.4877 63.4335 42.2064 63.1175L41.3501 62.0126C41.5667 61.6295 41.7501 61.2272 41.8881 60.8121L43.317 60.5895C43.7825 60.5496 44.1324 60.195 44.1324 59.7649V57.6171C44.1332 57.1884 43.784 56.8332 43.3409 56.7925ZM34.4932 62.2451C32.3675 62.2451 30.6373 60.6516 30.6373 58.6914C30.6373 56.7312 32.3675 55.1369 34.4932 55.1369C36.6195 55.1369 38.3498 56.7312 38.3498 58.6914C38.3498 60.6516 36.6195 62.2451 34.4932 62.2451Z" fill="#DAB068"/>
</svg>
