<svg width="90" height="90" viewBox="0 0 90 90" fill="none" xmlns="http://www.w3.org/2000/svg">
<path d="M84 42C84 65.196 65.196 84 42 84C20.5989 84 2.93655 67.9937 0.332555 47.2989C0.113203 45.5639 0 43.7948 0 42C0 38.712 0.37718 35.5115 1.092 32.4411C5.41882 13.8515 22.092 0 42 0C61.8583 0 78.4988 13.7829 82.8737 32.3041C83.4479 34.7263 83.8097 37.2292 83.9418 39.792C83.9811 40.5239 84 41.2594 84 42Z" fill="white"/>
<path d="M50.3132 22L43.5 33.8019L36.6868 22H14L43.5 73.0968L73 22H50.3132Z" fill="#4DBA87"/>
<path d="M50.3082 22L43.495 33.8019L36.6817 22H25.7969L43.495 52.6571L61.193 22H50.3082Z" fill="#425466"/>
</svg>
