<svg width="57" height="57" viewBox="0 0 57 57" fill="none" xmlns="http://www.w3.org/2000/svg">
<path d="M17.6038 2.16162C20.9622 0.770019 24.6453 0 28.5 0C36.3672 0 43.4968 3.19141 48.6504 8.34961C51.2759 10.9751 53.3911 14.1155 54.8384 17.6038C56.23 20.9622 57 24.6453 57 28.5C57 36.3672 53.8086 43.4968 48.6504 48.6504C46.0249 51.2759 42.8845 53.3911 39.3962 54.8384C36.0378 56.23 32.3547 57 28.5 57C24.6453 57 20.9622 56.23 17.6038 54.8384C14.1108 53.3911 10.9751 51.2759 8.34961 48.6504C5.72412 46.0249 3.60425 42.8892 2.16162 39.3962C0.770019 36.0378 0 32.3547 0 28.5C0 24.6453 0.770019 20.9622 2.16162 17.6038C3.60425 14.1108 5.72412 10.9751 8.34961 8.34961C10.9705 5.72412 14.1108 3.60425 17.6038 2.16162ZM23.1934 21.8621C22.043 20.6931 22.0569 18.8098 23.2305 17.6641C24.3994 16.5137 26.2827 16.5276 27.4285 17.7012L36.0889 26.5007C37.2253 27.6604 37.2253 29.5112 36.0889 30.6663L27.5955 39.2988C26.4451 40.4678 24.5664 40.4817 23.3975 39.3359C22.2285 38.1855 22.2146 36.3069 23.3604 35.1379L29.8081 28.5835L23.1934 21.8621ZM19.8813 7.677C17.1306 8.81811 14.6489 10.4927 12.5708 12.5708C10.4927 14.6489 8.81811 17.1306 7.677 19.8813C6.57764 22.53 5.97461 25.4431 5.97461 28.5C5.97461 31.5569 6.58228 34.4653 7.677 37.1187C8.81811 39.8694 10.4927 42.3511 12.5708 44.4292C14.6489 46.5073 17.1306 48.1819 19.8813 49.323C22.5347 50.4224 25.4431 51.0254 28.5 51.0254C31.5569 51.0254 34.4653 50.4177 37.1187 49.323C39.8694 48.1819 42.3511 46.5073 44.4292 44.4292C46.5073 42.3511 48.1819 39.874 49.323 37.1187C50.4224 34.47 51.0254 31.5569 51.0254 28.5C51.0254 25.4431 50.4177 22.5347 49.323 19.8813C48.1819 17.1306 46.5073 14.6489 44.4292 12.5708C42.3511 10.4927 39.8694 8.81811 37.1187 7.677C34.47 6.57764 31.5569 5.97461 28.5 5.97461C25.4431 5.97461 22.5347 6.58228 19.8813 7.677Z" fill="#2D2D2D"/>
</svg>
