<svg width="70" height="70" viewBox="0 0 70 70" fill="none" xmlns="http://www.w3.org/2000/svg">
<path fill-rule="evenodd" clip-rule="evenodd" d="M55.1395 43.8104C55.9313 43.8104 56.6436 44.1317 57.1627 44.6558C57.6817 45.1798 58 45.9028 58 46.6984C58 47.4978 57.6817 48.217 57.1627 48.741C56.6436 49.2651 55.9275 49.5864 55.1395 49.5864C54.3476 49.5864 53.6353 49.2651 53.1162 48.741C52.8472 48.4694 52.6275 48.1443 52.4835 47.7771H45.3682C44.8074 47.7771 44.3528 47.3181 44.3528 46.7519V40.2492H38.9802V53.4115C39.3629 53.5568 39.7039 53.7864 39.9843 54.0694C40.5033 54.5935 40.8216 55.3164 40.8216 56.112C40.8216 56.9115 40.5033 57.6306 39.9843 58.1546C39.4652 58.6787 38.7491 59 37.9611 59C37.1692 59 36.4569 58.6787 35.9378 58.1546C35.4188 57.6306 35.1005 56.9077 35.1005 56.112C35.1005 55.3126 35.4188 54.5935 35.9378 54.0694C36.222 53.7825 36.563 53.5568 36.9419 53.4115V40.2531H30.876V55.9475C30.876 56.5137 30.4214 56.9727 29.8606 56.9727H18.5473C18.4071 57.424 18.1608 57.8295 17.8388 58.1546C17.3197 58.6787 16.6036 59 15.8156 59C15.0237 59 14.3114 58.6787 13.7923 58.1546C13.2733 57.6306 12.955 56.9077 12.955 56.112C12.955 55.3126 13.2733 54.5935 13.7923 54.0694C14.3114 53.5454 15.0275 53.2241 15.8156 53.2241C16.6074 53.2241 17.3197 53.5454 17.8388 54.0694C18.0813 54.3142 18.2783 54.6011 18.4222 54.9186H28.8414V40.2492H23.7228V44.2121C23.7228 44.7782 23.2681 45.2372 22.7074 45.2372H16.5279C16.3839 45.6121 16.1603 45.9448 15.8838 46.2241C15.3647 46.7481 14.6486 47.0694 13.8605 47.0694C13.0725 47.0694 12.3564 46.7481 11.8373 46.2241C11.3183 45.7077 11 44.9847 11 44.1853C11 43.3858 11.3183 42.6667 11.8373 42.1427C12.3564 41.6186 13.0725 41.2973 13.8605 41.2973C14.6486 41.2973 15.3647 41.6186 15.8838 42.1427C16.1717 42.4334 16.4028 42.7929 16.5468 43.1831H21.6844V40.2454H21.1502L20.9873 40.2301C20.0439 40.1077 19.1838 39.882 18.4071 39.5607C17.6039 39.2279 16.8916 38.7957 16.2664 38.264C15.6754 37.7629 15.1525 37.193 14.7092 36.5771C13.5271 34.9361 12.8944 32.9241 12.8792 30.9274C12.8755 28.9116 13.4968 26.8995 14.8418 25.2739C15.2775 24.746 15.789 24.264 16.3763 23.8356C17.0583 23.3345 17.8426 22.9099 18.7216 22.5657C19.3278 22.3247 19.9794 22.1258 20.669 21.969C21.4495 18.8515 23.109 16.4455 25.2383 14.7739C27.2312 13.2132 29.6371 12.3029 32.1074 12.0657C34.5663 11.8247 37.101 12.2455 39.3743 13.3471C41.8597 14.552 44.0231 16.5526 45.4288 19.3717C45.9933 19.2799 46.5578 19.2378 47.1224 19.2416C49.4979 19.2569 51.7902 20.1138 53.5974 22.0799C53.9763 22.493 54.3324 22.952 54.6697 23.4722C55.8025 25.2318 56.3784 27.5728 56.3557 29.8717C56.3329 32.1247 55.7267 34.3662 54.4992 36.0186C52.7563 38.3596 50.0625 39.5722 47.3042 40.2148L47.0163 40.2492H46.4025V45.7268H52.4608C52.6048 45.3213 52.8359 44.9541 53.1314 44.6558C53.6315 44.1356 54.3476 43.8104 55.1395 43.8104ZM34.483 22.887C36.1083 23.9274 37.5784 24.4209 38.8401 24.3061C39.0598 28.8045 37.4155 31.4629 34.4981 32.5684C31.683 31.5318 30.016 28.9881 30.141 24.2373C31.6224 24.3138 33.0773 23.9886 34.483 22.887ZM34.4754 19.4941C37.2412 21.2651 39.7418 22.1028 41.8863 21.9039C42.2613 29.5542 39.4614 34.0717 34.5019 35.9574C29.7129 34.1941 26.8788 29.8717 27.091 21.7892C29.6106 21.9231 32.0809 21.3722 34.4754 19.4941Z" fill="#DAB068"/>
</svg>
