<svg width="70" height="70" viewBox="0 0 70 70" fill="none" xmlns="http://www.w3.org/2000/svg">
<path fill-rule="evenodd" clip-rule="evenodd" d="M11.3862 14H59.6138C60.3774 14 61 14.633 61 15.4094V47.8936C61 48.6701 60.3774 49.303 59.6138 49.303H11.3862C10.6226 49.303 10 48.6701 10 47.8936V15.4094C10 14.633 10.6226 14 11.3862 14ZM48.0093 25.8028L52.3672 25.8155C52.363 26.9971 51.894 28.128 51.0681 28.9593C50.873 29.1534 50.6572 29.3306 50.429 29.4868L48.0093 25.8028ZM22.9202 22.3215H24.2483C24.3188 22.3215 24.377 22.3806 24.377 22.4523V27.2629C24.377 27.3346 24.3188 27.3937 24.2483 27.3937H22.9202C22.8496 27.3937 22.7915 27.3346 22.7915 27.2629V22.4523C22.7915 22.3806 22.8496 22.3215 22.9202 22.3215ZM16.9104 20.6969H18.2385C18.3091 20.6969 18.3672 20.7559 18.3672 20.8277V27.2671C18.3672 27.3389 18.3091 27.3979 18.2385 27.3979H16.9104C16.8398 27.3979 16.7817 27.3389 16.7817 27.2671V20.8277C16.7817 20.7559 16.8398 20.6969 16.9104 20.6969ZM19.9153 19.7812H21.2434C21.314 19.7812 21.3721 19.8402 21.3721 19.912V27.2671C21.3721 27.3389 21.314 27.3979 21.2434 27.3979H19.9153C19.8447 27.3979 19.7866 27.3389 19.7866 27.2671V19.912C19.7866 19.8402 19.8447 19.7812 19.9153 19.7812ZM16.9893 39.8971C16.6987 39.8971 16.4663 39.6565 16.4663 39.3569C16.4663 39.0615 16.7029 38.8168 16.9893 38.8168H54.0979C54.3884 38.8168 54.6209 39.0573 54.6209 39.3569C54.6209 39.6523 54.3843 39.8971 54.0979 39.8971H16.9893ZM16.9021 35.9726C16.6116 35.9726 16.3792 35.7321 16.3792 35.4325C16.3792 35.1371 16.6157 34.8923 16.9021 34.8923H31.7812C32.0718 34.8923 32.3042 35.1329 32.3042 35.4325C32.3042 35.7279 32.0676 35.9726 31.7812 35.9726H16.9021ZM33.8232 35.9726C33.5327 35.9726 33.3003 35.7321 33.3003 35.4325C33.3003 35.1371 33.5369 34.8923 33.8232 34.8923H54.0979C54.3884 34.8923 54.6209 35.1329 54.6209 35.4325C54.6209 35.7279 54.3843 35.9726 54.0979 35.9726H33.8232ZM16.9021 32.4659C16.6116 32.4659 16.3792 32.2254 16.3792 31.9258C16.3792 31.6304 16.6157 31.3857 16.9021 31.3857H39.3806C39.6711 31.3857 39.9036 31.6262 39.9036 31.9258C39.9036 32.2212 39.667 32.4659 39.3806 32.4659H16.9021ZM47.561 24.9209L47.3286 20.182C47.3245 20.0892 47.395 20.009 47.4863 20.0048C47.5112 20.0048 47.5444 20.0006 47.5818 20.0006C47.6108 20.0006 47.644 20.0006 47.6772 20.0006C48.9556 19.9879 50.1343 20.4774 51.01 21.3003C51.8899 22.1232 52.4668 23.271 52.5581 24.5707C52.5664 24.6635 52.4958 24.7437 52.4045 24.7521L47.7437 25.0897C47.6523 25.0981 47.5735 25.0264 47.5652 24.9336C47.561 24.9293 47.561 24.9251 47.561 24.9209ZM47.6689 20.3382L47.8848 24.7395L52.2095 24.4272C52.0891 23.2878 51.562 22.2793 50.7817 21.5535C49.9641 20.7897 48.8684 20.3297 47.6772 20.3424L47.6689 20.3382ZM47.0381 25.5961L49.3748 29.7104C48.665 30.1282 47.8599 30.3476 47.0381 30.3476C44.4565 30.3476 42.3647 28.2208 42.3647 25.5961C42.3647 23.2372 44.0664 21.237 46.3616 20.8952L47.0381 25.5961ZM29.2122 51.2484H41.7878C41.821 53.4596 42.7175 55.4429 45.1455 57H25.8545C27.7969 55.5695 29.2205 53.8309 29.2122 51.2484ZM35.5 44.5557C36.4836 44.5557 37.2805 45.3659 37.2805 46.366C37.2805 47.3661 36.4836 48.1763 35.5 48.1763C34.5164 48.1763 33.7195 47.3661 33.7195 46.366C33.7195 45.3659 34.5164 44.5557 35.5 44.5557ZM14.1711 16.6543H56.833C57.5095 16.6543 58.0574 17.2155 58.0574 17.8991V42.1715C58.0574 42.8552 57.5054 43.4164 56.833 43.4164H14.1711C13.4988 43.4164 12.9468 42.8552 12.9468 42.1715V17.8991C12.9426 17.2155 13.4946 16.6543 14.1711 16.6543Z" fill="#333333"/>
</svg>
