<svg width="70" height="70" viewBox="0 0 70 70" fill="none" xmlns="http://www.w3.org/2000/svg">
<path d="M37.1843 50.8479H46.8138C47.5873 50.0767 48.4355 49.2747 49.2969 48.4595C51.1033 46.7453 52.9887 44.9561 54.9269 42.7175C57.142 40.1572 57.3793 39.2715 58.0518 36.764C58.1792 36.2925 58.3199 35.7637 58.5045 35.1071L59.656 31.0485L59.6691 31.0045C60.2844 29.1977 60.3328 28.0035 60.0779 27.3161C59.9988 27.1045 59.8977 26.9635 59.779 26.8886C59.6867 26.8269 59.5637 26.8049 59.4362 26.8181C59.1373 26.8489 58.7989 27.0384 58.4913 27.3778L55.072 35.5434C55.0412 35.6183 54.9973 35.6888 54.9489 35.7505C54.7467 36.1163 54.4742 36.4732 54.1226 36.8125L48.0575 43.5945C47.7279 43.9646 47.161 43.9955 46.7962 43.665C46.427 43.3345 46.3962 42.766 46.7259 42.4002L52.7954 35.6183C52.8217 35.5875 52.8481 35.5566 52.8789 35.5302C53.5074 34.9309 53.7051 34.2831 53.5953 33.8116C53.5601 33.6661 53.4986 33.5427 53.4107 33.459C53.3272 33.3841 53.2173 33.3312 53.081 33.318C52.5405 33.2607 51.745 33.6617 50.7737 34.8119C50.7473 34.8427 50.7165 34.8736 50.6858 34.9044L48.3344 36.9844L48.3212 36.9976C45.7765 39.4125 44.6822 39.9854 42.6869 41.0297C42.2693 41.2501 41.8123 41.488 41.2453 41.7965C41.0212 41.9199 40.8014 42.0697 40.586 42.2328C40.3575 42.4091 40.1378 42.5897 39.9312 42.766C38.8764 43.6561 38.3226 44.3789 38.0062 45.1765C37.6766 46.0049 37.5579 47.0141 37.3953 48.3978C37.3294 48.9574 37.281 49.5083 37.2415 50.0591C37.2107 50.3279 37.1975 50.5923 37.1843 50.8479ZM46.3611 16.4535L46.4182 28.171C46.4226 28.7835 46.0358 29.3079 45.4909 29.5282V29.5326L35.3384 33.6485C35.2505 33.6661 35.1626 33.6705 35.0747 33.6705C34.8769 33.6705 34.6836 33.6309 34.5034 33.556L24.5047 29.7221V29.7177C23.9642 29.4886 23.5862 28.9465 23.5862 28.3164L23.6433 16.7488C23.6345 16.6254 23.6433 16.502 23.6653 16.3786C23.6697 16.2023 23.7048 16.0261 23.7752 15.863C23.9334 15.484 24.2366 15.202 24.597 15.0566L34.3627 11.1126C34.7627 10.9539 35.189 10.9672 35.5538 11.1258L45.3063 14.66C45.8908 14.8715 46.26 15.3959 46.2864 15.9688C46.3303 16.1274 46.3611 16.2905 46.3611 16.4535ZM33.1541 31.2116L33.2288 21.0056L25.4101 17.6169L25.2431 27.8625L33.1541 31.2116ZM44.691 17.6169L35.9537 21.0101L36.024 31.2028L44.7481 27.9374L44.691 17.6169ZM32.8157 50.8479H23.1818C22.4083 50.0767 21.5601 49.2747 20.6987 48.4595C18.8923 46.7453 17.0069 44.9561 15.0687 42.7175C12.8536 40.1572 12.6163 39.2715 11.9438 36.764C11.8208 36.2925 11.6801 35.7681 11.4955 35.1071L10.344 31.0485L10.3309 31.0045C9.71556 29.1977 9.66721 28.0035 9.92212 27.3161C10.0012 27.1045 10.1023 26.9635 10.221 26.8886C10.3133 26.8269 10.4363 26.8049 10.5638 26.8181C10.8627 26.8489 11.2011 27.0384 11.5087 27.3778L14.928 35.5434C14.9588 35.6183 15.0027 35.6888 15.0511 35.7505C15.2533 36.1163 15.5257 36.4732 15.8773 36.8125L21.9424 43.5945C22.2721 43.9646 22.839 43.9955 23.2038 43.665C23.573 43.3345 23.6038 42.766 23.2741 42.4002L17.209 35.6139C17.1827 35.583 17.1563 35.5522 17.1255 35.5258C16.497 34.9265 16.2993 34.2787 16.4091 33.8071C16.4443 33.6617 16.5058 33.5383 16.5937 33.4546C16.6772 33.3797 16.7871 33.3268 16.9234 33.3136C17.4639 33.2563 18.2638 33.6573 19.2307 34.8075C19.2571 34.8383 19.2879 34.8692 19.3186 34.9L21.67 36.98L21.6831 36.9932C24.2279 39.4081 25.3222 39.9809 27.3175 41.0253C27.7351 41.2457 28.1921 41.4836 28.7591 41.7921C28.9832 41.9155 29.203 42.0653 29.4183 42.2284C29.6469 42.4046 29.8666 42.5853 30.0732 42.7616C31.128 43.6517 31.6818 44.3744 31.9982 45.1721C32.3278 46.0005 32.4465 47.0097 32.6091 48.3934C32.675 48.953 32.7234 49.5039 32.7629 50.0547C32.7893 50.3279 32.8025 50.5923 32.8157 50.8479ZM20.9404 51.1608C20.8041 51.3194 20.7206 51.5265 20.7206 51.7513V57.101C20.7206 57.599 21.125 58 21.6172 58H33.7386C34.2353 58 34.6352 57.5946 34.6352 57.101V51.7028C34.6352 51.1299 34.6001 50.513 34.5605 49.9401C34.5209 49.354 34.4682 48.7723 34.4023 48.1951C34.2265 46.6836 34.0946 45.5775 33.6727 44.5155C33.2376 43.427 32.5388 42.4884 31.2423 41.3911C31.0049 41.1884 30.7632 40.9857 30.5083 40.7962C30.2402 40.5935 29.9501 40.3996 29.6249 40.2189C29.0975 39.9325 28.6053 39.6725 28.157 39.4345C26.3111 38.465 25.3002 37.9362 22.9225 35.68C22.905 35.6624 22.883 35.6447 22.8654 35.6315L20.5712 33.6C19.1692 31.9563 17.798 31.4099 16.7476 31.5245H16.7432C16.2289 31.5773 15.7894 31.7801 15.4378 32.0885L13.1173 26.5581H13.1129C13.0777 26.4788 13.0338 26.4039 12.9766 26.3334C12.335 25.5622 11.5219 25.1127 10.744 25.0334C10.2122 24.9805 9.69798 25.0951 9.24969 25.3859C8.82337 25.6635 8.47177 26.0954 8.25202 26.6903C7.86526 27.7259 7.87405 29.3343 8.62999 31.5597L9.77269 35.5919C9.9397 36.1735 10.0847 36.7332 10.221 37.2268C10.9681 40.025 11.2318 41.0165 13.7238 43.8897C15.6972 46.168 17.6266 48.0012 19.4812 49.7594C19.9647 50.2266 20.4482 50.6849 20.9404 51.1608ZM22.6544 52.6502C22.7731 52.6767 22.8962 52.6767 23.0192 52.6502H32.8377V56.2021H22.5138V52.6502H22.6544ZM49.0596 51.1608C49.1959 51.3194 49.2794 51.5265 49.2794 51.7513V57.101C49.2794 57.599 48.8794 58 48.3828 58H36.2658C35.7691 58 35.3692 57.5946 35.3692 57.101V51.7028C35.3692 51.672 35.3692 51.6367 35.3736 51.6059C35.3868 51.0286 35.4087 50.4689 35.4439 49.9401C35.4834 49.354 35.5362 48.7723 35.6021 48.1951C35.7779 46.6836 35.9098 45.5775 36.3317 44.5155C36.7668 43.427 37.4656 42.4884 38.7621 41.3911C38.9995 41.1884 39.2412 40.9857 39.4961 40.7962C39.7642 40.5935 40.0543 40.3996 40.3795 40.2189C40.9069 39.9325 41.3991 39.6725 41.8474 39.4345C43.6933 38.465 44.7042 37.9362 47.0819 35.68C47.0994 35.6624 47.1214 35.6447 47.139 35.6315L49.4332 33.6C50.8352 31.9563 52.2064 31.4099 53.2568 31.5245H53.2612C53.7754 31.5773 54.2149 31.7801 54.5665 32.0885L56.8827 26.5537H56.8871C56.9223 26.4744 56.9662 26.3995 57.0234 26.329C57.665 25.5578 58.4781 25.1083 59.256 25.029C59.7878 24.9761 60.302 25.0907 60.7503 25.3815C61.1766 25.6591 61.5282 26.091 61.748 26.6859C62.1347 27.7215 62.1259 29.3299 61.37 31.5553L60.2273 35.5875C60.0603 36.1691 59.9153 36.7288 59.779 37.2223C59.0319 40.0206 58.7682 41.0121 56.2762 43.8853C54.3028 46.1636 52.3734 47.9968 50.5187 49.755C50.0353 50.2266 49.5518 50.6849 49.0596 51.1608ZM47.3456 52.6502C47.2269 52.6767 47.1038 52.6767 46.9808 52.6502H37.1623V56.2021H47.4862V52.6502H47.3456Z" fill="#DAB068"/>
</svg>
