<svg width="90" height="90" viewBox="0 0 90 90" fill="none" xmlns="http://www.w3.org/2000/svg">
<path d="M87 46C87 69.196 68.196 88 45 88C23.5989 88 5.93655 71.9937 3.33255 51.2989C3.1132 49.5639 3 47.7948 3 46C3 42.712 3.37718 39.5115 4.092 36.4411C8.41882 17.8515 25.092 4 45 4C64.8583 4 81.4988 17.7829 85.8737 36.3041C86.4479 38.7263 86.8097 41.2292 86.9418 43.792C86.9811 44.5239 87 45.2594 87 46Z" fill="white"/>
<path d="M15.8672 44.8288H23.1891V67.9123H15.8672V44.8288Z" fill="white"/>
<path d="M20.8828 44.8288H23.1912V67.9123H20.8828V44.8288Z" fill="#BEDAEE"/>
<path d="M65.8164 44.8288H73.1383V67.9123H65.8164V44.8288Z" fill="white"/>
<path d="M70.8281 44.8288H73.1365V67.9123H70.8281V44.8288Z" fill="#BEDAEE"/>
<path d="M59.7026 65.2815L40.6794 46.2911L43.8365 43.144L39.032 43.2045C38.1237 43.2159 37.2561 43.5839 36.6166 44.2291L33.7337 47.1371H23.1875V64.4498H34.1522L44.2248 74.4481C45.0699 75.2932 46.4401 75.2932 47.2852 74.4481C48.1303 73.603 48.1303 72.2328 47.2852 71.3877L48.5561 72.6432C49.4012 73.4883 50.7714 73.4883 51.6166 72.6432C52.4426 71.8171 52.459 70.4909 51.6704 69.6422L52.4314 70.4033C53.2765 71.2484 54.6468 71.2484 55.492 70.4033C56.324 69.5712 56.335 68.2315 55.5288 67.3836L56.6983 68.5531C57.4873 69.1871 58.8576 69.1871 59.7026 68.342C60.5478 67.4968 60.5478 66.1266 59.7026 65.2815Z" fill="#FFCFC5"/>
<path d="M59.7022 65.2815L44.8499 50.4548L43.2227 52.0587L57.7402 66.5511C58.4034 67.2143 58.5438 68.1998 58.1661 69.0023C58.7171 68.9787 59.2764 68.7679 59.7023 68.342C60.5474 67.4968 60.5474 66.1266 59.7022 65.2815Z" fill="#FF9F87"/>
<path d="M36.8749 58.937L32.4463 63.3656C31.6012 64.2107 31.6012 65.5809 32.4463 66.426C33.2914 67.2711 34.6616 67.2711 35.4506 66.6371L40.0129 62.0749C40.8794 61.2083 40.8794 59.8035 40.0129 58.9369C39.1463 58.0706 37.7413 58.0706 36.8749 58.937Z" fill="#FFCFC5"/>
<path d="M31.0471 58.4901L27.4346 62.1025C26.5895 62.9476 26.5895 64.3179 27.4346 65.163C28.2797 66.008 29.6499 66.008 30.4389 65.374L34.185 61.6279C35.0516 60.7614 35.0516 59.3565 34.185 58.49C33.3185 57.6235 31.9135 57.6235 31.0471 58.4901Z" fill="#FFCFC5"/>
<path d="M40.0116 62.075L35.583 66.5036C34.7379 67.3486 34.7379 68.7189 35.583 69.564C36.4281 70.4091 37.7984 70.4091 38.5874 69.7751L43.1496 65.2128C44.0161 64.3463 44.0161 62.9414 43.1496 62.0749C42.283 61.2084 40.8782 61.2084 40.0116 62.075Z" fill="#FFCFC5"/>
<path d="M42.3322 66.029L38.7198 69.6415C37.8747 70.4866 37.8747 71.8568 38.7198 72.7019C39.5648 73.547 40.9351 73.547 41.7241 72.913L45.4702 69.1669C46.3367 68.3003 46.3367 66.8955 45.4702 66.0289C44.6036 65.1625 43.1988 65.1625 42.3322 66.029Z" fill="#FFCFC5"/>
<path d="M56.7299 47.1443L52.3809 43.8473C51.779 43.3909 51.0444 43.144 50.2891 43.144H43.8395L35.4102 51.4148L36.9959 53.1517C38.315 54.5966 40.5684 54.6624 41.9696 53.2969L44.8532 50.4548L59.0771 64.6586L65.8153 64.4497V47.1443H56.7299Z" fill="#FFCFC5"/>
<path d="M63.5073 47.1443V64.4498L59.0078 64.5893L59.0774 64.6587L65.8156 64.4498V47.1443H63.5073Z" fill="#FF9F87"/>
<path d="M53.2739 39.4979H35.7305V31.9817C35.7305 30.0693 37.2806 28.5192 39.193 28.5192H49.8114C51.7238 28.5192 53.2739 30.0693 53.2739 31.9817V39.4979Z" fill="white"/>
<path d="M49.8084 28.5192H47.5C49.4124 28.5192 50.9625 30.0693 50.9625 31.9817V39.4979H53.2709V31.9817C53.2709 30.0693 51.7206 28.5192 49.8084 28.5192Z" fill="#BEDAEE"/>
<path d="M47.0393 39.4979H41.9609L42.7572 32.1125L42.4226 28.5192H46.5776L46.2429 32.1125L47.0393 39.4979Z" fill="#FF91A7"/>
<path d="M44.4986 28.5191C47.4405 28.5191 49.8254 26.1342 49.8254 23.1924C49.8254 20.2505 47.4405 17.8656 44.4986 17.8656C41.5567 17.8656 39.1719 20.2505 39.1719 23.1924C39.1719 26.1342 41.5567 28.5191 44.4986 28.5191Z" fill="#FFCFC5"/>
<path d="M44.5018 17.8656C44.1054 17.8656 43.7194 17.9103 43.3477 17.9924C45.7344 18.5199 47.5202 20.6471 47.5202 23.1924C47.5202 25.7378 45.7344 27.8648 43.3477 28.3923C43.7194 28.4744 44.1054 28.5191 44.5018 28.5191C47.4437 28.5191 49.8286 26.1342 49.8286 23.1924C49.8286 20.2505 47.4437 17.8656 44.5018 17.8656Z" fill="#FF9F87"/>
<path d="M44.4999 22.7482C46.9722 22.7482 48.9764 21.6552 48.9764 20.3069C48.9764 18.9586 46.9722 17.8656 44.4999 17.8656C42.0276 17.8656 40.0234 18.9586 40.0234 20.3069C40.0234 21.6552 42.0276 22.7482 44.4999 22.7482Z" fill="#7B797E"/>
<path d="M44.503 17.8656C44.1073 17.8656 43.7226 17.9112 43.3516 17.993C45.3234 18.4299 46.8838 19.9586 47.3657 21.9131C48.012 21.4999 48.5632 20.9512 48.9794 20.3068C48.0309 18.8385 46.381 17.8656 44.503 17.8656Z" fill="#58565B"/>
<path d="M64.947 43.9632V46.2787H57.018L52.901 43.1575C52.1532 42.5906 51.2246 42.2784 50.2863 42.2784L39.0213 42.3389C37.8787 42.3533 36.8064 42.8081 36.002 43.6196L33.3731 46.2715H24.0531V43.9632H15V68.778H24.0531V65.3155H26.4437C26.5522 65.4777 26.6776 65.6319 26.8207 65.7752C27.4266 66.381 28.2607 66.6916 29.0863 66.6916C29.7672 66.6916 30.4425 66.4803 30.9793 66.0489L31.0159 66.0195L31.1215 65.9138C31.2674 66.3246 31.504 66.7099 31.8322 67.0382C32.4351 67.6411 33.2642 67.9515 34.086 67.9544C34.0651 68.7564 34.3593 69.5654 34.97 70.1762C35.5726 70.7788 36.4011 71.0891 37.2225 71.0923C37.2218 71.1188 37.2206 71.1452 37.2206 71.1717C37.2206 71.9811 37.5358 72.7419 38.108 73.3141C38.7138 73.92 39.5478 74.2305 40.3735 74.2305C41.0221 74.2305 41.6639 74.0364 42.1874 73.6456L43.6125 75.0602C44.2032 75.6508 44.979 75.9461 45.7549 75.9461C46.5308 75.9461 47.3066 75.6508 47.8973 75.0602C48.2653 74.6921 48.5188 74.2521 48.6574 73.7849C49.8035 74.3971 51.2633 74.2205 52.2284 73.2553C52.6545 72.8291 52.9282 72.3098 53.0483 71.7634C53.3399 71.8551 53.6471 71.9028 53.9614 71.9028C54.7708 71.9028 55.5316 71.5876 56.1038 71.0155C56.4968 70.6225 56.7604 70.152 56.8942 69.6552C58.0232 70.1006 59.4185 69.8503 60.3147 68.9542C60.8868 68.382 61.202 67.6212 61.202 66.8118C61.202 66.3381 61.0932 65.8811 60.8887 65.4686L64.9469 65.3428V68.7781H74V43.9633L64.947 43.9632ZM28.0448 64.5509C27.5386 64.0447 27.5386 63.221 28.0448 62.7146L31.6573 59.1022C31.913 58.8466 32.2527 58.7058 32.6142 58.7058C32.9757 58.7058 33.3155 58.8466 33.5712 59.1022C33.8267 59.3578 33.9675 59.6976 33.9675 60.0591C33.9675 60.4145 33.8307 60.7486 33.5833 61.0026L29.8636 64.7235C29.409 65.0589 28.5669 65.0728 28.0448 64.5509ZM32.6761 64.8958C32.6761 64.5553 32.807 64.2353 33.0438 63.9916L37.485 59.5492C37.7406 59.2937 38.0804 59.1528 38.4419 59.1528C38.8034 59.1528 39.1432 59.2937 39.3988 59.5492C39.6544 59.8048 39.7952 60.1446 39.7952 60.5061C39.7952 60.8674 39.6545 61.207 39.3992 61.4626C39.3991 61.4627 39.3989 61.4628 39.3988 61.4629L34.8753 65.9866C34.4208 66.3221 33.5787 66.3361 33.0566 65.8141C32.8113 65.5687 32.6761 65.2426 32.6761 64.8958ZM35.8141 68.0338C35.8141 67.6873 35.949 67.3614 36.1938 67.1162L40.6228 62.6871C41.1504 62.1594 42.009 62.1595 42.5367 62.6871C43.0644 63.2146 43.0643 64.0732 42.5367 64.6008L38.013 69.1244C37.5585 69.4598 36.7164 69.474 36.1944 68.9518C35.9491 68.7067 35.8141 68.3806 35.8141 68.0338ZM39.3322 72.0899C38.8261 71.5838 38.826 70.7605 39.3317 70.2542L42.9446 66.6413C43.4721 66.1136 44.3307 66.1137 44.8583 66.6413C45.386 67.1689 45.386 68.0274 44.8583 68.5551L41.1508 72.2626C40.6965 72.5978 39.8543 72.6118 39.3322 72.0899ZM46.6731 73.8359C46.1668 74.3423 45.343 74.342 44.8345 73.8336L43.4261 72.4356L45.256 70.6057L46.6734 71.9999C47.1794 72.5062 47.1794 73.3298 46.6731 73.8359ZM59.0906 65.8936C59.5969 66.3998 59.5969 67.2237 59.0906 67.7299C58.5685 68.2519 57.7263 68.2377 57.2721 67.9024L52.2789 62.9544L51.0618 64.1857L54.9054 67.9846C55.3903 68.499 55.3797 69.2912 54.8798 69.7911C54.6345 70.0364 54.3086 70.1714 53.9617 70.1714C53.6148 70.1714 53.2889 70.0364 53.0435 69.791L49.0674 65.8517L47.8503 67.0828L51.0414 70.2374C51.5132 70.7514 51.4978 71.5376 51.0044 72.0309C50.7593 72.2762 50.4332 72.4112 50.0864 72.4112C49.7394 72.4112 49.4134 72.2762 49.1645 72.0272L46.4431 69.3449C47.2693 68.144 47.1497 66.4838 46.0827 65.4169C45.6388 64.973 45.092 64.6936 44.5184 64.5774C44.8542 63.5144 44.6022 62.3042 43.7609 61.4628C43.1457 60.8476 42.3331 60.548 41.5251 60.5623C41.5254 60.5435 41.5264 60.5249 41.5264 60.506C41.5264 59.6822 41.2056 58.9075 40.6231 58.325C40.0404 57.7423 39.2659 57.4215 38.442 57.4215C37.6182 57.4215 36.8435 57.7423 36.261 58.325L35.5315 59.0544C35.3811 58.6165 35.1324 58.2151 34.7954 57.8781C34.2128 57.2954 33.4382 56.9746 32.6143 56.9746C31.7905 56.9746 31.0159 57.2954 30.4333 57.8781L26.8208 61.4905C26.2426 62.0688 25.9481 62.8246 25.9361 63.5842H24.0531V53.2267H22.3219V67.0467H16.7313V45.6945H22.3219V51.4882H24.0531V48.0028H34.0945L37.2314 44.8385C37.7141 44.3516 38.3574 44.0787 39.043 44.0701L41.6908 44.0367L34.2049 51.3818L36.3538 53.7354C37.1512 54.6089 38.2415 55.109 39.4239 55.1435C40.6058 55.1779 41.7238 54.7424 42.5744 53.9135L44.8464 51.6742L59.0906 65.8936ZM72.2688 67.0467H66.6783V53.3999H64.947V63.6106L59.4256 63.7818L52.3531 56.7237C53.2285 56.6017 54.073 56.2143 54.7504 55.5605L55.514 54.8235L54.3118 53.5778L53.5482 54.3148C52.5366 55.291 50.9044 55.277 49.9099 54.2837L44.8544 49.2355L41.3628 52.6769C40.8545 53.1723 40.1854 53.4319 39.4745 53.4129C38.7652 53.3921 38.111 53.0922 37.6326 52.568L36.6099 51.4478L44.1906 44.0097H50.2865C50.8495 44.0097 51.4066 44.197 51.8554 44.5372L56.4362 48.01H64.9472V51.7262H66.6785V45.6943H72.2691V67.0467H72.2688Z" fill="black"/>
<path d="M68.7617 59.4291H70.493V61.1604H68.7617V59.4291Z" fill="black"/>
<path d="M18.5547 59.4291H20.286V61.1604H18.5547V59.4291Z" fill="black"/>
<path d="M54.138 40.3635V35.337H52.4068V38.6323H47.8172L47.1135 32.1062L47.3669 29.3848H49.8099C51.2417 29.3848 52.4068 30.5497 52.4068 31.9817V33.548H54.138V31.9817C54.138 29.5951 52.1965 27.6535 49.8099 27.6535H48.7887C49.9612 26.5261 50.693 24.9436 50.693 23.1924C50.693 19.7779 47.9152 17 44.5007 17C41.0863 17 38.3083 19.7779 38.3083 23.1924C38.3083 24.9436 39.0401 26.5261 40.2127 27.6535H39.1914C36.8048 27.6535 34.8633 29.5951 34.8633 31.9817V40.3635H54.138ZM42.9254 38.6323L43.5351 32.9781H45.4661L46.0758 38.6323H42.9254ZM45.4547 31.2468H43.5465L43.3731 29.3848H45.6283L45.4547 31.2468ZM44.5007 18.7313C45.8614 18.7313 47.0812 19.3444 47.9 20.3082C47.057 21.303 45.8241 21.8827 44.5007 21.8827C43.1772 21.8827 41.9442 21.303 41.1013 20.3082C41.9201 19.3444 43.1398 18.7313 44.5007 18.7313ZM40.0395 23.1923C40.0395 22.7441 40.1067 22.3115 40.2302 21.9031C41.3683 22.9909 42.8853 23.6138 44.5007 23.6138C46.116 23.6138 47.633 22.9909 48.7711 21.9029C48.8946 22.3113 48.9618 22.744 48.9618 23.1922C48.9618 25.6521 46.9604 27.6533 44.5007 27.6533C42.0409 27.6533 40.0395 25.6522 40.0395 23.1923ZM36.5945 31.9817C36.5945 30.5497 37.7595 29.3848 39.1914 29.3848H41.6344L41.8878 32.1062L41.1842 38.6323H36.5947V31.9817H36.5945Z" fill="black"/>
<path d="M65.3563 39.8865L63.6991 39.4614L63.2689 41.1383L68.3967 42.4536V37.1835H66.6654V38.7506C64.0261 35.5841 60.7231 33.0156 56.9912 31.2474L56.25 32.812C59.7652 34.4775 62.8739 36.9003 65.3563 39.8865Z" fill="black"/>
<path d="M25.9905 39.4614L24.3466 39.8832C26.6659 37.096 29.5416 34.7907 32.7732 33.1453L31.9877 31.6025C28.5509 33.3525 25.4921 35.8029 23.0242 38.7656V37.1837H21.293V42.4538L26.4207 41.1385L25.9905 39.4614Z" fill="black"/>
</svg>
