<svg width="54" height="54" viewBox="0 0 54 54" fill="none" xmlns="http://www.w3.org/2000/svg">
<path d="M39.3041 18.2346C39.3041 13.9378 36.861 10.1644 33.2098 8.07844L35.2284 4.39487C35.2895 4.28758 35.3286 4.16899 35.3436 4.0461C35.3586 3.92321 35.3491 3.79852 35.3156 3.67942C35.2822 3.56033 35.2254 3.44923 35.1488 3.35272C35.0722 3.2562 34.9772 3.17623 34.8694 3.11753C34.6575 2.99861 34.4076 2.96965 34.1746 3.03703C33.9416 3.10441 33.7445 3.26261 33.6267 3.47691L31.5579 7.25813C28.3081 5.96652 24.6958 5.96652 21.4459 7.25813L19.3733 3.47691C19.3154 3.37042 19.2371 3.27659 19.1432 3.20083C19.0492 3.12507 18.9414 3.06887 18.8259 3.03547C18.7103 3.00207 18.5894 2.99212 18.4701 3.00621C18.3508 3.02029 18.2354 3.05813 18.1306 3.11753C18.0254 3.17622 17.9327 3.25539 17.8578 3.35049C17.7829 3.44559 17.7274 3.55474 17.6944 3.67165C17.6614 3.78856 17.6516 3.91092 17.6655 4.03169C17.6794 4.15246 17.7168 4.26925 17.7755 4.37534L19.794 8.07844C16.139 10.1644 13.7191 13.9378 13.7191 18.2346H39.3041ZM43.6267 18.2346C44.0701 18.2346 44.509 18.323 44.9185 18.4949C45.328 18.6667 45.7001 18.9185 46.0134 19.2359C46.3266 19.5534 46.575 19.9302 46.7443 20.3449C46.9136 20.7595 47.0005 21.2039 47 21.6526V33.7618C47.0005 34.2105 46.9136 34.6549 46.7443 35.0695C46.575 35.4842 46.3266 35.861 46.0134 36.1785C45.7001 36.4959 45.328 36.7477 44.9185 36.9195C44.509 37.0914 44.0701 37.1798 43.6267 37.1798C42.7311 37.1798 41.8721 36.8197 41.2388 36.1787C40.6054 35.5377 40.2496 34.6683 40.2496 33.7618V21.6526C40.2496 20.7461 40.6054 19.8767 41.2388 19.2357C41.8721 18.5947 42.7311 18.2346 43.6267 18.2346ZM9.37711 18.2346C10.2728 18.2346 11.1318 18.5947 11.7651 19.2357C12.3984 19.8767 12.7542 20.7461 12.7542 21.6526V33.7618C12.7542 34.6683 12.3984 35.5377 11.7651 36.1787C11.1318 36.8197 10.2728 37.1798 9.37711 37.1798C8.48279 37.1798 7.62497 36.8208 6.99187 36.1815C6.35876 35.5422 6.00205 34.6748 6.00001 33.7697V21.6604C5.99899 21.2109 6.0856 20.7656 6.25486 20.35C6.42412 19.9344 6.67271 19.5567 6.98641 19.2385C7.3001 18.9203 7.67273 18.6678 8.08297 18.4955C8.4932 18.3233 8.93298 18.2346 9.37711 18.2346ZM25.0932 41.1759V47.5821C25.0932 48.4886 24.7374 49.3579 24.1041 49.9989C23.4707 50.6399 22.6118 51 21.7161 51C20.8221 50.9979 19.9655 50.6368 19.3345 49.9959C18.7034 49.355 18.3495 48.4868 18.3506 47.5821V41.1759H16.8067C15.9879 41.1759 15.2025 40.8466 14.6235 40.2606C14.0444 39.6745 13.7191 38.8797 13.7191 38.0509V19.2619H39.3041V38.0431C39.3041 38.8719 38.9788 39.6667 38.3997 40.2528C37.8207 40.8388 37.0353 41.168 36.2164 41.168H34.6726V47.5742C34.6726 48.4807 34.3168 49.3501 33.6835 49.9911C33.0501 50.6321 32.1912 50.9922 31.2955 50.9922C30.3998 50.9922 29.5408 50.6321 28.9075 49.9911C28.2742 49.3501 27.9184 48.4807 27.9184 47.5742V41.1759H25.0932Z" fill="white"/>
</svg>
