<svg width="15" height="17" viewBox="0 0 15 17" fill="none" xmlns="http://www.w3.org/2000/svg">
<g clip-path="url(#clip0_253_291)">
<path d="M12.1844 5.39526C12.1844 3.87345 11.2906 2.53703 9.95482 1.79826L10.6933 0.493653C10.7157 0.455656 10.73 0.413652 10.7355 0.370129C10.741 0.326605 10.7375 0.282446 10.7252 0.240265C10.713 0.198084 10.6922 0.158738 10.6642 0.124556C10.6362 0.0903737 10.6014 0.0620499 10.562 0.0412608C10.4845 -0.000859496 10.393 -0.0111137 10.3078 0.0127495C10.2225 0.0366127 10.1504 0.092643 10.1073 0.168539L9.35047 1.50773C8.16149 1.05028 6.83993 1.05028 5.65095 1.50773L4.89269 0.168539C4.87147 0.130825 4.84285 0.0975951 4.80848 0.0707629C4.7741 0.0439307 4.73465 0.0240264 4.69239 0.0121961C4.65012 0.000365902 4.60589 -0.00315654 4.56224 0.00183165C4.51858 0.00681984 4.47636 0.0202201 4.43801 0.0412608C4.39952 0.0620461 4.36561 0.0900867 4.33822 0.123768C4.31083 0.157449 4.29052 0.196106 4.27844 0.237512C4.26637 0.278917 4.26277 0.322255 4.26786 0.365027C4.27296 0.4078 4.28663 0.449164 4.30811 0.486736L5.0466 1.79826C3.70941 2.53703 2.82406 3.87345 2.82406 5.39526H12.1844ZM13.7659 5.39526C13.9281 5.39526 14.0887 5.42659 14.2385 5.48744C14.3883 5.54829 14.5244 5.63748 14.639 5.74991C14.7537 5.86233 14.8445 5.99579 14.9065 6.14265C14.9684 6.28951 15.0002 6.44689 15 6.6058V10.8945C15.0002 11.0534 14.9684 11.2108 14.9065 11.3577C14.8445 11.5045 14.7537 11.638 14.639 11.7504C14.5244 11.8628 14.3883 11.952 14.2385 12.0129C14.0887 12.0737 13.9281 12.1051 13.7659 12.1051C13.4382 12.1051 13.1239 11.9775 12.8922 11.7505C12.6605 11.5235 12.5304 11.2156 12.5304 10.8945V6.6058C12.5304 6.28474 12.6605 5.97684 12.8922 5.74982C13.1239 5.5228 13.4382 5.39526 13.7659 5.39526ZM1.23553 5.39526C1.56321 5.39526 1.87747 5.5228 2.10918 5.74982C2.34089 5.97684 2.47106 6.28474 2.47106 6.6058V10.8945C2.47106 11.2156 2.34089 11.5235 2.10918 11.7505C1.87747 11.9775 1.56321 12.1051 1.23553 12.1051C0.908336 12.1051 0.594503 11.9779 0.362878 11.7515C0.131252 11.5251 0.000751098 11.2179 3.22779e-06 10.8973V6.60856C-0.000368177 6.44936 0.0313156 6.29165 0.0932403 6.14446C0.155165 5.99727 0.246114 5.8635 0.360881 5.7508C0.475647 5.6381 0.611976 5.54868 0.762061 5.48767C0.912146 5.42667 1.07304 5.39526 1.23553 5.39526ZM6.98532 13.5203V15.7892C6.98532 16.1103 6.85515 16.4182 6.62344 16.6452C6.39173 16.8722 6.07747 16.9998 5.74979 16.9998C5.42273 16.999 5.10934 16.8711 4.87847 16.6441C4.64759 16.4172 4.51813 16.1097 4.5185 15.7892V13.5203H3.95369C3.65409 13.5203 3.36677 13.4037 3.15492 13.1962C2.94308 12.9886 2.82406 12.7071 2.82406 12.4136V5.75912H12.1844V12.4108C12.1844 12.7043 12.0654 12.9859 11.8536 13.1934C11.6417 13.401 11.3544 13.5176 11.0548 13.5176H10.49V15.7865C10.49 16.1075 10.3598 16.4154 10.1281 16.6424C9.89639 16.8695 9.58213 16.997 9.25445 16.997C8.92677 16.997 8.61251 16.8695 8.3808 16.6424C8.14909 16.4154 8.01892 16.1075 8.01892 15.7865V13.5203H6.98532Z" fill="#4EB53D"/>
<path d="M5.54366 3.33272C5.54366 3.29271 5.53153 3.2536 5.50882 3.22036C5.4861 3.18711 5.45382 3.16123 5.41607 3.14598C5.37832 3.13073 5.33679 3.12681 5.29676 3.13472C5.25673 3.14263 5.22 3.162 5.19123 3.19039C5.16246 3.21878 5.14293 3.2549 5.13514 3.29417C5.12734 3.33344 5.13163 3.3741 5.14745 3.41098C5.16327 3.44786 5.18991 3.47931 5.224 3.50134C5.25809 3.52337 5.29808 3.53498 5.33892 3.5347C5.36592 3.5347 5.39266 3.52947 5.4176 3.5193C5.44253 3.50914 5.46516 3.49423 5.48419 3.47546C5.50322 3.45669 5.51828 3.43441 5.52848 3.40991C5.53869 3.38541 5.54385 3.35918 5.54366 3.33272Z" fill="white"/>
<path d="M5.36576 3.33277C5.36738 3.3283 5.36738 3.32341 5.36576 3.31894C5.36144 3.3159 5.35626 3.31426 5.35094 3.31426C5.34562 3.31426 5.34043 3.3159 5.33611 3.31894C5.33478 3.32346 5.33478 3.32825 5.33611 3.33277C5.3359 3.33555 5.3363 3.33834 5.33729 3.34095C5.33828 3.34356 5.33983 3.34594 5.34185 3.34791C5.34386 3.34988 5.34628 3.3514 5.34894 3.35237C5.35161 3.35334 5.35445 3.35373 5.35729 3.35353C5.3619 3.35483 5.3668 3.35483 5.37141 3.35353C5.37338 3.34864 5.37338 3.3432 5.37141 3.33831L5.36576 3.33277ZM5.62134 3.05608C5.65767 3.09155 5.6865 3.13371 5.70617 3.18012C5.72584 3.22653 5.73596 3.27629 5.73596 3.32655C5.73596 3.3768 5.72584 3.42656 5.70617 3.47298C5.6865 3.51939 5.65767 3.56154 5.62134 3.59702C5.54779 3.66866 5.44829 3.70887 5.34458 3.70887C5.24087 3.70887 5.14137 3.66866 5.06782 3.59702C5.02938 3.56197 4.99853 3.5197 4.97712 3.47273C4.9557 3.42575 4.94416 3.37504 4.94318 3.3236C4.9422 3.27216 4.9518 3.22106 4.97141 3.17333C4.99102 3.12561 5.02024 3.08224 5.05732 3.04582C5.0944 3.00939 5.13859 2.98066 5.18725 2.96132C5.23591 2.94199 5.28805 2.93245 5.34055 2.93328C5.39305 2.93411 5.44484 2.94528 5.49284 2.96614C5.54084 2.987 5.58406 3.01712 5.61993 3.0547L5.62134 3.05608Z" fill="white"/>
<path d="M9.86861 3.33272C9.86861 3.29277 9.85652 3.25372 9.83387 3.22051C9.81121 3.18729 9.77902 3.1614 9.74135 3.14611C9.70368 3.13082 9.66223 3.12682 9.62224 3.13462C9.58225 3.14241 9.54551 3.16165 9.51668 3.1899C9.48785 3.21815 9.46821 3.25414 9.46026 3.29332C9.45231 3.3325 9.45639 3.37311 9.47199 3.41002C9.4876 3.44693 9.51402 3.47847 9.54792 3.50067C9.58182 3.52286 9.62168 3.53471 9.66246 3.53471C9.71713 3.53471 9.76957 3.51343 9.80823 3.47555C9.84689 3.43767 9.86861 3.38629 9.86861 3.33272Z" fill="white"/>
<path d="M9.68241 3.33277C9.68403 3.3283 9.68403 3.32341 9.68241 3.31894C9.67809 3.3159 9.67291 3.31426 9.66759 3.31426C9.66227 3.31426 9.65708 3.3159 9.65276 3.31894C9.65143 3.32346 9.65143 3.32825 9.65276 3.33277C9.65255 3.33555 9.65295 3.33834 9.65394 3.34095C9.65493 3.34356 9.65649 3.34594 9.6585 3.34791C9.66051 3.34988 9.66293 3.3514 9.66559 3.35237C9.66826 3.35334 9.67111 3.35373 9.67394 3.35353C9.67855 3.35483 9.68345 3.35483 9.68806 3.35353C9.69003 3.34864 9.69003 3.3432 9.68806 3.33831L9.68241 3.33277ZM9.93799 3.05608C10.007 3.1288 10.0446 3.22495 10.0427 3.32427C10.0408 3.42358 9.99963 3.51829 9.92785 3.58844C9.85607 3.65858 9.7593 3.69868 9.65793 3.70028C9.55656 3.70188 9.45852 3.66486 9.38447 3.59702C9.34603 3.56197 9.31518 3.5197 9.29377 3.47273C9.27235 3.42575 9.26081 3.37504 9.25983 3.3236C9.25885 3.27216 9.26846 3.22106 9.28807 3.17333C9.30767 3.12561 9.33689 3.08224 9.37397 3.04582C9.41106 3.00939 9.45524 2.98066 9.5039 2.96132C9.55256 2.94199 9.6047 2.93245 9.6572 2.93328C9.7097 2.93411 9.7615 2.94528 9.80949 2.96614C9.85749 2.987 9.90071 3.01712 9.93658 3.0547L9.93799 3.05608Z" fill="white"/>
</g>
<defs>
<clipPath id="clip0_253_291">
<rect width="15" height="17" fill="white"/>
</clipPath>
</defs>
</svg>
