<svg width="90" height="90" viewBox="0 0 90 90" fill="none" xmlns="http://www.w3.org/2000/svg">
<path d="M84 42C84 65.196 65.196 84 42 84C20.5989 84 2.93655 67.9937 0.332555 47.2989C0.113203 45.5639 0 43.7948 0 42C0 38.712 0.37718 35.5115 1.092 32.4411C5.41882 13.8515 22.092 0 42 0C61.8583 0 78.4988 13.7829 82.8737 32.3041C83.4479 34.7263 83.8097 37.2292 83.9418 39.792C83.9811 40.5239 84 41.2594 84 42Z" fill="white"/>
<path d="M71.0188 21.6296L42.5186 12.0839C42.1838 11.972 41.8162 11.972 41.4814 12.0839L12.9812 21.6296C12.6656 21.735 12.3982 21.934 12.222 22.1944C12.0459 22.4548 11.9712 22.7615 12.01 23.0652L16.5101 58.5205C16.5368 58.7344 16.6192 58.9394 16.7504 59.1186C16.8816 59.2979 17.0578 59.4462 17.2644 59.5512L41.2646 71.8242C41.489 71.9395 41.7423 72 42 72C42.2577 72 42.511 71.9395 42.7354 71.8242L66.7355 59.5512C66.9422 59.4462 67.1184 59.2979 67.2496 59.1186C67.3808 58.9394 67.4632 58.7344 67.4899 58.5205L71.99 23.0652C72.0288 22.7615 71.9541 22.4548 71.778 22.1944C71.6018 21.934 71.3344 21.735 71.0188 21.6296Z" fill="white"/>
<path d="M64.6023 57.5151L42.0031 69.0736L19.4039 57.5151L15.1289 23.8162L42.0031 14.816L68.8773 23.8162L64.6023 57.5151Z" fill="#FF1744"/>
<path opacity="0.1" d="M41.4727 14.9933V68.8063L41.9977 69.0736L64.5968 57.5151L68.8719 23.8162L41.9977 14.816L41.4727 14.9933Z" fill="white"/>
<path d="M40.6181 21.0143L24.118 56.4696C23.9634 56.8027 23.9606 57.178 24.1103 57.5129C24.26 57.8478 24.55 58.1149 24.9163 58.2555C25.2827 58.396 25.6955 58.3986 26.0639 58.2624C26.4323 58.1263 26.7261 57.8628 26.8807 57.5297L31.5699 47.454H52.4291L57.1181 57.5297C57.2324 57.7769 57.4245 57.988 57.6703 58.1363C57.9161 58.2846 58.2046 58.3636 58.4996 58.3633C58.7002 58.3631 58.8989 58.3269 59.0841 58.2568C59.4502 58.1156 59.7397 57.8481 59.8891 57.5131C60.0385 57.178 60.0356 56.8027 59.881 56.4696L43.3808 21.0143C43.2486 20.7853 43.0501 20.5935 42.8066 20.4597C42.5631 20.3258 42.284 20.2551 41.9995 20.2551C41.715 20.2551 41.4359 20.3258 41.1924 20.4597C40.9489 20.5935 40.7503 20.7853 40.6181 21.0143ZM51.1598 44.7267H32.8392L41.9995 25.044L51.1598 44.7267Z" fill="white"/>
<path d="M71.0188 21.6296L42.5186 12.0839C42.1838 11.972 41.8162 11.972 41.4814 12.0839L12.9812 21.6296C12.6656 21.735 12.3982 21.934 12.222 22.1944C12.0459 22.4548 11.9712 22.7615 12.01 23.0652L16.5101 58.5205C16.5368 58.7344 16.6192 58.9394 16.7504 59.1186C16.8816 59.2979 17.0578 59.4462 17.2644 59.5512L41.2646 71.8242C41.489 71.9395 41.7423 72 42 72C42.2577 72 42.511 71.9395 42.7354 71.8242L66.7355 59.5512C66.9422 59.4462 67.1184 59.2979 67.2496 59.1186C67.3808 58.9394 67.4632 58.7344 67.4899 58.5205L71.99 23.0652C72.0288 22.7615 71.9541 22.4548 71.778 22.1944C71.6018 21.934 71.3344 21.735 71.0188 21.6296Z" fill="url(#paint0_linear_695_4044)"/>
<defs>
<linearGradient id="paint0_linear_695_4044" x1="9.72275" y1="27.0481" x2="68.3064" y2="57.0962" gradientUnits="userSpaceOnUse">
<stop stop-color="white" stop-opacity="0.2"/>
<stop offset="1" stop-color="white" stop-opacity="0"/>
</linearGradient>
</defs>
</svg>
