<svg width="70" height="70" viewBox="0 0 70 70" fill="none" xmlns="http://www.w3.org/2000/svg">
<g clip-path="url(#clip0_41_6)">
<mask id="mask0_41_6" style="mask-type:luminance" maskUnits="userSpaceOnUse" x="0" y="10" width="70" height="50">
<path d="M70 10H0V60H70V10Z" fill="white"/>
</mask>
<g mask="url(#mask0_41_6)">
<path fill-rule="evenodd" clip-rule="evenodd" d="M30.0781 52.5647C31.958 58.107 39.8193 58.3067 41.5853 52.5647C43.6647 54.4407 49.8227 54.8113 52.1127 56.0943C52.836 56.499 53.4913 57.0123 54.0153 57.7077C54.3683 58.1753 54.8413 59.0363 55.1943 60H16.4632C16.8221 59.0363 17.2892 58.1753 17.6424 57.7077C18.1665 57.0123 18.8216 56.499 19.5451 56.0943C21.8408 54.817 27.9989 54.4407 30.0781 52.5647ZM28.7736 10H42.8957C43.505 10 44.0007 10.4961 44.0007 11.1062V21.0332C44.0007 21.6433 43.505 22.1394 42.8957 22.1394H28.7736C28.1641 22.1394 27.6685 21.6433 27.6685 21.0332V11.1062C27.6685 10.4961 28.1641 10 28.7736 10ZM43.3457 13.0961H28.3691V21.1415C28.3691 21.2271 28.4033 21.3012 28.4603 21.3582C28.5173 21.4152 28.5913 21.4494 28.6768 21.4494H43.038C43.1233 21.4494 43.1973 21.4152 43.2543 21.3582C43.3113 21.3012 43.3457 21.2271 43.3457 21.1415V13.0961ZM41.8417 11.243C42.1437 11.243 42.3887 11.4882 42.3887 11.7904C42.3887 12.0926 42.1437 12.3378 41.8417 12.3378C41.5397 12.3378 41.2947 12.0926 41.2947 11.7904C41.2947 11.4882 41.5397 11.243 41.8417 11.243ZM38.1387 11.243C38.4407 11.243 38.6857 11.4882 38.6857 11.7904C38.6857 12.0926 38.4407 12.3378 38.1387 12.3378C37.837 12.3378 37.592 12.0926 37.592 11.7904C37.592 11.4882 37.837 11.243 38.1387 11.243ZM39.9903 11.243C40.292 11.243 40.537 11.4882 40.537 11.7904C40.537 12.0926 40.292 12.3378 39.9903 12.3378C39.6883 12.3378 39.4433 12.0926 39.4433 11.7904C39.4433 11.4882 39.6883 11.243 39.9903 11.243ZM33.815 16.4888L32.015 17.1673L33.815 17.8515V19.4367L31.0181 17.8515V16.4888L33.815 14.9036V16.4888ZM40.651 16.4888V17.8515L37.854 19.4367V17.8515L39.654 17.1673L37.854 16.4888V14.8979L40.651 16.4888ZM35.8033 19.8814H34.6127L36.0823 14.1453H37.273L35.8033 19.8814ZM68.2967 41.7254C68.3193 41.7254 68.3423 41.7254 68.365 41.7311C68.5073 41.4802 68.6387 41.2122 68.764 40.9328C68.7697 40.9271 68.7697 40.9214 68.7753 40.9214C68.9517 40.4938 69.0943 40.0547 69.1797 39.5986C69.248 39.2451 69.2993 38.8801 69.3107 38.5095H67.1687C67.129 39.5986 66.8043 40.6705 66.2003 41.7254H68.2967ZM67.9263 42.4096H65.773C65.118 43.362 64.235 44.297 63.1357 45.2207C63.3063 45.198 63.483 45.1693 63.6483 45.135C64.1097 45.044 64.554 44.907 64.987 44.719C65.42 44.5307 65.83 44.314 66.206 44.0573C66.582 43.8067 66.9297 43.5213 67.2543 43.1965C67.4933 42.9513 67.727 42.689 67.9263 42.4096ZM61.2957 45.2207C60.1903 44.297 59.3073 43.362 58.658 42.4096H56.5047C56.7097 42.689 56.9377 42.9513 57.1883 43.2022C57.513 43.5273 57.8547 43.8123 58.2363 44.0633C58.6123 44.314 59.017 44.5363 59.4557 44.7247C59.4613 44.7303 59.467 44.7303 59.467 44.736C59.8943 44.9127 60.333 45.0553 60.7887 45.141C60.9537 45.1693 61.1247 45.192 61.2957 45.2207ZM56.0547 41.7254H58.225C57.6213 40.6705 57.2967 39.5929 57.2567 38.5095H55.1147C55.132 38.8858 55.1773 39.2451 55.2457 39.5986C55.337 40.0604 55.4737 40.5052 55.6617 40.9385C55.7757 41.2122 55.9067 41.4745 56.0547 41.7254ZM55.1147 37.8253H57.268C57.3477 36.759 57.701 35.6871 58.3333 34.6094H56.0547C55.9123 34.8603 55.7813 35.1226 55.6617 35.402C55.656 35.4077 55.656 35.4134 55.6503 35.4134C55.4737 35.841 55.3313 36.2801 55.2457 36.7362C55.1717 37.0897 55.126 37.449 55.1147 37.8253ZM56.499 33.9252H58.772C59.4213 32.9901 60.276 32.0493 61.341 31.1027C61.1473 31.1256 60.9653 31.1541 60.783 31.194C60.3213 31.2852 59.877 31.4221 59.4443 31.6102C59.0113 31.7984 58.601 32.0151 58.225 32.2716C57.849 32.5225 57.5017 32.8076 57.177 33.1326C56.932 33.3778 56.704 33.6401 56.499 33.9252ZM63.0787 31.1027C64.1497 32.0493 65.004 32.9901 65.6477 33.9252H67.9207C67.7157 33.6458 67.4877 33.3835 67.237 33.1326C66.9123 32.8076 66.5707 32.5225 66.189 32.2716C65.813 32.0208 65.4087 31.7984 64.97 31.6102C64.9643 31.6045 64.9583 31.6045 64.9583 31.5988C64.5313 31.4221 64.0927 31.2795 63.637 31.194C63.4547 31.1598 63.2667 31.1313 63.0787 31.1027ZM68.3707 34.6094H66.092C66.7243 35.6871 67.0777 36.759 67.1573 37.8253H69.3107C69.2937 37.449 69.248 37.0897 69.1797 36.7362C69.0887 36.2744 68.9517 35.8296 68.764 35.3963C68.6443 35.1226 68.5133 34.8603 68.3707 34.6094ZM60.646 30.5212C61.153 30.4185 61.6717 30.3672 62.2127 30.3672C62.7483 30.3672 63.2667 30.4185 63.7793 30.5212C64.2807 30.6181 64.759 30.7663 65.232 30.9716C65.2377 30.9716 65.2433 30.9773 65.249 30.983C65.716 31.1826 66.1603 31.4278 66.5763 31.7014C66.9923 31.9751 67.374 32.2944 67.727 32.648C68.0803 33.0015 68.3937 33.3835 68.6727 33.7997C68.9517 34.216 69.191 34.6607 69.3903 35.1283C69.5957 35.6073 69.7437 36.0976 69.8463 36.5994C69.9487 37.1069 70 37.6257 70 38.1674C70 38.7034 69.9487 39.2223 69.8463 39.7354C69.7493 40.2372 69.6013 40.7162 69.396 41.1894C69.396 41.1951 69.3903 41.2008 69.3847 41.2065C69.1853 41.6798 68.9403 42.1188 68.667 42.5351C68.3937 42.9513 68.0747 43.3333 67.7213 43.687C67.368 44.0403 66.9863 44.354 66.5707 44.6333C66.1547 44.9127 65.7103 45.1523 65.2433 45.3517C64.7647 45.557 64.275 45.7053 63.7737 45.808C63.2667 45.9107 62.7483 45.962 62.207 45.962C61.6717 45.962 61.153 45.9107 60.6403 45.808C60.139 45.711 59.6607 45.5627 59.1877 45.3577C59.182 45.3577 59.1763 45.3517 59.1707 45.346C58.7037 45.1467 58.2593 44.9013 57.8433 44.6277C57.4277 44.354 57.046 44.0347 56.6927 43.681C56.3397 43.3276 56.0263 42.9456 55.747 42.5294C55.468 42.1131 55.2287 41.6684 55.0293 41.2008C54.8243 40.7219 54.676 40.2315 54.5737 39.7297C54.471 39.2223 54.4197 38.7034 54.4197 38.1617C54.4197 37.6257 54.471 37.1069 54.5737 36.5937C54.6703 36.0919 54.8187 35.613 55.0237 35.1397C55.0237 35.134 55.0293 35.1283 55.035 35.1226C55.2343 34.6493 55.4793 34.2103 55.7527 33.794C56.0263 33.3778 56.3453 32.9958 56.6983 32.6423C57.0517 32.2887 57.4333 31.9751 57.849 31.6957C58.265 31.4164 58.7093 31.1769 59.1763 30.9773C59.6493 30.7777 60.139 30.6295 60.646 30.5212ZM62.5547 31.5475V33.9252H64.816C64.218 33.1383 63.466 32.3458 62.5547 31.5475ZM62.5547 34.6094V37.8253H66.4737C66.3827 36.7704 65.9897 35.6985 65.289 34.6094H62.5547ZM62.5547 38.5095V41.7254H65.4087C66.0863 40.6591 66.4453 39.5872 66.4853 38.5095H62.5547ZM62.5547 42.4096V44.8157C63.523 44.0233 64.3147 43.2193 64.93 42.4096H62.5547ZM61.871 44.81V42.4039H59.4953C60.105 43.2136 60.8967 44.0177 61.871 44.81ZM61.871 41.7254V38.5095H57.9347C57.9743 39.5872 58.339 40.6591 59.0113 41.7254H61.871ZM61.871 37.8253V34.6094H59.131C58.4303 35.6985 58.037 36.7704 57.9517 37.8253H61.871ZM61.871 33.9252V31.5475C60.9537 32.3458 60.2017 33.1383 59.6093 33.9252H61.871ZM5.3719 38.1674L2.84831 34.5011C3.29264 33.9651 3.68 33.3949 4.0161 32.7962C4.3636 32.1747 4.65413 31.5247 4.9048 30.8462L9.34813 31.2738L5.3719 38.1674ZM6.2036 38.6692L10.1969 31.7414L17.0841 35.7213L16.5373 36.6678L11.0571 33.5033C10.7609 33.3322 10.3735 33.4348 10.2026 33.7313C10.0317 34.0278 10.1343 34.4156 10.4305 34.5866L15.9106 37.7512L15.3979 38.635L9.9178 35.4704C9.62157 35.2993 9.2342 35.402 9.0633 35.6985C8.8924 35.995 8.99497 36.3827 9.29117 36.5538L14.7713 39.7183L14.2586 40.6021L8.77847 37.4376C8.48227 37.2665 8.0949 37.3691 7.924 37.6656C7.7531 37.9621 7.85563 38.3499 8.15187 38.5209L13.632 41.6855L13.0851 42.632L6.2036 38.6692ZM1.98242 33.2524L0 30.3729L3.40087 30.7036C3.20719 31.1826 2.99072 31.6444 2.74577 32.0835C2.5236 32.494 2.26725 32.8817 1.98242 33.2524ZM9.89503 57.9873C10.1855 58.6373 9.89503 59.4013 9.2399 59.692C8.5905 59.983 7.82713 59.692 7.53663 59.0363C6.81317 57.417 6.2207 55.735 5.78777 53.996C5.3605 52.291 5.0757 50.5233 4.94467 48.716C4.8934 48.0033 5.42887 47.3817 6.14663 47.3303C6.85873 47.279 7.47967 47.815 7.53093 48.5333C7.65057 50.187 7.9126 51.8007 8.29997 53.363C8.69873 54.9767 9.2399 56.516 9.89503 57.9873ZM15.3296 27.1057C14.7998 27.579 13.9852 27.5334 13.5067 27.0031C13.0339 26.4728 13.0794 25.6574 13.6092 25.1785C14.8169 24.1008 16.2297 22.9946 17.688 22.0424C18.9982 21.1871 20.3483 20.4516 21.6357 19.9498C22.3022 19.6932 23.0485 20.0239 23.3049 20.6911C23.5612 21.3582 23.2308 22.1051 22.5643 22.3617C21.4535 22.7894 20.2629 23.4451 19.0894 24.2091C17.745 25.0929 16.4347 26.1136 15.3296 27.1057ZM48.82 21.6262C48.2047 21.267 47.9997 20.4744 48.3587 19.8586C48.7173 19.2428 49.5093 19.0375 50.1247 19.3967C51.5713 20.2406 52.9443 21.2099 54.226 22.2762C55.5193 23.3482 56.7213 24.5285 57.815 25.7886C58.282 26.3303 58.225 27.1456 57.684 27.6132C57.1427 28.0807 56.328 28.0237 55.861 27.482C54.8527 26.3189 53.7533 25.2412 52.5797 24.2605C51.4063 23.2911 50.1473 22.4073 48.82 21.6262ZM63.1527 50.2383C63.2437 49.5313 63.8933 49.0297 64.5997 49.1263C65.306 49.2233 65.8073 49.8677 65.7103 50.5747C65.5167 52.0343 65.2263 53.4543 64.839 54.8227C64.4457 56.231 63.9503 57.588 63.375 58.8997C63.0843 59.5553 62.321 59.8517 61.6717 59.561C61.0163 59.27 60.7203 58.506 61.0107 57.856C61.5463 56.6473 61.9963 55.4043 62.355 54.127C62.7083 52.8557 62.9817 51.5553 63.1527 50.2383ZM28.6369 41.0811C28.2438 41.0982 27.9419 41.178 27.7425 41.3149C27.6286 41.3947 27.5431 41.4916 27.4862 41.6114C27.4235 41.7425 27.395 41.9022 27.4007 42.0903C27.4178 42.632 27.7026 43.339 28.2495 44.1543L28.2552 44.1657L30.0326 46.9997C30.7446 48.1343 31.4966 49.2917 32.4251 50.1413C33.3195 50.9567 34.402 51.5157 35.8373 51.5157C37.3927 51.5213 38.5263 50.9453 39.449 50.0787C40.406 49.1777 41.1637 47.9463 41.91 46.7203L43.9153 43.413C44.2913 42.5579 44.4223 41.9877 44.3367 41.6513C44.2853 41.4517 44.0633 41.3548 43.693 41.3377C43.6133 41.332 43.5337 41.332 43.448 41.3377C43.357 41.3377 43.2657 41.3491 43.169 41.3548C43.1177 41.3605 43.0663 41.3548 43.015 41.3434C42.8387 41.3548 42.6507 41.3434 42.4683 41.3149L43.1577 38.5551C38.0647 39.3591 34.2537 35.573 28.8704 37.7968L29.2578 41.0982C29.0299 41.121 28.8249 41.1096 28.6369 41.0811ZM44.3767 40.4425C44.8723 40.5907 45.1857 40.9043 45.3167 41.4118C45.459 41.9706 45.3053 42.7631 44.8267 43.8467C44.8153 43.8637 44.8097 43.8863 44.7983 43.9037L42.7703 47.245C41.9897 48.5333 41.1923 49.822 40.1383 50.82C39.039 51.8463 37.6887 52.5307 35.843 52.5247C34.117 52.519 32.8182 51.8577 31.7529 50.8827C30.7218 49.942 29.9357 48.7217 29.1895 47.5357L27.4121 44.7017C26.7627 43.7323 26.4209 42.843 26.4038 42.1131C26.3924 41.771 26.4494 41.4574 26.5804 41.1837C26.7114 40.8986 26.9165 40.6591 27.1899 40.471C27.321 40.3854 27.4634 40.3113 27.6229 40.2486C27.509 38.7148 27.4634 37.0612 27.5374 35.4419C27.5773 35.0599 27.6514 34.6721 27.7596 34.2901C28.2153 32.6651 29.3547 31.9181 30.7674 31.0229C31.5479 30.5269 32.3966 30.1505 33.291 29.8996C33.855 29.74 32.8125 27.9325 33.3937 27.8698C36.219 27.579 40.7877 30.1619 42.7643 32.2944C43.75 33.3664 44.371 34.216 44.5077 36.0919L44.3767 40.4425Z" fill="#DAB068"/>
</g>
</g>
<defs>
<clipPath id="clip0_41_6">
<rect width="70" height="50" fill="white" transform="translate(0 10)"/>
</clipPath>
</defs>
</svg>
