<svg width="17" height="17" viewBox="0 0 17 17" fill="none" xmlns="http://www.w3.org/2000/svg">
<g clip-path="url(#clip0_254_297)">
<path fill-rule="evenodd" clip-rule="evenodd" d="M13.1427 9.03181C13.1213 6.87958 14.898 5.84678 14.9774 5.79565C13.9788 4.33489 12.423 4.13411 11.8686 4.11153C10.5447 3.97787 9.28561 4.89146 8.61297 4.89146C7.94219 4.89146 6.90561 4.13158 5.80787 4.15169C4.36499 4.17302 3.03474 4.99091 2.29091 6.2832C0.791857 8.88404 1.90748 12.7389 3.36858 14.8478C4.08231 15.8806 4.93348 17.0408 6.05131 16.9994C7.12741 16.957 7.53464 16.3023 8.83634 16.3023C10.1377 16.3023 10.5032 16.9994 11.6424 16.9771C12.8007 16.9558 13.5345 15.9242 14.2435 14.888C15.064 13.6895 15.4003 12.5306 15.4207 12.471C15.3949 12.4594 13.1621 11.6041 13.1395 9.03274L13.1426 9.03181H13.1427ZM11.003 2.71413C11.596 1.99474 11.9966 0.996121 11.8871 -0.000610352C11.0328 0.0342131 9.99685 0.56881 9.38352 1.28727C8.83291 1.92509 8.35194 2.94158 8.48058 3.91792C9.43466 3.99229 10.4088 3.4332 11.0021 2.71538L11.003 2.71413Z" fill="black"/>
</g>
<defs>
<clipPath id="clip0_254_297">
<rect width="17" height="17" fill="white"/>
</clipPath>
</defs>
</svg>
