<svg width="70" height="70" viewBox="0 0 70 70" fill="none" xmlns="http://www.w3.org/2000/svg">
<path d="M64.6265 42.4923V47.8991C64.6265 49.3565 63.4458 50.5371 61.9884 50.5371H8.82557C7.36816 50.5371 6.1875 49.3565 6.1875 47.8991V42.4923H64.6265Z" fill="#DAB068"/>
<path d="M42.1077 58.1445L41.2213 50.5361H29.5944L28.7079 58.1445C28.4698 60.2334 26.7008 61.8104 24.5983 61.8081C24.5281 61.8108 24.6691 61.8122 24.5983 61.8122H46.2176C46.1468 61.8122 46.2877 61.8108 46.2176 61.8081C44.1148 61.8103 42.3458 60.2334 42.1077 58.1445Z" fill="#DAB068"/>
<path d="M25.5195 25.4454H31.3896V35.5642H25.5195V25.4454ZM58.7698 25.4462C58.7698 28.2555 57.6303 30.7989 55.789 32.6403L48.5949 25.4462V15.2711C54.2137 15.2711 58.7698 19.8273 58.7698 25.4462Z" fill="#DAB068"/>
<path d="M61.9887 6H39.9518C39.2959 6 38.764 6.53189 38.764 7.18778C38.764 7.84368 39.2959 8.37557 39.9518 8.37557H61.9887C62.7883 8.37557 63.439 9.02564 63.439 9.82467V41.3045H7.37557V9.82467C7.37557 9.02552 8.02624 8.37557 8.82585 8.37557H29.5087C30.1646 8.37557 30.6965 7.84368 30.6965 7.18778C30.6965 6.53189 30.1646 6 29.5087 6H8.82585C6.71623 6 5 7.71575 5 9.82467V47.8991C5 50.0087 6.71623 51.725 8.82585 51.725H28.2596L27.5272 58.0099C27.3574 59.4985 26.1003 60.6203 24.6022 60.6203H24.5989C24.5888 60.6223 24.5667 60.6206 24.5506 60.6212C24.538 60.6217 24.5255 60.6236 24.5129 60.6244H22.8981C22.2422 60.6244 21.7103 61.1563 21.7103 61.8122C21.7103 62.4681 22.2422 63 22.8981 63H47.9166C48.5725 63 49.1043 62.4681 49.1043 61.8122C49.1043 61.1563 48.5725 60.6244 47.9166 60.6244H46.3018C46.2892 60.6235 46.2766 60.6217 46.2641 60.6212C46.2484 60.6206 46.2328 60.6203 46.2171 60.6203H46.2124C44.7145 60.6202 43.4573 59.4986 43.2875 58.0099L43.2872 58.007L42.5551 51.725H61.9887C64.0983 51.725 65.8146 50.0087 65.8146 47.8991V9.82467C65.8146 7.71575 64.0983 6 61.9887 6ZM40.9274 58.2808C41.0222 59.1188 41.3153 59.9222 41.7826 60.6243H29.0324C29.4996 59.9226 29.7926 59.1195 29.8871 58.2818L30.6512 51.7248H40.1634L40.9274 58.2808ZM63.439 47.8991C63.439 48.6987 62.7883 49.3494 61.9887 49.3494H8.82585C8.02624 49.3494 7.37557 48.6987 7.37557 47.8991V43.6801H63.439V47.8991Z" fill="#DAB068"/>
<path d="M56.6299 33.4802C58.7764 31.3338 59.9585 28.4805 59.9585 25.446C59.9585 19.1806 54.8612 14.0833 48.5958 14.0833C42.3311 14.0833 37.2345 19.1806 37.2345 25.446C37.2345 31.7106 42.3311 36.8073 48.5958 36.8073C51.631 36.8074 54.4843 35.6258 56.6299 33.4802ZM57.5729 25.8613C57.4912 27.6856 56.8447 29.4557 55.7337 30.9043L49.7837 24.954V16.5399C54.1858 17.1254 57.583 21.0044 57.583 25.4461C57.583 25.585 57.5791 25.7234 57.5729 25.8613ZM39.61 25.446C39.61 20.8935 43.013 17.1232 47.408 16.5398V25.446C47.408 25.761 47.5332 26.0631 47.7559 26.2859L54.0537 32.5838C52.4942 33.7812 50.5955 34.4317 48.5958 34.4317C43.6411 34.4319 39.61 30.4007 39.61 25.446ZM24.3326 25.4454V34.3764H20.9986V16.4847C20.9986 15.8288 20.4668 15.2969 19.8109 15.2969H13.9408C13.2849 15.2969 12.753 15.8288 12.753 16.4847V34.3764H11.8792C11.2233 34.3764 10.6914 34.9083 10.6914 35.5642C10.6914 36.2201 11.2233 36.752 11.8792 36.752H33.3694C34.0253 36.752 34.5572 36.2201 34.5572 35.5642C34.5572 34.9083 34.0253 34.3764 33.3694 34.3764H32.5784V25.4454C32.5784 24.7895 32.0465 24.2576 31.3906 24.2576H25.5205C24.8645 24.2576 24.3326 24.7894 24.3326 25.4454ZM15.1286 34.3764V17.6725H18.6231V34.3764H15.1286ZM26.7082 26.6332H30.2027V34.3764H26.7082V26.6332ZM33.6994 7.64161C33.9483 8.23883 34.6518 8.53281 35.2508 8.2842C35.848 8.03631 36.1412 7.33077 35.8932 6.73284C35.6455 6.13562 34.9396 5.84212 34.342 6.09024C33.7454 6.33802 33.4502 7.04415 33.6994 7.64161Z" fill="#DAB068"/>
</svg>
