<svg width="90" height="90" viewBox="0 0 90 90" fill="none" xmlns="http://www.w3.org/2000/svg">
<path d="M87 46C87 69.196 68.196 88 45 88C23.5989 88 5.93655 71.9937 3.33255 51.2989C3.1132 49.5639 3 47.7948 3 46C3 42.712 3.37718 39.5115 4.092 36.4411C8.41882 17.8515 25.092 4 45 4C64.8583 4 81.4988 17.7829 85.8737 36.3041C86.4479 38.7263 86.8097 41.2292 86.9418 43.792C86.9811 44.5239 87 45.2594 87 46Z" fill="white"/>
<path d="M71.8368 43.505C71.8368 45.912 70.8615 48.0774 69.2867 49.6612C67.7119 51.236 65.5375 52.2024 63.1395 52.2024H27.5985C22.2566 52.2024 17.9258 47.8805 17.9258 42.5386V42.1181C17.9258 37.4204 21.2812 33.5013 25.7283 32.6333C26.2294 29.2331 29.1643 26.6293 32.7077 26.6293C33.6025 26.6293 34.4704 26.7993 35.2668 27.1035C37.9154 22.0748 43.1857 18.6567 49.2613 18.6567C57.9944 18.6567 65.0812 25.7345 65.0812 34.4766C65.0812 34.6645 65.0812 34.8434 65.0722 35.0314C68.9467 35.9082 71.8368 39.3711 71.8368 43.505Z" fill="#BCE1F0"/>
<g opacity="0.12">
<path d="M66.7298 35.5861C67.222 36.6778 67.4993 37.8857 67.4993 39.1653C67.4993 41.5723 66.524 43.7377 64.9492 45.3214C63.3744 46.8963 61.2 47.8626 58.802 47.8626H23.261C21.713 47.8626 20.2545 47.4868 18.957 46.8426C20.5408 50.0191 23.8157 52.2024 27.6096 52.2024H63.1417C65.5487 52.2024 67.7141 51.227 69.2889 49.6612C70.8637 48.0863 71.8391 45.912 71.8391 43.505C71.8391 39.9795 69.7363 36.9551 66.7298 35.5861Z" fill="black"/>
</g>
<path d="M60.4235 35.1656C59.9403 35.1656 59.5555 34.7808 59.5555 34.2976C59.5555 30.5753 57.5065 27.1572 54.2136 25.3855C53.7931 25.1618 53.632 24.6339 53.8647 24.2133C54.0884 23.7928 54.6163 23.6317 55.0368 23.8644C58.8934 25.9403 61.2914 29.94 61.2914 34.3066C61.2914 34.7718 60.8977 35.1656 60.4235 35.1656Z" fill="white"/>
<path d="M51.357 24.3475C51.3033 24.3475 51.2586 24.3475 51.2049 24.3386C50.6233 24.2402 50.0327 24.1865 49.4422 24.1865C48.959 24.1865 48.5742 23.8017 48.5742 23.3185C48.5742 22.8354 48.959 22.4506 49.4422 22.4506C50.1312 22.4506 50.8291 22.5132 51.5091 22.6295C51.9834 22.7101 52.2965 23.1664 52.216 23.6317C52.1355 24.0523 51.7686 24.3475 51.357 24.3475Z" fill="white"/>
<path d="M41.3258 37.9483C41.3258 38.5657 41.1647 39.1295 40.8605 39.6126C40.2968 40.5432 39.2857 41.1606 38.1135 41.1606C36.3418 41.1606 34.9102 39.729 34.9102 37.9483C34.9102 36.1767 36.3418 34.745 38.1135 34.745C39.2767 34.745 40.2878 35.3624 40.8516 36.284C41.1558 36.7672 41.3258 37.3399 41.3258 37.9483Z" fill="#F56356"/>
<path d="M48.4389 34.9061C50.213 34.9061 51.6511 33.4679 51.6511 31.6938C51.6511 29.9197 50.213 28.4815 48.4389 28.4815C46.6648 28.4815 45.2266 29.9197 45.2266 31.6938C45.2266 33.4679 46.6648 34.9061 48.4389 34.9061Z" fill="#6E6ECE"/>
<path d="M48.4389 47.4242C50.213 47.4242 51.6511 45.986 51.6511 44.2119C51.6511 42.4378 50.213 40.9996 48.4389 40.9996C46.6648 40.9996 45.2266 42.4378 45.2266 44.2119C45.2266 45.986 46.6648 47.4242 48.4389 47.4242Z" fill="#6E6ECE"/>
<path d="M72.1425 58.8417V72.8541H56.5195V60.5418H64.3221L66.8096 58.8417H72.1425Z" fill="#FFD404"/>
<g opacity="0.12">
<path d="M69.5298 58.8417C69.5298 65.141 64.4295 70.2413 58.1302 70.2413H56.5195V72.8451H72.1336V58.8417H69.5298Z" fill="black"/>
</g>
<path d="M52.6972 58.8417V72.8541H37.0742V60.5418H44.8768L47.3732 58.8417H52.6972Z" fill="#FFD404"/>
<path d="M17.6328 58.8417V72.8541H33.2558V60.5418H25.4533L22.9658 58.8417H17.6328Z" fill="#FFD404"/>
<g opacity="0.12">
<path d="M30.652 60.5418C30.652 65.9016 26.3033 70.2502 20.9435 70.2502H17.6328V72.8541H33.2558V60.5418H30.652Z" fill="black"/>
</g>
<g opacity="0.12">
<path d="M40.8601 36.284C40.4753 35.6487 39.8758 35.1655 39.16 34.924C39.2763 35.255 39.339 35.604 39.339 35.9619C39.339 36.5793 39.1779 37.143 38.8737 37.6262C38.31 38.5568 37.2988 39.1742 36.1267 39.1742C35.7598 39.1742 35.4198 39.1026 35.0977 38.9863C35.5272 40.2479 36.7083 41.1606 38.1131 41.1606C39.2763 41.1606 40.2874 40.5432 40.8601 39.6126C41.1554 39.1295 41.3254 38.5657 41.3254 37.9483C41.3254 37.3399 41.1554 36.7672 40.8601 36.284Z" fill="black"/>
</g>
<g opacity="0.12">
<path d="M49.4764 28.6694C49.5927 29.0004 49.6643 29.3405 49.6643 29.7073C49.6643 31.479 48.2326 32.9196 46.452 32.9196C46.0852 32.9196 45.7451 32.848 45.4141 32.7317C45.8436 33.9934 47.0247 34.9061 48.4385 34.9061C50.2101 34.9061 51.6507 33.4744 51.6507 31.6938C51.6507 30.2889 50.7381 29.0989 49.4764 28.6694Z" fill="black"/>
</g>
<g opacity="0.12">
<path d="M49.4764 41.1875C49.5927 41.5186 49.6643 41.8586 49.6643 42.2255C49.6643 43.9971 48.2326 45.4378 46.452 45.4378C46.0852 45.4378 45.7451 45.3662 45.4141 45.2498C45.8436 46.5115 47.0247 47.4242 48.4385 47.4242C50.2101 47.4242 51.6507 45.9925 51.6507 44.2119C51.6507 42.8071 50.7381 41.6259 49.4764 41.1875Z" fill="black"/>
</g>
<g opacity="0.12">
<path d="M50.0923 58.8417C50.0923 65.141 44.992 70.2413 38.6927 70.2413H37.082V72.8451H52.6961V58.8417H50.0923Z" fill="black"/>
</g>
<path d="M63.1391 53.0703H27.5981C21.7909 53.0703 17.0664 48.3458 17.0664 42.5386V42.1181C17.0664 37.2952 20.3592 33.0897 24.9853 31.9085C25.7995 28.3652 29.0208 25.7524 32.7073 25.7524C33.441 25.7524 34.1569 25.8508 34.8548 26.0477C37.8434 20.9295 43.2927 17.7798 49.2609 17.7798C58.4236 17.7798 65.8861 25.2066 65.9487 34.3513C69.9574 35.5772 72.7044 39.2458 72.7044 43.505C72.7044 46.0641 71.7112 48.4621 69.9037 50.2696C68.0962 52.0771 65.6893 53.0703 63.1391 53.0703ZM32.7163 27.4883C29.674 27.4883 27.0433 29.7521 26.5959 32.7586C26.5422 33.1255 26.2648 33.4118 25.9069 33.4834C21.7909 34.2887 18.8112 37.9215 18.8112 42.1181V42.5386C18.8112 47.3884 22.7573 51.3344 27.607 51.3344H63.1391C65.2329 51.3344 67.1925 50.5202 68.6778 49.0437C70.1543 47.5673 70.9685 45.5988 70.9685 43.505C70.9685 39.8811 68.4094 36.6688 64.8839 35.8635C64.4813 35.774 64.195 35.4072 64.2128 34.9956C64.2218 34.8166 64.2218 34.6376 64.2218 34.4676C64.2218 26.2266 57.5198 19.5157 49.2699 19.5157C43.7043 19.5157 38.6308 22.5759 36.0359 27.5062C35.8301 27.8999 35.3648 28.0699 34.9532 27.9088C34.2374 27.6314 33.4858 27.4883 32.7163 27.4883Z" fill="black"/>
<path d="M44.8875 61.0518C44.4043 61.0518 44.0195 60.667 44.0195 60.1838V52.2023C44.0195 51.7191 44.4043 51.3344 44.8875 51.3344C45.3707 51.3344 45.7554 51.7191 45.7554 52.2023V60.1838C45.7554 60.667 45.3707 61.0518 44.8875 61.0518Z" fill="black"/>
<path d="M64.2732 61.0518C63.79 61.0518 63.4052 60.667 63.4052 60.1838V57.061H52.3367C51.8535 57.061 51.4688 56.6763 51.4688 56.1931V52.2023C51.4688 51.7191 51.8535 51.3344 52.3367 51.3344C52.8199 51.3344 53.2046 51.7191 53.2046 52.2023V55.3251H64.2642C64.7474 55.3251 65.1322 55.7099 65.1322 56.1931V60.1838C65.1322 60.667 64.7474 61.0518 64.2732 61.0518Z" fill="black"/>
<path d="M24.575 60.4612C24.0918 60.4612 23.707 60.0765 23.707 59.5933V56.1931C23.707 55.7099 24.0918 55.3251 24.575 55.3251H36.5652V52.2023C36.5652 51.7191 36.9499 51.3344 37.4331 51.3344C37.9163 51.3344 38.301 51.7191 38.301 52.2023V56.1931C38.301 56.6763 37.9163 57.061 37.4331 57.061H25.4429V59.5933C25.4429 60.0675 25.0582 60.4612 24.575 60.4612Z" fill="black"/>
<path d="M72.1394 73.722H56.5164C56.0332 73.722 55.6484 73.3373 55.6484 72.8541V60.5418C55.6484 60.0586 56.0332 59.6739 56.5164 59.6739H64.0505L66.3233 58.1348C66.4664 58.0364 66.6365 57.9827 66.8065 57.9827H72.1305C72.6136 57.9827 72.9984 58.3675 72.9984 58.8506V72.8541C73.0073 73.3283 72.6136 73.722 72.1394 73.722ZM57.3843 71.9861H71.2625V59.7096H67.0749L64.8021 61.2487C64.659 61.3471 64.489 61.4008 64.3189 61.4008H57.3843V71.9861Z" fill="black"/>
<path d="M52.698 73.722H37.075C36.5918 73.722 36.207 73.3373 36.207 72.8541V60.5418C36.207 60.0586 36.5918 59.6739 37.075 59.6739H44.6091L46.8819 58.1348C47.025 58.0364 47.195 57.9827 47.3651 57.9827H52.6891C53.1722 57.9827 53.557 58.3675 53.557 58.8506V72.8541C53.5659 73.3283 53.1722 73.722 52.698 73.722ZM37.9429 71.9861H51.8211V59.7096H47.6335L45.3607 61.2487C45.2176 61.3471 45.0476 61.4008 44.8775 61.4008H37.9429V71.9861Z" fill="black"/>
<path d="M33.2527 73.722H17.6297C17.1465 73.722 16.7617 73.3373 16.7617 72.8541V58.8417C16.7617 58.3585 17.1465 57.9738 17.6297 57.9738H22.9626C23.1326 57.9738 23.3026 58.0274 23.4458 58.1259L25.7186 59.6649H33.2527C33.7359 59.6649 34.1206 60.0497 34.1206 60.5329V72.8452C34.1206 73.3283 33.7269 73.722 33.2527 73.722ZM18.4976 71.9862H32.3758V61.4097H25.4412C25.2712 61.4097 25.1012 61.3561 24.958 61.2576L22.6942 59.7096H18.4976V71.9862Z" fill="black"/>
<path d="M38.1221 42.0286C35.8762 42.0286 34.0508 40.1943 34.0508 37.9484C34.0508 35.7024 35.8762 33.8771 38.1221 33.8771C39.5627 33.8771 40.8601 34.6108 41.6028 35.8367C41.9876 36.463 42.2023 37.1967 42.2023 37.9484C42.2023 38.7089 41.9965 39.4427 41.6118 40.069C40.8601 41.2949 39.5537 42.0286 38.1221 42.0286ZM38.1221 35.613C36.8336 35.613 35.7867 36.6599 35.7867 37.9484C35.7867 39.2458 36.8336 40.2927 38.1221 40.2927C38.9453 40.2927 39.6969 39.8722 40.1264 39.1563C40.3501 38.7984 40.4575 38.3868 40.4575 37.9394C40.4575 37.5099 40.3412 37.0894 40.1175 36.7315C39.688 36.0335 38.9453 35.613 38.1221 35.613Z" fill="black"/>
<path d="M45.6994 43.4155C45.5473 43.4155 45.3863 43.3708 45.252 43.2902L40.4112 40.3553C39.9996 40.1048 39.8744 39.5769 40.1249 39.1653C40.3754 38.7537 40.9034 38.6284 41.315 38.8789L46.1468 41.8138C46.5584 42.0644 46.6837 42.5923 46.4332 43.0039C46.2721 43.2723 45.9858 43.4155 45.6994 43.4155Z" fill="black"/>
<path d="M40.8612 37.152C40.5659 37.152 40.2796 36.9999 40.1185 36.7314C39.868 36.3198 40.0022 35.7919 40.4138 35.5414L45.2546 32.6065C45.6662 32.3649 46.1941 32.4901 46.4447 32.9017C46.6952 33.3134 46.561 33.8413 46.1494 34.0918L41.3086 37.0267C41.1654 37.1073 41.0133 37.152 40.8612 37.152Z" fill="black"/>
<path d="M48.4396 35.774C46.1937 35.774 44.3594 33.9486 44.3594 31.6938C44.3594 29.4389 46.1847 27.6135 48.4396 27.6135C50.6855 27.6135 52.5199 29.4389 52.5199 31.6938C52.5199 33.9486 50.6855 35.774 48.4396 35.774ZM48.4396 29.3494C47.1511 29.3494 46.0953 30.3963 46.0953 31.6938C46.0953 32.9823 47.1422 34.0381 48.4396 34.0381C49.7281 34.0381 50.784 32.9912 50.784 31.6938C50.784 30.4053 49.7281 29.3494 48.4396 29.3494Z" fill="black"/>
<path d="M48.4396 48.2921C46.1937 48.2921 44.3594 46.4668 44.3594 44.2119C44.3594 41.957 46.1847 40.1317 48.4396 40.1317C50.6855 40.1317 52.5199 41.957 52.5199 44.2119C52.5199 46.4668 50.6855 48.2921 48.4396 48.2921ZM48.4396 41.8675C47.1511 41.8675 46.0953 42.9144 46.0953 44.2119C46.0953 45.5093 47.1422 46.5562 48.4396 46.5562C49.7281 46.5562 50.784 45.5093 50.784 44.2119C50.784 42.9144 49.7281 41.8675 48.4396 41.8675Z" fill="black"/>
</svg>
