<svg width="90" height="90" viewBox="0 0 90 90" fill="none" xmlns="http://www.w3.org/2000/svg">
<path d="M87 46C87 69.196 68.196 88 45 88C23.5989 88 5.93655 71.9937 3.33255 51.2989C3.1132 49.5639 3 47.7948 3 46C3 42.712 3.37718 39.5115 4.092 36.4411C8.41882 17.8515 25.092 4 45 4C64.8583 4 81.4988 17.7829 85.8737 36.3041C86.4479 38.7263 86.8097 41.2292 86.9418 43.792C86.9811 44.5239 87 45.2594 87 46Z" fill="white"/>
<path d="M73.0289 70.6107C73.03 70.9284 72.9682 71.2431 72.8471 71.5367C72.726 71.8304 72.548 72.0972 72.3234 72.3218C72.0988 72.5464 71.832 72.7244 71.5384 72.8455C71.2447 72.9665 70.93 73.0283 70.6124 73.0273H36.7803C36.1823 73.0282 35.6052 72.8073 35.1606 72.4073C34.716 72.0074 34.4355 71.4568 34.3733 70.8621C34.3653 70.7785 34.3621 70.6946 34.3637 70.6107C34.3627 70.2931 34.4245 69.9784 34.5456 69.6848C34.6666 69.3911 34.8446 69.1243 35.0692 68.8997C35.2938 68.6751 35.5606 68.4971 35.8543 68.376C36.1479 68.255 36.4626 68.1931 36.7803 68.1942H50.7964V69.1608H56.5962V68.1942H70.6124C71.2533 68.1942 71.868 68.4488 72.3211 68.902C72.7743 69.3552 73.0289 69.9698 73.0289 70.6107Z" fill="#C6C5CA"/>
<path d="M73.0292 70.6107C73.0302 70.9284 72.9684 71.2431 72.8473 71.5367C72.7262 71.8304 72.5483 72.0972 72.3237 72.3218C72.0991 72.5464 71.8323 72.7244 71.5386 72.8454C71.245 72.9665 70.9303 73.0283 70.6126 73.0273H66.7461C67.387 73.0273 68.0017 72.7727 68.4549 72.3195C68.9081 71.8663 69.1627 71.2516 69.1627 70.6107C69.1627 69.9698 68.9081 69.3551 68.4549 68.902C68.0017 68.4488 67.387 68.1942 66.7461 68.1942H70.6126C71.2535 68.1942 71.8682 68.4488 72.3214 68.902C72.7746 69.3551 73.0292 69.9698 73.0292 70.6107Z" fill="#898890"/>
<path d="M70.1311 47.8949V68.1941H56.5983V69.1608H50.7985V68.1941H37.2656V47.8949C37.2672 47.3826 37.4713 46.8918 37.8336 46.5295C38.1958 46.1673 38.6866 45.9631 39.1989 45.9616H68.1978C68.7101 45.9631 69.2009 46.1673 69.5632 46.5295C69.9254 46.8918 70.1296 47.3826 70.1311 47.8949Z" fill="#46F8FF"/>
<path d="M70.1318 47.8949V68.1941H66.2653V47.8949C66.2638 47.3826 66.0596 46.8918 65.6974 46.5295C65.3351 46.1673 64.8443 45.9631 64.332 45.9616H68.1986C68.7108 45.9631 69.2017 46.1673 69.5639 46.5295C69.9261 46.8918 70.1303 47.3826 70.1318 47.8949Z" fill="#00D7DF"/>
<path d="M30.5 37.2619C30.5 38.5437 31.0092 39.7731 31.9156 40.6795C32.822 41.5859 34.0513 42.0951 35.3332 42.0951H68.1986C69.4805 42.0951 70.7098 41.5859 71.6162 40.6795C72.5226 39.7731 73.0318 38.5437 73.0318 37.2619C73.0318 35.9801 72.5226 34.7507 71.6162 33.8444C70.7098 32.938 69.4805 32.4288 68.1986 32.4288H66.2557C67.1709 31.2115 67.7853 29.7952 68.0489 28.2953C68.3125 26.7954 68.2177 25.2545 67.7724 23.7982C67.327 22.3419 66.5437 21.0115 65.4863 19.9156C64.4289 18.8196 63.1274 17.9892 61.6879 17.4921C60.2485 16.9949 58.7119 16.8451 57.2036 17.0548C55.6952 17.2646 54.2578 17.828 53.0086 18.699C51.7595 19.5701 50.7339 20.7241 50.0156 22.0669C49.2974 23.4098 48.9068 24.9034 48.8757 26.426C48.085 25.0358 46.8566 23.9464 45.382 23.3274C43.9074 22.7084 42.2694 22.5948 40.7235 23.0042C39.1775 23.4136 37.8104 24.323 36.8354 25.5906C35.8604 26.8583 35.3322 28.4129 35.3332 30.0122C35.3332 30.8628 36.0291 31.6748 36.2998 32.4288H35.3332C34.0513 32.4288 32.822 32.938 31.9156 33.8444C31.0092 34.7507 30.5 35.9801 30.5 37.2619Z" fill="#57A4FF"/>
<path d="M73.0287 37.2619C73.0287 38.5438 72.5195 39.7731 71.6131 40.6795C70.7067 41.5859 69.4773 42.0951 68.1955 42.0951H48.8242C53.5654 40.5228 57.8792 37.8762 61.4291 34.362C64.1817 31.6162 66.4181 28.3976 68.0312 24.86C68.2775 26.1759 68.2466 27.5288 67.9403 28.832C67.6341 30.1353 67.0592 31.3603 66.2526 32.4288H68.1955C69.4773 32.4288 70.7067 32.938 71.6131 33.8444C72.5195 34.7508 73.0287 35.9801 73.0287 37.2619Z" fill="#006DF0"/>
<path d="M61.4309 45.9616L59.517 46.4353L60.532 48.1269L57.7964 50.8624L56.1048 49.8475L55.6312 51.7614H51.7646L51.291 49.8475L49.5994 50.8624L46.8638 48.1269L47.8788 46.4353L45.9648 45.9616V42.0951L47.8788 41.6214L46.8638 39.9298L49.5994 37.1943L51.291 38.2092L51.7646 36.2953H55.6312L56.1048 38.2092L57.7964 37.1943L60.532 39.9298L59.517 41.6214L61.4309 42.0951V45.9616Z" fill="#C0AB91"/>
<path d="M61.4278 45.9616L59.5139 46.4352L59.8136 46.9282L60.5289 48.1268L57.7933 50.8624L56.1017 49.8474L55.628 51.7614H51.7615L51.2879 49.8474L49.5963 50.8624L48.8906 50.1568C52.3799 49.1308 55.4297 46.9752 57.5613 44.0283C58.5922 42.5748 59.3609 40.9522 59.8329 39.2338L60.5289 39.9298L59.5139 41.6214L61.4278 42.0951V45.9616Z" fill="#A78966"/>
<path d="M53.6968 46.9283C55.2983 46.9283 56.5967 45.6299 56.5967 44.0284C56.5967 42.4268 55.2983 41.1285 53.6968 41.1285C52.0952 41.1285 50.7969 42.4268 50.7969 44.0284C50.7969 45.6299 52.0952 46.9283 53.6968 46.9283Z" fill="#FFDE55"/>
<path d="M34.3642 44.995V50.7948C34.3642 52.3994 30.4687 53.6947 25.6645 53.6947C20.8604 53.6947 16.9648 52.3994 16.9648 50.7948V44.995C16.9648 46.5996 20.8604 47.8949 25.6645 47.8949C30.4687 47.8949 34.3642 46.5996 34.3642 44.995Z" fill="#FFDE55"/>
<path d="M34.3642 39.1952V44.995C34.3642 46.5996 30.4687 47.8949 25.6645 47.8949C20.8604 47.8949 16.9648 46.5996 16.9648 44.995V39.1952C16.9648 40.7998 20.8604 42.0951 25.6645 42.0951C30.4687 42.0951 34.3642 40.7998 34.3642 39.1952Z" fill="#FFDE55"/>
<path d="M34.3642 33.3954V39.1952C34.3642 40.7998 30.4687 42.0951 25.6645 42.0951C20.8604 42.0951 16.9648 40.7998 16.9648 39.1952V33.3954C16.9648 35 20.8604 36.2953 25.6645 36.2953C30.4687 36.2953 34.3642 35 34.3642 33.3954Z" fill="#FFDE55"/>
<path d="M34.3634 44.995V50.7948C34.3634 52.3994 30.4679 53.6947 25.6637 53.6947C24.9968 53.6947 24.3491 53.6657 23.7305 53.6173C27.6067 53.3274 30.4969 52.1771 30.4969 50.7948V47.4116C32.8265 46.8896 34.3634 46.0003 34.3634 44.995Z" fill="#EBBF00"/>
<path d="M34.3665 39.1952V44.995C34.3665 46.0003 32.8296 46.8896 30.5 47.4116V41.6118C32.8296 41.0898 34.3665 40.2005 34.3665 39.1952Z" fill="#EBBF00"/>
<path d="M34.3665 33.3954V39.1952C34.3665 40.2005 32.8296 41.0898 30.5 41.6118V35.812C32.8296 35.29 34.3665 34.4007 34.3665 33.3954Z" fill="#EBBF00"/>
<path d="M25.6645 36.2953C20.8604 36.2953 16.9648 35 16.9648 33.3954C16.9648 31.7908 20.8604 30.4955 25.6645 30.4955C29.6471 30.4955 33.0013 31.3848 34.0356 32.6028C34.2376 32.8184 34.3544 33.1001 34.3642 33.3954C34.3642 35 30.4687 36.2953 25.6645 36.2953Z" fill="#C6C5CA"/>
<path d="M34.3634 33.3954C34.3634 35 30.4679 36.2953 25.6637 36.2953C24.9968 36.2953 24.3491 36.2663 23.7305 36.218C27.6067 35.928 30.4969 34.7777 30.4969 33.3954C30.487 33.1001 30.3702 32.8184 30.1682 32.6028C29.3079 31.5878 26.843 30.8049 23.7498 30.5729C24.3684 30.5245 25.0064 30.4955 25.6637 30.4955C29.6463 30.4955 33.0005 31.3848 34.0348 32.6028C34.2368 32.8184 34.3536 33.1001 34.3634 33.3954Z" fill="#898890"/>
<path d="M24.6992 56.5946H26.6325V58.5279H24.6992V56.5946Z" fill="black"/>
<path d="M26.6325 67.2275V60.4611H24.6992V67.2275C24.7008 68.5089 25.2105 69.7373 26.1165 70.6434C27.0226 71.5495 28.251 72.0592 29.5324 72.0607H32.4323V70.1274H29.5324C28.7633 70.1274 28.0257 69.8219 27.4818 69.2781C26.938 68.7342 26.6325 67.9966 26.6325 67.2275Z" fill="black"/>
<path d="M53.6986 40.1619C52.9338 40.1619 52.1863 40.3886 51.5504 40.8135C50.9146 41.2384 50.419 41.8422 50.1264 42.5487C49.8337 43.2553 49.7571 44.0327 49.9063 44.7827C50.0555 45.5327 50.4238 46.2217 50.9645 46.7624C51.5053 47.3032 52.1942 47.6714 52.9442 47.8206C53.6943 47.9698 54.4717 47.8932 55.1782 47.6006C55.8847 47.3079 56.4886 46.8124 56.9135 46.1765C57.3383 45.5407 57.5651 44.7931 57.5651 44.0284C57.5651 43.0029 57.1577 42.0195 56.4326 41.2943C55.7075 40.5692 54.724 40.1619 53.6986 40.1619ZM53.6986 45.9617C53.3162 45.9617 52.9424 45.8483 52.6245 45.6358C52.3066 45.4234 52.0588 45.1215 51.9125 44.7682C51.7661 44.415 51.7278 44.0262 51.8024 43.6512C51.877 43.2762 52.0612 42.9317 52.3315 42.6614C52.6019 42.391 52.9464 42.2069 53.3214 42.1323C53.6964 42.0577 54.0851 42.096 54.4384 42.2423C54.7916 42.3886 55.0936 42.6364 55.306 42.9543C55.5184 43.2723 55.6318 43.646 55.6318 44.0284C55.6318 44.5411 55.4281 45.0329 55.0656 45.3954C54.703 45.758 54.2113 45.9617 53.6986 45.9617Z" fill="black"/>
<path d="M71.098 67.2758V47.8949C71.0957 47.1265 70.7894 46.3902 70.2461 45.8469C69.7028 45.3035 68.9665 44.9973 68.1981 44.995H62.3983V43.0617H68.1981C69.7363 43.0617 71.2115 42.4507 72.2992 41.363C73.3868 40.2753 73.9979 38.8001 73.9979 37.2619C73.9979 35.7237 73.3868 34.2485 72.2992 33.1608C71.2115 32.0732 69.7363 31.4621 68.1981 31.4621H67.9951C68.7689 29.9689 69.1702 28.3107 69.1647 26.629C69.1638 24.0348 68.2145 21.5305 66.4956 19.5875C64.7767 17.6446 62.4068 16.3971 59.8321 16.0798C57.2574 15.7626 54.6555 16.3976 52.5164 17.8651C50.3773 19.3327 48.8485 21.5317 48.2178 24.0481C47.0532 22.9431 45.59 22.2041 44.0095 21.9226C42.4289 21.6411 40.8006 21.8295 39.3261 22.4643C37.8515 23.0992 36.5957 24.1527 35.714 25.4944C34.8324 26.836 34.3637 28.4068 34.366 30.0122C34.3806 30.5282 34.5128 31.034 34.7527 31.4911C34.6156 31.5066 34.4799 31.5325 34.3467 31.5684C32.6551 30.1765 29.0689 29.5289 25.6663 29.5289C21.0072 29.5289 16 30.7371 16 33.3954V50.7948C16 53.453 21.0072 54.6613 25.6663 54.6613C30.3255 54.6613 35.3326 53.453 35.3326 50.7948V43.0617H44.9989V44.995H39.1992C38.4308 44.9973 37.6945 45.3035 37.1512 45.8469C36.6078 46.3902 36.3016 47.1265 36.2993 47.8949V67.2758C35.4519 67.3949 34.6814 67.8313 34.1436 68.4968C33.6058 69.1623 33.3408 70.0072 33.4022 70.8607C33.4636 71.7141 33.8468 72.5124 34.4744 73.0941C35.1019 73.6757 35.9269 73.9974 36.7826 73.9939H70.6147C71.4703 73.9974 72.2954 73.6757 72.9229 73.0941C73.5505 72.5124 73.9337 71.7141 73.9951 70.8607C74.0565 70.0072 73.7915 69.1623 73.2537 68.4968C72.7158 67.8313 71.9453 67.3949 71.098 67.2758ZM33.3994 50.7948C33.3994 51.2877 30.7411 52.728 25.6663 52.728C20.5915 52.728 17.9333 51.2877 17.9333 50.7948V47.4309C20.3762 48.4645 23.0153 48.9527 25.6663 48.8615C28.3174 48.9527 30.9564 48.4645 33.3994 47.4309V50.7948ZM33.3994 44.995C33.3994 45.4879 30.7411 46.9282 25.6663 46.9282C20.5915 46.9282 17.9333 45.4879 17.9333 44.995V41.6311C20.3762 42.6647 23.0153 43.1529 25.6663 43.0617C28.3174 43.1529 30.9564 42.6647 33.3994 41.6311V44.995ZM33.3994 39.1952C33.3994 39.6882 30.7411 41.1284 25.6663 41.1284C20.5915 41.1284 17.9333 39.6882 17.9333 39.1952V35.8313C20.3762 36.8649 23.0153 37.3531 25.6663 37.2619C28.3174 37.3531 30.9564 36.8649 33.3994 35.8313V39.1952ZM25.6663 35.3286C20.5915 35.3286 17.9333 33.8884 17.9333 33.3954C17.9333 32.9024 20.5915 31.4621 25.6663 31.4621C30.7411 31.4621 33.3994 32.9024 33.3994 33.3954C33.3994 33.8884 30.7411 35.3286 25.6663 35.3286ZM35.3326 41.1284V33.3954H36.2993C36.4541 33.3951 36.6066 33.3582 36.7444 33.2876C36.8821 33.217 37.0012 33.1148 37.0919 32.9894C37.1791 32.8604 37.235 32.7129 37.2551 32.5585C37.2753 32.4041 37.2591 32.2471 37.2079 32.1001C37.082 31.7696 36.9301 31.4496 36.7536 31.1431C36.5255 30.8017 36.3708 30.4165 36.2993 30.0122C36.2973 28.6257 36.7546 27.2776 37.5997 26.1785C38.4448 25.0793 39.6301 24.291 40.9705 23.9366C42.3109 23.5821 43.7309 23.6816 45.0088 24.2194C46.2867 24.7572 47.3506 25.7031 48.0342 26.9093C48.1416 27.0915 48.305 27.2342 48.5001 27.316C48.6952 27.3979 48.9115 27.4146 49.1168 27.3636C49.3214 27.3108 49.5031 27.1924 49.634 27.0266C49.7649 26.8607 49.8379 26.6566 49.8418 26.4453C49.867 25.0726 50.2168 23.7253 50.8625 22.5136C51.5083 21.302 52.4316 20.2604 53.5571 19.474C54.6825 18.6876 55.9781 18.1787 57.3379 17.989C58.6977 17.7993 60.0831 17.9341 61.3809 18.3825C62.6786 18.8308 63.8517 19.5799 64.8044 20.5686C65.7571 21.5572 66.4623 22.7573 66.8623 24.0708C67.2623 25.3842 67.3457 26.7736 67.1058 28.1255C66.8659 29.4773 66.3094 30.7532 65.4819 31.8488C65.3742 31.9924 65.3086 32.1632 65.2925 32.3419C65.2763 32.5207 65.3103 32.7005 65.3906 32.861C65.4709 33.0216 65.5943 33.1566 65.747 33.251C65.8997 33.3454 66.0757 33.3954 66.2552 33.3954H68.1981C69.2236 33.3954 70.207 33.8027 70.9322 34.5279C71.6573 35.253 72.0646 36.2364 72.0646 37.2619C72.0646 38.2874 71.6573 39.2708 70.9322 39.996C70.207 40.7211 69.2236 41.1284 68.1981 41.1284H61.5477L61.016 40.9931L61.364 40.4228C61.4746 40.2381 61.5204 40.0219 61.4941 39.8082C61.4678 39.5946 61.371 39.3959 61.219 39.2435L58.4835 36.5079C58.3299 36.358 58.1313 36.2626 57.9183 36.2364C57.7052 36.2102 57.4895 36.2546 57.3042 36.3629L56.7339 36.7109L56.5695 36.0633C56.5177 35.8537 56.3972 35.6675 56.2273 35.5344C56.0574 35.4012 55.8478 35.3288 55.6319 35.3286H51.7654C51.5495 35.3288 51.3399 35.4012 51.1699 35.5344C51 35.6675 50.8795 35.8537 50.8277 36.0633L50.6634 36.7109L50.0931 36.3629C49.9078 36.2546 49.692 36.2102 49.479 36.2364C49.2659 36.2626 49.0674 36.358 48.9138 36.5079L46.1782 39.2435C46.0262 39.3959 45.9294 39.5946 45.9032 39.8082C45.8769 40.0219 45.9227 40.2381 46.0332 40.4228L46.3812 40.9931L45.8496 41.1284H35.3326ZM58.6961 46.9379L59.3148 47.9819L57.6522 49.6445L56.6082 49.0161C56.4774 48.9404 56.3308 48.8957 56.18 48.8856C56.0291 48.8756 55.878 48.9004 55.7382 48.9581C55.5987 49.016 55.4745 49.1054 55.3755 49.2195C55.2765 49.3336 55.2055 49.4692 55.1679 49.6155L54.8779 50.7948H52.5193L52.2294 49.6155C52.1918 49.4692 52.1207 49.3336 52.0217 49.2195C51.9228 49.1054 51.7986 49.016 51.659 48.9581C51.5193 48.9004 51.3682 48.8756 51.2173 48.8856C51.0664 48.8957 50.9199 48.9404 50.7891 49.0161L49.7451 49.6445L48.0825 47.9819L48.7011 46.9379C48.7807 46.8087 48.8283 46.6624 48.84 46.5111C48.8518 46.3598 48.8274 46.2079 48.7688 46.0679C48.711 45.9284 48.6215 45.8042 48.5074 45.7052C48.3934 45.6062 48.2578 45.5352 48.1115 45.4976L46.9322 45.2076V42.849L48.1115 42.559C48.2578 42.5215 48.3934 42.4504 48.5074 42.3514C48.6215 42.2525 48.711 42.1283 48.7688 41.9887C48.8274 41.8488 48.8518 41.6969 48.84 41.5456C48.8283 41.3943 48.7807 41.248 48.7011 41.1188L48.0825 40.0748L49.7451 38.4122L50.7891 39.0308C50.9183 39.1104 51.0646 39.158 51.2159 39.1697C51.3672 39.1815 51.5191 39.1571 51.659 39.0985C51.7986 39.0407 51.9228 38.9512 52.0217 38.8371C52.1207 38.7231 52.1918 38.5875 52.2294 38.4412L52.5193 37.2619H54.8779L55.1679 38.4412C55.2055 38.5875 55.2765 38.7231 55.3755 38.8371C55.4745 38.9512 55.5987 39.0407 55.7382 39.0985C55.8782 39.1571 56.0301 39.1815 56.1814 39.1697C56.3327 39.158 56.479 39.1104 56.6082 39.0308L57.6522 38.4122L59.3148 40.0748L58.6961 41.1188C58.6166 41.248 58.569 41.3943 58.5572 41.5456C58.5455 41.6969 58.5699 41.8488 58.6285 41.9887C58.6863 42.1283 58.7757 42.2525 58.8898 42.3514C59.0039 42.4504 59.1395 42.5215 59.2858 42.559L60.4651 42.849V45.2076L59.2858 45.4976C59.1395 45.5352 59.0039 45.6062 58.8898 45.7052C58.7757 45.8042 58.6863 45.9284 58.6285 46.0679C58.5699 46.2079 58.5455 46.3598 58.5572 46.5111C58.569 46.6624 58.6166 46.8087 58.6961 46.9379ZM38.2325 47.8949C38.2325 47.6385 38.3344 47.3926 38.5156 47.2113C38.6969 47.0301 38.9428 46.9282 39.1992 46.9282H45.8496L46.3812 47.0636L46.0332 47.6339C45.9227 47.8185 45.8769 48.0348 45.9032 48.2484C45.9294 48.462 46.0262 48.6608 46.1782 48.8132L48.9138 51.5487C49.0674 51.6987 49.2659 51.7941 49.479 51.8203C49.692 51.8465 49.9078 51.802 50.0931 51.6937L50.6634 51.3457L50.8277 51.9934C50.8795 52.2029 51 52.3891 51.1699 52.5223C51.3399 52.6554 51.5495 52.7278 51.7654 52.728H55.6319C55.8478 52.7278 56.0574 52.6554 56.2273 52.5223C56.3972 52.3891 56.5177 52.2029 56.5695 51.9934L56.7339 51.3457L57.3042 51.6937C57.4895 51.802 57.7052 51.8465 57.9183 51.8203C58.1313 51.7941 58.3299 51.6987 58.4835 51.5487L61.219 48.8132C61.371 48.6608 61.4678 48.462 61.4941 48.2484C61.5204 48.0348 61.4746 47.8185 61.364 47.6339L61.016 47.0636L61.5477 46.9282H68.1981C68.4545 46.9282 68.7003 47.0301 68.8816 47.2113C69.0629 47.3926 69.1647 47.6385 69.1647 47.8949V67.2275H56.5985C56.3422 67.2275 56.0963 67.3293 55.915 67.5106C55.7337 67.6919 55.6319 67.9378 55.6319 68.1941H51.7654C51.7654 67.9378 51.6635 67.6919 51.4822 67.5106C51.301 67.3293 51.0551 67.2275 50.7987 67.2275H38.2325V47.8949ZM70.6147 72.0606H36.7826C36.398 72.0606 36.0292 71.9079 35.7573 71.636C35.4854 71.364 35.3326 70.9952 35.3326 70.6107C35.3326 70.2261 35.4854 69.8573 35.7573 69.5854C36.0292 69.3135 36.398 69.1608 36.7826 69.1608H49.8321C49.8321 69.4171 49.9339 69.663 50.1152 69.8443C50.2965 70.0255 50.5424 70.1274 50.7987 70.1274H56.5985C56.8549 70.1274 57.1008 70.0255 57.282 69.8443C57.4633 69.663 57.5652 69.4171 57.5652 69.1608H70.6147C70.9992 69.1608 71.368 69.3135 71.64 69.5854C71.9119 69.8573 72.0646 70.2261 72.0646 70.6107C72.0646 70.9952 71.9119 71.364 71.64 71.636C71.368 71.9079 70.9992 72.0606 70.6147 72.0606Z" fill="black"/>
</svg>
