<svg width="90" height="90" viewBox="0 0 90 90" fill="none" xmlns="http://www.w3.org/2000/svg">
<path d="M87 46C87 69.196 68.196 88 45 88C23.5989 88 5.93655 71.9937 3.33255 51.2989C3.1132 49.5639 3 47.7948 3 46C3 42.712 3.37718 39.5115 4.092 36.4411C8.41882 17.8515 25.092 4 45 4C64.8583 4 81.4988 17.7829 85.8737 36.3041C86.4479 38.7263 86.8097 41.2292 86.9418 43.792C86.9811 44.5239 87 45.2594 87 46Z" fill="white"/>
<path d="M68.1672 34.5393C68.1684 34.6808 68.1414 34.8212 68.0877 34.9521C68.0341 35.0831 67.955 35.2021 67.8549 35.3022C67.7548 35.4023 67.6358 35.4814 67.5048 35.535C67.3738 35.5887 67.2335 35.6157 67.092 35.6145L64.9996 35.6024C64.7879 36.6254 64.3861 37.5997 63.815 38.4746L65.3093 39.9688C65.4103 40.0687 65.4907 40.1875 65.5458 40.3184C65.6009 40.4493 65.6297 40.5898 65.6305 40.7318C65.6314 40.8739 65.6042 41.0147 65.5506 41.1462C65.497 41.2778 65.418 41.3975 65.3181 41.4985L64.3642 42.4524C64.2632 42.5522 64.1435 42.6312 64.012 42.6848C63.8804 42.7384 63.7396 42.7656 63.5976 42.7648C63.4556 42.7639 63.3151 42.7352 63.1842 42.68C63.0533 42.6249 62.9345 42.5446 62.8347 42.4436L61.3403 40.9493C60.4655 41.5203 59.4913 41.9221 58.4683 42.1339L58.4805 44.2262C58.4816 44.3678 58.4546 44.5081 58.4009 44.6391C58.3473 44.7701 58.2681 44.8891 58.168 44.9892C58.0679 45.0892 57.9489 45.1684 57.8179 45.222C57.6869 45.2756 57.5466 45.3026 57.405 45.3015L56.048 45.2936C55.7601 45.2913 55.4846 45.1759 55.281 44.9723C55.0774 44.7687 54.962 44.4932 54.9597 44.2053L54.9476 42.1129C53.9188 41.888 52.9404 41.475 52.0615 40.8949L50.585 42.3724C50.484 42.4723 50.3643 42.5512 50.2327 42.6048C50.1012 42.6584 49.9604 42.6856 49.8183 42.6848C49.6763 42.6839 49.5358 42.6551 49.4049 42.6C49.274 42.5449 49.1552 42.4645 49.0554 42.3635L48.0902 41.3984C47.9892 41.2985 47.9089 41.1797 47.8538 41.0488C47.7986 40.9179 47.7699 40.7774 47.769 40.6354C47.7682 40.4934 47.7954 40.3526 47.849 40.221C47.9026 40.0895 47.9816 39.9698 48.0814 39.8688L49.5585 38.3918C48.9783 37.5128 48.5653 36.5344 48.3403 35.5056L46.248 35.4934C45.9601 35.4911 45.6847 35.3757 45.4812 35.1721C45.2777 34.9684 45.1625 34.693 45.1603 34.4051L45.1524 33.0481C45.1512 32.9066 45.1782 32.7663 45.2318 32.6353C45.2854 32.5043 45.3646 32.3853 45.4647 32.2852C45.5647 32.1851 45.6837 32.1059 45.8147 32.0523C45.9457 31.9987 46.0861 31.9716 46.2276 31.9728L48.3198 31.985C48.5316 30.9619 48.9335 29.9877 49.5045 29.1128L48.0102 27.6186C47.9092 27.5187 47.8288 27.4 47.7737 27.269C47.7186 27.1381 47.6898 26.9976 47.689 26.8556C47.6881 26.7136 47.7153 26.5727 47.7689 26.4412C47.8225 26.3097 47.9015 26.19 48.0013 26.0889L48.9552 25.135C49.0563 25.0352 49.176 24.9562 49.3075 24.9026C49.439 24.849 49.5799 24.8218 49.7219 24.8227C49.8639 24.8235 50.0044 24.8523 50.1353 24.9074C50.2663 24.9625 50.385 25.0429 50.4849 25.1439L51.9791 26.6388C52.854 26.0677 53.8283 25.6659 54.8514 25.4541L54.8392 23.3617C54.838 23.2202 54.8651 23.0799 54.9187 22.9489C54.9723 22.8179 55.0514 22.6989 55.1515 22.5988C55.2516 22.4988 55.3706 22.4196 55.5016 22.366C55.6326 22.3124 55.7729 22.2854 55.9144 22.2865L57.2714 22.2946C57.5594 22.2968 57.8349 22.4121 58.0385 22.6158C58.2421 22.8194 58.3575 23.0949 58.3597 23.3828L58.3719 25.4752C59.4006 25.7002 60.3791 26.1132 61.2579 26.6933L62.7347 25.2157C62.8357 25.1158 62.9554 25.0368 63.0869 24.9832C63.2185 24.9296 63.3593 24.9024 63.5013 24.9033C63.6434 24.9041 63.7839 24.9329 63.9148 24.988C64.0457 25.0431 64.1645 25.1235 64.2643 25.2245L65.2294 26.1896C65.4334 26.3913 65.5489 26.6657 65.5506 26.9526C65.5523 27.2394 65.4399 27.5152 65.2383 27.7192L63.7611 29.1962C64.3413 30.0751 64.7543 31.0536 64.9792 32.0824L67.0715 32.0946C67.3594 32.0968 67.6349 32.2122 67.8385 32.4158C68.0422 32.6194 68.1575 32.8949 68.1597 33.1828L68.1672 34.5393Z" fill="#FF8080"/>
<path d="M69.3763 46.3903C68.1413 47.6128 66.7351 48.6491 65.2017 49.4668L65.5798 50.0835C65.6775 50.243 65.7314 50.4254 65.7363 50.6123C65.7412 50.7993 65.6967 50.9842 65.6075 51.1486C65.5182 51.3129 65.3873 51.4508 65.2278 51.5485C65.0683 51.6462 64.8859 51.7002 64.699 51.705L59.3365 51.8446C59.1496 51.8494 58.9646 51.805 58.8003 51.7157C58.6359 51.6265 58.498 51.4955 58.4003 51.336C58.3026 51.1765 58.2486 50.9941 58.2438 50.8072C58.2389 50.6202 58.2834 50.4353 58.3727 50.2709L60.9331 45.5572C61.0224 45.393 61.1533 45.2551 61.3127 45.1575C61.4722 45.0598 61.6545 45.0059 61.8414 45.001C62.0283 44.9961 62.2132 45.0405 62.3775 45.1298C62.5418 45.219 62.6797 45.3499 62.7774 45.5092L63.1211 46.0706C64.3971 45.4169 65.5955 44.6297 66.6274 43.6103C67.9304 42.329 68.9653 40.8011 69.6717 39.1158C70.3781 37.4304 70.7419 35.6212 70.7418 33.7937C70.7417 31.9663 70.3778 30.1571 69.6712 28.4718C68.9647 26.7865 67.9296 25.2587 66.6264 23.9776C61.1325 18.5477 52.1926 18.5477 46.7006 23.9776C45.3974 25.2587 44.3623 26.7865 43.6557 28.4719C42.9491 30.1572 42.5852 31.9664 42.5852 33.7939C42.5852 35.6214 42.9491 37.4306 43.6557 39.116C44.3623 40.8014 45.3974 42.3292 46.7006 43.6103C48.3716 45.2549 49.6986 47.2156 50.6044 49.3782C51.5103 51.5407 51.9767 53.8619 51.9767 56.2065C51.9767 58.551 51.5103 60.8722 50.6044 63.0347C49.6986 65.1973 48.3716 67.158 46.7006 68.8027C43.3077 72.1335 38.743 73.9997 33.9884 73.9997C29.2337 73.9997 24.6691 72.1335 21.2761 68.8027C19.6052 67.158 18.2781 65.1973 17.3723 63.0347C16.4665 60.8722 16 58.551 16 56.2065C16 53.8619 16.4665 51.5407 17.3723 49.3782C18.2781 47.2156 19.6052 45.2549 21.2761 43.6103C22.5113 42.3878 23.9178 41.3515 25.4513 40.534L25.0733 39.9173C24.9756 39.7578 24.9215 39.5754 24.9167 39.3884C24.9118 39.2015 24.9562 39.0165 25.0455 38.8521C25.1348 38.6878 25.2657 38.5498 25.4252 38.4521C25.5847 38.3545 25.7671 38.3005 25.9541 38.2956L31.3165 38.1562C31.5035 38.1514 31.6884 38.1958 31.8527 38.2851C32.0171 38.3743 32.155 38.5053 32.2527 38.6647C32.3504 38.8242 32.4043 39.0066 32.4092 39.1935C32.4141 39.3805 32.3696 39.5654 32.2804 39.7297L29.72 44.4435C29.6307 44.6078 29.4997 44.7457 29.3403 44.8433C29.1808 44.9409 28.9985 44.9949 28.8116 44.9997C28.6247 45.0046 28.4398 44.9602 28.2755 44.8709C28.1112 44.7817 27.9733 44.6508 27.8756 44.4914L27.532 43.9301C26.2559 44.5838 25.0576 45.371 24.0257 46.3904C22.7226 47.6717 21.6877 49.1995 20.9813 50.8849C20.2749 52.5703 19.9111 54.3795 19.9112 56.2069C19.9113 58.0344 20.2752 59.8435 20.9818 61.5289C21.6884 63.2142 22.7234 64.742 24.0266 66.0231C29.518 71.453 38.4579 71.4506 43.9519 66.023C45.2551 64.7419 46.2902 63.2141 46.9968 61.5287C47.7033 59.8433 48.0672 58.0341 48.0672 56.2066C48.0672 54.3791 47.7033 52.57 46.9968 50.8846C46.2902 49.1992 45.2551 47.6714 43.9519 46.3903C42.2809 44.7456 40.9539 42.7849 40.048 40.6224C39.1422 38.4598 38.6757 36.1387 38.6757 33.7941C38.6757 31.4495 39.1422 29.1284 40.048 26.9658C40.9539 24.8033 42.2809 22.8426 43.9519 21.1979C50.9626 14.2654 62.3656 14.2693 69.3763 21.1979C71.0473 22.8426 72.3743 24.8033 73.2802 26.9658C74.186 29.1284 74.6525 31.4495 74.6525 33.7941C74.6525 36.1387 74.186 38.4598 73.2802 40.6224C72.3743 42.7849 71.0473 44.7456 69.3763 46.3903ZM32.1805 47.8669C31.1575 48.0787 30.1833 48.4805 29.3085 49.0515L27.8141 47.5573C27.7143 47.4562 27.5955 47.3759 27.4646 47.3207C27.3337 47.2656 27.1932 47.2368 27.0512 47.236C26.9091 47.2352 26.7683 47.2623 26.6368 47.316C26.5053 47.3696 26.3856 47.4486 26.2846 47.5484L25.3307 48.5023C25.2308 48.6033 25.1518 48.723 25.0982 48.8545C25.0446 48.9861 25.0174 49.1269 25.0183 49.2689C25.0191 49.411 25.0479 49.5514 25.103 49.6823C25.1581 49.8133 25.2385 49.932 25.3395 50.0319L26.8338 51.5262C26.2627 52.4011 25.8609 53.3754 25.6491 54.3984L23.5568 54.3863C23.4153 54.3851 23.2749 54.4121 23.1439 54.4657C23.013 54.5193 22.8939 54.5985 22.7939 54.6986C22.6938 54.7987 22.6146 54.9177 22.561 55.0486C22.5074 55.1796 22.4804 55.32 22.4816 55.4615L22.4895 56.8185C22.4917 57.1065 22.6071 57.382 22.8107 57.5856C23.0143 57.7892 23.2898 57.9046 23.5778 57.9068L25.67 57.9189C25.8949 58.9475 26.3078 59.9257 26.8878 60.8045L25.4108 62.2815C25.2091 62.4855 25.0968 62.7613 25.0984 63.0482C25.1001 63.335 25.2156 63.6095 25.4196 63.8112L26.3847 64.7763C26.4846 64.8773 26.6033 64.9577 26.7342 65.0128C26.8652 65.0679 27.0057 65.0967 27.1477 65.0976C27.2897 65.0984 27.4306 65.0712 27.5621 65.0176C27.6936 64.964 27.8133 64.885 27.9143 64.7851L29.392 63.308C30.2709 63.8882 31.2493 64.3012 32.2781 64.5262L32.2902 66.6186C32.2924 66.9065 32.4078 67.182 32.6114 67.3856C32.815 67.5892 33.0905 67.7046 33.3785 67.7068L34.7355 67.7147C34.877 67.7159 35.0174 67.6889 35.1484 67.6353C35.2794 67.5817 35.3984 67.5025 35.4984 67.4025C35.5985 67.3024 35.6777 67.1834 35.7313 67.0524C35.7849 66.9214 35.8119 66.781 35.8107 66.6395L35.7986 64.5473C36.8216 64.3355 37.7959 63.9337 38.6708 63.3626L40.165 64.8569C40.2649 64.958 40.3837 65.0383 40.5146 65.0934C40.6455 65.1485 40.786 65.1773 40.928 65.1782C41.0701 65.179 41.2109 65.1518 41.3424 65.0982C41.474 65.0446 41.5937 64.9656 41.6947 64.8658L42.6486 63.9119C42.7484 63.8108 42.8274 63.6911 42.881 63.5596C42.9346 63.4281 42.9618 63.2873 42.961 63.1452C42.9602 63.0032 42.9314 62.8627 42.8763 62.7318C42.8211 62.6008 42.7408 62.4821 42.6398 62.3822L41.1454 60.888C41.7164 60.0131 42.1183 59.0389 42.3301 58.0159L44.4223 58.028C44.5639 58.0292 44.7042 58.0021 44.8352 57.9485C44.9662 57.8949 45.0852 57.8157 45.1853 57.7156C45.2853 57.6155 45.3645 57.4965 45.4181 57.3655C45.4717 57.2346 45.4987 57.0942 45.4976 56.9527L45.4896 55.5957C45.4874 55.3077 45.372 55.0322 45.1684 54.8286C44.9648 54.625 44.6893 54.5096 44.4014 54.5074L42.309 54.4952C42.084 53.4665 41.671 52.488 41.0909 51.6092L42.5675 50.132C42.6673 50.031 42.7463 49.9113 42.7999 49.7798C42.8535 49.6482 42.8807 49.5074 42.8799 49.3654C42.879 49.2234 42.8503 49.0829 42.7951 48.952C42.74 48.8211 42.6597 48.7023 42.5587 48.6024L41.5935 47.6372C41.3918 47.4332 41.1174 47.3177 40.8305 47.316C40.5437 47.3144 40.2679 47.4267 40.0639 47.6284L38.5868 49.1055C37.708 48.5252 36.7295 48.1123 35.7007 47.8873L35.6886 45.7951C35.6864 45.5071 35.571 45.2316 35.3674 45.028C35.1638 44.8244 34.8883 44.709 34.6003 44.7068L33.2433 44.6989C33.1018 44.6977 32.9614 44.7247 32.8304 44.7783C32.6994 44.832 32.5804 44.9111 32.4803 45.0112C32.3802 45.1113 32.3011 45.2302 32.2474 45.3612C32.1938 45.4922 32.1667 45.6326 32.1679 45.7741L32.1805 47.8669ZM60.0499 32.1596C59.9526 32.0623 59.8372 31.9852 59.7101 31.9325C59.5831 31.8798 59.4469 31.8527 59.3093 31.8527C59.1718 31.8527 59.0356 31.8798 58.9085 31.9325C58.7815 31.9852 58.666 32.0623 58.5688 32.1596L56.2114 34.5163L55.3725 33.6775C55.2753 33.5802 55.1598 33.5031 55.0328 33.4505C54.9057 33.3979 54.7695 33.3708 54.632 33.3708C54.4945 33.3708 54.3583 33.3979 54.2313 33.4505C54.1042 33.5031 53.9888 33.5802 53.8915 33.6775C53.7943 33.7747 53.7172 33.8902 53.6645 34.0172C53.6119 34.1443 53.5848 34.2804 53.5848 34.418C53.5848 34.5555 53.6119 34.6917 53.6645 34.8187C53.7172 34.9458 53.7943 35.0612 53.8915 35.1584L55.4708 36.7377C55.568 36.835 55.6834 36.9122 55.8105 36.9648C55.9375 37.0175 56.0737 37.0446 56.2113 37.0446C56.3488 37.0446 56.485 37.0175 56.612 36.9648C56.7391 36.9122 56.8545 36.835 56.9517 36.7377L60.0499 33.6406C60.1471 33.5434 60.2243 33.4279 60.2769 33.3009C60.3296 33.1738 60.3567 33.0376 60.3567 32.9001C60.3567 32.7626 60.3296 32.6264 60.2769 32.4994C60.2243 32.3723 60.1471 32.2569 60.0499 32.1596Z" fill="#003366"/>
<path d="M39.3538 56.2377C39.3595 56.9402 39.2255 57.6368 38.9593 58.287C38.6931 58.9371 38.3002 59.5277 37.8035 60.0245C37.3067 60.5212 36.716 60.9141 36.0659 61.1803C35.4158 61.4464 34.7192 61.5805 34.0167 61.5747C32.5883 61.563 31.2217 60.9904 30.2117 59.9803C29.2016 58.9703 28.629 57.6037 28.6174 56.1753C28.6116 55.4728 28.7456 54.7762 29.0118 54.1261C29.2779 53.4759 29.6708 52.8853 30.1676 52.3885C30.6643 51.8918 31.255 51.4989 31.9051 51.2327C32.5553 50.9666 33.2519 50.8325 33.9543 50.8383C35.3828 50.8499 36.7494 51.4225 37.7595 52.4326C38.7696 53.4427 39.3421 54.8093 39.3538 56.2377Z" fill="#87CEEB"/>
</svg>
