<svg width="90" height="90" viewBox="0 0 90 90" fill="none" xmlns="http://www.w3.org/2000/svg">
<path d="M84 42C84 65.196 65.196 84 42 84C20.5989 84 2.93655 67.9937 0.332555 47.2989C0.113203 45.5639 0 43.7948 0 42C0 38.712 0.37718 35.5115 1.092 32.4411C5.41882 13.8515 22.092 0 42 0C61.8583 0 78.4988 13.7829 82.8737 32.3041C83.4479 34.7263 83.8097 37.2292 83.9418 39.792C83.9811 40.5239 84 41.2594 84 42Z" fill="white"/>
<path d="M67.8154 26.6837L64.2051 68.5507C58.855 72.7017 52.1366 75.1722 44.8399 75.1722C37.6092 75.1722 30.9462 72.7456 25.6193 68.6616L22 26.6837H67.8154Z" fill="#E64C18"/>
<path d="M44.9062 30.6089V74.2046L59.9662 69.9531L63.3256 30.6089H44.9062Z" fill="#F36518"/>
<path d="M30.6211 36.0786L32.0979 53.5658H51.7271L51.0848 60.7894L44.9068 62.4625L38.4722 60.66L38.3107 56.1562H32.3169L33.0672 65.0355L44.9068 68.3816L56.7462 65.0355L58.2135 47.6616H37.5418L37.0288 41.9991L37.0287 41.9989L58.7021 41.8854L59.1923 36.0786H30.6211Z" fill="white"/>
<path d="M31.8887 14V17.0044H29.0181V14H26.3477V22.6121H29.0181V19.8082H31.8887V22.6121H34.5591V14H31.8887Z" fill="black"/>
<path d="M44.0399 14H35.8281V17.0044H38.4986V22.679H41.3694V17.0044H44.0399V14Z" fill="black"/>
<path d="M59.3279 19.9416V14.0668H56.457V19.9416V22.679H59.3279H63.4668V19.9416H59.3279Z" fill="black"/>
<path d="M52.1184 14.0668L50.1158 17.1378L48.1129 14.0668H45.2422V22.679H48.1129V18.4062L50.1158 21.4774L52.1184 18.4062V22.679H54.9893V14.0668H52.1184Z" fill="black"/>
</svg>
