<svg width="90" height="90" viewBox="0 0 90 90" fill="none" xmlns="http://www.w3.org/2000/svg">
<path d="M84 42C84 65.196 65.196 84 42 84C20.5989 84 2.93655 67.9937 0.332555 47.2989C0.113203 45.5639 0 43.7948 0 42C0 38.712 0.37718 35.5115 1.092 32.4411C5.41882 13.8515 22.092 0 42 0C61.8583 0 78.4988 13.7829 82.8737 32.3041C83.4479 34.7263 83.8097 37.2292 83.9418 39.792C83.9811 40.5239 84 41.2594 84 42Z" fill="white"/>
<path d="M42.5856 54.2109H34.1406V58.3011H42.5856V54.2109Z" fill="#445EA0"/>
<path d="M36.7391 54.2109H34.1406V58.3011H36.7391V54.2109Z" fill="#2E4C89"/>
<path d="M48.4323 58.3011H28.19C27.8899 58.3011 27.6445 58.5199 27.6445 58.7872V61.2235C27.6445 61.4908 27.8901 61.7096 28.19 61.7096H48.4323V58.3011Z" fill="#293D7C"/>
<path d="M29.7115 61.2235V58.7872C29.7115 58.5199 29.9507 58.3011 30.243 58.3011H28.1759C27.8836 58.3011 27.6445 58.5199 27.6445 58.7872V61.2235C27.6445 61.4908 27.8837 61.7096 28.1759 61.7096H30.2429C29.9507 61.7096 29.7115 61.4908 29.7115 61.2235Z" fill="#1A2B63"/>
<path d="M62.1691 19.4444H14.5522C14.2485 19.4444 14 19.71 14 20.0345V53.6208C14 53.9455 14.2485 54.2109 14.5522 54.2109H48.2939V36.5408C48.2939 36.0944 48.6338 35.7311 49.0516 35.7311H62.7213V20.0345C62.7213 19.71 62.4728 19.4444 62.1691 19.4444Z" fill="#293D7C"/>
<path d="M16.6016 47.7256C16.6016 47.9182 16.7494 48.0757 16.9302 48.0757H48.218V36.0843C48.218 35.6428 48.5552 35.2834 48.9696 35.2834H60.1259V24.898H16.6016V47.7256Z" fill="white"/>
<path d="M18.8528 47.7256V24.898H16.6016V47.7256C16.6016 47.9182 16.7578 48.0757 16.9488 48.0757H19.2C19.009 48.0757 18.8528 47.9181 18.8528 47.7256Z" fill="#D9EAFC"/>
<path d="M38.3623 52.1658C39.2593 52.1658 39.9864 51.5554 39.9864 50.8024C39.9864 50.0495 39.2593 49.439 38.3623 49.439C37.4654 49.439 36.7383 50.0495 36.7383 50.8024C36.7383 51.5554 37.4654 52.1658 38.3623 52.1658Z" fill="#445EA0"/>
<path d="M48.4286 37.8502H42.8929C42.7219 37.8502 42.582 38.0185 42.582 38.2241V45.6567C42.582 45.8623 42.7219 46.0306 42.8929 46.0306H48.4286V37.8502Z" fill="#C3DDF4"/>
<path d="M44.8392 45.6567V38.2241C44.8392 38.0185 44.9928 37.8502 45.1805 37.8502H42.9233C42.7356 37.8502 42.582 38.0185 42.582 38.2241V45.6567C42.582 45.8623 42.7356 46.0306 42.9233 46.0306H45.1805C44.9928 46.0306 44.8392 45.8623 44.8392 45.6567Z" fill="#AEC1ED"/>
<path d="M49.1735 35.7754H54.2765V28.2038C54.2765 27.8853 54.0302 27.6248 53.7292 27.6248H22.9926C22.6916 27.6248 22.4453 27.8853 22.4453 28.2038V35.9078C22.4453 36.2262 22.6916 36.4868 22.9926 36.4868H48.4138C48.4602 36.0866 48.783 35.7754 49.1735 35.7754Z" fill="#C3DDF4"/>
<path d="M25.0396 35.9078V28.2038C25.0396 27.8853 25.3338 27.6248 25.6934 27.6248H23.0991C22.7395 27.6248 22.4453 27.8853 22.4453 28.2038V35.9078C22.4453 36.2262 22.7395 36.4868 23.0991 36.4868H25.6934C25.3338 36.4868 25.0396 36.2262 25.0396 35.9078Z" fill="#AEC1ED"/>
<path d="M59.7972 22.1712H16.9302C16.7494 22.1712 16.6016 22.3213 16.6016 22.505V24.898H60.1259V22.505C60.1259 22.3213 59.9779 22.1712 59.7972 22.1712Z" fill="#FFAF10"/>
<path d="M19.2 22.1712H16.9488C16.7578 22.1712 16.6016 22.3213 16.6016 22.505V24.898H18.8526V22.505C18.8528 22.3213 19.009 22.1712 19.2 22.1712Z" fill="#FF9518"/>
<path d="M32.6374 40.0106H23.4908C23.0407 40.0106 22.6758 39.6278 22.6758 39.1554C22.6758 38.6829 23.0407 38.3001 23.4908 38.3001H32.6374C33.0875 38.3001 33.4524 38.6829 33.4524 39.1554C33.4524 39.6278 33.0875 40.0106 32.6374 40.0106Z" fill="#5DC1D8"/>
<path d="M32.6374 42.803H23.4908C23.0407 42.803 22.6758 42.4202 22.6758 41.9477C22.6758 41.4753 23.0407 41.0925 23.4908 41.0925H32.6374C33.0875 41.0925 33.4524 41.4753 33.4524 41.9477C33.4524 42.4201 33.0875 42.803 32.6374 42.803Z" fill="#5DC1D8"/>
<path d="M32.6374 45.5953H23.4908C23.0407 45.5953 22.6758 45.2125 22.6758 44.7401C22.6758 44.2676 23.0407 43.8848 23.4908 43.8848H32.6374C33.0875 43.8848 33.4524 44.2676 33.4524 44.7401C33.4524 45.2125 33.0875 45.5953 32.6374 45.5953Z" fill="#5DC1D8"/>
<path d="M39.8161 40.0106H35.108C34.6579 40.0106 34.293 39.6278 34.293 39.1554C34.293 38.6829 34.6579 38.3001 35.108 38.3001H39.8161C40.2662 38.3001 40.6311 38.6829 40.6311 39.1554C40.6311 39.6278 40.2662 40.0106 39.8161 40.0106Z" fill="#5DC1D8"/>
<path d="M39.8161 42.803H35.108C34.6579 42.803 34.293 42.4202 34.293 41.9477C34.293 41.4753 34.6579 41.0925 35.108 41.0925H39.8161C40.2662 41.0925 40.6311 41.4753 40.6311 41.9477C40.6311 42.4201 40.2662 42.803 39.8161 42.803Z" fill="#5DC1D8"/>
<path d="M39.8161 45.5953H35.108C34.6579 45.5953 34.293 45.2125 34.293 44.7401C34.293 44.2676 34.6579 43.8848 35.108 43.8848H39.8161C40.2662 43.8848 40.6311 44.2676 40.6311 44.7401C40.6311 45.2125 40.2662 45.5953 39.8161 45.5953Z" fill="#5DC1D8"/>
<path d="M68.3696 35.8051C68.8359 35.8051 69.2174 36.205 69.2174 36.6937V63.5478C69.2174 64.0365 68.8359 64.4364 68.3696 64.4364H49.2775C48.8112 64.4364 48.4297 64.0365 48.4297 63.5478V36.6937C48.4297 36.205 48.8112 35.8051 49.2775 35.8051H68.3696Z" fill="#445EA0"/>
<path d="M50.9178 61.0279C50.6214 61.0279 50.3789 60.7734 50.3789 60.4624V37.7341C50.3789 37.423 50.6214 37.1685 50.9178 37.1685H67.3796C67.676 37.1685 67.9186 37.423 67.9186 37.7341V60.4624C67.9186 60.7734 67.676 61.0279 67.3796 61.0279H50.9178Z" fill="white"/>
<path d="M51.9355 60.4624V37.7341C51.9355 37.423 52.112 37.1685 52.3278 37.1685H50.7712C50.5554 37.1685 50.3789 37.423 50.3789 37.7341V60.4624C50.3789 60.7734 50.5554 61.0279 50.7712 61.0279H52.3278C52.112 61.0279 51.9355 60.7734 51.9355 60.4624Z" fill="#D9EAFC"/>
<path d="M57.9758 63.7547C57.727 63.7547 57.5234 63.3695 57.5234 62.8986V62.5656C57.5234 62.0948 57.727 61.7096 57.9758 61.7096H59.6696C59.9184 61.7096 60.1219 62.0948 60.1219 62.5656V62.8986C60.1219 63.3695 59.9184 63.7547 59.6696 63.7547H57.9758Z" fill="#445EA0"/>
<path d="M67.9186 39.2136V37.6985C67.9186 37.407 67.676 37.1685 67.3796 37.1685H50.9178C50.6214 37.1685 50.3789 37.407 50.3789 37.6985V39.2136H67.9186Z" fill="#FFAF10"/>
<path d="M52.3278 37.1685H50.7712C50.5554 37.1685 50.3789 37.407 50.3789 37.6985V39.2136H51.9355V37.6985C51.9355 37.407 52.112 37.1685 52.3278 37.1685Z" fill="#FF9518"/>
<path d="M62.6837 49.8123H55.2759C54.8258 49.8123 54.4609 49.4295 54.4609 48.9571C54.4609 48.4846 54.8258 48.1018 55.2759 48.1018H62.6837C63.1338 48.1018 63.4987 48.4846 63.4987 48.9571C63.4987 49.4294 63.1338 49.8123 62.6837 49.8123Z" fill="#5DC1D8"/>
<path d="M62.6837 52.4496H55.2759C54.8258 52.4496 54.4609 52.0668 54.4609 51.5943C54.4609 51.122 54.8258 50.7391 55.2759 50.7391H62.6837C63.1338 50.7391 63.4987 51.122 63.4987 51.5943C63.4987 52.0668 63.1338 52.4496 62.6837 52.4496Z" fill="#5DC1D8"/>
<path d="M62.6837 55.0866H55.2759C54.8258 55.0866 54.4609 54.7038 54.4609 54.2314C54.4609 53.759 54.8258 53.3761 55.2759 53.3761H62.6837C63.1338 53.3761 63.4987 53.759 63.4987 54.2314C63.4987 54.7038 63.1338 55.0866 62.6837 55.0866Z" fill="#5DC1D8"/>
<path d="M65.9674 46.1136C65.9674 46.4429 65.7231 46.7123 65.4246 46.7123H52.2185C51.92 46.7123 51.6758 46.4429 51.6758 46.1136V41.1756C51.6758 40.8464 51.92 40.577 52.2185 40.577H65.4246C65.7231 40.577 65.9674 40.8464 65.9674 41.1756V46.1136Z" fill="#C3DDF4"/>
<path d="M53.7512 46.1136V41.1756C53.7512 40.8464 53.9866 40.577 54.2742 40.577H52.1988C51.9111 40.577 51.6758 40.8464 51.6758 41.1756V46.1136C51.6758 46.4429 51.9111 46.7123 52.1988 46.7123H54.2742C53.9866 46.7123 53.7512 46.4429 53.7512 46.1136Z" fill="#AEC1ED"/>
<path d="M64.6724 59.7129C64.6724 60.0612 64.4126 60.3462 64.0951 60.3462H54.2062C53.8887 60.3462 53.6289 60.0612 53.6289 59.7129V57.571C53.6289 57.2227 53.8887 56.9377 54.2062 56.9377H64.0951C64.4126 56.9377 64.6724 57.2227 64.6724 57.571V59.7129Z" fill="#C3DDF4"/>
<path d="M56.2232 59.7129V57.571C56.2232 57.2227 56.5174 56.9377 56.877 56.9377H54.2827C53.9231 56.9377 53.6289 57.2227 53.6289 57.571V59.7129C53.6289 60.0612 53.9231 60.3462 54.2827 60.3462H56.877C56.5174 60.3462 56.2232 60.0612 56.2232 59.7129Z" fill="#AEC1ED"/>
</svg>
