<svg width="70" height="70" viewBox="0 0 70 70" fill="none" xmlns="http://www.w3.org/2000/svg">
<path d="M28.2683 55.4991C27.6931 55.5143 27.1885 55.0904 27.1078 54.5101C27.022 53.9046 27.4307 53.3445 28.0261 53.2285C27.3702 49.5096 25.5788 47.461 23.6866 45.2963C22.2132 43.6109 20.6843 41.86 19.4783 39.2815C18.2925 36.7434 17.6416 34.1195 17.6618 31.3947C17.687 28.6699 18.3783 25.8644 19.882 22.963C19.8921 22.9428 19.9022 22.9276 19.9123 22.9075C21.8852 19.5671 24.6453 17.3368 27.7183 16.0854C30.2968 15.0308 33.0973 14.6725 35.8423 14.9248C38.5772 15.1771 41.2566 16.0349 43.5979 17.4175C46.575 19.1785 49.0222 21.7923 50.3695 25.0924C51.0961 26.8786 51.5906 28.8718 51.6512 31.0566C51.7117 33.2314 51.3383 35.5778 50.3342 38.0604C48.992 41.3857 47.2158 43.4495 45.5557 45.382C44.0268 47.1633 42.6038 48.8183 41.8116 51.3564C42.2607 51.4624 42.6139 51.8307 42.6846 52.3152C42.7703 52.9408 42.3313 53.5211 41.7056 53.6069L41.3171 53.6624C41.2465 54.2124 41.2011 54.8028 41.1809 55.4335L41.307 55.4134C41.9327 55.3276 42.513 55.7666 42.5988 56.3923C42.6846 57.018 42.2456 57.5982 41.6199 57.684L41.2263 57.7395C41.2313 57.8152 41.2364 57.8909 41.2414 57.9666C41.2767 58.4106 41.2818 58.8395 41.2566 59.2483L41.3222 59.2382C41.9529 59.1625 42.5231 59.6116 42.6038 60.2373C42.6795 60.868 42.2304 61.4382 41.6047 61.5189L40.757 61.6249C40.1515 63.1942 39.0717 64.385 37.795 65.1268C36.9171 65.6364 35.9432 65.9291 34.9643 65.9896C33.9702 66.0502 32.9661 65.8635 32.0477 65.4194C30.9982 64.9047 30.0596 64.052 29.3784 62.8258C29.0504 62.6593 28.8082 62.3364 28.7578 61.9428C28.7376 61.7864 28.7527 61.635 28.7931 61.4937C28.5963 60.9084 28.4449 60.2675 28.3541 59.5611L28.3188 59.5662C27.6931 59.6519 27.1128 59.2129 27.027 58.5872C26.9412 57.9615 27.3802 57.3813 28.0059 57.2955L28.2784 57.2551C28.2986 56.6395 28.2936 56.0542 28.2683 55.4991ZM39.5107 24.3556C39.8033 24.3607 40.101 24.4162 40.3887 24.5121C40.9942 24.719 41.5745 25.1176 42.0235 25.6474C42.4726 26.1823 42.7956 26.8534 42.8763 27.6002C42.9116 27.9282 42.9015 28.2662 42.8359 28.6144C43.1488 28.902 43.4112 29.2199 43.608 29.563C43.9309 30.1131 44.0974 30.7236 44.0772 31.3443C44.057 31.97 43.8552 32.5957 43.4263 33.1709C43.169 33.5191 42.8309 33.847 42.407 34.1448C42.4373 35.0732 42.1598 35.9108 41.7107 36.5567C41.2111 37.2783 40.4946 37.7778 39.7428 37.9342C39.5611 38.5852 39.1221 39.1604 38.5671 39.559C37.8405 40.0788 36.8918 40.321 36.0239 40.0838C35.4285 39.9223 34.8835 39.5439 34.49 38.898C34.0156 39.6145 33.3899 39.998 32.734 40.1343C31.8964 40.3109 31.0285 40.0535 30.3725 39.5439C29.8679 39.1503 29.4844 38.6003 29.333 37.9746C29.0908 37.9544 28.8436 37.904 28.6064 37.8232C28.016 37.6214 27.4458 37.2379 27.0068 36.7232C26.5628 36.2085 26.2348 35.5627 26.1339 34.8411C26.0834 34.4828 26.0885 34.1044 26.1642 33.7209C25.8917 33.4686 25.6596 33.186 25.4678 32.8782C25.1298 32.3282 24.938 31.7076 24.9481 31.0667C24.9582 30.4209 25.16 29.7699 25.6041 29.1644C25.8513 28.8263 26.1793 28.5034 26.588 28.2057C26.583 28.1048 26.583 28.0039 26.588 27.908C26.6234 26.9694 26.9665 26.147 27.466 25.5364C27.4812 25.5213 27.4913 25.5061 27.5064 25.491C28.0059 24.9006 28.6569 24.507 29.333 24.391C29.3583 24.3001 29.3835 24.2144 29.4138 24.1235C29.6509 23.4877 30.1303 22.9428 30.7207 22.5997C31.3161 22.2515 32.0326 22.1001 32.7289 22.2464C33.3546 22.3776 33.9551 22.7359 34.4193 23.3919C34.8835 22.7359 35.484 22.3776 36.1097 22.2464C36.7455 22.1153 37.3964 22.2263 37.9565 22.5088C38.5065 22.7864 38.9808 23.2355 39.2685 23.7703C39.3795 23.9621 39.4602 24.1538 39.5107 24.3556ZM39.7024 36.4709C40.0153 36.3397 40.318 36.0874 40.5501 35.7494C40.8781 35.27 41.0648 34.6292 40.974 33.9076L40.9689 33.8874V33.8723C40.9336 33.5998 41.0598 33.3172 41.3121 33.1658C41.7511 32.9085 42.069 32.6259 42.291 32.3232C42.5332 31.9901 42.6543 31.642 42.6644 31.2988C42.6745 30.9507 42.5735 30.6025 42.3818 30.2745C42.2052 29.9718 41.9529 29.6942 41.6451 29.4571C41.3827 29.2855 41.2616 28.9525 41.3676 28.6396C41.4735 28.3268 41.4988 28.0291 41.4685 27.7415C41.418 27.2974 41.2212 26.8887 40.9437 26.5557C40.6611 26.2226 40.3029 25.9754 39.9396 25.8492C39.7831 25.7988 39.6267 25.7685 39.4804 25.7685C39.3694 26.1015 39.1877 26.4346 38.9152 26.7575C38.663 27.0552 38.2189 27.0956 37.9212 26.8433C37.6235 26.591 37.5831 26.147 37.8354 25.8492C38.2492 25.3598 38.2542 24.8451 38.0373 24.4465C37.8859 24.1639 37.6336 23.9267 37.3359 23.7804C37.0482 23.6341 36.7253 23.5735 36.4175 23.6391C35.9684 23.73 35.5345 24.1084 35.2519 24.8956V36.8544C35.3074 36.9352 35.3427 37.026 35.3579 37.1319C35.5193 38.1209 35.9381 38.5953 36.4074 38.7265C36.8414 38.8476 37.346 38.7012 37.7496 38.4136C38.1432 38.131 38.4258 37.7223 38.4308 37.2934C38.4359 36.804 38.0625 36.2439 37.0684 35.7342C36.7203 35.5576 36.579 35.1287 36.7556 34.7805C36.9322 34.4324 37.3611 34.2911 37.7093 34.4677C38.8345 35.0379 39.4501 35.7494 39.7024 36.4709ZM29.3986 25.8341C29.111 25.93 28.8284 26.1268 28.5913 26.3992C28.5812 26.4144 28.5711 26.4245 28.561 26.4346C28.2381 26.8282 28.0211 27.3529 27.9958 27.9584C27.9908 28.1199 27.9958 28.2915 28.0211 28.4681C28.0564 28.7355 27.9353 29.013 27.6931 29.1695C27.2692 29.4319 26.9564 29.7144 26.7394 30.0121C26.477 30.3654 26.361 30.7387 26.3559 31.092C26.3509 31.4553 26.4619 31.8135 26.6637 32.1415C26.8353 32.419 27.0674 32.6713 27.355 32.8833C27.6124 33.0599 27.7284 33.3879 27.6275 33.6957C27.5165 34.0287 27.4913 34.3516 27.5316 34.6544C27.5922 35.0883 27.794 35.4819 28.0715 35.8049C28.3491 36.1278 28.6972 36.365 29.0555 36.4861C29.1715 36.5264 29.2876 36.5517 29.3986 36.5618C29.656 35.8099 30.3018 35.0682 31.4775 34.4677C31.8257 34.2911 32.2496 34.4273 32.4312 34.7755C32.6078 35.1237 32.4716 35.5475 32.1234 35.7292C31.0688 36.264 30.6752 36.8696 30.6752 37.3943C30.6752 37.793 30.9073 38.1714 31.2454 38.4338C31.5886 38.7012 32.0326 38.8375 32.4464 38.7517C32.9661 38.6457 33.4707 38.1512 33.7381 37.0714C33.7533 37.0007 33.7835 36.9352 33.8189 36.8746V25.5162C33.8037 25.491 33.7886 25.4607 33.7734 25.4304L33.7684 25.4203L33.7633 25.4102L33.7583 25.4002V25.3951V25.3901L33.7533 25.38V25.3749V25.3699C33.7482 25.3497 33.7432 25.3295 33.7381 25.3093C33.4707 24.2345 32.9661 23.7451 32.4464 23.6391C32.1083 23.5685 31.745 23.6492 31.4372 23.8309C31.1243 24.0125 30.872 24.2951 30.7509 24.618C30.5945 25.0419 30.6904 25.5667 31.2303 26.0662C31.5179 26.3337 31.533 26.7777 31.2707 27.0653C31.0032 27.3529 30.5592 27.3681 30.2716 27.1057C29.8326 26.6919 29.55 26.263 29.3986 25.8341ZM29.5449 28.1704C29.8225 27.8979 30.2716 27.8979 30.5491 28.1805C30.8216 28.458 30.8216 28.9071 30.539 29.1846C30.0495 29.664 29.7922 30.2897 29.767 30.9204C29.7417 31.5764 29.9537 32.2525 30.4028 32.8076C30.65 33.1103 30.5995 33.5594 30.2968 33.8016C29.994 34.0489 29.5449 33.9984 29.3027 33.6957C28.6316 32.8631 28.3137 31.8539 28.3541 30.8649C28.3894 29.8809 28.783 28.9172 29.5449 28.1704ZM38.007 28.9172C37.6891 28.6851 37.6184 28.2461 37.8506 27.9282C38.0827 27.6103 38.5217 27.5396 38.8396 27.7717C38.9607 27.8626 39.0767 27.9534 39.1827 28.0493C39.9799 28.7708 40.4189 29.7195 40.4997 30.7034C40.5804 31.6773 40.3079 32.6814 39.6923 33.5241C39.6822 33.5392 39.6671 33.5594 39.652 33.5746C39.5662 33.6906 39.4804 33.7915 39.3997 33.8874C39.1373 34.1801 38.6882 34.2003 38.3955 33.9379C38.1028 33.6755 38.0827 33.2264 38.3451 32.9337C38.4107 32.858 38.4662 32.7924 38.5166 32.7268C38.5267 32.7117 38.5318 32.7016 38.5418 32.6865C38.9506 32.1213 39.1322 31.4553 39.0818 30.8094C39.0313 30.1736 38.7487 29.563 38.234 29.0988C38.1634 29.0383 38.0877 28.9777 38.007 28.9172ZM7.10065 33.7007C6.51027 33.7158 6.02082 33.2567 6.00063 32.6663C5.98045 32.0759 6.44468 31.5865 7.03505 31.5663L11.425 31.4149C12.0154 31.3947 12.5048 31.8589 12.525 32.4493C12.5452 33.0397 12.081 33.5292 11.4906 33.5493L7.10065 33.7007ZM61.849 29.3562C62.4343 29.2956 62.9591 29.7245 63.0197 30.3098C63.0802 30.8952 62.6513 31.42 62.066 31.4805L57.6962 31.9397C57.1109 32.0002 56.5861 31.5713 56.5255 30.986C56.465 30.4007 56.8939 29.8759 57.4792 29.8153L61.849 29.3562ZM53.8916 11.4582C54.2196 10.9688 54.8806 10.8376 55.37 11.1656C55.8595 11.4936 55.9907 12.1546 55.6627 12.644L53.2205 16.2973C52.8925 16.7868 52.2315 16.9179 51.742 16.59C51.2525 16.262 51.1214 15.601 51.4493 15.1115L53.8916 11.4582ZM35.0803 5.03982C35.0955 4.44945 35.5849 3.98522 36.1703 4.00036C36.7606 4.0155 37.2249 4.50495 37.2097 5.09028L37.0987 9.48024C37.0836 10.0706 36.5941 10.5348 36.0088 10.5197C35.4184 10.5046 34.9542 10.0151 34.9693 9.42978L35.0803 5.03982ZM13.0044 11.8367C12.5704 11.433 12.5503 10.7569 12.9489 10.328C13.3526 9.89401 14.0287 9.87382 14.4576 10.2725L17.6719 13.2697C18.1058 13.6734 18.126 14.3496 17.7274 14.7785C17.3237 15.2124 16.6475 15.2326 16.2186 14.834L13.0044 11.8367ZM30.1606 52.9207L39.4905 51.5986C40.2928 48.2179 42.0387 46.1843 43.9309 43.9894C45.485 42.1829 47.1401 40.2554 48.3511 37.2581C49.2392 35.0631 49.5672 33.0044 49.5167 31.1071C49.4663 29.2149 49.0323 27.469 48.3865 25.8896C47.2259 23.0488 45.1016 20.7882 42.513 19.2542C40.4391 18.028 38.0726 17.2661 35.6556 17.0491C33.2487 16.8271 30.7913 17.145 28.5257 18.0684C25.8715 19.1533 23.4848 21.0808 21.7692 23.9822C20.437 26.5658 19.8214 29.0383 19.8013 31.4149C19.7811 33.8067 20.3614 36.1228 21.416 38.3783C22.4907 40.6792 23.9238 42.3141 25.2963 43.8884C27.4307 46.3357 29.4541 48.6518 30.1606 52.9207ZM39.112 53.9652L30.3977 55.2014C30.4229 55.7565 30.433 56.3368 30.4229 56.9524L39.0263 55.7312C39.0363 55.1106 39.0616 54.5202 39.112 53.9652ZM30.4684 59.2634C30.5289 59.7276 30.6197 60.1515 30.7358 60.5451L39.0868 59.5157C39.1423 59.0817 39.1524 58.6226 39.112 58.1331V58.123L39.107 58.0372L30.4684 59.2634ZM31.9216 62.7148C32.2445 63.0529 32.6028 63.3153 32.9812 63.4969C33.5615 63.7795 34.2023 63.8956 34.8331 63.8602C35.479 63.8199 36.1299 63.6231 36.7203 63.28C37.2753 62.957 37.7749 62.5079 38.1735 61.9428L31.9216 62.7148Z" fill="#DAB068"/>
</svg>
