<svg width="54" height="54" viewBox="0 0 54 54" fill="none" xmlns="http://www.w3.org/2000/svg">
<path fill-rule="evenodd" clip-rule="evenodd" d="M40.0185 28.4782C39.9587 22.4967 44.9407 19.6263 45.1633 19.4842C42.363 15.4244 38.0004 14.8664 36.4459 14.8036C32.7334 14.4321 29.2029 16.9712 27.3168 16.9712C25.4358 16.9712 22.5292 14.8593 19.451 14.9152C15.405 14.9745 11.6748 17.2476 9.58905 20.8392C5.38555 28.0675 8.51388 38.781 12.6109 44.6423C14.6123 47.5127 16.9991 50.7372 20.1336 50.622C23.1511 50.5043 24.293 48.6846 27.9431 48.6846C31.5923 48.6846 32.6172 50.6221 35.8116 50.5601C39.0595 50.5009 41.1172 47.6339 43.1054 44.7539C45.406 41.423 46.349 38.2021 46.4062 38.0364C46.3341 38.0042 40.073 35.6273 40.0096 28.4808L40.0184 28.4782H40.0185ZM34.0187 10.9199C35.6814 8.92054 36.8048 6.14515 36.4978 3.375C34.1022 3.47178 31.1973 4.95755 29.4775 6.95433C27.9335 8.72698 26.5848 11.5521 26.9455 14.2655C29.6208 14.4722 32.3524 12.9184 34.016 10.9234L34.0187 10.9199Z" fill="white"/>
</svg>
