<svg width="63" height="63" viewBox="0 0 63 63" fill="none" xmlns="http://www.w3.org/2000/svg">
<g opacity="0.9">
<circle cx="31.5" cy="31.5" r="31.5" fill="#5D6162"/>
<path d="M43.125 25.7812H19.875C19.3454 25.7812 18.9062 25.3421 18.9062 24.8125C18.9062 24.2829 19.3454 23.8438 19.875 23.8438H43.125C43.6546 23.8438 44.0938 24.2829 44.0938 24.8125C44.0938 25.3421 43.6546 25.7812 43.125 25.7812Z" fill="white"/>
<path d="M32.1071 32.2396H19.875C19.3454 32.2396 18.9062 31.8004 18.9062 31.2708C18.9062 30.7413 19.3454 30.3021 19.875 30.3021H32.1071C32.6367 30.3021 33.0758 30.7413 33.0758 31.2708C33.0758 31.8004 32.6496 32.2396 32.1071 32.2396Z" fill="white"/>
<path d="M30.5385 39H19.4615C19.2092 39 19 38.5467 19 38C19 37.4533 19.2092 37 19.4615 37H30.5385C30.7908 37 31 37.4533 31 38C31 38.5467 30.7908 39 30.5385 39Z" fill="white"/>
</g>
</svg>
