<svg width="90" height="90" viewBox="0 0 90 90" fill="none" xmlns="http://www.w3.org/2000/svg">
<path d="M87 46C87 69.196 68.196 88 45 88C23.5989 88 5.93655 71.9937 3.33255 51.2989C3.1132 49.5639 3 47.7948 3 46C3 42.712 3.37718 39.5115 4.092 36.4411C8.41882 17.8515 25.092 4 45 4C64.8583 4 81.4988 17.7829 85.8737 36.3041C86.4479 38.7263 86.8097 41.2292 86.9418 43.792C86.9811 44.5239 87 45.2594 87 46Z" fill="white"/>
<path d="M43.463 48.9443V40.7875L36.1709 36.7091L28.8789 40.7875V48.9443L36.1709 53.0226L43.463 48.9443Z" fill="#3B8739"/>
<path d="M72.1015 47.706L76.7578 50.3643L72.1015 53.0226L64.957 48.9443V40.7875L72.1015 36.7091L76.4314 39.1818C76.8653 40.9911 77.1386 42.8606 77.2384 44.775L74.5909 46.286V43.4446L72.1015 42.0245L69.6121 43.4446V46.286L72.1015 47.706Z" fill="#333333"/>
<path d="M73.4024 45.8368V43.8948L71.8673 42.9238L70.332 43.8948V45.8368L71.8673 46.808L73.4024 45.8368Z" fill="#66A060"/>
<path d="M25.8106 40.7671V51.469L20.8286 48.7948V43.3088L18.341 41.957L15.8533 43.3087V48.7947L13.0244 50.3134C12.8511 49.024 12.7617 47.7093 12.7617 46.3754C12.7617 43.9318 13.0597 41.5532 13.6243 39.2712L18.341 36.7091L25.8106 40.7671Z" fill="#333333"/>
<path d="M43.3877 49.0076L36.1289 36.4354L28.8704 40.6262L36.1292 53.1984L43.3877 49.0076Z" fill="#6DA75D"/>
<path d="M28.8789 49.1385L31.1817 44.9947L28.8789 40.5933V49.1385Z" fill="#55A344"/>
<path d="M40.906 44.4775L43.4649 40.5934L35.7891 36.7091L40.906 44.4775Z" fill="#639D57"/>
<path d="M56.2719 26.6103V37.7026L53.8278 36.3008L46.5352 40.4812V48.8422L53.8278 53.0226L61.1193 48.8422V29.1868L56.2719 26.6103ZM56.2586 46.0544L53.8277 47.4483L51.3968 46.0544V43.2679L53.8277 41.8739L56.2586 43.2679V46.0544Z" fill="#333333"/>
<path d="M48.291 59.3549C48.291 59.3549 48.1484 58.1297 46.8378 58.1297C45.5271 58.1297 44.6297 58.3006 44.6297 59.0272C44.6297 59.7538 47.1799 59.7538 48.1487 60.0387C49.1174 60.3236 49.9721 61.0644 49.5447 62.3751C49.1173 63.6858 47.8066 63.8282 45.7837 63.8282C43.7607 63.8282 43.3047 62.147 43.3047 61.4918H44.4444C44.4444 61.4918 44.3018 62.5175 45.641 62.6884C46.9801 62.8593 48.2606 62.9555 48.4333 61.9192C48.6612 60.5515 44.1023 61.2354 43.7034 59.8963C43.3664 58.7648 43.5608 57.275 45.8403 57.0469C48.1198 56.8189 49.3735 57.8253 49.3735 59.3264L48.291 59.3549Z" fill="#66A060"/>
<path d="M37.2814 64.6962L39.801 66.1508C41.067 66.8817 42.6495 65.9681 42.6495 64.5062V61.9571V57.2658H41.6225V64.2206C41.6225 65.0189 40.7584 65.518 40.0669 65.1187L38.3082 64.1034V56.681L44.7362 52.9701L51.1641 56.681V64.1034L44.7362 67.8142L42.8845 66.7452L41.6753 67.2328L44.736 69L52.1909 64.6958V56.0882L44.7362 51.7842L37.2812 56.0885V64.6962H37.2814Z" fill="#66A060"/>
</svg>
