<svg width="90" height="90" viewBox="0 0 90 90" fill="none" xmlns="http://www.w3.org/2000/svg">
<path d="M86 44C86 67.196 67.196 86 44 86C22.5989 86 4.93655 69.9937 2.33255 49.2989C2.1132 47.5639 2 45.7948 2 44C2 40.712 2.37718 37.5115 3.092 34.4411C7.41882 15.8515 24.092 2 44 2C63.8583 2 80.4988 15.7829 84.8737 34.3041C85.4479 36.7263 85.8097 39.2292 85.9418 41.792C85.9811 42.5239 86 43.2594 86 44Z" fill="white"/>
<path fill-rule="evenodd" clip-rule="evenodd" d="M44.1332 45.4705C44.5717 37.9889 47.8149 38.2914 47.8149 33.2154C47.8149 28.168 43.7233 24.0746 38.6741 24.0746C33.6267 24.0746 29.5352 28.168 29.5352 33.2154C29.5352 38.2914 32.7766 37.9889 33.2168 45.4705C33.4137 46.9489 34.2567 47.2818 34.7454 47.2818C42.0193 47.2818 43.3081 48.0013 44.1332 45.4705Z" fill="#FFE177"/>
<path fill-rule="evenodd" clip-rule="evenodd" d="M44.1296 45.4705C44.5682 37.9889 47.8114 38.2914 47.8114 33.2154C47.8114 28.168 43.7198 24.0746 38.6706 24.0746C38.5005 24.0746 38.3323 24.08 38.1641 24.0889C42.9752 24.3539 46.7965 28.3381 46.7965 33.2154C46.7965 38.2914 43.5533 37.9889 43.113 45.4705C42.6244 46.9722 41.9711 47.3301 39.9987 47.3713C42.78 47.4124 43.5641 47.2049 44.1296 45.4705Z" fill="#FFD064"/>
<path fill-rule="evenodd" clip-rule="evenodd" d="M57.2275 31.8558C56.6494 31.8558 56.3293 31.1934 56.683 30.7443L62.0048 23.991C62.2798 23.6373 62.8075 23.6373 63.0827 23.991L68.4044 30.7443C68.758 31.1934 68.4381 31.8558 67.8598 31.8558H65.6537V45.8999C65.6537 46.07 65.5861 46.2331 65.4659 46.3533C65.3456 46.4737 65.1825 46.5412 65.0123 46.5412H60.075C59.905 46.5412 59.7419 46.4737 59.6216 46.3533C59.5013 46.2331 59.4337 46.07 59.4337 45.8999V31.8558H57.2275Z" fill="#8AC9FE"/>
<path fill-rule="evenodd" clip-rule="evenodd" d="M61.9375 24.0807L62.0083 23.991C62.2833 23.6373 62.811 23.6373 63.0861 23.991L68.4079 30.7443C68.7615 31.1934 68.4416 31.8558 67.8633 31.8558H66.6441C67.2223 31.8558 67.5423 31.1934 67.1886 30.7443L61.9375 24.0807ZM65.6571 31.8558V45.8999C65.6571 46.07 65.5896 46.2331 65.4693 46.3533C65.3491 46.4737 65.186 46.5412 65.0158 46.5412H63.7966C63.9667 46.5412 64.1298 46.4737 64.25 46.3533C64.3703 46.2331 64.4379 46.07 64.4379 45.8999V31.8558H65.6571Z" fill="#60B7FF"/>
<path fill-rule="evenodd" clip-rule="evenodd" d="M51.5589 44.8125V68.5438C51.5589 68.7706 51.4688 68.9882 51.3085 69.1485C51.1482 69.3088 50.9306 69.3989 50.7038 69.3989H26.7145C26.4877 69.3989 26.2701 69.3088 26.1098 69.1485C25.9495 68.9882 25.8594 68.7706 25.8594 68.5438V44.8125H51.5589Z" fill="#ECBA78"/>
<path fill-rule="evenodd" clip-rule="evenodd" d="M49.9606 44.8125H51.5639V68.5438C51.5639 68.7706 51.4738 68.9882 51.3135 69.1485C51.1531 69.3088 50.9356 69.3989 50.7088 69.3989H49.1055C49.3323 69.3989 49.5498 69.3088 49.7101 69.1485C49.8705 68.9882 49.9606 68.7706 49.9606 68.5438V44.8125Z" fill="#E3A76F"/>
<path fill-rule="evenodd" clip-rule="evenodd" d="M51.5589 44.8125L48.0893 52.4726C47.9162 52.8548 47.5353 53.1004 47.1156 53.1004H30.7983C30.3987 53.1004 30.0325 52.8776 29.8489 52.5227L25.8594 44.8125H51.5589Z" fill="#E3A76F"/>
<path fill-rule="evenodd" clip-rule="evenodd" d="M54.4299 43.4225C54.0155 43.4225 53.7861 42.9477 54.0395 42.6257L57.8541 37.7852C58.0513 37.5316 58.4296 37.5316 58.6267 37.7852L62.4412 42.6257C62.6947 42.9477 62.4654 43.4225 62.0509 43.4225H60.4695V53.4142C60.4695 53.556 60.4133 53.6918 60.313 53.7921C60.2128 53.8923 60.0768 53.9487 59.9351 53.9487H56.5456C56.4039 53.9487 56.2679 53.8923 56.1678 53.7921C56.0675 53.6918 56.0112 53.556 56.0112 53.4142V43.4225H54.4299Z" fill="#6CF5C2"/>
<path fill-rule="evenodd" clip-rule="evenodd" d="M57.6328 38.0685L57.8561 37.7852C58.0533 37.5316 58.4316 37.5316 58.6287 37.7852L62.4432 42.6257C62.6968 42.9477 62.4674 43.4225 62.053 43.4225H60.8337C61.2481 43.4225 61.4775 42.9477 61.2239 42.6257L57.6328 38.0685ZM60.4716 43.4225V53.4142C60.4716 53.556 60.4153 53.6918 60.3151 53.7921C60.2148 53.8923 60.0789 53.9487 59.9371 53.9487H58.7179C58.8597 53.9487 58.9956 53.8923 59.0958 53.7921C59.1961 53.6918 59.2524 53.556 59.2524 53.4142V43.4225H60.4716Z" fill="#00E499"/>
<path fill-rule="evenodd" clip-rule="evenodd" d="M25.0101 47.1028L19.5009 53.4521C19.1915 53.8086 18.651 53.8468 18.2945 53.5375C17.9381 53.2283 17.8998 52.6877 18.2091 52.3313L25.2194 44.2521C25.2884 44.1726 25.3336 43.9574 25.8652 43.9574H32.2964C31.8781 40.6966 30.8071 39.2999 29.9875 37.8323C29.3016 36.6043 28.7638 35.3348 28.7638 33.1722C28.7638 27.6756 33.2199 23.2195 38.7166 23.2195C44.2132 23.2195 48.6693 27.6756 48.6693 33.1722C48.6693 35.3348 48.1315 36.6043 47.4456 37.8323C46.626 39.2999 45.5551 40.6966 45.1367 43.9574H51.5648C51.9721 43.9371 52.1084 44.1469 52.1695 44.2078L54.3737 46.4121C54.7074 46.7458 54.7074 47.2876 54.3737 47.6213C54.0399 47.955 53.4981 47.955 53.1644 47.6213L52.4199 46.8769V69.3989C52.4199 69.8712 52.0371 70.254 51.5648 70.254H25.8652C25.393 70.254 25.0101 69.8712 25.0101 69.3989V47.1028ZM34.0199 43.9574H36.2914V36.2072H35.0306C33.3989 36.2072 32.0626 34.871 32.0626 33.2393C32.0626 31.6036 33.3992 30.2684 35.0306 30.2684C36.6659 30.2684 38.0016 31.604 38.0016 33.2393V34.497H39.4316V33.2393C39.4316 31.604 40.7672 30.2684 42.4025 30.2684C44.034 30.2684 45.3705 31.6036 45.3705 33.2393C45.3705 34.871 44.0343 36.2072 42.4025 36.2072H41.1418V43.9574H43.4133C43.7747 40.8498 44.656 39.2291 45.4724 37.8285C46.239 36.5134 46.9591 35.428 46.9591 33.1722C46.9591 28.6201 43.2687 24.9297 38.7166 24.9297C34.1644 24.9297 30.4741 28.6201 30.4741 33.1722C30.4741 35.428 31.1942 36.5134 31.9607 37.8285C32.7772 39.2291 33.6585 40.8498 34.0199 43.9574ZM38.0016 43.9574H39.4316V36.2072H38.0016V43.9574ZM50.2387 45.6676H27.2705L30.6741 52.2453H47.2593L50.2387 45.6676ZM26.7204 48.3258V68.5438H50.7097V48.7728L48.5897 53.4532C48.4512 53.759 48.1465 53.9555 47.8108 53.9555H30.1537C29.8341 53.9555 29.5411 53.7772 29.3943 53.4934L26.7204 48.3258ZM41.1418 34.497H42.4025C43.094 34.497 43.6603 33.9308 43.6603 33.2393C43.6603 32.5457 43.0944 31.9786 42.4025 31.9786C41.7086 31.9786 41.1418 32.5453 41.1418 33.2393V34.497ZM36.2914 34.497V33.2393C36.2914 32.5453 35.7245 31.9786 35.0306 31.9786C34.3387 31.9786 33.7729 32.5457 33.7729 33.2393C33.7729 33.9308 34.3392 34.497 35.0306 34.497H36.2914ZM39.5717 20.9984C39.5717 21.4704 39.1885 21.8536 38.7166 21.8536C38.2447 21.8536 37.8615 21.4704 37.8615 20.9984V18.8551C37.8615 18.3832 38.2447 18 38.7166 18C39.1885 18 39.5717 18.3832 39.5717 18.8551V20.9984ZM32.5946 22.4098C32.8303 22.8188 32.6897 23.342 32.2807 23.5777C31.8719 23.8134 31.3485 23.6727 31.1128 23.2638L30.0428 21.4071C29.8071 20.9982 29.9477 20.4749 30.3566 20.2392C30.7656 20.0036 31.2888 20.1442 31.5245 20.5531L32.5946 22.4098ZM27.2602 27.1209C27.6689 27.357 27.8089 27.8806 27.5727 28.2891C27.3366 28.6977 26.813 28.8378 26.4045 28.6015L24.5477 27.5284C24.1391 27.2923 23.9992 26.7687 24.2353 26.3602C24.4715 25.9516 24.995 25.8115 25.4036 26.0478L27.2602 27.1209ZM46.3167 23.2647C46.0806 23.6733 45.557 23.8134 45.1485 23.5771C44.7399 23.341 44.5998 22.8175 44.8361 22.4089L45.9092 20.5522C46.1453 20.1435 46.6689 20.0036 47.0774 20.2397C47.486 20.476 47.6261 20.9994 47.3898 21.408L46.3167 23.2647ZM51.0292 28.6013C50.6208 28.8378 50.0972 28.6982 49.8607 28.2896C49.6242 27.8812 49.7638 27.3577 50.1724 27.1212L52.026 26.0481C52.4345 25.8115 52.958 25.9512 53.1944 26.3597C53.431 26.7681 53.2913 27.2916 52.8829 27.5281L51.0292 28.6013ZM67.5237 31.0007L62.5496 24.6887L57.5756 31.0007H59.4396C59.912 31.0007 60.2947 31.3835 60.2947 31.8558V35.3541C60.2947 35.826 59.9116 36.2092 59.4396 36.2092C58.9677 36.2092 58.5845 35.826 58.5845 35.3541V32.7109H57.2334C55.9366 32.7109 55.2238 31.2226 56.0171 30.2152L56.0174 30.215L61.3381 23.463C61.9576 22.6704 63.1417 22.6704 63.7612 23.463L69.0822 30.2152C69.8755 31.2226 69.1627 32.7109 67.8658 32.7109H66.5148V46.5412C66.5148 47.0131 66.1316 47.3963 65.6597 47.3963C65.1877 47.3963 64.8046 47.0131 64.8046 46.5412V31.8558C64.8046 31.3835 65.1873 31.0007 65.6597 31.0007H67.5237ZM61.3089 42.5674L58.2429 38.6765L55.1768 42.5674H56.0137C56.486 42.5674 56.8688 42.9502 56.8688 43.4225V53.539C56.8688 54.0109 56.4856 54.3941 56.0137 54.3941C55.5417 54.3941 55.1586 54.0109 55.1586 53.539V44.2776H54.4323C53.2992 44.2776 52.6771 42.9769 53.3703 42.0967L53.3704 42.0965L57.1839 37.2572C57.7254 36.5647 58.7602 36.5647 59.3017 37.2572L63.1155 42.0967C63.8086 42.9769 63.1866 44.2776 62.0534 44.2776H61.3272V53.539C61.3272 54.0109 60.944 54.3941 60.4721 54.3941C60 54.3941 59.6169 54.0109 59.6169 53.539V43.4225C59.6169 42.9502 59.9997 42.5674 60.4721 42.5674H61.3089Z" fill="black"/>
</svg>
