<svg width="35" height="17" viewBox="0 0 35 17" fill="none" xmlns="http://www.w3.org/2000/svg">
<g clip-path="url(#clip0_254_314)">
<path d="M25.2871 12.8505L26.2404 10.5223H28.9932L27.6867 6.99025L29.3206 3L33.9999 15H30.5491L29.7492 12.8505H25.2871Z" fill="#3D3D3D"/>
<path d="M22.3431 15L27.3524 3H24.0318L20.6048 10.7545L18.1678 3H15.6148L12.9987 10.7545L11.1534 7.2212L9.4834 12.1894L11.1792 15H14.4476L16.8117 8.04601L19.0676 15H22.3431Z" fill="#5A0FC8"/>
<path d="M4.1524 10.8803H6.19814C6.75677 10.8879 7.31379 10.8206 7.8533 10.6804L8.38246 9.10614L9.86102 4.70628C9.74738 4.53263 9.61796 4.3691 9.4743 4.21762C8.71633 3.40587 7.60602 3 6.14336 3H1V15H4.1524V10.8803ZM6.85943 5.7608C7.15592 6.04881 7.30416 6.43456 7.30416 6.91804C7.30416 7.40151 7.17396 7.78767 6.91357 8.07652C6.62783 8.39358 6.10146 8.55211 5.33447 8.55211H4.1524V5.32816H5.3435C6.05721 5.32816 6.56273 5.47238 6.86008 5.7608H6.85943Z" fill="#3D3D3D"/>
</g>
<defs>
<clipPath id="clip0_254_314">
<rect width="33" height="12" fill="white" transform="translate(1 3)"/>
</clipPath>
</defs>
</svg>
