<svg width="54" height="54" viewBox="0 0 54 54" fill="none" xmlns="http://www.w3.org/2000/svg">
<path d="M38 32.7757L39.4223 29.2835H43.5297L41.5803 23.9854L44.0182 18L51 36H45.8512L44.6577 32.7757H38Z" fill="white"/>
<path d="M33.7113 36L41 18H36.1684L31.182 29.6318L27.6361 18H23.9214L20.1148 29.6318L17.4299 24.3318L15 31.7841L17.4674 36H22.2231L25.663 25.569L28.9453 36H33.7113Z" fill="#B481FF"/>
<path d="M7.62489 29.8204H10.6262C11.4458 29.8318 12.263 29.7309 13.0545 29.5207L13.8308 27.1592L16 20.5594C15.8333 20.299 15.6434 20.0537 15.4326 19.8264C14.3206 18.6088 12.6917 18 10.5458 18H3V36H7.62489V29.8204ZM11.5964 22.1412C12.0314 22.5732 12.2488 23.1518 12.2488 23.8771C12.2488 24.6023 12.0578 25.1815 11.6758 25.6148C11.2566 26.0904 10.4844 26.3282 9.35911 26.3282H7.62489V21.4922H9.37235C10.4194 21.4922 11.1611 21.7086 11.5973 22.1412H11.5964Z" fill="white"/>
</svg>
