<svg width="90" height="90" viewBox="0 0 90 90" fill="none" xmlns="http://www.w3.org/2000/svg">
<path d="M84 42C84 65.196 65.196 84 42 84C20.5989 84 2.93655 67.9937 0.332555 47.2989C0.113203 45.5639 0 43.7948 0 42C0 38.712 0.37718 35.5115 1.092 32.4411C5.41882 13.8515 22.092 0 42 0C61.8583 0 78.4988 13.7829 82.8737 32.3041C83.4479 34.7263 83.8097 37.2292 83.9418 39.792C83.9811 40.5239 84 41.2594 84 42Z" fill="white"/>
<path fill-rule="evenodd" clip-rule="evenodd" d="M41.4949 12.001C42.5183 11.9819 43.5201 12.2886 44.349 12.8747C45.4733 13.5697 46.7197 14.9348 48.2713 15.7986C50.4488 17.0148 54.4882 15.3369 56.5587 18.3353C57.7645 20.0827 57.8204 21.4529 57.912 22.8031C57.9769 24.5599 58.6432 26.2447 59.8045 27.5887C62.3482 30.8601 62.857 33.0493 61.5597 35.313C60.6694 36.8569 58.7921 37.7207 58.3597 38.6986C57.4338 40.7886 58.4564 42.3573 57.1896 44.7897C56.7905 45.5913 56.2263 46.304 55.5321 46.8831C54.838 47.4623 54.0288 47.8954 53.1553 48.1555C51.629 48.6519 50.1028 47.942 48.8869 48.4434C46.7451 49.327 45.1629 51.3673 43.4383 51.8836C42.1578 52.2727 40.7863 52.2727 39.5057 51.8836C37.8014 51.3872 36.2193 49.327 34.0825 48.4484C32.8616 47.9519 31.3353 48.642 29.8142 48.1604C28.9391 47.9023 28.1283 47.47 27.433 46.8907C26.7377 46.3114 26.1731 45.5977 25.7748 44.7947C24.508 42.3622 25.5306 40.7935 24.6047 38.7036C24.1723 37.7107 22.295 36.8618 21.4047 35.318C20.0972 33.0443 20.6263 30.8502 23.165 27.5936C24.3208 26.2466 24.9864 24.5636 25.0575 22.8081C25.144 21.4529 25.1999 20.0827 26.4107 18.3403C28.4762 15.3617 32.5156 17.0198 34.6981 15.8036C36.2244 14.9398 37.5013 13.5746 38.6154 12.8846C39.4505 12.2908 40.4619 11.9805 41.4949 12.001ZM41.2151 24.8434C41.5 23.4336 43.8656 24.7293 44.0183 26.9979C44.0536 27.8056 43.9853 28.6144 43.8148 29.4056H47.1928C48.5969 29.4602 49.823 30.4431 48.9581 32.0515C49.1566 32.7564 49.1871 33.5805 48.6478 33.9032C48.7095 34.3296 48.6659 34.7642 48.5208 35.1708C48.3757 35.5775 48.1332 35.9445 47.8135 36.2413C47.805 36.7458 47.6555 37.2384 47.3811 37.6661C46.9283 38.2915 46.5569 38.1625 45.8548 38.1625H40.1417C39.7501 38.1858 39.3593 38.1059 39.0102 37.9312C38.6612 37.7566 38.3667 37.4935 38.1576 37.1696V30.9842C39.8568 30.5374 40.7572 28.2638 41.21 26.7745V24.8484L41.2151 24.8434ZM34.1589 30.1055H36.7433C36.8863 30.1055 37.0235 30.161 37.1246 30.2596C37.2257 30.3583 37.2825 30.4922 37.2825 30.6317V37.6412C37.2832 37.7108 37.2698 37.7797 37.243 37.8441C37.2162 37.9085 37.1765 37.9671 37.1264 38.0165C37.0763 38.0659 37.0166 38.1051 36.9508 38.1319C36.8851 38.1586 36.8145 38.1724 36.7433 38.1724H34.1589C34.0154 38.1711 33.8782 38.1146 33.7772 38.0151C33.6762 37.9156 33.6196 37.7813 33.6196 37.6412V30.6317C33.6209 30.4926 33.6782 30.3595 33.779 30.2611C33.8799 30.1627 34.0162 30.1068 34.1589 30.1055ZM35.6444 34.757C35.7792 34.757 35.911 34.796 36.0231 34.8691C36.1352 34.9422 36.2226 35.0461 36.2742 35.1677C36.3258 35.2892 36.3393 35.423 36.313 35.552C36.2867 35.681 36.2218 35.7996 36.1264 35.8926C36.0311 35.9856 35.9096 36.049 35.7774 36.0746C35.6451 36.1003 35.5081 36.0871 35.3835 36.0368C35.2589 35.9864 35.1525 35.9012 35.0776 35.7918C35.0027 35.6824 34.9627 35.5538 34.9627 35.4222C34.9627 35.2458 35.0345 35.0766 35.1623 34.9518C35.2902 34.8271 35.4636 34.757 35.6444 34.757ZM19.7259 68.1316L25.6324 67.104L28.5474 72.1923C30.6587 74.7489 32.0018 70.5491 32.6174 69.0847L38.239 58.6648C36.9315 58.223 35.3595 56.9422 33.7366 55.5125C30.5061 55.577 27.4943 55.0161 25.2813 52.2808L18.7643 64.5474L18.1946 65.7289C17.7519 67.2628 17.986 68.2755 19.7208 68.1316H19.7259ZM63.2589 68.1316L57.3829 67.104L54.4678 72.1923C52.3515 74.7489 51.0084 70.5491 50.3979 69.0847L44.7458 58.6648C46.0532 58.223 47.6303 56.9422 49.2481 55.5125C52.4786 55.577 55.4904 55.0161 57.7034 52.2808L64.2255 64.5672L64.8054 65.7289C65.2481 67.2628 65.014 68.2755 63.2792 68.1316H63.2589ZM41.4949 19.6111C44.0236 19.6151 46.4944 20.3503 48.595 21.724C50.6956 23.0978 52.3317 25.0483 53.2966 27.329C54.2615 29.6098 54.5119 32.1185 54.0161 34.5381C53.5203 36.9577 52.3006 39.1796 50.5111 40.923C48.7216 42.6664 46.4427 43.853 43.9622 44.3329C41.4818 44.8129 38.9113 44.5646 36.5754 43.6194C34.2396 42.6742 32.2433 41.0746 30.8389 39.0227C29.4344 36.9708 28.6848 34.5587 28.6848 32.0912C28.6841 30.4505 29.0152 28.8257 29.6589 27.3099C30.3027 25.7942 31.2466 24.4172 32.4365 23.258C33.6265 22.0987 35.0391 21.1799 36.5934 20.5541C38.1478 19.9283 39.8134 19.6079 41.4949 19.6111Z" fill="#559E16"/>
</svg>
