<svg width="70" height="70" viewBox="0 0 70 70" fill="none" xmlns="http://www.w3.org/2000/svg">
<path d="M15.2551 26.7349L33.5563 20.58V10.8357L31.2426 13.1992C30.6851 13.7724 29.7726 13.78 29.2051 13.2169C28.6376 12.6538 28.6301 11.7309 29.1876 11.1577L33.81 6.4358C34.1338 6.10375 34.575 5.96108 35.0013 6.00906C35.4263 5.96108 35.8675 6.10375 36.19 6.4358L40.8138 11.1577C41.3713 11.7309 41.3638 12.6538 40.7963 13.2169C40.2288 13.78 39.3163 13.7724 38.7588 13.1992L36.4463 10.837V20.6141L54.9775 27.0227C55.6087 27.2386 55.9962 27.8535 55.955 28.4961L55.9562 28.5744V50.6208L63.6524 56.4752L63.1737 53.1812C63.0587 52.3846 63.6049 51.6435 64.3937 51.5273C65.1824 51.4112 65.9149 51.9629 66.0299 52.7596L66.9849 59.3298C67.0512 59.7932 66.8949 60.2388 66.5962 60.5519C66.3787 60.9181 66.0037 61.1845 65.5524 61.2451L59.0362 62.1339C58.2487 62.2412 57.5225 61.6819 57.4175 60.8853C57.3112 60.0886 57.865 59.3563 58.6537 59.249L61.9174 58.8046L54.5137 53.1711L35.7725 62.7904C35.5483 62.9277 35.291 63.0002 35.0288 63C34.7388 63 34.47 62.9141 34.2438 62.7664L15.7114 53.0007L8.08264 58.8046L11.3464 59.249C12.1351 59.3563 12.6889 60.0886 12.5839 60.8853C12.4776 61.6819 11.7514 62.2412 10.9639 62.1339L4.44765 61.2451C3.99641 61.1845 3.62266 60.9181 3.40391 60.5519C3.25106 60.3917 3.13656 60.1983 3.06918 59.9864C3.00179 59.7746 2.98331 59.55 3.01516 59.3298L3.97016 52.7596C4.08516 51.9629 4.81765 51.4112 5.6064 51.5273C6.39515 51.6435 6.9414 52.3846 6.8264 53.1812L6.34765 56.4752L14.0401 50.6233V28.1767C14.0401 27.4495 14.5676 26.846 15.2551 26.7349ZM35.2663 23.2818C35.18 23.2982 35.0913 23.3071 35.0013 23.3071C34.8888 23.3071 34.7775 23.2945 34.6725 23.2692L19.5101 28.3673L35.0363 35.4805L50.5537 28.5719L35.2663 23.2818ZM19.4001 43.9205C19.4001 43.5014 19.7363 43.1617 20.1513 43.1617C20.5663 43.1617 20.9026 43.5014 20.9026 43.9205L20.8988 47.0933C20.9001 47.1968 20.9113 47.2814 20.9363 47.3445L20.9751 47.3988L22.8513 48.2801C23.2276 48.4543 23.3913 48.905 23.2188 49.2851C23.0451 49.6651 22.5988 49.8305 22.2226 49.6562L20.2051 48.7018C19.8951 48.5073 19.6826 48.2422 19.5513 47.919C19.4463 47.6614 19.4001 47.3761 19.4026 47.0693L19.4001 43.9205ZM33.5825 59.1392V38.0144L16.9301 30.3861V50.3645L33.5825 59.1392ZM53.0662 30.6399L36.4738 38.0257V59.1644L53.0662 50.6486V30.6399Z" fill="#DAB068"/>
</svg>
