<svg width="70" height="70" viewBox="0 0 70 70" fill="none" xmlns="http://www.w3.org/2000/svg">
<path fill-rule="evenodd" clip-rule="evenodd" d="M46.9208 25.6426H58.4055C58.8284 25.6426 59.2339 25.8105 59.533 26.1092C59.832 26.408 60 26.8132 60 27.2357V52.4069C60 52.8294 59.832 53.2346 59.533 53.5334C59.2339 53.8322 58.8284 54 58.4055 54H46.9208C46.4979 54 46.0924 53.8322 45.7933 53.5334C45.4943 53.2346 45.3263 52.8294 45.3263 52.4069V27.2158C45.3316 26.7968 45.5019 26.3966 45.8003 26.1022C46.0988 25.8077 46.5014 25.6426 46.9208 25.6426ZM15.7278 36.9139C15.5502 36.9139 15.3798 36.8434 15.2542 36.7179C15.1286 36.5924 15.0581 36.4222 15.0581 36.2448C15.0581 36.0673 15.1286 35.8971 15.2542 35.7716C15.3798 35.6462 15.5502 35.5757 15.7278 35.5757H22.385C22.5626 35.5757 22.7329 35.6462 22.8585 35.7716C22.9841 35.8971 23.0547 36.0673 23.0547 36.2448C23.0547 36.4222 22.9841 36.5924 22.8585 36.7179C22.7329 36.8434 22.5626 36.9139 22.385 36.9139H15.7278ZM15.7278 33.1103C15.5502 33.1103 15.3798 33.0398 15.2542 32.9144C15.1286 32.7889 15.0581 32.6187 15.0581 32.4412C15.0581 32.2638 15.1286 32.0936 15.2542 31.9681C15.3798 31.8426 15.5502 31.7721 15.7278 31.7721H22.385C22.5626 31.7721 22.7329 31.8426 22.8585 31.9681C22.9841 32.0936 23.0547 32.2638 23.0547 32.4412C23.0547 32.6187 22.9841 32.7889 22.8585 32.9144C22.7329 33.0398 22.5626 33.1103 22.385 33.1103H15.7278ZM15.7278 40.7214C15.5502 40.7214 15.3798 40.6509 15.2542 40.5254C15.1286 40.4 15.0581 40.2298 15.0581 40.0523C15.0581 39.8749 15.1286 39.7047 15.2542 39.5792C15.3798 39.4537 15.5502 39.3832 15.7278 39.3832H30.6845C30.8621 39.3832 31.0325 39.4537 31.1581 39.5792C31.2837 39.7047 31.3542 39.8749 31.3542 40.0523C31.3542 40.2298 31.2837 40.4 31.1581 40.5254C31.0325 40.6509 30.8621 40.7214 30.6845 40.7214H15.7278ZM15.8514 18.7285V19.8118C15.8514 19.9643 15.9117 20.1106 16.0193 20.2188C16.1268 20.327 16.2728 20.3883 16.4254 20.3893H17.3183C17.4083 20.7853 17.5518 21.1672 17.7449 21.5244L17.0552 22.2095C16.9479 22.3183 16.8877 22.4649 16.8877 22.6177C16.8877 22.7705 16.9479 22.9171 17.0552 23.0259L17.9083 23.8783C17.9617 23.9323 18.0253 23.9753 18.0955 24.0046C18.1656 24.0339 18.2409 24.0489 18.3169 24.0489C18.3929 24.0489 18.4682 24.0339 18.5384 24.0046C18.6085 23.9753 18.6721 23.9323 18.7255 23.8783L19.3713 23.249C19.7097 23.4697 20.0755 23.6451 20.4596 23.7707V24.7385C20.4596 24.8917 20.5205 25.0386 20.6289 25.1469C20.7373 25.2552 20.8843 25.316 21.0376 25.316H22.2335C22.3865 25.315 22.5329 25.2538 22.6411 25.1457C22.7492 25.0377 22.8105 24.8914 22.8115 24.7385V23.8344C23.2076 23.7439 23.5897 23.6005 23.9476 23.4083L24.6333 24.0933C24.6867 24.1474 24.7503 24.1903 24.8204 24.2196C24.8906 24.2489 24.9658 24.264 25.0419 24.264C25.1179 24.264 25.1932 24.2489 25.2633 24.2196C25.3334 24.1903 25.3971 24.1474 25.4505 24.0933L26.3035 23.241C26.4059 23.1336 26.463 22.991 26.463 22.8427C26.463 22.6944 26.4059 22.5518 26.3035 22.4445L25.6856 21.7793C25.9027 21.4419 26.0718 21.076 26.1879 20.692H27.1606C27.2368 20.6926 27.3124 20.678 27.383 20.6492C27.4536 20.6204 27.5178 20.578 27.5719 20.5243C27.626 20.4706 27.6689 20.4068 27.6982 20.3365C27.7275 20.2661 27.7426 20.1907 27.7426 20.1145V18.9197C27.7414 18.8577 27.732 18.7961 27.7147 18.7365H52.0313C52.3116 18.7375 52.5804 18.8481 52.78 19.0446C52.9797 19.2411 53.0945 19.508 53.0997 19.7879V21.3253H54.6942V18.1948C54.6891 17.8795 54.5614 17.5786 54.3382 17.3556C54.1151 17.1327 53.8139 17.0051 53.4983 17H12.1959C11.8803 17.0051 11.5791 17.1327 11.3559 17.3556C11.1328 17.5786 11.0051 17.8795 11 18.1948V46.1221C11 46.439 11.126 46.7429 11.3503 46.9669C11.5745 47.191 11.8787 47.3169 12.1959 47.3169H41.336V42.7128H13.6589C13.3762 42.7097 13.1061 42.5955 12.9069 42.3951C12.7078 42.1946 12.5956 41.9239 12.5945 41.6414V19.7879C12.5977 19.5072 12.7109 19.239 12.91 19.0409C13.109 18.8428 13.3779 18.7306 13.6589 18.7285H15.8514ZM24.0792 18.7285C24.1765 19.0804 24.1911 19.45 24.122 19.8084C24.0528 20.1669 23.9017 20.5045 23.6804 20.795C23.4591 21.0855 23.1736 21.321 22.8462 21.4831C22.5188 21.6452 22.1584 21.7296 21.793 21.7296C21.4276 21.7296 21.0672 21.6452 20.7398 21.4831C20.4124 21.321 20.1269 21.0855 19.9056 20.795C19.6843 20.5045 19.5332 20.1669 19.464 19.8084C19.3948 19.45 19.4095 19.0804 19.5068 18.7285H24.0792ZM37.3935 22.8467L38.3383 23.7906C38.3981 23.8502 38.4455 23.921 38.4778 23.9989C38.5102 24.0768 38.5269 24.1603 38.5269 24.2447C38.5269 24.329 38.5102 24.4126 38.4778 24.4905C38.4455 24.5684 38.3981 24.6391 38.3383 24.6987L37.5769 25.4594C37.7906 25.8559 37.9502 26.2791 38.0513 26.718H39.0359C39.2051 26.719 39.3671 26.7864 39.4872 26.9055C39.6072 27.0247 39.6756 27.1862 39.6777 27.3552V28.6934C39.6787 28.7785 39.6629 28.8629 39.6312 28.9419C39.5995 29.0208 39.5524 29.0927 39.4928 29.1534C39.4331 29.2141 39.3621 29.2624 39.2836 29.2956C39.2052 29.3288 39.121 29.3461 39.0359 29.3466H37.9596C37.8295 29.7774 37.6418 30.1887 37.4015 30.5693L38.1071 31.2583C38.1667 31.3176 38.2141 31.388 38.2464 31.4656C38.2787 31.5432 38.2953 31.6264 38.2953 31.7104C38.2953 31.7944 38.2787 31.8776 38.2464 31.9552C38.2141 32.0328 38.1667 32.1032 38.1071 32.1624L37.1623 33.1103C37.103 33.1699 37.0325 33.2172 36.9549 33.2495C36.8772 33.2818 36.794 33.2984 36.7099 33.2984C36.6258 33.2984 36.5425 33.2818 36.4648 33.2495C36.3872 33.2172 36.3167 33.1699 36.2574 33.1103L35.492 32.3496C35.0959 32.5636 34.6719 32.7218 34.2323 32.8196V33.8073C34.2323 33.9774 34.1647 34.1405 34.0444 34.2607C33.924 34.381 33.7608 34.4485 33.5905 34.4485H32.2432C32.0736 34.4475 31.9114 34.3795 31.7919 34.2593C31.6724 34.1392 31.6053 33.9767 31.6054 33.8073V32.732C31.1732 32.6011 30.7604 32.4136 30.3776 32.1744L29.68 32.8714C29.5592 32.9898 29.3967 33.0562 29.2275 33.0562C29.0583 33.0562 28.8958 32.9898 28.7751 32.8714L27.8263 31.9274C27.7075 31.8061 27.641 31.6431 27.641 31.4734C27.641 31.3037 27.7075 31.1407 27.8263 31.0194L28.5877 30.2587C28.3759 29.8618 28.2177 29.4386 28.1173 29.0001H27.1287C26.9588 28.9991 26.7962 28.9312 26.676 28.8111C26.5559 28.6911 26.4879 28.5286 26.4869 28.3589V27.0207C26.4879 26.8509 26.5559 26.6884 26.676 26.5684C26.7962 26.4484 26.9588 26.3805 27.1287 26.3794H28.205C28.3383 25.9492 28.5273 25.5381 28.7671 25.1567L28.0655 24.4597C27.9467 24.3384 27.8801 24.1754 27.8801 24.0057C27.8801 23.836 27.9467 23.673 28.0655 23.5517L29.0142 22.6077C29.0735 22.5481 29.144 22.5008 29.2217 22.4686C29.2993 22.4363 29.3826 22.4197 29.4667 22.4197C29.5508 22.4197 29.6341 22.4363 29.7117 22.4686C29.7894 22.5008 29.8599 22.5481 29.9191 22.6077L30.6805 23.3724C31.079 23.1595 31.5039 23.0001 31.9442 22.8985V21.9108C31.9442 21.7414 32.0113 21.5789 32.1308 21.4588C32.2503 21.3386 32.4125 21.2706 32.582 21.2695H33.9214C34.0913 21.2706 34.2539 21.3385 34.3741 21.4585C34.4942 21.5785 34.5622 21.741 34.5632 21.9108V22.9742C34.9941 23.1051 35.4056 23.2926 35.787 23.5318L36.4886 22.8348C36.5479 22.7752 36.6184 22.7279 36.696 22.6956C36.7737 22.6633 36.857 22.6467 36.9411 22.6467C37.0252 22.6467 37.1084 22.6633 37.1861 22.6956C37.2637 22.7279 37.3342 22.7752 37.3935 22.8348V22.8467ZM33.0843 25.2364C33.6058 25.2356 34.1158 25.3894 34.5497 25.6784C34.9836 25.9674 35.322 26.3785 35.5219 26.8597C35.7218 27.3409 35.7743 27.8706 35.6728 28.3816C35.5713 28.8927 35.3202 29.3621 34.9515 29.7305C34.5827 30.099 34.1129 30.3498 33.6013 30.4512C33.0898 30.5527 32.5597 30.5002 32.0781 30.3005C31.5964 30.1007 31.1849 29.7627 30.8957 29.3291C30.6065 28.8956 30.4525 28.386 30.4533 27.865C30.4544 27.1682 30.7319 26.5002 31.2251 26.0075C31.7182 25.5147 32.3868 25.2374 33.0843 25.2364ZM27.344 49.0056H38.3423C38.3702 50.9054 39.1395 52.5901 41.2762 53.9482H24.41C26.1202 52.7096 27.344 51.216 27.344 49.0056ZM56.5359 32.1664H57.68V32.8196H56.5359V32.1664ZM52.6612 47.4404C53.001 47.4404 53.3332 47.541 53.6157 47.7297C53.8982 47.9183 54.1184 48.1864 54.2485 48.5C54.3785 48.8137 54.4126 49.1588 54.3463 49.4918C54.28 49.8248 54.1163 50.1307 53.8761 50.3707C53.6358 50.6108 53.3296 50.7743 52.9963 50.8405C52.6631 50.9068 52.3176 50.8728 52.0037 50.7429C51.6897 50.6129 51.4214 50.3929 51.2326 50.1106C51.0438 49.8283 50.9431 49.4964 50.9431 49.1569C50.9431 48.7017 51.1241 48.2651 51.4463 47.9431C51.7685 47.6212 52.2055 47.4404 52.6612 47.4404ZM47.4789 30.6729H57.8434C57.9301 30.6729 58.0132 30.7073 58.0745 30.7685C58.1358 30.8298 58.1703 30.9128 58.1703 30.9995V32.7798C58.1703 32.8667 58.136 32.9502 58.0748 33.0121C58.0136 33.074 57.9305 33.1093 57.8434 33.1103H47.4789C47.3922 33.1103 47.3091 33.0759 47.2478 33.0147C47.1865 32.9534 47.1521 32.8704 47.1521 32.7837V30.9995C47.1521 30.9128 47.1865 30.8298 47.2478 30.7685C47.3091 30.7073 47.3922 30.6729 47.4789 30.6729Z" fill="#DAB068"/>
</svg>
