<svg width="70" height="70" viewBox="0 0 70 70" fill="none" xmlns="http://www.w3.org/2000/svg">
<path fill-rule="evenodd" clip-rule="evenodd" d="M25.871 10H43.5358C44.8761 10 46.1053 10.5743 46.9823 11.4835C47.8707 12.4087 48.4068 13.6729 48.4068 15.0727V53.9273C48.4068 55.3231 47.8554 56.6032 46.9823 57.5165C46.0938 58.4417 44.8799 59 43.5358 59H25.871C24.5307 59 23.3014 58.4257 22.4245 57.5165C21.5361 56.5913 21 55.3271 21 53.9273V15.0727C21 13.6769 21.5514 12.3968 22.4245 11.4835C23.3168 10.5583 24.5307 10 25.871 10ZM25.0898 20.8871H44.3208V30.6576H25.0898V20.8871ZM35.5516 46.2106H44.3247V48.1129H35.5516V46.2106ZM25.0898 33.2378H33.2233V37.1261H25.0898V33.2378ZM35.5516 33.2298H44.3247V37.1301H35.5516V33.2298ZM35.4214 39.7222H44.1945V43.6224H35.4214V39.7222ZM25.2161 39.7262H33.3497V43.6145H25.2161V39.7262ZM25.0898 46.2146H33.2233V48.1129H25.0898V46.2146ZM34.6976 52.7668C35.8005 52.7668 36.7042 53.692 36.7042 54.8565C36.7042 56.005 35.8158 56.9462 34.6976 56.9462C33.5948 56.9462 32.6911 56.021 32.6911 54.8565C32.6949 53.708 33.5833 52.7668 34.6976 52.7668ZM22.3824 51.1796H47.0129V17.8682H22.3824V51.1796Z" fill="#DAB068"/>
</svg>
