<svg width="70" height="70" viewBox="0 0 70 70" fill="none" xmlns="http://www.w3.org/2000/svg">
<path fill-rule="evenodd" clip-rule="evenodd" d="M35.9648 21.3242V26.0742H49.0547C51.1758 26.0742 52.9102 27.8086 52.9102 29.9297V34.8008H58.1523C58.6172 34.8008 59 35.1797 59 35.6484V45.5234C59 45.9883 58.6211 46.3711 58.1523 46.3711H52.9102V51.2422C52.9102 53.3633 51.1758 55.0977 49.0547 55.0977H20.5391C18.418 55.0977 16.6836 53.3633 16.6836 51.2422V46.3711H11.8477C11.3789 46.3711 11 45.9922 11 45.5273V35.6484C11 35.1836 11.3789 34.8008 11.8477 34.8008H16.6836V29.9336C16.6836 27.8125 18.418 26.0781 20.5391 26.0781H33.6289V21.3242C32.125 20.832 31.043 19.4219 31.043 17.7539C31.043 15.6797 32.7227 14 34.7969 14C36.8711 14 38.5508 15.6797 38.5508 17.7539C38.5508 19.4219 37.4648 20.832 35.9648 21.3242ZM27.0273 45.1484H42.9687C43.7461 45.1484 44.3828 45.7852 44.3828 46.5625V47.2266C44.3828 48.0039 43.7461 48.6406 42.9687 48.6406H27.0273C26.25 48.6406 25.6133 48.0039 25.6133 47.2266V46.5625C25.6133 45.7813 26.25 45.1484 27.0273 45.1484ZM41.7422 32.5898C43.8398 32.5898 45.543 34.2891 45.543 36.3906C45.543 38.4883 43.8437 40.1875 41.7422 40.1875C39.6406 40.1875 37.9453 38.4883 37.9453 36.3906C37.9414 34.2891 39.6445 32.5898 41.7422 32.5898ZM28.2578 32.5898C30.3555 32.5898 32.0547 34.2891 32.0547 36.3906C32.0547 38.4883 30.3555 40.1875 28.2578 40.1875C26.1602 40.1875 24.4609 38.4883 24.4609 36.3906C24.4609 34.2891 26.1602 32.5898 28.2578 32.5898Z" fill="#DAB068"/>
</svg>
