<svg width="70" height="70" viewBox="0 0 70 70" fill="none" xmlns="http://www.w3.org/2000/svg">
<path fill-rule="evenodd" clip-rule="evenodd" d="M47.1448 40.3991L53.6895 43.6321C53.7303 43.6523 53.7544 43.6912 53.7544 43.7368C53.7544 43.7823 53.7303 43.8212 53.6895 43.8414L34.5516 53.2952C34.5179 53.3118 34.4819 53.3118 34.4483 53.2952L15.3105 43.8414C15.2697 43.8212 15.2455 43.7823 15.2455 43.7368C15.2455 43.6912 15.2696 43.6523 15.3105 43.6321L21.8552 40.3991C21.8889 40.3825 21.9249 40.3825 21.9585 40.3991L34.4483 46.5688C34.4819 46.5854 34.5179 46.5854 34.5516 46.5688L47.0415 40.3991C47.0751 40.3825 47.1111 40.3825 47.1448 40.3991ZM45.9417 57.9221C44.5396 57.9221 43.4029 59.0588 43.4029 60.461C43.4029 61.8632 44.5396 62.9999 45.9417 62.9999C47.4868 62.9999 48.6633 61.6356 48.4575 60.1187C48.4509 60.0706 48.4732 60.0256 48.5154 60.0017L60.4931 53.1931C60.4957 53.1916 60.498 53.1905 60.5006 53.1891C60.7959 53.0486 61 52.7475 61 52.3987V17.6012H60.9975C60.9972 17.2977 60.8384 17.003 60.5556 16.8424L48.5154 9.99831C48.4732 9.97429 48.451 9.92943 48.4575 9.88114C48.6633 8.36431 47.4868 7 45.9417 7C44.5396 7 43.4029 8.1367 43.4029 9.53888C43.4029 11.683 45.8883 12.8325 47.5224 11.5256C47.5604 11.4951 47.6105 11.4911 47.6529 11.5151L59.1909 18.0738C59.2284 18.0951 59.2499 18.1322 59.2499 18.1752V51.8244C59.2499 51.8676 59.2284 51.9045 59.1909 51.9258L47.6529 58.4845C47.6105 58.5085 47.5607 58.5047 47.5225 58.4743C47.0888 58.1289 46.5394 57.9221 45.9417 57.9221ZM23.0583 57.9221C22.4606 57.9221 21.9112 58.1289 21.4773 58.4746C21.4393 58.5049 21.3893 58.5087 21.347 58.4847L9.80892 51.926C9.77145 51.9048 9.74995 51.8677 9.74995 51.8247V18.1753C9.74995 18.1322 9.77145 18.0952 9.80892 18.074L21.347 11.5153C21.3893 11.4913 21.4395 11.4952 21.4775 11.5257C23.1121 12.8327 25.597 11.6827 25.597 9.53901C25.597 8.13683 24.4603 7.00013 23.0581 7.00013C21.5131 7.00013 20.3366 8.36444 20.5424 9.88127C20.549 9.92943 20.5267 9.97429 20.4845 9.99844L8.44425 16.8425C8.1615 17.0031 8.00264 17.2979 8.00238 17.6013H8V52.3988C8 52.7476 8.20425 53.0487 8.4994 53.1893C8.50204 53.1906 8.50428 53.1916 8.50692 53.1932L20.4845 60.0018C20.5267 60.0258 20.549 60.0707 20.5424 60.1189C20.3366 61.6357 21.5131 63 23.0581 63C24.4603 63 25.597 61.8633 25.597 60.4611C25.5971 59.0588 24.4604 57.9221 23.0583 57.9221ZM34.5516 16.7049L53.6895 26.1587C53.7303 26.1789 53.7544 26.2178 53.7544 26.2634C53.7544 26.3089 53.7303 26.3478 53.6895 26.368L34.5516 35.8218C34.5179 35.8384 34.4819 35.8384 34.4483 35.8218L15.3105 26.368C15.2697 26.3478 15.2455 26.3089 15.2455 26.2634C15.2455 26.2178 15.2696 26.1789 15.3105 26.1587L34.4483 16.7049C34.4819 16.6883 34.5179 16.6883 34.5516 16.7049ZM47.1477 31.6638C47.114 31.6472 47.078 31.6472 47.0444 31.6638L34.5516 37.835C34.5179 37.8516 34.4819 37.8516 34.4483 37.835L21.9556 31.6638C21.922 31.6472 21.886 31.6472 21.8523 31.6638L15.3105 34.8954C15.2697 34.9156 15.2455 34.9545 15.2455 35.0001C15.2455 35.0456 15.2696 35.0845 15.3105 35.1047L34.4483 44.5585C34.4819 44.5751 34.5179 44.5751 34.5516 44.5585L53.6895 35.1047C53.7303 35.0845 53.7544 35.0456 53.7544 35.0001C53.7544 34.9545 53.7303 34.9156 53.6895 34.8954L47.1477 31.6638Z" fill="#DAB068"/>
</svg>
