<svg width="76" height="72" viewBox="0 0 76 72" fill="none" xmlns="http://www.w3.org/2000/svg">
<path d="M38.001 1.2594C38.7454 1.2595 39.3964 1.60601 39.6826 2.18616L49.7891 22.6666L49.9639 23.0201L50.3535 23.0768L72.9521 26.358C73.6593 26.4613 74.2463 26.9563 74.4678 27.6354C74.6879 28.3106 74.505 29.0524 73.9932 29.5563L57.6426 45.4957L57.3604 45.7711L57.4268 46.1598L61.2881 68.6715C61.4079 69.3748 61.1186 70.0854 60.541 70.5055L60.54 70.5065C60.216 70.7429 59.8288 70.8638 59.4395 70.8639C59.1413 70.8639 58.8414 70.7921 58.5684 70.6481H58.5674L38.3496 60.0192L38.001 59.8356L37.6514 60.0192L17.4365 70.6451L17.4346 70.6461C16.806 70.9791 16.0404 70.9247 15.4639 70.5035L15.4629 70.5026L15.3574 70.4205C14.8841 70.0221 14.6376 69.4156 14.6982 68.8004L14.7158 68.6686L18.5771 46.1569L18.6436 45.7682L18.3613 45.4928L2.00781 29.5563C1.49696 29.0559 1.31316 28.3096 1.5332 27.6364C1.75479 26.9584 2.34253 26.4603 3.04883 26.3571L25.6475 23.0768L26.0381 23.0201L26.2119 22.6666L36.3184 2.18616C36.6047 1.60593 37.2564 1.2594 38.001 1.2594Z" stroke="#DAB068" stroke-width="1.5"/>
</svg>
