<svg width="76" height="72" viewBox="0 0 76 72" fill="none" xmlns="http://www.w3.org/2000/svg">
<path d="M74.517 30.0938L58.1659 46.0328L62.0273 68.5448C62.1953 69.5292 61.791 70.524 60.9825 71.112C60.5258 71.4454 59.9824 71.6134 59.439 71.6134C59.0216 71.6134 58.6016 71.5137 58.2184 71.3115L38.0007 60.6829L17.7855 71.3089C16.9035 71.7762 15.8299 71.7001 15.0214 71.1094C14.2129 70.5214 13.8087 69.5265 13.9767 68.5422L17.838 46.0302L1.48428 30.0938C0.770281 29.3956 0.510406 28.3508 0.820156 27.4032C1.12991 26.4556 1.95153 25.7599 2.94116 25.6156L25.5398 22.3343L35.646 1.85406C36.5307 0.0611806 39.4707 0.0611806 40.3553 1.85406L50.4615 22.3343L73.0602 25.6156C74.0498 25.7599 74.8714 26.4529 75.1811 27.4032C75.4909 28.3534 75.231 29.3929 74.517 30.0938Z" fill="#DAB068"/>
</svg>
