<svg width="23" height="23" viewBox="0 0 23 23" fill="none" xmlns="http://www.w3.org/2000/svg">
<path d="M13.158 3.36378L14.8446 6.73711C15.0746 7.2067 15.688 7.65711 16.2055 7.74336L19.2625 8.25128C21.2175 8.57711 21.6775 9.99545 20.2688 11.3946L17.8921 13.7713C17.4896 14.1738 17.2692 14.95 17.3938 15.5059L18.0742 18.4479C18.6109 20.7767 17.3746 21.6775 15.3142 20.4604L12.4488 18.7642C11.9313 18.4575 11.0784 18.4575 10.5513 18.7642L7.68587 20.4604C5.63504 21.6775 4.3892 20.7671 4.92587 18.4479L5.60628 15.5059C5.73087 14.95 5.51045 14.1738 5.10795 13.7713L2.73128 11.3946C1.33212 9.99545 1.78254 8.57711 3.73754 8.25128L6.79462 7.74336C7.30253 7.65711 7.91587 7.2067 8.14587 6.73711L9.83254 3.36378C10.7525 1.53336 12.2475 1.53336 13.158 3.36378Z" fill="#E0E0E0"/>
</svg>
