<svg width="70" height="70" viewBox="0 0 70 70" fill="none" xmlns="http://www.w3.org/2000/svg">
<path fill-rule="evenodd" clip-rule="evenodd" d="M41.1586 10.016C41.0335 8.69885 40.4401 7.47028 39.4861 6.5535C38.5321 5.63673 37.2808 5.09259 35.9597 5.01996L35.9045 5.01811C34.9552 4.98846 34.0051 4.99522 33.0562 5.03839L33.047 5.03932C31.7297 5.11144 30.4819 5.65324 29.5298 6.56644C28.5777 7.47965 27.9843 8.7038 27.8574 10.0169C27.8113 10.4244 27.7744 10.8382 27.7283 11.2042C26.021 11.7004 24.3734 12.3826 22.8151 13.2386L21.8933 12.4772C20.8731 11.635 19.5847 11.1867 18.262 11.2136C16.9394 11.2405 15.6702 11.7408 14.685 12.6237C14.6758 12.6348 14.6574 12.6468 14.6481 12.6578C13.9568 13.3123 13.284 13.9852 12.6479 14.6895C12.6479 14.6922 12.6387 14.695 12.6387 14.6978C11.7594 15.6803 11.2611 16.9453 11.2341 18.2635C11.207 19.5818 11.653 20.8662 12.4912 21.884L13.2379 22.8131C12.384 24.3716 11.7039 26.0192 11.2099 27.7262L10.0117 27.8405C8.69519 27.9669 7.46776 28.5615 6.5526 29.5162C5.63745 30.471 5.09532 31.7224 5.02477 33.0431C5.01556 33.0596 5.01555 33.0763 5.01555 33.0928C4.98789 34.0441 4.99714 34.9954 5.04323 35.9458V35.9559C5.11362 37.2733 5.65493 38.5216 6.56858 39.4733C7.48223 40.425 8.70732 41.0168 10.0208 41.1409C10.4263 41.1861 10.8412 41.2303 11.2007 41.2681C11.698 42.9757 12.3812 44.6236 13.2379 46.1822L12.482 47.104C11.6382 48.1237 11.1882 49.4123 11.2136 50.7356C11.239 52.0589 11.7381 53.3293 12.6203 54.316C13.2838 55.0233 13.9757 55.7035 14.6943 56.355V56.3623C15.6773 57.2423 16.9431 57.7409 18.2622 57.7676C19.5813 57.7944 20.8664 57.3475 21.8842 56.508C22.2068 56.2526 22.5294 55.9908 22.8151 55.7586C24.3729 56.6158 26.023 57.2979 27.7283 57.7948L27.8389 58.9848C27.9655 60.3111 28.5668 61.5472 29.5321 62.4654C30.4975 63.3837 31.762 63.9225 33.093 63.9827C34.0425 64.0085 34.9919 64.0085 35.9505 63.9615H35.9597C37.2762 63.8891 38.523 63.3468 39.4736 62.4333C40.4242 61.5197 41.0155 60.2955 41.1402 58.983C41.1863 58.5765 41.2324 58.1616 41.2692 57.7966C42.9765 57.3001 44.624 56.6176 46.1823 55.7613L47.1041 56.5227C48.1308 57.3706 49.4294 57.8192 50.7606 57.786C52.0918 57.7528 53.3661 57.24 54.3494 56.342C55.0407 55.6885 55.7136 55.0156 56.3588 54.3104V54.3031C57.24 53.3215 57.7396 52.0562 57.7667 50.7373C57.7938 49.4185 57.3466 48.1338 56.5064 47.1168C56.2576 46.797 55.9902 46.4725 55.7597 46.1877C56.6165 44.6292 57.2996 42.9813 57.7968 41.2737L58.986 41.1603C60.3033 41.034 61.5316 40.4397 62.4483 39.4851C63.3649 38.5306 63.9091 37.2791 63.982 35.9578V35.9071C64.0096 34.9567 64.0096 34.0045 63.9635 33.055V33.044C63.8913 31.7272 63.3494 30.48 62.4361 29.5286C61.5228 28.5773 60.2987 27.9849 58.986 27.859C58.5804 27.8138 58.1656 27.7705 57.7968 27.7317C57.2996 26.0244 56.6165 24.3769 55.7597 22.8187L56.5247 21.8959C57.3673 20.8753 57.8158 19.5863 57.7887 18.263C57.7617 16.9398 57.2609 15.6702 56.3773 14.6848C56.368 14.6719 56.3496 14.6599 56.3404 14.648C55.6859 13.9566 55.013 13.2846 54.3125 12.6459C54.3125 12.6431 54.3032 12.6412 54.3032 12.6385C53.3203 11.7583 52.0545 11.2596 50.7354 11.2327C49.4163 11.2058 48.1313 11.6526 47.1133 12.4919C46.7999 12.7482 46.4773 13.01 46.1915 13.2413C44.6333 12.385 42.9857 11.7025 41.2785 11.206L41.1586 10.016ZM37.4899 10.3663L37.7296 12.8394C37.8034 13.6285 38.3749 14.2802 39.1492 14.459C41.3523 14.9715 43.4632 15.8444 45.3897 17.0446C46.0626 17.464 46.9197 17.4069 47.5373 16.9017C47.5373 16.9017 48.4591 16.144 49.4454 15.3531C49.4454 15.3476 49.4547 15.3421 49.4639 15.3356C50.1552 14.7623 51.1693 14.7826 51.8422 15.3817C52.4605 15.9475 53.0569 16.5366 53.6304 17.1478C54.2387 17.8401 54.2572 18.8513 53.6765 19.5491L52.1003 21.4646C51.854 21.7625 51.7073 22.13 51.6808 22.5156C51.6543 22.9012 51.7494 23.2854 51.9527 23.6142C53.1554 25.5367 54.0308 27.6455 54.5429 29.8546C54.7181 30.6271 55.3725 31.1986 56.1653 31.2742C56.1653 31.2742 57.3451 31.3875 58.6079 31.5267L58.6356 31.5295C59.069 31.5709 59.4731 31.7666 59.7743 32.081C60.0755 32.3953 60.2536 32.8074 60.2764 33.2422C60.3225 34.0838 60.3225 34.9263 60.2948 35.7679C60.2699 36.2059 60.0888 36.6204 59.7844 36.9363C59.48 37.2522 59.0724 37.4486 58.6356 37.4897L56.1653 37.7267C55.3725 37.8022 54.7181 38.3738 54.5429 39.1453C54.0308 41.3547 53.1554 43.4638 51.9527 45.3867C51.5379 46.0587 51.5933 46.9242 52.1003 47.5353C52.1003 47.5353 52.8561 48.4553 53.6488 49.4416C53.658 49.449 53.6581 49.4563 53.6673 49.4628C54.2388 50.1578 54.2203 51.1672 53.6211 51.8392C53.0588 52.4614 52.4598 53.055 51.8514 53.632C51.16 54.2395 50.146 54.2551 49.4547 53.679L47.5373 52.0982C47.2393 51.8524 46.8717 51.7065 46.4863 51.681C46.1009 51.6555 45.7174 51.7518 45.3897 51.9562C43.4654 53.1543 41.3571 54.0275 39.1492 54.5409C38.3749 54.7197 37.8034 55.3723 37.7296 56.1614C37.7296 56.1614 37.6098 57.3477 37.4715 58.605V58.6318C37.4306 59.0663 37.235 59.4718 36.9203 59.7743C36.6057 60.0768 36.1928 60.2562 35.757 60.2799C34.9182 60.3205 34.0793 60.3205 33.2313 60.2984C32.7932 60.2705 32.3792 60.0877 32.0634 59.7828C31.7477 59.4778 31.5507 59.0705 31.5076 58.6336L31.2771 56.1614C31.2392 55.7769 31.0819 55.4139 30.8274 55.1233C30.5728 54.8327 30.2337 54.6291 29.8576 54.5409C27.6486 54.0309 25.5397 53.1574 23.6171 51.9562C23.2894 51.7516 22.9057 51.6553 22.5203 51.6808C22.1349 51.7062 21.7672 51.8523 21.4693 52.0982C21.4693 52.0982 20.5476 52.8568 19.5613 53.6477L19.5336 53.6643C18.8423 54.2376 17.8283 54.2183 17.1646 53.6182C16.5428 53.0529 15.9432 52.4638 15.3671 51.8521C15.0753 51.5228 14.9103 51.1003 14.9019 50.6604C14.8934 50.2205 15.042 49.792 15.321 49.4517L16.8973 47.5353C17.4043 46.9242 17.4689 46.0587 17.0449 45.3867C15.845 43.4634 14.9727 41.3543 14.4638 39.1453C14.3744 38.7695 14.17 38.431 13.8793 38.1768C13.5885 37.9225 13.2258 37.7652 12.8415 37.7267C12.8415 37.7267 11.6524 37.6133 10.3987 37.4741L10.371 37.4713C9.93726 37.4283 9.53298 37.2322 9.23063 36.9182C8.92828 36.6042 8.7477 36.1928 8.72113 35.7577C8.68426 34.917 8.68424 34.0745 8.70268 33.232C8.7672 32.3232 9.4677 31.5968 10.371 31.5111L12.8415 31.2742C13.2259 31.2356 13.5887 31.0781 13.8795 30.8237C14.1703 30.5692 14.3745 30.2305 14.4638 29.8546C14.9708 27.646 15.8465 25.5379 17.0449 23.6142C17.2502 23.2861 17.3465 22.9015 17.32 22.5154C17.2935 22.1293 17.1455 21.7615 16.8973 21.4646C16.8973 21.4646 16.1414 20.5455 15.3579 19.5583C15.3487 19.5518 15.3395 19.5445 15.3395 19.5371C14.7587 18.8421 14.7864 17.8327 15.3856 17.1608C15.9479 16.5395 16.5379 15.9458 17.1462 15.3679C17.4762 15.0753 17.8997 14.9099 18.3407 14.9014C18.7816 14.893 19.2111 15.042 19.5521 15.3218L21.4693 16.9017C22.0777 17.4069 22.9442 17.464 23.6171 17.0446C25.5397 15.8431 27.6486 14.9693 29.8576 14.459C30.2337 14.3711 30.5729 14.1677 30.8275 13.8772C31.0821 13.5867 31.2393 13.2238 31.2771 12.8394C31.2771 12.8394 31.3878 11.6531 31.526 10.3958V10.369C31.6182 9.47216 32.3464 8.77161 33.2405 8.72091C34.0886 8.68035 34.9274 8.68036 35.7662 8.70248C36.6788 8.7624 37.407 9.46663 37.4899 10.3663ZM34.5034 17.9111C25.3501 17.9111 17.9113 25.3462 17.9113 34.5032C17.9113 43.6602 25.3501 51.0953 34.5034 51.0953C43.6567 51.0953 51.0955 43.6602 51.0955 34.5032C51.0955 25.3462 43.6567 17.9111 34.5034 17.9111ZM34.5034 21.5982C41.6288 21.5982 47.4083 27.3806 47.4083 34.5032C47.4083 41.6258 41.6288 47.4081 34.5034 47.4081C27.378 47.4081 21.5984 41.6258 21.5984 34.5032C21.5984 27.3806 27.378 21.5982 34.5034 21.5982ZM39.1123 28.0507V40.9557C39.1123 41.9733 39.9419 42.7992 40.9559 42.7992C41.9698 42.7992 42.7994 41.9733 42.7994 40.9557V28.0507C42.7994 27.033 41.9698 26.2071 40.9559 26.2071C39.9419 26.2071 39.1123 27.033 39.1123 28.0507ZM26.2073 31.7378V40.9557C26.2073 41.9733 27.0369 42.7992 28.0509 42.7992C29.0649 42.7992 29.8945 41.9733 29.8945 40.9557V38.1903H33.5816V40.9557C33.5816 41.9733 34.4112 42.7992 35.4252 42.7992C36.4391 42.7992 37.2687 41.9733 37.2687 40.9557V31.7378C37.2687 28.683 34.7891 26.2071 31.738 26.2071C28.6869 26.2071 26.2073 28.683 26.2073 31.7378ZM33.5816 34.5032V31.7378C33.5816 30.7193 32.7612 29.8943 31.738 29.8943C30.7148 29.8943 29.8945 30.7193 29.8945 31.7378V34.5032H33.5816Z" fill="#DAB068"/>
</svg>
