<svg width="70" height="70" viewBox="0 0 70 70" fill="none" xmlns="http://www.w3.org/2000/svg">
<path d="M49.4167 2H20.3833C18.9031 2.00177 17.484 2.59058 16.4373 3.63728C15.3906 4.68397 14.8018 6.10309 14.8 7.58333V63.4167C14.8018 64.8969 15.3906 66.316 16.4373 67.3627C17.484 68.4094 18.9031 68.9982 20.3833 69H49.4167C50.8969 68.9982 52.316 68.4094 53.3627 67.3627C54.4094 66.316 54.9982 64.8969 55 63.4167V7.58333C54.9982 6.10309 54.4094 4.68397 53.3627 3.63728C52.316 2.59058 50.8969 2.00177 49.4167 2ZM28.2 4.23333H41.6V5.35C41.6 5.64616 41.4823 5.93019 41.2729 6.1396C41.0635 6.34902 40.7795 6.46667 40.4833 6.46667H29.3167C29.0205 6.46667 28.7365 6.34902 28.5271 6.1396C28.3176 5.93019 28.2 5.64616 28.2 5.35V4.23333ZM52.7667 63.4167C52.7667 64.3051 52.4137 65.1572 51.7855 65.7855C51.1572 66.4137 50.3051 66.7667 49.4167 66.7667H20.3833C19.4948 66.7667 18.6428 66.4137 18.0145 65.7855C17.3863 65.1572 17.0333 64.3051 17.0333 63.4167V7.58333C17.0333 6.69486 17.3863 5.84277 18.0145 5.21453C18.6428 4.58628 19.4948 4.23333 20.3833 4.23333H25.9667V5.35C25.9667 6.23848 26.3196 7.09056 26.9478 7.71881C27.5761 8.34705 28.4282 8.7 29.3167 8.7H40.4833C41.3718 8.7 42.2239 8.34705 42.8521 7.71881C43.4804 7.09056 43.8333 6.23848 43.8333 5.35V4.23333H49.4167C50.3051 4.23333 51.1572 4.58628 51.7855 5.21453C52.4137 5.84277 52.7667 6.69486 52.7667 7.58333V63.4167Z" fill="#DAB068"/>
<path d="M42.7167 62.3H27.0833C26.7872 62.3 26.5032 62.4177 26.2937 62.6271C26.0843 62.8365 25.9667 63.1205 25.9667 63.4167C25.9667 63.7128 26.0843 63.9969 26.2937 64.2063C26.5032 64.4157 26.7872 64.5334 27.0833 64.5334H42.7167C43.0128 64.5334 43.2969 64.4157 43.5063 64.2063C43.7157 63.9969 43.8333 63.7128 43.8333 63.4167C43.8333 63.1205 43.7157 62.8365 43.5063 62.6271C43.2969 62.4177 43.0128 62.3 42.7167 62.3Z" fill="#DAB068"/>
<path d="M43.8333 45.55C44.1295 45.55 44.4135 45.4323 44.6229 45.2229C44.8323 45.0135 44.95 44.7295 44.95 44.4333C44.95 44.1372 44.8323 43.8531 44.6229 43.6437C44.4135 43.4343 44.1295 43.3167 43.8333 43.3167H37.1333C36.8372 43.3167 36.5531 43.4343 36.3437 43.6437C36.1343 43.8531 36.0167 44.1372 36.0167 44.4333C36.0167 44.7295 36.1343 45.0135 36.3437 45.2229C36.5531 45.4323 36.8372 45.55 37.1333 45.55H39.3667V54.4833H37.1333C36.8372 54.4833 36.5531 54.601 36.3437 54.8104C36.1343 55.0198 36.0167 55.3038 36.0167 55.6C36.0167 55.8961 36.1343 56.1802 36.3437 56.3896C36.5531 56.599 36.8372 56.7167 37.1333 56.7167H43.8333C44.1295 56.7167 44.4135 56.599 44.6229 56.3896C44.8323 56.1802 44.95 55.8961 44.95 55.6C44.95 55.3038 44.8323 55.0198 44.6229 54.8104C44.4135 54.601 44.1295 54.4833 43.8333 54.4833H41.6V45.55H43.8333Z" fill="#DAB068"/>
<path d="M25.9667 43.3167C25.6705 43.3167 25.3865 43.4343 25.1771 43.6437C24.9677 43.8531 24.85 44.1372 24.85 44.4333V52.25C24.85 53.4346 25.3206 54.5707 26.1583 55.4084C26.996 56.2461 28.1321 56.7167 29.3167 56.7167C30.5013 56.7167 31.6375 56.2461 32.4751 55.4084C33.3128 54.5707 33.7834 53.4346 33.7834 52.25V44.4333C33.7834 44.1372 33.6657 43.8531 33.4563 43.6437C33.2469 43.4343 32.9629 43.3167 32.6667 43.3167C32.3705 43.3167 32.0865 43.4343 31.8771 43.6437C31.6677 43.8531 31.55 44.1372 31.55 44.4333V52.25C31.55 52.8423 31.3147 53.4104 30.8959 53.8292C30.4771 54.248 29.909 54.4833 29.3167 54.4833C28.7244 54.4833 28.1563 54.248 27.7375 53.8292C27.3187 53.4104 27.0834 52.8423 27.0834 52.25V44.4333C27.0834 44.1372 26.9657 43.8531 26.7563 43.6437C26.5469 43.4343 26.2629 43.3167 25.9667 43.3167Z" fill="#DAB068"/>
<path d="M29.3167 26.5667C30.5013 26.5667 31.6375 26.0961 32.4751 25.2584C33.3128 24.4207 33.7834 23.2846 33.7834 22.1V14.2833C33.7834 13.9872 33.6657 13.7031 33.4563 13.4937C33.2469 13.2843 32.9629 13.1667 32.6667 13.1667C32.3705 13.1667 32.0865 13.2843 31.8771 13.4937C31.6677 13.7031 31.55 13.9872 31.55 14.2833V22.1C31.55 22.6923 31.3147 23.2604 30.8959 23.6792C30.4771 24.098 29.909 24.3333 29.3167 24.3333C28.7244 24.3333 28.1563 24.098 27.7375 23.6792C27.3187 23.2604 27.0834 22.6923 27.0834 22.1V14.2833C27.0834 13.9872 26.9657 13.7031 26.7563 13.4937C26.5469 13.2843 26.2629 13.1667 25.9667 13.1667C25.6705 13.1667 25.3865 13.2843 25.1771 13.4937C24.9677 13.7031 24.85 13.9872 24.85 14.2833V22.1C24.85 23.2846 25.3206 24.4207 26.1583 25.2584C26.996 26.0961 28.1321 26.5667 29.3167 26.5667Z" fill="#DAB068"/>
<path d="M36.5582 26.407C36.8121 26.5595 37.116 26.6049 37.4034 26.5333C37.6907 26.4617 37.9378 26.2789 38.0903 26.0251L40.4833 22.0375L42.8763 26.0251C43.0316 26.2732 43.278 26.4504 43.5626 26.5186C43.8473 26.5869 44.1473 26.5406 44.3981 26.3899C44.649 26.2391 44.8306 25.9959 44.904 25.7126C44.9773 25.4293 44.9365 25.1285 44.7903 24.8749L41.7854 19.8667L44.7903 14.8584C44.9365 14.6049 44.9773 14.3041 44.904 14.0208C44.8306 13.7374 44.649 13.4942 44.3981 13.3435C44.1473 13.1927 43.8473 13.1465 43.5626 13.2147C43.278 13.2829 43.0316 13.4602 42.8763 13.7083L40.4833 17.6959L38.0903 13.7083C37.9351 13.4602 37.6886 13.2829 37.404 13.2147C37.1194 13.1465 36.8194 13.1927 36.5685 13.3435C36.3177 13.4942 36.136 13.7374 36.0627 14.0208C35.9893 14.3041 36.0301 14.6049 36.1763 14.8584L39.1813 19.8667L36.1763 24.8749C36.0239 25.1288 35.9784 25.4327 36.0501 25.72C36.1217 26.0073 36.3045 26.2544 36.5582 26.407Z" fill="#DAB068"/>
<path d="M47.9873 29.9613L21.1873 37.778C21.0465 37.8191 20.9152 37.8874 20.8009 37.9792C20.6865 38.0711 20.5914 38.1845 20.5209 38.3131C20.4504 38.4416 20.4059 38.5828 20.3899 38.7286C20.374 38.8744 20.3869 39.0219 20.428 39.1627C20.469 39.3034 20.5374 39.4347 20.6292 39.5491C20.721 39.6634 20.8345 39.7586 20.963 39.8291C21.0916 39.8996 21.2328 39.9441 21.3786 39.96C21.5244 39.976 21.6719 39.963 21.8126 39.922L48.6126 32.1053C48.8969 32.0224 49.1367 31.8299 49.2791 31.5703C49.4215 31.3106 49.4549 31.005 49.372 30.7207C49.289 30.4363 49.0966 30.1966 48.8369 30.0542C48.5772 29.9118 48.2716 29.8784 47.9873 29.9613Z" fill="#DAB068"/>
</svg>
